  0
SECTION
  2
HEADER
  9
$ANGBASE
  50
0.0
  9
$ANGDIR
  70
1
  9
$MEASUREMENT
  70
1
  9
$INSUNITS
  70
4
  0
ENDSEC
  0
SECTION
  2
TABLES
  0
TABLE
  2
LTYPE
  70
4
  0
LTYPE
  5
40F
  2
CONTINUOUS
  70
0
  3
Solid line
  72
65
  73
0
  40
0.0
  0
LTYPE
  5
410
  2
DASHDOT
 70
0
  3
Dash Dot ____ _ ____ _
 72
65
 73
4
 40
2.0
 49
1.25
 49
-0.25
 49
0.25
 49
-0.25
  0
LTYPE
  5
411
  2
DASHED
 70
0
  3
Dashed __ __ __ __ __
 72
65
 73
2
 40
0.75
 49
0.5
 49
-0.25
  0
LTYPE
  5
43B
  2
DOTTED
 70
0
  3
Dotted .  .  .  .
 72
65
 73
2
 40
0.2
 49
0.0
 49
-0.2
  0
ENDTAB
  0
TABLE
  2
STYLE
  70
4
  0
STYLE
  2
KICAD
  70
0
  40
0
  41
1
  42
1
  50
0
  71
0
  3
isocp.shx
  0
STYLE
  2
KICADB
  70
0
  40
0
  41
1
  42
1
  50
0
  71
0
  3
isocp.shx
  0
STYLE
  2
KICADI
  70
0
  40
0
  41
1
  42
1
  50
15
  71
0
  3
isocp.shx
  0
STYLE
  2
KICADBI
  70
0
  40
0
  41
1
  42
1
  50
15
  71
0
  3
isocp.shx
  0
ENDTAB
  0
TABLE
  2
LAYER
  70
1
  0
LAYER
  2
F.Cu
  70
0
  62
13
  420
13120564
  6
CONTINUOUS
  0
ENDTAB
  0
ENDSEC
  0
SECTION
  2
ENTITIES
0
LINE
8
F.Cu
6
CONTINUOUS
10
24.257403
20
-44.2739179999999948
11
24.3060659999999977
21
-44.3064339999999959
0
LINE
8
F.Cu
6
CONTINUOUS
10
24.3060659999999977
20
-44.3064339999999959
11
24.3385819999999988
21
-44.3550970000000007
0
LINE
8
F.Cu
6
CONTINUOUS
10
24.3385819999999988
20
-44.3550970000000007
11
24.3499999999999979
21
-44.4125000000000014
0
LINE
8
F.Cu
6
CONTINUOUS
10
24.3499999999999979
20
-44.4125000000000014
11
24.3499999999999979
21
-44.6007929999999959
0
LINE
8
F.Cu
6
CONTINUOUS
10
24.3499999999999979
20
-44.6007929999999959
11
24.3543810000000001
21
-44.6033229999999961
0
LINE
8
F.Cu
6
CONTINUOUS
10
24.3543810000000001
20
-44.6033229999999961
11
24.4466769999999975
21
-44.6956190000000007
0
LINE
8
F.Cu
6
CONTINUOUS
10
24.4466769999999975
20
-44.6956190000000007
11
24.5119399999999992
21
-44.8086580000000012
0
LINE
8
F.Cu
6
CONTINUOUS
10
24.5119399999999992
20
-44.8086580000000012
11
24.5457219999999978
21
-44.9347369999999984
0
LINE
8
F.Cu
6
CONTINUOUS
10
24.5457219999999978
20
-44.9347369999999984
11
24.5457219999999978
21
-45.0652629999999945
0
LINE
8
F.Cu
6
CONTINUOUS
10
24.5457219999999978
20
-45.0652629999999945
11
24.5119399999999992
21
-45.1913419999999988
0
LINE
8
F.Cu
6
CONTINUOUS
10
24.5119399999999992
20
-45.1913419999999988
11
24.4466769999999975
21
-45.3043809999999993
0
LINE
8
F.Cu
6
CONTINUOUS
10
24.4466769999999975
20
-45.3043809999999993
11
24.3543810000000001
21
-45.3966769999999968
0
LINE
8
F.Cu
6
CONTINUOUS
10
24.3543810000000001
20
-45.3966769999999968
11
24.3499999999999979
21
-45.3992059999999995
0
LINE
8
F.Cu
6
CONTINUOUS
10
24.3499999999999979
20
-45.3992059999999995
11
24.3499999999999979
21
-45.5874999999999986
0
LINE
8
F.Cu
6
CONTINUOUS
10
24.3499999999999979
20
-45.5874999999999986
11
24.3385819999999988
21
-45.6449029999999993
0
LINE
8
F.Cu
6
CONTINUOUS
10
24.3385819999999988
20
-45.6449029999999993
11
24.3060659999999977
21
-45.693565999999997
0
LINE
8
F.Cu
6
CONTINUOUS
10
24.3060659999999977
20
-45.693565999999997
11
24.257403
21
-45.7260819999999981
0
LINE
8
F.Cu
6
CONTINUOUS
10
24.257403
20
-45.7260819999999981
11
24.1999999999999993
21
-45.7374999999999972
0
LINE
8
F.Cu
6
CONTINUOUS
10
24.1999999999999993
20
-45.7374999999999972
11
23.8999999999999986
21
-45.7374999999999972
0
LINE
8
F.Cu
6
CONTINUOUS
10
23.8999999999999986
20
-45.7374999999999972
11
23.8425969999999978
21
-45.7260819999999981
0
LINE
8
F.Cu
6
CONTINUOUS
10
23.8425969999999978
20
-45.7260819999999981
11
23.7939340000000001
21
-45.693565999999997
0
LINE
8
F.Cu
6
CONTINUOUS
10
23.7939340000000001
20
-45.693565999999997
11
23.761417999999999
21
-45.6449029999999993
0
LINE
8
F.Cu
6
CONTINUOUS
10
23.761417999999999
20
-45.6449029999999993
11
23.75
21
-45.5874999999999986
0
LINE
8
F.Cu
6
CONTINUOUS
10
23.75
20
-45.5874999999999986
11
23.75
21
-45.5
0
LINE
8
F.Cu
6
CONTINUOUS
10
23.75
20
-45.5
11
21.5900539999999985
21
-45.5
0
LINE
8
F.Cu
6
CONTINUOUS
10
21.5900539999999985
20
-45.5
11
21.5809700000000007
21
-45.5456709999999987
0
LINE
8
F.Cu
6
CONTINUOUS
10
21.5809700000000007
20
-45.5456709999999987
11
21.5267769999999992
21
-45.626776999999997
0
LINE
8
F.Cu
6
CONTINUOUS
10
21.5267769999999992
20
-45.626776999999997
11
21.4456709999999973
21
-45.680969999999995
0
LINE
8
F.Cu
6
CONTINUOUS
10
21.4456709999999973
20
-45.680969999999995
11
21.3499999999999979
21
-45.6999999999999957
0
LINE
8
F.Cu
6
CONTINUOUS
10
21.3499999999999979
20
-45.6999999999999957
11
20.6499999999999986
21
-45.6999999999999957
0
LINE
8
F.Cu
6
CONTINUOUS
10
20.6499999999999986
20
-45.6999999999999957
11
20.5543289999999992
21
-45.680969999999995
0
LINE
8
F.Cu
6
CONTINUOUS
10
20.5543289999999992
20
-45.680969999999995
11
20.4732230000000008
21
-45.626776999999997
0
LINE
8
F.Cu
6
CONTINUOUS
10
20.4732230000000008
20
-45.626776999999997
11
20.4190299999999993
21
-45.5456709999999987
0
LINE
8
F.Cu
6
CONTINUOUS
10
20.4190299999999993
20
-45.5456709999999987
11
20.3999999999999986
21
-45.4499999999999957
0
LINE
8
F.Cu
6
CONTINUOUS
10
20.3999999999999986
20
-45.4499999999999957
11
20.3999999999999986
21
-44.5499999999999972
0
LINE
8
F.Cu
6
CONTINUOUS
10
20.3999999999999986
20
-44.5499999999999972
11
20.4190299999999993
21
-44.4543290000000013
0
LINE
8
F.Cu
6
CONTINUOUS
10
20.4190299999999993
20
-44.4543290000000013
11
20.4732230000000008
21
-44.3732229999999959
0
LINE
8
F.Cu
6
CONTINUOUS
10
20.4732230000000008
20
-44.3732229999999959
11
20.5543289999999992
21
-44.3190299999999979
0
LINE
8
F.Cu
6
CONTINUOUS
10
20.5543289999999992
20
-44.3190299999999979
11
20.6499999999999986
21
-44.2999999999999972
0
LINE
8
F.Cu
6
CONTINUOUS
10
20.6499999999999986
20
-44.2999999999999972
11
21.3499999999999979
21
-44.2999999999999972
0
LINE
8
F.Cu
6
CONTINUOUS
10
21.3499999999999979
20
-44.2999999999999972
11
21.4456709999999973
21
-44.3190299999999979
0
LINE
8
F.Cu
6
CONTINUOUS
10
21.4456709999999973
20
-44.3190299999999979
11
21.5267769999999992
21
-44.3732229999999959
0
LINE
8
F.Cu
6
CONTINUOUS
10
21.5267769999999992
20
-44.3732229999999959
11
21.5809700000000007
21
-44.4543290000000013
0
LINE
8
F.Cu
6
CONTINUOUS
10
21.5809700000000007
20
-44.4543290000000013
11
21.5900539999999985
21
-44.5
0
LINE
8
F.Cu
6
CONTINUOUS
10
21.5900539999999985
20
-44.5
11
23.75
21
-44.5
0
LINE
8
F.Cu
6
CONTINUOUS
10
23.75
20
-44.5
11
23.75
21
-44.4125000000000014
0
LINE
8
F.Cu
6
CONTINUOUS
10
23.75
20
-44.4125000000000014
11
23.761417999999999
21
-44.3550970000000007
0
LINE
8
F.Cu
6
CONTINUOUS
10
23.761417999999999
20
-44.3550970000000007
11
23.7939340000000001
21
-44.3064339999999959
0
LINE
8
F.Cu
6
CONTINUOUS
10
23.7939340000000001
20
-44.3064339999999959
11
23.8425969999999978
21
-44.2739179999999948
0
LINE
8
F.Cu
6
CONTINUOUS
10
23.8425969999999978
20
-44.2739179999999948
11
23.8999999999999986
21
-44.2624999999999957
0
LINE
8
F.Cu
6
CONTINUOUS
10
23.8999999999999986
20
-44.2624999999999957
11
24.1999999999999993
21
-44.2624999999999957
0
LINE
8
F.Cu
6
CONTINUOUS
10
24.1999999999999993
20
-44.2624999999999957
11
24.257403
21
-44.2739179999999948
0
LINE
8
F.Cu
6
CONTINUOUS
10
50.8099999999999952
20
-34.9125000000000014
11
50.4600000000000009
21
-34.9125000000000014
0
LINE
8
F.Cu
6
CONTINUOUS
10
50.4600000000000009
20
-34.9125000000000014
11
50.4600000000000009
21
-36.7370559999999955
0
LINE
8
F.Cu
6
CONTINUOUS
10
50.4600000000000009
20
-36.7370559999999955
11
50.455722999999999
21
-36.8023029999999949
0
LINE
8
F.Cu
6
CONTINUOUS
10
50.455722999999999
20
-36.8023029999999949
11
50.455722999999999
21
-36.8023189999999971
0
LINE
8
F.Cu
6
CONTINUOUS
10
50.455722999999999
20
-36.8023189999999971
11
50.4219399999999993
21
-36.9283980000000014
0
LINE
8
F.Cu
6
CONTINUOUS
10
50.4219399999999993
20
-36.9283980000000014
11
50.3566769999999977
21
-37.0414369999999948
0
LINE
8
F.Cu
6
CONTINUOUS
10
50.3566769999999977
20
-37.0414369999999948
11
50.3566679999999991
21
-37.041444999999996
0
LINE
8
F.Cu
6
CONTINUOUS
10
50.3566679999999991
20
-37.041444999999996
11
50.3135529999999989
21
-37.0906099999999981
0
LINE
8
F.Cu
6
CONTINUOUS
10
50.3135529999999989
20
-37.0906099999999981
11
42.0506090000000015
21
-45.353552999999998
0
LINE
8
F.Cu
6
CONTINUOUS
10
42.0506090000000015
20
-45.353552999999998
11
42.0014520000000005
21
-45.3966609999999946
0
LINE
8
F.Cu
6
CONTINUOUS
10
42.0014520000000005
20
-45.3966609999999946
11
42.0014369999999957
21
-45.3966769999999968
0
LINE
8
F.Cu
6
CONTINUOUS
10
42.0014369999999957
20
-45.3966769999999968
11
41.8883979999999951
21
-45.4619399999999985
0
LINE
8
F.Cu
6
CONTINUOUS
10
41.8883979999999951
20
-45.4619399999999985
11
41.762318999999998
21
-45.4957229999999981
0
LINE
8
F.Cu
6
CONTINUOUS
10
41.762318999999998
20
-45.4957229999999981
11
41.7623040000000003
21
-45.4957229999999981
0
LINE
8
F.Cu
6
CONTINUOUS
10
41.7623040000000003
20
-45.4957229999999981
11
41.6970559999999963
21
-45.5
0
LINE
8
F.Cu
6
CONTINUOUS
10
41.6970559999999963
20
-45.5
11
26.25
21
-45.5
0
LINE
8
F.Cu
6
CONTINUOUS
10
26.25
20
-45.5
11
26.25
21
-45.5874999999999986
0
LINE
8
F.Cu
6
CONTINUOUS
10
26.25
20
-45.5874999999999986
11
26.2385819999999974
21
-45.6449029999999993
0
LINE
8
F.Cu
6
CONTINUOUS
10
26.2385819999999974
20
-45.6449029999999993
11
26.2060659999999999
21
-45.693565999999997
0
LINE
8
F.Cu
6
CONTINUOUS
10
26.2060659999999999
20
-45.693565999999997
11
26.1574029999999986
21
-45.7260819999999981
0
LINE
8
F.Cu
6
CONTINUOUS
10
26.1574029999999986
20
-45.7260819999999981
11
26.0999999999999979
21
-45.7374999999999972
0
LINE
8
F.Cu
6
CONTINUOUS
10
26.0999999999999979
20
-45.7374999999999972
11
25.7999999999999972
21
-45.7374999999999972
0
LINE
8
F.Cu
6
CONTINUOUS
10
25.7999999999999972
20
-45.7374999999999972
11
25.742597
21
-45.7260819999999981
0
LINE
8
F.Cu
6
CONTINUOUS
10
25.742597
20
-45.7260819999999981
11
25.6939339999999987
21
-45.693565999999997
0
LINE
8
F.Cu
6
CONTINUOUS
10
25.6939339999999987
20
-45.693565999999997
11
25.6614179999999976
21
-45.6449029999999993
0
LINE
8
F.Cu
6
CONTINUOUS
10
25.6614179999999976
20
-45.6449029999999993
11
25.6499999999999986
21
-45.5874999999999986
0
LINE
8
F.Cu
6
CONTINUOUS
10
25.6499999999999986
20
-45.5874999999999986
11
25.6499999999999986
21
-45.3992059999999995
0
LINE
8
F.Cu
6
CONTINUOUS
10
25.6499999999999986
20
-45.3992059999999995
11
25.6456189999999999
21
-45.3966769999999968
0
LINE
8
F.Cu
6
CONTINUOUS
10
25.6456189999999999
20
-45.3966769999999968
11
25.5533229999999989
21
-45.3043809999999993
0
LINE
8
F.Cu
6
CONTINUOUS
10
25.5533229999999989
20
-45.3043809999999993
11
25.4880599999999973
21
-45.1913419999999988
0
LINE
8
F.Cu
6
CONTINUOUS
10
25.4880599999999973
20
-45.1913419999999988
11
25.4542779999999986
21
-45.0652629999999945
0
LINE
8
F.Cu
6
CONTINUOUS
10
25.4542779999999986
20
-45.0652629999999945
11
25.4542779999999986
21
-44.9347369999999984
0
LINE
8
F.Cu
6
CONTINUOUS
10
25.4542779999999986
20
-44.9347369999999984
11
25.4880599999999973
21
-44.8086580000000012
0
LINE
8
F.Cu
6
CONTINUOUS
10
25.4880599999999973
20
-44.8086580000000012
11
25.5533229999999989
21
-44.6956190000000007
0
LINE
8
F.Cu
6
CONTINUOUS
10
25.5533229999999989
20
-44.6956190000000007
11
25.6456189999999999
21
-44.6033229999999961
0
LINE
8
F.Cu
6
CONTINUOUS
10
25.6456189999999999
20
-44.6033229999999961
11
25.6499999999999986
21
-44.6007929999999959
0
LINE
8
F.Cu
6
CONTINUOUS
10
25.6499999999999986
20
-44.6007929999999959
11
25.6499999999999986
21
-44.4125000000000014
0
LINE
8
F.Cu
6
CONTINUOUS
10
25.6499999999999986
20
-44.4125000000000014
11
25.6614179999999976
21
-44.3550970000000007
0
LINE
8
F.Cu
6
CONTINUOUS
10
25.6614179999999976
20
-44.3550970000000007
11
25.6939339999999987
21
-44.3064339999999959
0
LINE
8
F.Cu
6
CONTINUOUS
10
25.6939339999999987
20
-44.3064339999999959
11
25.742597
21
-44.2739179999999948
0
LINE
8
F.Cu
6
CONTINUOUS
10
25.742597
20
-44.2739179999999948
11
25.7999999999999972
21
-44.2624999999999957
0
LINE
8
F.Cu
6
CONTINUOUS
10
25.7999999999999972
20
-44.2624999999999957
11
26.0999999999999979
21
-44.2624999999999957
0
LINE
8
F.Cu
6
CONTINUOUS
10
26.0999999999999979
20
-44.2624999999999957
11
26.1574029999999986
21
-44.2739179999999948
0
LINE
8
F.Cu
6
CONTINUOUS
10
26.1574029999999986
20
-44.2739179999999948
11
26.2060659999999999
21
-44.3064339999999959
0
LINE
8
F.Cu
6
CONTINUOUS
10
26.2060659999999999
20
-44.3064339999999959
11
26.2385819999999974
21
-44.3550970000000007
0
LINE
8
F.Cu
6
CONTINUOUS
10
26.2385819999999974
20
-44.3550970000000007
11
26.25
21
-44.4125000000000014
0
LINE
8
F.Cu
6
CONTINUOUS
10
26.25
20
-44.4125000000000014
11
26.25
21
-44.5
0
LINE
8
F.Cu
6
CONTINUOUS
10
26.25
20
-44.5
11
41.4899500000000003
21
-44.5
0
LINE
8
F.Cu
6
CONTINUOUS
10
41.4899500000000003
20
-44.5
11
49.4600000000000009
21
-36.5299489999999949
0
LINE
8
F.Cu
6
CONTINUOUS
10
49.4600000000000009
20
-36.5299489999999949
11
49.4600000000000009
21
-34.9125000000000014
0
LINE
8
F.Cu
6
CONTINUOUS
10
49.4600000000000009
20
-34.9125000000000014
11
49.1099999999999994
21
-34.9125000000000014
0
LINE
8
F.Cu
6
CONTINUOUS
10
49.1099999999999994
20
-34.9125000000000014
11
49.1099999999999994
21
-33.2124999999999986
0
LINE
8
F.Cu
6
CONTINUOUS
10
49.1099999999999994
20
-33.2124999999999986
11
50.8099999999999952
21
-33.2124999999999986
0
LINE
8
F.Cu
6
CONTINUOUS
10
50.8099999999999952
20
-33.2124999999999986
11
50.8099999999999952
21
-34.9125000000000014
0
LINE
8
F.Cu
6
CONTINUOUS
10
36.2879999999999967
20
-35.0838929999999962
11
40.353552999999998
21
-39.1494459999999975
0
LINE
8
F.Cu
6
CONTINUOUS
10
40.353552999999998
20
-39.1494459999999975
11
40.3966679999999982
21
-39.1986099999999951
0
LINE
8
F.Cu
6
CONTINUOUS
10
40.3966679999999982
20
-39.1986099999999951
11
40.3966769999999968
21
-39.1986190000000008
0
LINE
8
F.Cu
6
CONTINUOUS
10
40.3966769999999968
20
-39.1986190000000008
11
40.4619399999999985
21
-39.3116580000000013
0
LINE
8
F.Cu
6
CONTINUOUS
10
40.4619399999999985
20
-39.3116580000000013
11
40.4957229999999981
21
-39.4377369999999985
0
LINE
8
F.Cu
6
CONTINUOUS
10
40.4957229999999981
20
-39.4377369999999985
11
40.4957229999999981
21
-39.4377519999999961
0
LINE
8
F.Cu
6
CONTINUOUS
10
40.4957229999999981
20
-39.4377519999999961
11
40.5
21
-39.5030000000000001
0
LINE
8
F.Cu
6
CONTINUOUS
10
40.5
20
-39.5030000000000001
11
40.5
21
-41.9249999999999972
0
LINE
8
F.Cu
6
CONTINUOUS
10
40.5
20
-41.9249999999999972
11
40.4957229999999981
21
-41.9902469999999965
0
LINE
8
F.Cu
6
CONTINUOUS
10
40.4957229999999981
20
-41.9902469999999965
11
40.4957229999999981
21
-41.9902629999999988
0
LINE
8
F.Cu
6
CONTINUOUS
10
40.4957229999999981
20
-41.9902629999999988
11
40.4639990000000012
21
-42.1086579999999984
0
LINE
8
F.Cu
6
CONTINUOUS
10
40.4639990000000012
20
-42.1086579999999984
11
40.4619399999999985
21
-42.1163419999999959
0
LINE
8
F.Cu
6
CONTINUOUS
10
40.4619399999999985
20
-42.1163419999999959
11
40.3966769999999968
21
-42.2293809999999965
0
LINE
8
F.Cu
6
CONTINUOUS
10
40.3966769999999968
20
-42.2293809999999965
11
40.3043809999999993
21
-42.3216770000000011
0
LINE
8
F.Cu
6
CONTINUOUS
10
40.3043809999999993
20
-42.3216770000000011
11
40.1913419999999988
21
-42.3869399999999956
0
LINE
8
F.Cu
6
CONTINUOUS
10
40.1913419999999988
20
-42.3869399999999956
11
40.0652630000000016
21
-42.4207229999999953
0
LINE
8
F.Cu
6
CONTINUOUS
10
40.0652630000000016
20
-42.4207229999999953
11
39.9347369999999984
21
-42.4207229999999953
0
LINE
8
F.Cu
6
CONTINUOUS
10
39.9347369999999984
20
-42.4207229999999953
11
39.8353010000000012
21
-42.3940789999999978
0
LINE
8
F.Cu
6
CONTINUOUS
10
39.8353010000000012
20
-42.3940789999999978
11
39.8086580000000012
21
-42.3869399999999956
0
LINE
8
F.Cu
6
CONTINUOUS
10
39.8086580000000012
20
-42.3869399999999956
11
39.6956190000000007
21
-42.3216770000000011
0
LINE
8
F.Cu
6
CONTINUOUS
10
39.6956190000000007
20
-42.3216770000000011
11
39.6956029999999984
21
-42.3216609999999989
0
LINE
8
F.Cu
6
CONTINUOUS
10
39.6956029999999984
20
-42.3216609999999989
11
39.6464469999999949
21
-42.2785539999999997
0
LINE
8
F.Cu
6
CONTINUOUS
10
39.6464469999999949
20
-42.2785539999999997
11
39.5553929999999951
21
-42.1875
0
LINE
8
F.Cu
6
CONTINUOUS
10
39.5553929999999951
20
-42.1875
11
21.8196060000000003
21
-42.1875
0
LINE
8
F.Cu
6
CONTINUOUS
10
21.8196060000000003
20
-42.1875
11
19.5696769999999987
21
-44.437427999999997
0
LINE
8
F.Cu
6
CONTINUOUS
10
19.5696769999999987
20
-44.437427999999997
11
19.5809700000000007
21
-44.4543290000000013
0
LINE
8
F.Cu
6
CONTINUOUS
10
19.5809700000000007
20
-44.4543290000000013
11
19.5999999999999979
21
-44.5499999999999972
0
LINE
8
F.Cu
6
CONTINUOUS
10
19.5999999999999979
20
-44.5499999999999972
11
19.5999999999999979
21
-45.4499999999999957
0
LINE
8
F.Cu
6
CONTINUOUS
10
19.5999999999999979
20
-45.4499999999999957
11
19.5809700000000007
21
-45.5456709999999987
0
LINE
8
F.Cu
6
CONTINUOUS
10
19.5809700000000007
20
-45.5456709999999987
11
19.5267769999999992
21
-45.626776999999997
0
LINE
8
F.Cu
6
CONTINUOUS
10
19.5267769999999992
20
-45.626776999999997
11
19.4456710000000008
21
-45.680969999999995
0
LINE
8
F.Cu
6
CONTINUOUS
10
19.4456710000000008
20
-45.680969999999995
11
19.3499999999999979
21
-45.6999999999999957
0
LINE
8
F.Cu
6
CONTINUOUS
10
19.3499999999999979
20
-45.6999999999999957
11
18.6499999999999986
21
-45.6999999999999957
0
LINE
8
F.Cu
6
CONTINUOUS
10
18.6499999999999986
20
-45.6999999999999957
11
18.5543289999999992
21
-45.680969999999995
0
LINE
8
F.Cu
6
CONTINUOUS
10
18.5543289999999992
20
-45.680969999999995
11
18.4732230000000008
21
-45.626776999999997
0
LINE
8
F.Cu
6
CONTINUOUS
10
18.4732230000000008
20
-45.626776999999997
11
18.4190299999999993
21
-45.5456709999999987
0
LINE
8
F.Cu
6
CONTINUOUS
10
18.4190299999999993
20
-45.5456709999999987
11
18.3999999999999986
21
-45.4499999999999957
0
LINE
8
F.Cu
6
CONTINUOUS
10
18.3999999999999986
20
-45.4499999999999957
11
18.3999999999999986
21
-44.5499999999999972
0
LINE
8
F.Cu
6
CONTINUOUS
10
18.3999999999999986
20
-44.5499999999999972
11
18.4190299999999993
21
-44.4543290000000013
0
LINE
8
F.Cu
6
CONTINUOUS
10
18.4190299999999993
20
-44.4543290000000013
11
18.4732230000000008
21
-44.3732229999999959
0
LINE
8
F.Cu
6
CONTINUOUS
10
18.4732230000000008
20
-44.3732229999999959
11
18.5
21
-44.3553309999999996
0
LINE
8
F.Cu
6
CONTINUOUS
10
18.5
20
-44.3553309999999996
11
18.5
21
-44.2999999999999972
0
LINE
8
F.Cu
6
CONTINUOUS
10
18.5
20
-44.2999999999999972
11
18.5042769999999983
21
-44.2347520000000003
0
LINE
8
F.Cu
6
CONTINUOUS
10
18.5042769999999983
20
-44.2347520000000003
11
18.5042769999999983
21
-44.2347369999999955
0
LINE
8
F.Cu
6
CONTINUOUS
10
18.5042769999999983
20
-44.2347369999999955
11
18.538059999999998
21
-44.1086579999999984
0
LINE
8
F.Cu
6
CONTINUOUS
10
18.538059999999998
20
-44.1086579999999984
11
18.5496239999999979
21
-44.0886289999999974
0
LINE
8
F.Cu
6
CONTINUOUS
10
18.5496239999999979
20
-44.0886289999999974
11
18.6033229999999996
21
-43.9956189999999978
0
LINE
8
F.Cu
6
CONTINUOUS
10
18.6033229999999996
20
-43.9956189999999978
11
18.6033380000000008
21
-43.9956029999999956
0
LINE
8
F.Cu
6
CONTINUOUS
10
18.6033380000000008
20
-43.9956029999999956
11
18.6464469999999984
21
-43.9464469999999992
0
LINE
8
F.Cu
6
CONTINUOUS
10
18.6464469999999984
20
-43.9464469999999992
11
21.2589469999999992
21
-41.3339469999999949
0
LINE
8
F.Cu
6
CONTINUOUS
10
21.2589469999999992
20
-41.3339469999999949
11
21.3081029999999991
21
-41.2908380000000008
0
LINE
8
F.Cu
6
CONTINUOUS
10
21.3081029999999991
20
-41.2908380000000008
11
21.3081189999999978
21
-41.2908229999999961
0
LINE
8
F.Cu
6
CONTINUOUS
10
21.3081189999999978
20
-41.2908229999999961
11
21.4211579999999984
21
-41.2255600000000015
0
LINE
8
F.Cu
6
CONTINUOUS
10
21.4211579999999984
20
-41.2255600000000015
11
21.5472369999999991
21
-41.1917769999999948
0
LINE
8
F.Cu
6
CONTINUOUS
10
21.5472369999999991
20
-41.1917769999999948
11
21.5472520000000003
21
-41.1917769999999948
0
LINE
8
F.Cu
6
CONTINUOUS
10
21.5472520000000003
20
-41.1917769999999948
11
21.6125000000000007
21
-41.1875
0
LINE
8
F.Cu
6
CONTINUOUS
10
21.6125000000000007
20
-41.1875
11
39.5
21
-41.1875
0
LINE
8
F.Cu
6
CONTINUOUS
10
39.5
20
-41.1875
11
39.5
21
-39.7101059999999961
0
LINE
8
F.Cu
6
CONTINUOUS
10
39.5
20
-39.7101059999999961
11
35.5808940000000007
21
-35.7909999999999968
0
LINE
8
F.Cu
6
CONTINUOUS
10
35.5808940000000007
20
-35.7909999999999968
11
33.2629999999999981
21
-35.7909999999999968
0
LINE
8
F.Cu
6
CONTINUOUS
10
33.2629999999999981
20
-35.7909999999999968
11
33.2629999999999981
21
-34.2669999999999959
0
LINE
8
F.Cu
6
CONTINUOUS
10
33.2629999999999981
20
-34.2669999999999959
11
36.2879999999999967
21
-34.2669999999999959
0
LINE
8
F.Cu
6
CONTINUOUS
10
36.2879999999999967
20
-34.2669999999999959
11
36.2879999999999967
21
-35.0838929999999962
0
LINE
8
F.Cu
6
CONTINUOUS
10
52.5652479999999969
20
-17.0042769999999983
11
52.5652629999999945
21
-17.0042769999999983
0
LINE
8
F.Cu
6
CONTINUOUS
10
52.5652629999999945
20
-17.0042769999999983
11
52.6913419999999988
21
-17.038059999999998
0
LINE
8
F.Cu
6
CONTINUOUS
10
52.6913419999999988
20
-17.038059999999998
11
52.8043809999999993
21
-17.1033229999999996
0
LINE
8
F.Cu
6
CONTINUOUS
10
52.8043809999999993
20
-17.1033229999999996
11
52.804395999999997
21
-17.1033380000000008
0
LINE
8
F.Cu
6
CONTINUOUS
10
52.804395999999997
20
-17.1033380000000008
11
52.853552999999998
21
-17.1464469999999984
0
LINE
8
F.Cu
6
CONTINUOUS
10
52.853552999999998
20
-17.1464469999999984
11
55.353552999999998
21
-19.6464469999999984
0
LINE
8
F.Cu
6
CONTINUOUS
10
55.353552999999998
20
-19.6464469999999984
11
55.3966609999999946
21
-19.6956029999999984
0
LINE
8
F.Cu
6
CONTINUOUS
10
55.3966609999999946
20
-19.6956029999999984
11
55.3966769999999968
21
-19.6956190000000007
0
LINE
8
F.Cu
6
CONTINUOUS
10
55.3966769999999968
20
-19.6956190000000007
11
55.4604969999999966
21
-19.8061579999999999
0
LINE
8
F.Cu
6
CONTINUOUS
10
55.4604969999999966
20
-19.8061579999999999
11
55.4619399999999985
21
-19.8086579999999977
0
LINE
8
F.Cu
6
CONTINUOUS
10
55.4619399999999985
20
-19.8086579999999977
11
55.4957229999999981
21
-19.9347369999999984
0
LINE
8
F.Cu
6
CONTINUOUS
10
55.4957229999999981
20
-19.9347369999999984
11
55.4957229999999981
21
-19.9347519999999996
0
LINE
8
F.Cu
6
CONTINUOUS
10
55.4957229999999981
20
-19.9347519999999996
11
55.5
21
-20.
0
LINE
8
F.Cu
6
CONTINUOUS
10
55.5
20
-20.
11
55.5
21
-22.5
0
LINE
8
F.Cu
6
CONTINUOUS
10
55.5
20
-22.5
11
55.4957229999999981
21
-22.5652469999999994
0
LINE
8
F.Cu
6
CONTINUOUS
10
55.4957229999999981
20
-22.5652469999999994
11
55.4957229999999981
21
-22.5652629999999981
0
LINE
8
F.Cu
6
CONTINUOUS
10
55.4957229999999981
20
-22.5652629999999981
11
55.4642949999999999
21
-22.6825529999999986
0
LINE
8
F.Cu
6
CONTINUOUS
10
55.4642949999999999
20
-22.6825529999999986
11
55.4619399999999985
21
-22.6913419999999988
0
LINE
8
F.Cu
6
CONTINUOUS
10
55.4619399999999985
20
-22.6913419999999988
11
55.3966769999999968
21
-22.8043809999999993
0
LINE
8
F.Cu
6
CONTINUOUS
10
55.3966769999999968
20
-22.8043809999999993
11
55.3966679999999982
21
-22.8043890000000005
0
LINE
8
F.Cu
6
CONTINUOUS
10
55.3966679999999982
20
-22.8043890000000005
11
55.353552999999998
21
-22.853553999999999
0
LINE
8
F.Cu
6
CONTINUOUS
10
55.353552999999998
20
-22.853553999999999
11
53.7510529999999989
21
-24.4560529999999972
0
LINE
8
F.Cu
6
CONTINUOUS
10
53.7510529999999989
20
-24.4560529999999972
11
53.7018959999999979
21
-24.4991609999999973
0
LINE
8
F.Cu
6
CONTINUOUS
10
53.7018959999999979
20
-24.4991609999999973
11
53.7018810000000002
21
-24.4991769999999995
0
LINE
8
F.Cu
6
CONTINUOUS
10
53.7018810000000002
20
-24.4991769999999995
11
53.5888419999999996
21
-24.5644399999999976
0
LINE
8
F.Cu
6
CONTINUOUS
10
53.5888419999999996
20
-24.5644399999999976
11
53.4627629999999954
21
-24.5982229999999973
0
LINE
8
F.Cu
6
CONTINUOUS
10
53.4627629999999954
20
-24.5982229999999973
11
53.4627479999999977
21
-24.5982229999999973
0
LINE
8
F.Cu
6
CONTINUOUS
10
53.4627479999999977
20
-24.5982229999999973
11
53.3975000000000009
21
-24.6024999999999991
0
LINE
8
F.Cu
6
CONTINUOUS
10
53.3975000000000009
20
-24.6024999999999991
11
53.351227999999999
21
-24.6024999999999991
0
LINE
8
F.Cu
6
CONTINUOUS
10
53.351227999999999
20
-24.6024999999999991
11
53.3186539999999951
21
-24.6512499999999974
0
LINE
8
F.Cu
6
CONTINUOUS
10
53.3186539999999951
20
-24.6512499999999974
11
53.1987499999999969
21
-24.7711539999999992
0
LINE
8
F.Cu
6
CONTINUOUS
10
53.1987499999999969
20
-24.7711539999999992
11
53.0577579999999998
21
-24.8653619999999975
0
LINE
8
F.Cu
6
CONTINUOUS
10
53.0577579999999998
20
-24.8653619999999975
11
52.9010959999999955
21
-24.9302530000000004
0
LINE
8
F.Cu
6
CONTINUOUS
10
52.9010959999999955
20
-24.9302530000000004
11
52.7347849999999951
21
-24.9633349999999972
0
LINE
8
F.Cu
6
CONTINUOUS
10
52.7347849999999951
20
-24.9633349999999972
11
52.6499999999999986
21
-24.9674999999999976
0
LINE
8
F.Cu
6
CONTINUOUS
10
52.6499999999999986
20
-24.9674999999999976
11
52.3499999999999943
21
-24.9674999999999976
0
LINE
8
F.Cu
6
CONTINUOUS
10
52.3499999999999943
20
-24.9674999999999976
11
52.2652149999999978
21
-24.9633349999999972
0
LINE
8
F.Cu
6
CONTINUOUS
10
52.2652149999999978
20
-24.9633349999999972
11
52.0989039999999974
21
-24.9302530000000004
0
LINE
8
F.Cu
6
CONTINUOUS
10
52.0989039999999974
20
-24.9302530000000004
11
51.9422420000000002
21
-24.8653619999999975
0
LINE
8
F.Cu
6
CONTINUOUS
10
51.9422420000000002
20
-24.8653619999999975
11
51.801249999999996
21
-24.7711539999999992
0
LINE
8
F.Cu
6
CONTINUOUS
10
51.801249999999996
20
-24.7711539999999992
11
51.6813459999999978
21
-24.6512499999999974
0
LINE
8
F.Cu
6
CONTINUOUS
10
51.6813459999999978
20
-24.6512499999999974
11
51.648772000000001
21
-24.6024999999999991
0
LINE
8
F.Cu
6
CONTINUOUS
10
51.648772000000001
20
-24.6024999999999991
11
47.5
21
-24.6024999999999991
0
LINE
8
F.Cu
6
CONTINUOUS
10
47.5
20
-24.6024999999999991
11
45.851227999999999
21
-24.6024999999999991
0
LINE
8
F.Cu
6
CONTINUOUS
10
45.851227999999999
20
-24.6024999999999991
11
45.8186539999999951
21
-24.6512499999999974
0
LINE
8
F.Cu
6
CONTINUOUS
10
45.8186539999999951
20
-24.6512499999999974
11
45.6987499999999969
21
-24.7711539999999992
0
LINE
8
F.Cu
6
CONTINUOUS
10
45.6987499999999969
20
-24.7711539999999992
11
45.5577579999999998
21
-24.8653619999999975
0
LINE
8
F.Cu
6
CONTINUOUS
10
45.5577579999999998
20
-24.8653619999999975
11
45.4010959999999955
21
-24.9302530000000004
0
LINE
8
F.Cu
6
CONTINUOUS
10
45.4010959999999955
20
-24.9302530000000004
11
45.2347849999999951
21
-24.9633349999999972
0
LINE
8
F.Cu
6
CONTINUOUS
10
45.2347849999999951
20
-24.9633349999999972
11
45.1499999999999986
21
-24.9674999999999976
0
LINE
8
F.Cu
6
CONTINUOUS
10
45.1499999999999986
20
-24.9674999999999976
11
44.8500000000000014
21
-24.9674999999999976
0
LINE
8
F.Cu
6
CONTINUOUS
10
44.8500000000000014
20
-24.9674999999999976
11
44.8424759999999978
21
-24.9671299999999974
0
LINE
8
F.Cu
6
CONTINUOUS
10
44.8424759999999978
20
-24.9671299999999974
11
43.7849999999999966
21
-26.0246059999999986
0
LINE
8
F.Cu
6
CONTINUOUS
10
43.7849999999999966
20
-26.0246059999999986
11
43.7849999999999966
21
-41.7149999999999963
0
LINE
8
F.Cu
6
CONTINUOUS
10
43.7849999999999966
20
-41.7149999999999963
11
43.7807229999999947
21
-41.7802469999999957
0
LINE
8
F.Cu
6
CONTINUOUS
10
43.7807229999999947
20
-41.7802469999999957
11
43.7807229999999947
21
-41.7802629999999979
0
LINE
8
F.Cu
6
CONTINUOUS
10
43.7807229999999947
20
-41.7802629999999979
11
43.7477489999999989
21
-41.9033230000000003
0
LINE
8
F.Cu
6
CONTINUOUS
10
43.7477489999999989
20
-41.9033230000000003
11
43.7469399999999951
21
-41.9063419999999951
0
LINE
8
F.Cu
6
CONTINUOUS
10
43.7469399999999951
20
-41.9063419999999951
11
43.6816770000000005
21
-42.0193809999999957
0
LINE
8
F.Cu
6
CONTINUOUS
10
43.6816770000000005
20
-42.0193809999999957
11
43.6816679999999948
21
-42.0193889999999968
0
LINE
8
F.Cu
6
CONTINUOUS
10
43.6816679999999948
20
-42.0193889999999968
11
43.6385529999999946
21
-42.0685530000000014
0
LINE
8
F.Cu
6
CONTINUOUS
10
43.6385529999999946
20
-42.0685530000000014
11
42.228552999999998
21
-43.478552999999998
0
LINE
8
F.Cu
6
CONTINUOUS
10
42.228552999999998
20
-43.478552999999998
11
42.179395999999997
21
-43.5216609999999946
0
LINE
8
F.Cu
6
CONTINUOUS
10
42.179395999999997
20
-43.5216609999999946
11
42.1793809999999993
21
-43.5216769999999968
0
LINE
8
F.Cu
6
CONTINUOUS
10
42.1793809999999993
20
-43.5216769999999968
11
42.0663419999999988
21
-43.5869399999999985
0
LINE
8
F.Cu
6
CONTINUOUS
10
42.0663419999999988
20
-43.5869399999999985
11
41.9402630000000016
21
-43.6207229999999981
0
LINE
8
F.Cu
6
CONTINUOUS
10
41.9402630000000016
20
-43.6207229999999981
11
41.9402479999999969
21
-43.6207229999999981
0
LINE
8
F.Cu
6
CONTINUOUS
10
41.9402479999999969
20
-43.6207229999999981
11
41.875
21
-43.625
0
LINE
8
F.Cu
6
CONTINUOUS
10
41.875
20
-43.625
11
25.2999999999999972
21
-43.625
0
LINE
8
F.Cu
6
CONTINUOUS
10
25.2999999999999972
20
-43.625
11
25.2999999999999972
21
-43.7124999999999986
0
LINE
8
F.Cu
6
CONTINUOUS
10
25.2999999999999972
20
-43.7124999999999986
11
25.2885819999999981
21
-43.7699029999999993
0
LINE
8
F.Cu
6
CONTINUOUS
10
25.2885819999999981
20
-43.7699029999999993
11
25.2560660000000006
21
-43.818565999999997
0
LINE
8
F.Cu
6
CONTINUOUS
10
25.2560660000000006
20
-43.818565999999997
11
25.2074029999999993
21
-43.8510819999999981
0
LINE
8
F.Cu
6
CONTINUOUS
10
25.2074029999999993
20
-43.8510819999999981
11
25.1499999999999986
21
-43.8624999999999972
0
LINE
8
F.Cu
6
CONTINUOUS
10
25.1499999999999986
20
-43.8624999999999972
11
24.8499999999999979
21
-43.8624999999999972
0
LINE
8
F.Cu
6
CONTINUOUS
10
24.8499999999999979
20
-43.8624999999999972
11
24.7925969999999971
21
-43.8510819999999981
0
LINE
8
F.Cu
6
CONTINUOUS
10
24.7925969999999971
20
-43.8510819999999981
11
24.7439339999999994
21
-43.818565999999997
0
LINE
8
F.Cu
6
CONTINUOUS
10
24.7439339999999994
20
-43.818565999999997
11
24.7114179999999983
21
-43.7699029999999993
0
LINE
8
F.Cu
6
CONTINUOUS
10
24.7114179999999983
20
-43.7699029999999993
11
24.6999999999999993
21
-43.7124999999999986
0
LINE
8
F.Cu
6
CONTINUOUS
10
24.6999999999999993
20
-43.7124999999999986
11
24.6999999999999993
21
-43.5242059999999995
0
LINE
8
F.Cu
6
CONTINUOUS
10
24.6999999999999993
20
-43.5242059999999995
11
24.6956190000000007
21
-43.5216769999999968
0
LINE
8
F.Cu
6
CONTINUOUS
10
24.6956190000000007
20
-43.5216769999999968
11
24.6033229999999996
21
-43.4293809999999993
0
LINE
8
F.Cu
6
CONTINUOUS
10
24.6033229999999996
20
-43.4293809999999993
11
24.538059999999998
21
-43.3163419999999988
0
LINE
8
F.Cu
6
CONTINUOUS
10
24.538059999999998
20
-43.3163419999999988
11
24.5042779999999993
21
-43.1902629999999945
0
LINE
8
F.Cu
6
CONTINUOUS
10
24.5042779999999993
20
-43.1902629999999945
11
24.5042779999999993
21
-43.0597369999999984
0
LINE
8
F.Cu
6
CONTINUOUS
10
24.5042779999999993
20
-43.0597369999999984
11
24.538059999999998
21
-42.9336580000000012
0
LINE
8
F.Cu
6
CONTINUOUS
10
24.538059999999998
20
-42.9336580000000012
11
24.6033229999999996
21
-42.8206190000000007
0
LINE
8
F.Cu
6
CONTINUOUS
10
24.6033229999999996
20
-42.8206190000000007
11
24.6956190000000007
21
-42.7283229999999961
0
LINE
8
F.Cu
6
CONTINUOUS
10
24.6956190000000007
20
-42.7283229999999961
11
24.6999999999999993
21
-42.7257929999999959
0
LINE
8
F.Cu
6
CONTINUOUS
10
24.6999999999999993
20
-42.7257929999999959
11
24.6999999999999993
21
-42.5375000000000014
0
LINE
8
F.Cu
6
CONTINUOUS
10
24.6999999999999993
20
-42.5375000000000014
11
24.7114179999999983
21
-42.4800970000000007
0
LINE
8
F.Cu
6
CONTINUOUS
10
24.7114179999999983
20
-42.4800970000000007
11
24.7439339999999994
21
-42.4314339999999959
0
LINE
8
F.Cu
6
CONTINUOUS
10
24.7439339999999994
20
-42.4314339999999959
11
24.7925969999999971
21
-42.3989179999999948
0
LINE
8
F.Cu
6
CONTINUOUS
10
24.7925969999999971
20
-42.3989179999999948
11
24.8499999999999979
21
-42.3874999999999957
0
LINE
8
F.Cu
6
CONTINUOUS
10
24.8499999999999979
20
-42.3874999999999957
11
25.1499999999999986
21
-42.3874999999999957
0
LINE
8
F.Cu
6
CONTINUOUS
10
25.1499999999999986
20
-42.3874999999999957
11
25.2074029999999993
21
-42.3989179999999948
0
LINE
8
F.Cu
6
CONTINUOUS
10
25.2074029999999993
20
-42.3989179999999948
11
25.2560660000000006
21
-42.4314339999999959
0
LINE
8
F.Cu
6
CONTINUOUS
10
25.2560660000000006
20
-42.4314339999999959
11
25.2885819999999981
21
-42.4800970000000007
0
LINE
8
F.Cu
6
CONTINUOUS
10
25.2885819999999981
20
-42.4800970000000007
11
25.2999999999999972
21
-42.5375000000000014
0
LINE
8
F.Cu
6
CONTINUOUS
10
25.2999999999999972
20
-42.5375000000000014
11
25.2999999999999972
21
-42.625
0
LINE
8
F.Cu
6
CONTINUOUS
10
25.2999999999999972
20
-42.625
11
41.6678939999999969
21
-42.625
0
LINE
8
F.Cu
6
CONTINUOUS
10
41.6678939999999969
20
-42.625
11
42.7849999999999966
21
-41.5078940000000003
0
LINE
8
F.Cu
6
CONTINUOUS
10
42.7849999999999966
20
-41.5078940000000003
11
42.7849999999999966
21
-25.817499999999999
0
LINE
8
F.Cu
6
CONTINUOUS
10
42.7849999999999966
20
-25.817499999999999
11
42.7892769999999985
21
-25.7522519999999986
0
LINE
8
F.Cu
6
CONTINUOUS
10
42.7892769999999985
20
-25.7522519999999986
11
42.7892769999999985
21
-25.7522369999999974
0
LINE
8
F.Cu
6
CONTINUOUS
10
42.7892769999999985
20
-25.7522369999999974
11
42.8230599999999981
21
-25.6261580000000002
0
LINE
8
F.Cu
6
CONTINUOUS
10
42.8230599999999981
20
-25.6261580000000002
11
42.8373899999999992
21
-25.6013379999999984
0
LINE
8
F.Cu
6
CONTINUOUS
10
42.8373899999999992
20
-25.6013379999999984
11
42.8883229999999998
21
-25.5131189999999997
0
LINE
8
F.Cu
6
CONTINUOUS
10
42.8883229999999998
20
-25.5131189999999997
11
42.8883379999999974
21
-25.5131029999999974
0
LINE
8
F.Cu
6
CONTINUOUS
10
42.8883379999999974
20
-25.5131029999999974
11
42.9314469999999986
21
-25.4639469999999974
0
LINE
8
F.Cu
6
CONTINUOUS
10
42.9314469999999986
20
-25.4639469999999974
11
44.0279729999999958
21
-24.3674199999999992
0
LINE
8
F.Cu
6
CONTINUOUS
10
44.0279729999999958
20
-24.3674199999999992
11
44.0222470000000001
21
-24.3535959999999996
0
LINE
8
F.Cu
6
CONTINUOUS
10
44.0222470000000001
20
-24.3535959999999996
11
43.9891649999999998
21
-24.1872849999999993
0
LINE
8
F.Cu
6
CONTINUOUS
10
43.9891649999999998
20
-24.1872849999999993
11
43.9891649999999998
21
-24.017714999999999
0
LINE
8
F.Cu
6
CONTINUOUS
10
43.9891649999999998
20
-24.017714999999999
11
44.0222470000000001
21
-23.8514039999999987
0
LINE
8
F.Cu
6
CONTINUOUS
10
44.0222470000000001
20
-23.8514039999999987
11
44.0871379999999959
21
-23.694741999999998
0
LINE
8
F.Cu
6
CONTINUOUS
10
44.0871379999999959
20
-23.694741999999998
11
44.1813459999999978
21
-23.5537499999999973
0
LINE
8
F.Cu
6
CONTINUOUS
10
44.1813459999999978
20
-23.5537499999999973
11
44.301249999999996
21
-23.4338459999999991
0
LINE
8
F.Cu
6
CONTINUOUS
10
44.301249999999996
20
-23.4338459999999991
11
44.4422420000000002
21
-23.3396379999999972
0
LINE
8
F.Cu
6
CONTINUOUS
10
44.4422420000000002
20
-23.3396379999999972
11
44.5989039999999974
21
-23.2747469999999979
0
LINE
8
F.Cu
6
CONTINUOUS
10
44.5989039999999974
20
-23.2747469999999979
11
44.7652149999999978
21
-23.2416649999999976
0
LINE
8
F.Cu
6
CONTINUOUS
10
44.7652149999999978
20
-23.2416649999999976
11
44.8500000000000014
21
-23.2375000000000007
0
LINE
8
F.Cu
6
CONTINUOUS
10
44.8500000000000014
20
-23.2375000000000007
11
45.1499999999999986
21
-23.2375000000000007
0
LINE
8
F.Cu
6
CONTINUOUS
10
45.1499999999999986
20
-23.2375000000000007
11
45.2347849999999951
21
-23.2416649999999976
0
LINE
8
F.Cu
6
CONTINUOUS
10
45.2347849999999951
20
-23.2416649999999976
11
45.4010959999999955
21
-23.2747469999999979
0
LINE
8
F.Cu
6
CONTINUOUS
10
45.4010959999999955
20
-23.2747469999999979
11
45.5577579999999998
21
-23.3396379999999972
0
LINE
8
F.Cu
6
CONTINUOUS
10
45.5577579999999998
20
-23.3396379999999972
11
45.6987499999999969
21
-23.4338459999999991
0
LINE
8
F.Cu
6
CONTINUOUS
10
45.6987499999999969
20
-23.4338459999999991
11
45.8186539999999951
21
-23.5537499999999973
0
LINE
8
F.Cu
6
CONTINUOUS
10
45.8186539999999951
20
-23.5537499999999973
11
45.851227999999999
21
-23.6024999999999991
0
LINE
8
F.Cu
6
CONTINUOUS
10
45.851227999999999
20
-23.6024999999999991
11
47.5
21
-23.6024999999999991
0
LINE
8
F.Cu
6
CONTINUOUS
10
47.5
20
-23.6024999999999991
11
51.648772000000001
21
-23.6024999999999991
0
LINE
8
F.Cu
6
CONTINUOUS
10
51.648772000000001
20
-23.6024999999999991
11
51.6813459999999978
21
-23.5537499999999973
0
LINE
8
F.Cu
6
CONTINUOUS
10
51.6813459999999978
20
-23.5537499999999973
11
51.801249999999996
21
-23.4338459999999991
0
LINE
8
F.Cu
6
CONTINUOUS
10
51.801249999999996
20
-23.4338459999999991
11
51.9422420000000002
21
-23.3396379999999972
0
LINE
8
F.Cu
6
CONTINUOUS
10
51.9422420000000002
20
-23.3396379999999972
11
52.0989039999999974
21
-23.2747469999999979
0
LINE
8
F.Cu
6
CONTINUOUS
10
52.0989039999999974
20
-23.2747469999999979
11
52.2652149999999978
21
-23.2416649999999976
0
LINE
8
F.Cu
6
CONTINUOUS
10
52.2652149999999978
20
-23.2416649999999976
11
52.3499999999999943
21
-23.2375000000000007
0
LINE
8
F.Cu
6
CONTINUOUS
10
52.3499999999999943
20
-23.2375000000000007
11
52.6499999999999986
21
-23.2375000000000007
0
LINE
8
F.Cu
6
CONTINUOUS
10
52.6499999999999986
20
-23.2375000000000007
11
52.7347849999999951
21
-23.2416649999999976
0
LINE
8
F.Cu
6
CONTINUOUS
10
52.7347849999999951
20
-23.2416649999999976
11
52.9010959999999955
21
-23.2747469999999979
0
LINE
8
F.Cu
6
CONTINUOUS
10
52.9010959999999955
20
-23.2747469999999979
11
53.0577579999999998
21
-23.3396379999999972
0
LINE
8
F.Cu
6
CONTINUOUS
10
53.0577579999999998
20
-23.3396379999999972
11
53.1987499999999969
21
-23.4338459999999991
0
LINE
8
F.Cu
6
CONTINUOUS
10
53.1987499999999969
20
-23.4338459999999991
11
53.2788979999999981
21
-23.5139940000000003
0
LINE
8
F.Cu
6
CONTINUOUS
10
53.2788979999999981
20
-23.5139940000000003
11
54.5
21
-22.2928929999999994
0
LINE
8
F.Cu
6
CONTINUOUS
10
54.5
20
-22.2928929999999994
11
54.5
21
-20.2071059999999996
0
LINE
8
F.Cu
6
CONTINUOUS
10
54.5
20
-20.2071059999999996
11
52.2928939999999969
21
-18.
0
LINE
8
F.Cu
6
CONTINUOUS
10
52.2928939999999969
20
-18.
11
50.202106999999998
21
-18.
0
LINE
8
F.Cu
6
CONTINUOUS
10
50.202106999999998
20
-18.
11
47.8510530000000003
21
-20.3510530000000003
0
LINE
8
F.Cu
6
CONTINUOUS
10
47.8510530000000003
20
-20.3510530000000003
11
47.8018959999999993
21
-20.3941610000000004
0
LINE
8
F.Cu
6
CONTINUOUS
10
47.8018959999999993
20
-20.3941610000000004
11
47.8018809999999945
21
-20.3941769999999991
0
LINE
8
F.Cu
6
CONTINUOUS
10
47.8018809999999945
20
-20.3941769999999991
11
47.6888420000000011
21
-20.4594400000000007
0
LINE
8
F.Cu
6
CONTINUOUS
10
47.6888420000000011
20
-20.4594400000000007
11
47.5627629999999968
21
-20.4932230000000004
0
LINE
8
F.Cu
6
CONTINUOUS
10
47.5627629999999968
20
-20.4932230000000004
11
47.4322370000000006
21
-20.4932230000000004
0
LINE
8
F.Cu
6
CONTINUOUS
10
47.4322370000000006
20
-20.4932230000000004
11
47.3061579999999964
21
-20.4594400000000007
0
LINE
8
F.Cu
6
CONTINUOUS
10
47.3061579999999964
20
-20.4594400000000007
11
47.2647830000000013
21
-20.4355510000000002
0
LINE
8
F.Cu
6
CONTINUOUS
10
47.2647830000000013
20
-20.4355510000000002
11
47.1931200000000004
21
-20.3941769999999991
0
LINE
8
F.Cu
6
CONTINUOUS
10
47.1931200000000004
20
-20.3941769999999991
11
47.1439469999999972
21
-20.3510539999999978
0
LINE
8
F.Cu
6
CONTINUOUS
10
47.1439469999999972
20
-20.3510539999999978
11
47.0818930000000009
21
-20.2889999999999979
0
LINE
8
F.Cu
6
CONTINUOUS
10
47.0818930000000009
20
-20.2889999999999979
11
36.2879999999999967
21
-20.2889999999999979
0
LINE
8
F.Cu
6
CONTINUOUS
10
36.2879999999999967
20
-20.2889999999999979
11
36.2879999999999967
21
-20.5509999999999984
0
LINE
8
F.Cu
6
CONTINUOUS
10
36.2879999999999967
20
-20.5509999999999984
11
33.2629999999999981
21
-20.5509999999999984
0
LINE
8
F.Cu
6
CONTINUOUS
10
33.2629999999999981
20
-20.5509999999999984
11
33.2629999999999981
21
-19.0269999999999975
0
LINE
8
F.Cu
6
CONTINUOUS
10
33.2629999999999981
20
-19.0269999999999975
11
36.2879999999999967
21
-19.0269999999999975
0
LINE
8
F.Cu
6
CONTINUOUS
10
36.2879999999999967
20
-19.0269999999999975
11
36.2879999999999967
21
-19.2889999999999979
0
LINE
8
F.Cu
6
CONTINUOUS
10
36.2879999999999967
20
-19.2889999999999979
11
47.2889999999999944
21
-19.2889999999999979
0
LINE
8
F.Cu
6
CONTINUOUS
10
47.2889999999999944
20
-19.2889999999999979
11
47.3542479999999983
21
-19.2932769999999998
0
LINE
8
F.Cu
6
CONTINUOUS
10
47.3542479999999983
20
-19.2932769999999998
11
47.354262999999996
21
-19.2932769999999998
0
LINE
8
F.Cu
6
CONTINUOUS
10
47.354262999999996
20
-19.2932769999999998
11
47.4649560000000008
21
-19.3229369999999996
0
LINE
8
F.Cu
6
CONTINUOUS
10
47.4649560000000008
20
-19.3229369999999996
11
49.6414459999999949
21
-17.1464469999999984
0
LINE
8
F.Cu
6
CONTINUOUS
10
49.6414459999999949
20
-17.1464469999999984
11
49.6906099999999995
21
-17.1033310000000007
0
LINE
8
F.Cu
6
CONTINUOUS
10
49.6906099999999995
20
-17.1033310000000007
11
49.6906189999999981
21
-17.1033229999999996
0
LINE
8
F.Cu
6
CONTINUOUS
10
49.6906189999999981
20
-17.1033229999999996
11
49.8036579999999987
21
-17.038059999999998
0
LINE
8
F.Cu
6
CONTINUOUS
10
49.8036579999999987
20
-17.038059999999998
11
49.9297369999999958
21
-17.0042769999999983
0
LINE
8
F.Cu
6
CONTINUOUS
10
49.9297369999999958
20
-17.0042769999999983
11
49.9297520000000006
21
-17.0042769999999983
0
LINE
8
F.Cu
6
CONTINUOUS
10
49.9297520000000006
20
-17.0042769999999983
11
49.9949999999999974
21
-17.
0
LINE
8
F.Cu
6
CONTINUOUS
10
49.9949999999999974
20
-17.
11
52.5
21
-17.
0
LINE
8
F.Cu
6
CONTINUOUS
10
52.5
20
-17.
11
52.5652479999999969
21
-17.0042769999999983
0
LINE
8
F.Cu
6
CONTINUOUS
10
20.3179999999999978
20
-38.330999999999996
11
17.2929999999999993
21
-38.330999999999996
0
LINE
8
F.Cu
6
CONTINUOUS
10
17.2929999999999993
20
-38.330999999999996
11
17.2929999999999993
21
-36.8069999999999951
0
LINE
8
F.Cu
6
CONTINUOUS
10
17.2929999999999993
20
-36.8069999999999951
11
20.3179999999999978
21
-36.8069999999999951
0
LINE
8
F.Cu
6
CONTINUOUS
10
20.3179999999999978
20
-36.8069999999999951
11
20.3179999999999978
21
-38.330999999999996
0
LINE
8
F.Cu
6
CONTINUOUS
10
36.2879999999999967
20
-38.330999999999996
11
33.2629999999999981
21
-38.330999999999996
0
LINE
8
F.Cu
6
CONTINUOUS
10
33.2629999999999981
20
-38.330999999999996
11
33.2629999999999981
21
-36.8069999999999951
0
LINE
8
F.Cu
6
CONTINUOUS
10
33.2629999999999981
20
-36.8069999999999951
11
36.2879999999999967
21
-36.8069999999999951
0
LINE
8
F.Cu
6
CONTINUOUS
10
36.2879999999999967
20
-36.8069999999999951
11
36.2879999999999967
21
-38.330999999999996
0
LINE
8
F.Cu
6
CONTINUOUS
10
20.3179999999999978
20
-35.7909999999999968
11
17.2929999999999993
21
-35.7909999999999968
0
LINE
8
F.Cu
6
CONTINUOUS
10
17.2929999999999993
20
-35.7909999999999968
11
17.2929999999999993
21
-34.2669999999999959
0
LINE
8
F.Cu
6
CONTINUOUS
10
17.2929999999999993
20
-34.2669999999999959
11
20.3179999999999978
21
-34.2669999999999959
0
LINE
8
F.Cu
6
CONTINUOUS
10
20.3179999999999978
20
-34.2669999999999959
11
20.3179999999999978
21
-35.7909999999999968
0
LINE
8
F.Cu
6
CONTINUOUS
10
46.0150000000000006
20
-22.4274999999999984
11
43.9849999999999994
21
-22.4274999999999984
0
LINE
8
F.Cu
6
CONTINUOUS
10
43.9849999999999994
20
-22.4274999999999984
11
43.9849999999999994
21
-20.9510000000000005
0
LINE
8
F.Cu
6
CONTINUOUS
10
43.9849999999999994
20
-20.9510000000000005
11
30.8194209999999984
21
-20.9510000000000005
0
LINE
8
F.Cu
6
CONTINUOUS
10
30.8194209999999984
20
-20.9510000000000005
11
20.0434219999999996
21
-31.7270000000000003
0
LINE
8
F.Cu
6
CONTINUOUS
10
20.0434219999999996
20
-31.7270000000000003
11
20.3179999999999978
21
-31.7270000000000003
0
LINE
8
F.Cu
6
CONTINUOUS
10
20.3179999999999978
20
-31.7270000000000003
11
20.3179999999999978
21
-33.2509999999999977
0
LINE
8
F.Cu
6
CONTINUOUS
10
20.3179999999999978
20
-33.2509999999999977
11
17.2929999999999993
21
-33.2509999999999977
0
LINE
8
F.Cu
6
CONTINUOUS
10
17.2929999999999993
20
-33.2509999999999977
11
17.2929999999999993
21
-31.7270000000000003
0
LINE
8
F.Cu
6
CONTINUOUS
10
17.2929999999999993
20
-31.7270000000000003
11
19.7605779999999989
21
-31.7270000000000003
0
LINE
8
F.Cu
6
CONTINUOUS
10
19.7605779999999989
20
-31.7270000000000003
11
30.7072889999999994
21
-20.7802900000000008
0
LINE
8
F.Cu
6
CONTINUOUS
10
30.7072889999999994
20
-20.7802900000000008
11
30.7224419999999974
21
-20.7678529999999988
0
LINE
8
F.Cu
6
CONTINUOUS
10
30.7224419999999974
20
-20.7678529999999988
11
30.732999999999997
21
-20.7634790000000002
0
LINE
8
F.Cu
6
CONTINUOUS
10
30.732999999999997
20
-20.7634790000000002
11
30.7584909999999994
21
-20.7529210000000006
0
LINE
8
F.Cu
6
CONTINUOUS
10
30.7584909999999994
20
-20.7529210000000006
11
30.7779999999999987
21
-20.7509999999999977
0
LINE
8
F.Cu
6
CONTINUOUS
10
30.7779999999999987
20
-20.7509999999999977
11
43.9849999999999994
21
-20.7509999999999977
0
LINE
8
F.Cu
6
CONTINUOUS
10
43.9849999999999994
20
-20.7509999999999977
11
43.9849999999999994
21
-20.697499999999998
0
LINE
8
F.Cu
6
CONTINUOUS
10
43.9849999999999994
20
-20.697499999999998
11
46.0150000000000006
21
-20.697499999999998
0
LINE
8
F.Cu
6
CONTINUOUS
10
46.0150000000000006
20
-20.697499999999998
11
46.0150000000000006
21
-22.4274999999999984
0
LINE
8
F.Cu
6
CONTINUOUS
10
36.2879999999999967
20
-33.2509999999999977
11
33.2629999999999981
21
-33.2509999999999977
0
LINE
8
F.Cu
6
CONTINUOUS
10
33.2629999999999981
20
-33.2509999999999977
11
33.2629999999999981
21
-31.7270000000000003
0
LINE
8
F.Cu
6
CONTINUOUS
10
33.2629999999999981
20
-31.7270000000000003
11
36.2879999999999967
21
-31.7270000000000003
0
LINE
8
F.Cu
6
CONTINUOUS
10
36.2879999999999967
20
-31.7270000000000003
11
36.2879999999999967
21
-33.2509999999999977
0
LINE
8
F.Cu
6
CONTINUOUS
10
20.3179999999999978
20
-30.7109999999999985
11
17.2929999999999993
21
-30.7109999999999985
0
LINE
8
F.Cu
6
CONTINUOUS
10
17.2929999999999993
20
-30.7109999999999985
11
17.2929999999999993
21
-29.1869999999999976
0
LINE
8
F.Cu
6
CONTINUOUS
10
17.2929999999999993
20
-29.1869999999999976
11
20.3179999999999978
21
-29.1869999999999976
0
LINE
8
F.Cu
6
CONTINUOUS
10
20.3179999999999978
20
-29.1869999999999976
11
20.3179999999999978
21
-30.7109999999999985
0
LINE
8
F.Cu
6
CONTINUOUS
10
53.5150000000000006
20
-22.4274999999999984
11
51.7764219999999966
21
-22.4274999999999984
0
LINE
8
F.Cu
6
CONTINUOUS
10
51.7764219999999966
20
-22.4274999999999984
11
51.1957109999999957
21
-23.0082109999999993
0
LINE
8
F.Cu
6
CONTINUOUS
10
51.1957109999999957
20
-23.0082109999999993
11
51.1805570000000003
21
-23.0206470000000003
0
LINE
8
F.Cu
6
CONTINUOUS
10
51.1805570000000003
20
-23.0206470000000003
11
51.1445089999999993
21
-23.0355789999999985
0
LINE
8
F.Cu
6
CONTINUOUS
10
51.1445089999999993
20
-23.0355789999999985
11
51.125
21
-23.0374999999999979
0
LINE
8
F.Cu
6
CONTINUOUS
10
51.125
20
-23.0374999999999979
11
42.5789210000000011
21
-23.0374999999999979
0
LINE
8
F.Cu
6
CONTINUOUS
10
42.5789210000000011
20
-23.0374999999999979
11
36.2879999999999967
21
-29.3284209999999987
0
LINE
8
F.Cu
6
CONTINUOUS
10
36.2879999999999967
20
-29.3284209999999987
11
36.2879999999999967
21
-30.7109999999999985
0
LINE
8
F.Cu
6
CONTINUOUS
10
36.2879999999999967
20
-30.7109999999999985
11
33.2629999999999981
21
-30.7109999999999985
0
LINE
8
F.Cu
6
CONTINUOUS
10
33.2629999999999981
20
-30.7109999999999985
11
33.2629999999999981
21
-29.1869999999999976
0
LINE
8
F.Cu
6
CONTINUOUS
10
33.2629999999999981
20
-29.1869999999999976
11
36.1465779999999981
21
-29.1869999999999976
0
LINE
8
F.Cu
6
CONTINUOUS
10
36.1465779999999981
20
-29.1869999999999976
11
42.4667889999999986
21
-22.8667899999999982
0
LINE
8
F.Cu
6
CONTINUOUS
10
42.4667889999999986
20
-22.8667899999999982
11
42.4819419999999965
21
-22.8543529999999997
0
LINE
8
F.Cu
6
CONTINUOUS
10
42.4819419999999965
20
-22.8543529999999997
11
42.4924999999999997
21
-22.8499789999999976
0
LINE
8
F.Cu
6
CONTINUOUS
10
42.4924999999999997
20
-22.8499789999999976
11
42.517990999999995
21
-22.839420999999998
0
LINE
8
F.Cu
6
CONTINUOUS
10
42.517990999999995
20
-22.839420999999998
11
42.5375000000000014
21
-22.8374999999999986
0
LINE
8
F.Cu
6
CONTINUOUS
10
42.5375000000000014
20
-22.8374999999999986
11
51.0835779999999957
21
-22.8374999999999986
0
LINE
8
F.Cu
6
CONTINUOUS
10
51.0835779999999957
20
-22.8374999999999986
11
51.4935779999999994
21
-22.4274999999999984
0
LINE
8
F.Cu
6
CONTINUOUS
10
51.4935779999999994
20
-22.4274999999999984
11
51.4849999999999994
21
-22.4274999999999984
0
LINE
8
F.Cu
6
CONTINUOUS
10
51.4849999999999994
20
-22.4274999999999984
11
51.4849999999999994
21
-20.697499999999998
0
LINE
8
F.Cu
6
CONTINUOUS
10
51.4849999999999994
20
-20.697499999999998
11
53.5150000000000006
21
-20.697499999999998
0
LINE
8
F.Cu
6
CONTINUOUS
10
53.5150000000000006
20
-20.697499999999998
11
53.5150000000000006
21
-22.4274999999999984
0
LINE
8
F.Cu
6
CONTINUOUS
10
20.3179999999999978
20
-28.1709999999999994
11
17.2929999999999993
21
-28.1709999999999994
0
LINE
8
F.Cu
6
CONTINUOUS
10
17.2929999999999993
20
-28.1709999999999994
11
17.2929999999999993
21
-26.6469999999999985
0
LINE
8
F.Cu
6
CONTINUOUS
10
17.2929999999999993
20
-26.6469999999999985
11
20.3179999999999978
21
-26.6469999999999985
0
LINE
8
F.Cu
6
CONTINUOUS
10
20.3179999999999978
20
-26.6469999999999985
11
20.3179999999999978
21
-28.1709999999999994
0
LINE
8
F.Cu
6
CONTINUOUS
10
36.2879999999999967
20
-28.1709999999999994
11
33.2629999999999981
21
-28.1709999999999994
0
LINE
8
F.Cu
6
CONTINUOUS
10
33.2629999999999981
20
-28.1709999999999994
11
33.2629999999999981
21
-26.6469999999999985
0
LINE
8
F.Cu
6
CONTINUOUS
10
33.2629999999999981
20
-26.6469999999999985
11
36.2879999999999967
21
-26.6469999999999985
0
LINE
8
F.Cu
6
CONTINUOUS
10
36.2879999999999967
20
-26.6469999999999985
11
36.2879999999999967
21
-28.1709999999999994
0
LINE
8
F.Cu
6
CONTINUOUS
10
20.3179999999999978
20
-25.6310000000000002
11
17.2929999999999993
21
-25.6310000000000002
0
LINE
8
F.Cu
6
CONTINUOUS
10
17.2929999999999993
20
-25.6310000000000002
11
17.2929999999999993
21
-24.1069999999999993
0
LINE
8
F.Cu
6
CONTINUOUS
10
17.2929999999999993
20
-24.1069999999999993
11
20.3179999999999978
21
-24.1069999999999993
0
LINE
8
F.Cu
6
CONTINUOUS
10
20.3179999999999978
20
-24.1069999999999993
11
20.3179999999999978
21
-25.6310000000000002
0
LINE
8
F.Cu
6
CONTINUOUS
10
36.2879999999999967
20
-25.6310000000000002
11
33.2629999999999981
21
-25.6310000000000002
0
LINE
8
F.Cu
6
CONTINUOUS
10
33.2629999999999981
20
-25.6310000000000002
11
33.2629999999999981
21
-24.1069999999999993
0
LINE
8
F.Cu
6
CONTINUOUS
10
33.2629999999999981
20
-24.1069999999999993
11
36.2879999999999967
21
-24.1069999999999993
0
LINE
8
F.Cu
6
CONTINUOUS
10
36.2879999999999967
20
-24.1069999999999993
11
36.2879999999999967
21
-25.6310000000000002
0
LINE
8
F.Cu
6
CONTINUOUS
10
20.3179999999999978
20
-23.0909999999999975
11
17.2929999999999993
21
-23.0909999999999975
0
LINE
8
F.Cu
6
CONTINUOUS
10
17.2929999999999993
20
-23.0909999999999975
11
17.2929999999999993
21
-21.5670000000000002
0
LINE
8
F.Cu
6
CONTINUOUS
10
17.2929999999999993
20
-21.5670000000000002
11
20.3179999999999978
21
-21.5670000000000002
0
LINE
8
F.Cu
6
CONTINUOUS
10
20.3179999999999978
20
-21.5670000000000002
11
20.3179999999999978
21
-23.0909999999999975
0
LINE
8
F.Cu
6
CONTINUOUS
10
20.3179999999999978
20
-20.5509999999999984
11
17.2929999999999993
21
-20.5509999999999984
0
LINE
8
F.Cu
6
CONTINUOUS
10
17.2929999999999993
20
-20.5509999999999984
11
17.2929999999999993
21
-19.0269999999999975
0
LINE
8
F.Cu
6
CONTINUOUS
10
17.2929999999999993
20
-19.0269999999999975
11
20.3179999999999978
21
-19.0269999999999975
0
LINE
8
F.Cu
6
CONTINUOUS
10
20.3179999999999978
20
-19.0269999999999975
11
20.3179999999999978
21
-20.5509999999999984
0
LINE
8
F.Cu
6
CONTINUOUS
10
57.4430389999999989
20
-15.0196849999999991
11
57.4887939999999986
21
-15.0724889999999991
0
LINE
8
F.Cu
6
CONTINUOUS
10
57.4887939999999986
20
-15.0724889999999991
11
57.5
21
-15.1239999999999988
0
LINE
8
F.Cu
6
CONTINUOUS
10
57.5
20
-15.1239999999999988
11
57.5
21
-49.8759999999999977
0
LINE
8
F.Cu
6
CONTINUOUS
10
57.5
20
-49.8759999999999977
11
57.4803149999999974
21
-49.9430389999999989
0
LINE
8
F.Cu
6
CONTINUOUS
10
57.4803149999999974
20
-49.9430389999999989
11
57.4275109999999955
21
-49.9887939999999986
0
LINE
8
F.Cu
6
CONTINUOUS
10
57.4275109999999955
20
-49.9887939999999986
11
57.3759999999999977
21
-50.
0
LINE
8
F.Cu
6
CONTINUOUS
10
57.3759999999999977
20
-50.
11
15.1239999999999988
21
-50.
0
LINE
8
F.Cu
6
CONTINUOUS
10
15.1239999999999988
20
-50.
11
15.0569609999999994
21
-49.9803149999999974
0
LINE
8
F.Cu
6
CONTINUOUS
10
15.0569609999999994
20
-49.9803149999999974
11
15.0112059999999996
21
-49.9275109999999955
0
LINE
8
F.Cu
6
CONTINUOUS
10
15.0112059999999996
20
-49.9275109999999955
11
15.
21
-49.8759999999999977
0
LINE
8
F.Cu
6
CONTINUOUS
10
15.
20
-49.8759999999999977
11
15.
21
-18.9791349999999994
0
LINE
8
F.Cu
6
CONTINUOUS
10
15.
20
-18.9791349999999994
11
15.
21
-15.1239999999999988
0
LINE
8
F.Cu
6
CONTINUOUS
10
15.
20
-15.1239999999999988
11
15.0196849999999991
21
-15.0569609999999994
0
LINE
8
F.Cu
6
CONTINUOUS
10
15.0196849999999991
20
-15.0569609999999994
11
15.0724889999999991
21
-15.0112059999999996
0
LINE
8
F.Cu
6
CONTINUOUS
10
15.0724889999999991
20
-15.0112059999999996
11
15.1239999999999988
21
-15.
0
LINE
8
F.Cu
6
CONTINUOUS
10
15.1239999999999988
20
-15.
11
57.3759999999999977
21
-15.
0
LINE
8
F.Cu
6
CONTINUOUS
10
57.3759999999999977
20
-15.
11
57.4430389999999989
21
-15.0196849999999991
0
LINE
8
F.Cu
6
CONTINUOUS
10
16.7925000000000004
20
-20.598869999999998
11
16.7925009999999979
21
-20.5988760000000006
0
LINE
8
F.Cu
6
CONTINUOUS
10
16.7925009999999979
20
-20.5988760000000006
11
16.7989080000000008
21
-20.6584830000000004
0
LINE
8
F.Cu
6
CONTINUOUS
10
16.7989080000000008
20
-20.6584830000000004
11
16.8492019999999982
21
-20.7933279999999989
0
LINE
8
F.Cu
6
CONTINUOUS
10
16.8492019999999982
20
-20.7933279999999989
11
16.8492059999999988
21
-20.793334999999999
0
LINE
8
F.Cu
6
CONTINUOUS
10
16.8492059999999988
20
-20.793334999999999
11
16.935451999999998
21
-20.9085439999999991
0
LINE
8
F.Cu
6
CONTINUOUS
10
16.935451999999998
20
-20.9085439999999991
11
16.935452999999999
21
-20.9085439999999991
0
LINE
8
F.Cu
6
CONTINUOUS
10
16.935452999999999
20
-20.9085439999999991
11
16.935454
21
-20.9085459999999976
0
LINE
8
F.Cu
6
CONTINUOUS
10
16.935454
20
-20.9085459999999976
11
16.9420719999999996
21
-20.9134999999999991
0
LINE
8
F.Cu
6
CONTINUOUS
10
16.9420719999999996
20
-20.9134999999999991
11
17.0038319999999992
21
-20.9597339999999974
0
LINE
8
F.Cu
6
CONTINUOUS
10
17.0038319999999992
20
-20.9597339999999974
11
17.0457019999999986
21
-21.015667999999998
0
LINE
8
F.Cu
6
CONTINUOUS
10
17.0457019999999986
20
-21.015667999999998
11
17.0506859999999989
21
-21.0853599999999979
0
LINE
8
F.Cu
6
CONTINUOUS
10
17.0506859999999989
20
-21.0853599999999979
11
17.017199999999999
21
-21.1466819999999984
0
LINE
8
F.Cu
6
CONTINUOUS
10
17.017199999999999
20
-21.1466819999999984
11
17.0038319999999992
21
-21.1582659999999976
0
LINE
8
F.Cu
6
CONTINUOUS
10
17.0038319999999992
20
-21.1582659999999976
11
16.935451999999998
21
-21.2094549999999984
0
LINE
8
F.Cu
6
CONTINUOUS
10
16.935451999999998
20
-21.2094549999999984
11
16.8492059999999988
21
-21.3246639999999985
0
LINE
8
F.Cu
6
CONTINUOUS
10
16.8492059999999988
20
-21.3246639999999985
11
16.8492019999999982
21
-21.3246709999999986
0
LINE
8
F.Cu
6
CONTINUOUS
10
16.8492019999999982
20
-21.3246709999999986
11
16.7989080000000008
21
-21.4595169999999982
0
LINE
8
F.Cu
6
CONTINUOUS
10
16.7989080000000008
20
-21.4595169999999982
11
16.7925009999999979
21
-21.5191160000000004
0
LINE
8
F.Cu
6
CONTINUOUS
10
16.7925009999999979
20
-21.5191160000000004
11
16.7925009999999979
21
-21.5191230000000004
0
LINE
8
F.Cu
6
CONTINUOUS
10
16.7925009999999979
20
-21.5191230000000004
11
16.7925000000000004
21
-21.5191349999999986
0
LINE
8
F.Cu
6
CONTINUOUS
10
16.7925000000000004
20
-21.5191349999999986
11
16.7925000000000004
21
-23.1388700000000007
0
LINE
8
F.Cu
6
CONTINUOUS
10
16.7925000000000004
20
-23.1388700000000007
11
16.7925009999999979
21
-23.1388759999999998
0
LINE
8
F.Cu
6
CONTINUOUS
10
16.7925009999999979
20
-23.1388759999999998
11
16.7989080000000008
21
-23.1984829999999995
0
LINE
8
F.Cu
6
CONTINUOUS
10
16.7989080000000008
20
-23.1984829999999995
11
16.8492019999999982
21
-23.3333279999999981
0
LINE
8
F.Cu
6
CONTINUOUS
10
16.8492019999999982
20
-23.3333279999999981
11
16.8492059999999988
21
-23.3333349999999982
0
LINE
8
F.Cu
6
CONTINUOUS
10
16.8492059999999988
20
-23.3333349999999982
11
16.935451999999998
21
-23.4485439999999983
0
LINE
8
F.Cu
6
CONTINUOUS
10
16.935451999999998
20
-23.4485439999999983
11
16.935452999999999
21
-23.4485439999999983
0
LINE
8
F.Cu
6
CONTINUOUS
10
16.935452999999999
20
-23.4485439999999983
11
16.935454
21
-23.4485460000000003
0
LINE
8
F.Cu
6
CONTINUOUS
10
16.935454
20
-23.4485460000000003
11
16.9844469999999994
21
-23.4852220000000003
0
LINE
8
F.Cu
6
CONTINUOUS
10
16.9844469999999994
20
-23.4852220000000003
11
17.0038319999999992
21
-23.4997340000000001
0
LINE
8
F.Cu
6
CONTINUOUS
10
17.0038319999999992
20
-23.4997340000000001
11
17.0457019999999986
21
-23.5556679999999972
0
LINE
8
F.Cu
6
CONTINUOUS
10
17.0457019999999986
20
-23.5556679999999972
11
17.0506859999999989
21
-23.6253600000000006
0
LINE
8
F.Cu
6
CONTINUOUS
10
17.0506859999999989
20
-23.6253600000000006
11
17.017199999999999
21
-23.6866819999999976
0
LINE
8
F.Cu
6
CONTINUOUS
10
17.017199999999999
20
-23.6866819999999976
11
17.0038319999999992
21
-23.6982660000000003
0
LINE
8
F.Cu
6
CONTINUOUS
10
17.0038319999999992
20
-23.6982660000000003
11
16.935451999999998
21
-23.7494549999999975
0
LINE
8
F.Cu
6
CONTINUOUS
10
16.935451999999998
20
-23.7494549999999975
11
16.8492059999999988
21
-23.8646639999999977
0
LINE
8
F.Cu
6
CONTINUOUS
10
16.8492059999999988
20
-23.8646639999999977
11
16.8492019999999982
21
-23.8646709999999977
0
LINE
8
F.Cu
6
CONTINUOUS
10
16.8492019999999982
20
-23.8646709999999977
11
16.7989080000000008
21
-23.9995169999999973
0
LINE
8
F.Cu
6
CONTINUOUS
10
16.7989080000000008
20
-23.9995169999999973
11
16.7925009999999979
21
-24.0591159999999995
0
LINE
8
F.Cu
6
CONTINUOUS
10
16.7925009999999979
20
-24.0591159999999995
11
16.7925009999999979
21
-24.0591229999999996
0
LINE
8
F.Cu
6
CONTINUOUS
10
16.7925009999999979
20
-24.0591229999999996
11
16.7925000000000004
21
-24.0591349999999977
0
LINE
8
F.Cu
6
CONTINUOUS
10
16.7925000000000004
20
-24.0591349999999977
11
16.7925000000000004
21
-25.6788699999999999
0
LINE
8
F.Cu
6
CONTINUOUS
10
16.7925000000000004
20
-25.6788699999999999
11
16.7925009999999979
21
-25.6788759999999989
0
LINE
8
F.Cu
6
CONTINUOUS
10
16.7925009999999979
20
-25.6788759999999989
11
16.7989080000000008
21
-25.7384829999999987
0
LINE
8
F.Cu
6
CONTINUOUS
10
16.7989080000000008
20
-25.7384829999999987
11
16.8492019999999982
21
-25.8733279999999972
0
LINE
8
F.Cu
6
CONTINUOUS
10
16.8492019999999982
20
-25.8733279999999972
11
16.8492059999999988
21
-25.8733349999999973
0
LINE
8
F.Cu
6
CONTINUOUS
10
16.8492059999999988
20
-25.8733349999999973
11
16.935451999999998
21
-25.9885439999999974
0
LINE
8
F.Cu
6
CONTINUOUS
10
16.935451999999998
20
-25.9885439999999974
11
16.935452999999999
21
-25.9885439999999974
0
LINE
8
F.Cu
6
CONTINUOUS
10
16.935452999999999
20
-25.9885439999999974
11
16.935454
21
-25.9885459999999995
0
LINE
8
F.Cu
6
CONTINUOUS
10
16.935454
20
-25.9885459999999995
11
16.9844469999999994
21
-26.0252219999999994
0
LINE
8
F.Cu
6
CONTINUOUS
10
16.9844469999999994
20
-26.0252219999999994
11
17.0038319999999992
21
-26.0397339999999993
0
LINE
8
F.Cu
6
CONTINUOUS
10
17.0038319999999992
20
-26.0397339999999993
11
17.0457019999999986
21
-26.0956679999999999
0
LINE
8
F.Cu
6
CONTINUOUS
10
17.0457019999999986
20
-26.0956679999999999
11
17.0506859999999989
21
-26.1653599999999997
0
LINE
8
F.Cu
6
CONTINUOUS
10
17.0506859999999989
20
-26.1653599999999997
11
17.017199999999999
21
-26.2266820000000003
0
LINE
8
F.Cu
6
CONTINUOUS
10
17.017199999999999
20
-26.2266820000000003
11
17.0038319999999992
21
-26.2382659999999994
0
LINE
8
F.Cu
6
CONTINUOUS
10
17.0038319999999992
20
-26.2382659999999994
11
16.935451999999998
21
-26.2894550000000002
0
LINE
8
F.Cu
6
CONTINUOUS
10
16.935451999999998
20
-26.2894550000000002
11
16.8492059999999988
21
-26.4046640000000004
0
LINE
8
F.Cu
6
CONTINUOUS
10
16.8492059999999988
20
-26.4046640000000004
11
16.8492019999999982
21
-26.4046710000000004
0
LINE
8
F.Cu
6
CONTINUOUS
10
16.8492019999999982
20
-26.4046710000000004
11
16.7989080000000008
21
-26.539517
0
LINE
8
F.Cu
6
CONTINUOUS
10
16.7989080000000008
20
-26.539517
11
16.7925009999999979
21
-26.5991159999999986
0
LINE
8
F.Cu
6
CONTINUOUS
10
16.7925009999999979
20
-26.5991159999999986
11
16.7925009999999979
21
-26.5991229999999987
0
LINE
8
F.Cu
6
CONTINUOUS
10
16.7925009999999979
20
-26.5991229999999987
11
16.7925000000000004
21
-26.5991350000000004
0
LINE
8
F.Cu
6
CONTINUOUS
10
16.7925000000000004
20
-26.5991350000000004
11
16.7925000000000004
21
-28.218869999999999
0
LINE
8
F.Cu
6
CONTINUOUS
10
16.7925000000000004
20
-28.218869999999999
11
16.7925009999999979
21
-28.2188759999999981
0
LINE
8
F.Cu
6
CONTINUOUS
10
16.7925009999999979
20
-28.2188759999999981
11
16.7989080000000008
21
-28.2784829999999978
0
LINE
8
F.Cu
6
CONTINUOUS
10
16.7989080000000008
20
-28.2784829999999978
11
16.8492019999999982
21
-28.4133279999999999
0
LINE
8
F.Cu
6
CONTINUOUS
10
16.8492019999999982
20
-28.4133279999999999
11
16.8492059999999988
21
-28.413335
0
LINE
8
F.Cu
6
CONTINUOUS
10
16.8492059999999988
20
-28.413335
11
16.935451999999998
21
-28.5285440000000001
0
LINE
8
F.Cu
6
CONTINUOUS
10
16.935451999999998
20
-28.5285440000000001
11
16.935452999999999
21
-28.5285440000000001
0
LINE
8
F.Cu
6
CONTINUOUS
10
16.935452999999999
20
-28.5285440000000001
11
16.935454
21
-28.5285459999999986
0
LINE
8
F.Cu
6
CONTINUOUS
10
16.935454
20
-28.5285459999999986
11
16.9844469999999994
21
-28.5652219999999986
0
LINE
8
F.Cu
6
CONTINUOUS
10
16.9844469999999994
20
-28.5652219999999986
11
17.0038319999999992
21
-28.5797339999999984
0
LINE
8
F.Cu
6
CONTINUOUS
10
17.0038319999999992
20
-28.5797339999999984
11
17.0457019999999986
21
-28.635667999999999
0
LINE
8
F.Cu
6
CONTINUOUS
10
17.0457019999999986
20
-28.635667999999999
11
17.0506859999999989
21
-28.7053599999999989
0
LINE
8
F.Cu
6
CONTINUOUS
10
17.0506859999999989
20
-28.7053599999999989
11
17.017199999999999
21
-28.7666819999999994
0
LINE
8
F.Cu
6
CONTINUOUS
10
17.017199999999999
20
-28.7666819999999994
11
17.0038319999999992
21
-28.7782659999999986
0
LINE
8
F.Cu
6
CONTINUOUS
10
17.0038319999999992
20
-28.7782659999999986
11
16.935451999999998
21
-28.8294549999999994
0
LINE
8
F.Cu
6
CONTINUOUS
10
16.935451999999998
20
-28.8294549999999994
11
16.8492059999999988
21
-28.9446639999999995
0
LINE
8
F.Cu
6
CONTINUOUS
10
16.8492059999999988
20
-28.9446639999999995
11
16.8492019999999982
21
-28.9446709999999996
0
LINE
8
F.Cu
6
CONTINUOUS
10
16.8492019999999982
20
-28.9446709999999996
11
16.7989080000000008
21
-29.0795169999999992
0
LINE
8
F.Cu
6
CONTINUOUS
10
16.7989080000000008
20
-29.0795169999999992
11
16.7925009999999979
21
-29.1391159999999978
0
LINE
8
F.Cu
6
CONTINUOUS
10
16.7925009999999979
20
-29.1391159999999978
11
16.7925009999999979
21
-29.1391229999999979
0
LINE
8
F.Cu
6
CONTINUOUS
10
16.7925009999999979
20
-29.1391229999999979
11
16.7925000000000004
21
-29.1391349999999996
0
LINE
8
F.Cu
6
CONTINUOUS
10
16.7925000000000004
20
-29.1391349999999996
11
16.7925000000000004
21
-30.7588699999999982
0
LINE
8
F.Cu
6
CONTINUOUS
10
16.7925000000000004
20
-30.7588699999999982
11
16.7925009999999979
21
-30.7588759999999972
0
LINE
8
F.Cu
6
CONTINUOUS
10
16.7925009999999979
20
-30.7588759999999972
11
16.7989080000000008
21
-30.818482999999997
0
LINE
8
F.Cu
6
CONTINUOUS
10
16.7989080000000008
20
-30.818482999999997
11
16.8492019999999982
21
-30.9533279999999991
0
LINE
8
F.Cu
6
CONTINUOUS
10
16.8492019999999982
20
-30.9533279999999991
11
16.8492059999999988
21
-30.9533349999999992
0
LINE
8
F.Cu
6
CONTINUOUS
10
16.8492059999999988
20
-30.9533349999999992
11
16.935451999999998
21
-31.0685439999999993
0
LINE
8
F.Cu
6
CONTINUOUS
10
16.935451999999998
20
-31.0685439999999993
11
16.935452999999999
21
-31.0685439999999993
0
LINE
8
F.Cu
6
CONTINUOUS
10
16.935452999999999
20
-31.0685439999999993
11
16.935454
21
-31.0685459999999978
0
LINE
8
F.Cu
6
CONTINUOUS
10
16.935454
20
-31.0685459999999978
11
16.9844469999999994
21
-31.1052219999999977
0
LINE
8
F.Cu
6
CONTINUOUS
10
16.9844469999999994
20
-31.1052219999999977
11
17.0038319999999992
21
-31.1197339999999976
0
LINE
8
F.Cu
6
CONTINUOUS
10
17.0038319999999992
20
-31.1197339999999976
11
17.0457019999999986
21
-31.1756679999999982
0
LINE
8
F.Cu
6
CONTINUOUS
10
17.0457019999999986
20
-31.1756679999999982
11
17.0506859999999989
21
-31.245359999999998
0
LINE
8
F.Cu
6
CONTINUOUS
10
17.0506859999999989
20
-31.245359999999998
11
17.017199999999999
21
-31.3066819999999986
0
LINE
8
F.Cu
6
CONTINUOUS
10
17.017199999999999
20
-31.3066819999999986
11
17.0038319999999992
21
-31.3182659999999977
0
LINE
8
F.Cu
6
CONTINUOUS
10
17.0038319999999992
20
-31.3182659999999977
11
16.935451999999998
21
-31.3694549999999985
0
LINE
8
F.Cu
6
CONTINUOUS
10
16.935451999999998
20
-31.3694549999999985
11
16.8492059999999988
21
-31.4846639999999987
0
LINE
8
F.Cu
6
CONTINUOUS
10
16.8492059999999988
20
-31.4846639999999987
11
16.8492019999999982
21
-31.4846709999999987
0
LINE
8
F.Cu
6
CONTINUOUS
10
16.8492019999999982
20
-31.4846709999999987
11
16.7989080000000008
21
-31.6195169999999983
0
LINE
8
F.Cu
6
CONTINUOUS
10
16.7989080000000008
20
-31.6195169999999983
11
16.7943819999999988
21
-31.6616179999999972
0
LINE
8
F.Cu
6
CONTINUOUS
10
16.7943819999999988
20
-31.6616179999999972
11
16.7925009999999979
21
-31.679122999999997
0
LINE
8
F.Cu
6
CONTINUOUS
10
16.7925009999999979
20
-31.679122999999997
11
16.7925000000000004
21
-31.6791349999999987
0
LINE
8
F.Cu
6
CONTINUOUS
10
16.7925000000000004
20
-31.6791349999999987
11
16.7925000000000004
21
-33.2988700000000009
0
LINE
8
F.Cu
6
CONTINUOUS
10
16.7925000000000004
20
-33.2988700000000009
11
16.7925009999999979
21
-33.2988759999999999
0
LINE
8
F.Cu
6
CONTINUOUS
10
16.7925009999999979
20
-33.2988759999999999
11
16.7989080000000008
21
-33.3584829999999997
0
LINE
8
F.Cu
6
CONTINUOUS
10
16.7989080000000008
20
-33.3584829999999997
11
16.8492019999999982
21
-33.4933279999999982
0
LINE
8
F.Cu
6
CONTINUOUS
10
16.8492019999999982
20
-33.4933279999999982
11
16.8492059999999988
21
-33.4933350000000019
0
LINE
8
F.Cu
6
CONTINUOUS
10
16.8492059999999988
20
-33.4933350000000019
11
16.935451999999998
21
-33.608544000000002
0
LINE
8
F.Cu
6
CONTINUOUS
10
16.935451999999998
20
-33.608544000000002
11
16.935452999999999
21
-33.608544000000002
0
LINE
8
F.Cu
6
CONTINUOUS
10
16.935452999999999
20
-33.608544000000002
11
16.935454
21
-33.6085459999999969
0
LINE
8
F.Cu
6
CONTINUOUS
10
16.935454
20
-33.6085459999999969
11
16.9844469999999994
21
-33.6452219999999969
0
LINE
8
F.Cu
6
CONTINUOUS
10
16.9844469999999994
20
-33.6452219999999969
11
17.0038319999999992
21
-33.6597340000000003
0
LINE
8
F.Cu
6
CONTINUOUS
10
17.0038319999999992
20
-33.6597340000000003
11
17.0457019999999986
21
-33.7156680000000009
0
LINE
8
F.Cu
6
CONTINUOUS
10
17.0457019999999986
20
-33.7156680000000009
11
17.0506859999999989
21
-33.7853599999999972
0
LINE
8
F.Cu
6
CONTINUOUS
10
17.0506859999999989
20
-33.7853599999999972
11
17.017199999999999
21
-33.8466820000000013
0
LINE
8
F.Cu
6
CONTINUOUS
10
17.017199999999999
20
-33.8466820000000013
11
17.0038319999999992
21
-33.8582660000000004
0
LINE
8
F.Cu
6
CONTINUOUS
10
17.0038319999999992
20
-33.8582660000000004
11
16.935451999999998
21
-33.9094550000000012
0
LINE
8
F.Cu
6
CONTINUOUS
10
16.935451999999998
20
-33.9094550000000012
11
16.8492059999999988
21
-34.0246640000000014
0
LINE
8
F.Cu
6
CONTINUOUS
10
16.8492059999999988
20
-34.0246640000000014
11
16.8492019999999982
21
-34.0246709999999979
0
LINE
8
F.Cu
6
CONTINUOUS
10
16.8492019999999982
20
-34.0246709999999979
11
16.7989080000000008
21
-34.159517000000001
0
LINE
8
F.Cu
6
CONTINUOUS
10
16.7989080000000008
20
-34.159517000000001
11
16.7925009999999979
21
-34.2191159999999996
0
LINE
8
F.Cu
6
CONTINUOUS
10
16.7925009999999979
20
-34.2191159999999996
11
16.7925009999999979
21
-34.2191229999999962
0
LINE
8
F.Cu
6
CONTINUOUS
10
16.7925009999999979
20
-34.2191229999999962
11
16.7925000000000004
21
-34.2191350000000014
0
LINE
8
F.Cu
6
CONTINUOUS
10
16.7925000000000004
20
-34.2191350000000014
11
16.7925000000000004
21
-35.83887
0
LINE
8
F.Cu
6
CONTINUOUS
10
16.7925000000000004
20
-35.83887
11
16.7925009999999979
21
-35.8388759999999991
0
LINE
8
F.Cu
6
CONTINUOUS
10
16.7925009999999979
20
-35.8388759999999991
11
16.7989080000000008
21
-35.8984829999999988
0
LINE
8
F.Cu
6
CONTINUOUS
10
16.7989080000000008
20
-35.8984829999999988
11
16.8492019999999982
21
-36.0333279999999974
0
LINE
8
F.Cu
6
CONTINUOUS
10
16.8492019999999982
20
-36.0333279999999974
11
16.8492059999999988
21
-36.033335000000001
0
LINE
8
F.Cu
6
CONTINUOUS
10
16.8492059999999988
20
-36.033335000000001
11
16.935451999999998
21
-36.1485440000000011
0
LINE
8
F.Cu
6
CONTINUOUS
10
16.935451999999998
20
-36.1485440000000011
11
16.935452999999999
21
-36.1485440000000011
0
LINE
8
F.Cu
6
CONTINUOUS
10
16.935452999999999
20
-36.1485440000000011
11
16.935454
21
-36.1485459999999961
0
LINE
8
F.Cu
6
CONTINUOUS
10
16.935454
20
-36.1485459999999961
11
16.9844469999999994
21
-36.185221999999996
0
LINE
8
F.Cu
6
CONTINUOUS
10
16.9844469999999994
20
-36.185221999999996
11
17.0038319999999992
21
-36.1997339999999994
0
LINE
8
F.Cu
6
CONTINUOUS
10
17.0038319999999992
20
-36.1997339999999994
11
17.0457019999999986
21
-36.255668
0
LINE
8
F.Cu
6
CONTINUOUS
10
17.0457019999999986
20
-36.255668
11
17.0506859999999989
21
-36.3253599999999963
0
LINE
8
F.Cu
6
CONTINUOUS
10
17.0506859999999989
20
-36.3253599999999963
11
17.017199999999999
21
-36.3866820000000004
0
LINE
8
F.Cu
6
CONTINUOUS
10
17.017199999999999
20
-36.3866820000000004
11
17.0038319999999992
21
-36.3982659999999996
0
LINE
8
F.Cu
6
CONTINUOUS
10
17.0038319999999992
20
-36.3982659999999996
11
16.935451999999998
21
-36.4494550000000004
0
LINE
8
F.Cu
6
CONTINUOUS
10
16.935451999999998
20
-36.4494550000000004
11
16.8492059999999988
21
-36.5646640000000005
0
LINE
8
F.Cu
6
CONTINUOUS
10
16.8492059999999988
20
-36.5646640000000005
11
16.8492019999999982
21
-36.564670999999997
0
LINE
8
F.Cu
6
CONTINUOUS
10
16.8492019999999982
20
-36.564670999999997
11
16.7989080000000008
21
-36.6995170000000002
0
LINE
8
F.Cu
6
CONTINUOUS
10
16.7989080000000008
20
-36.6995170000000002
11
16.7925009999999979
21
-36.7591159999999988
0
LINE
8
F.Cu
6
CONTINUOUS
10
16.7925009999999979
20
-36.7591159999999988
11
16.7925009999999979
21
-36.7591229999999953
0
LINE
8
F.Cu
6
CONTINUOUS
10
16.7925009999999979
20
-36.7591229999999953
11
16.7925000000000004
21
-36.7591350000000006
0
LINE
8
F.Cu
6
CONTINUOUS
10
16.7925000000000004
20
-36.7591350000000006
11
16.7925000000000004
21
-38.3788699999999992
0
LINE
8
F.Cu
6
CONTINUOUS
10
16.7925000000000004
20
-38.3788699999999992
11
16.7925009999999979
21
-38.3788759999999982
0
LINE
8
F.Cu
6
CONTINUOUS
10
16.7925009999999979
20
-38.3788759999999982
11
16.7989080000000008
21
-38.438482999999998
0
LINE
8
F.Cu
6
CONTINUOUS
10
16.7989080000000008
20
-38.438482999999998
11
16.8492019999999982
21
-38.5733279999999965
0
LINE
8
F.Cu
6
CONTINUOUS
10
16.8492019999999982
20
-38.5733279999999965
11
16.8492059999999988
21
-38.5733350000000002
0
LINE
8
F.Cu
6
CONTINUOUS
10
16.8492059999999988
20
-38.5733350000000002
11
16.935451999999998
21
-38.6885440000000003
0
LINE
8
F.Cu
6
CONTINUOUS
10
16.935451999999998
20
-38.6885440000000003
11
16.9354549999999975
21
-38.6885469999999998
0
LINE
8
F.Cu
6
CONTINUOUS
10
16.9354549999999975
20
-38.6885469999999998
11
17.0506639999999976
21
-38.7747929999999954
0
LINE
8
F.Cu
6
CONTINUOUS
10
17.0506639999999976
20
-38.7747929999999954
11
17.0506709999999977
21
-38.7747969999999995
0
LINE
8
F.Cu
6
CONTINUOUS
10
17.0506709999999977
20
-38.7747969999999995
11
17.1855170000000008
21
-38.8250910000000005
0
LINE
8
F.Cu
6
CONTINUOUS
10
17.1855170000000008
20
-38.8250910000000005
11
17.1855159999999998
21
-38.8250910000000005
0
LINE
8
F.Cu
6
CONTINUOUS
10
17.1855159999999998
20
-38.8250910000000005
11
17.1924439999999983
21
-38.8258349999999979
0
LINE
8
F.Cu
6
CONTINUOUS
10
17.1924439999999983
20
-38.8258349999999979
11
17.2451270000000001
21
-38.8314999999999984
0
LINE
8
F.Cu
6
CONTINUOUS
10
17.2451270000000001
20
-38.8314999999999984
11
20.3658719999999995
21
-38.8314990000000009
0
LINE
8
F.Cu
6
CONTINUOUS
10
20.3658719999999995
20
-38.8314990000000009
11
20.4254829999999998
21
-38.8250910000000005
0
LINE
8
F.Cu
6
CONTINUOUS
10
20.4254829999999998
20
-38.8250910000000005
11
20.4929749999999977
21
-38.7999170000000007
0
LINE
8
F.Cu
6
CONTINUOUS
10
20.4929749999999977
20
-38.7999170000000007
11
20.786916999999999
21
-38.5059749999999994
0
LINE
8
F.Cu
6
CONTINUOUS
10
20.786916999999999
20
-38.5059749999999994
11
20.8120909999999988
21
-38.438482999999998
0
LINE
8
F.Cu
6
CONTINUOUS
10
20.8120909999999988
20
-38.438482999999998
11
20.8185000000000002
21
-38.3788729999999987
0
LINE
8
F.Cu
6
CONTINUOUS
10
20.8185000000000002
20
-38.3788729999999987
11
20.8184989999999992
21
-36.7591279999999969
0
LINE
8
F.Cu
6
CONTINUOUS
10
20.8184989999999992
20
-36.7591279999999969
11
20.8120909999999988
21
-36.6995170000000002
0
LINE
8
F.Cu
6
CONTINUOUS
10
20.8120909999999988
20
-36.6995170000000002
11
20.7617960000000004
21
-36.564668999999995
0
LINE
8
F.Cu
6
CONTINUOUS
10
20.7617960000000004
20
-36.564668999999995
11
20.7617949999999993
21
-36.5646679999999975
0
LINE
8
F.Cu
6
CONTINUOUS
10
20.7617949999999993
20
-36.5646679999999975
11
20.7617930000000008
21
-36.5646640000000005
0
LINE
8
F.Cu
6
CONTINUOUS
10
20.7617930000000008
20
-36.5646640000000005
11
20.6755469999999981
21
-36.4494559999999979
0
LINE
8
F.Cu
6
CONTINUOUS
10
20.6755469999999981
20
-36.4494559999999979
11
20.6755479999999991
21
-36.4494559999999979
0
LINE
8
F.Cu
6
CONTINUOUS
10
20.6755479999999991
20
-36.4494559999999979
11
20.6755460000000006
21
-36.4494539999999958
0
LINE
8
F.Cu
6
CONTINUOUS
10
20.6755460000000006
20
-36.4494539999999958
11
20.6071659999999994
21
-36.398264999999995
0
LINE
8
F.Cu
6
CONTINUOUS
10
20.6071659999999994
20
-36.398264999999995
11
20.5652969999999975
21
-36.3423329999999964
0
LINE
8
F.Cu
6
CONTINUOUS
10
20.5652969999999975
20
-36.3423329999999964
11
20.5603130000000007
21
-36.2726410000000001
0
LINE
8
F.Cu
6
CONTINUOUS
10
20.5603130000000007
20
-36.2726410000000001
11
20.5937979999999996
21
-36.2113179999999986
0
LINE
8
F.Cu
6
CONTINUOUS
10
20.5937979999999996
20
-36.2113179999999986
11
20.6071609999999978
21
-36.1997379999999964
0
LINE
8
F.Cu
6
CONTINUOUS
10
20.6071609999999978
20
-36.1997379999999964
11
20.6755460000000006
21
-36.1485459999999961
0
LINE
8
F.Cu
6
CONTINUOUS
10
20.6755460000000006
20
-36.1485459999999961
11
20.7617960000000004
21
-36.0333309999999969
0
LINE
8
F.Cu
6
CONTINUOUS
10
20.7617960000000004
20
-36.0333309999999969
11
20.8120909999999988
21
-35.8984829999999988
0
LINE
8
F.Cu
6
CONTINUOUS
10
20.8120909999999988
20
-35.8984829999999988
11
20.8185000000000002
21
-35.8388729999999995
0
LINE
8
F.Cu
6
CONTINUOUS
10
20.8185000000000002
20
-35.8388729999999995
11
20.8184989999999992
21
-34.2191279999999978
0
LINE
8
F.Cu
6
CONTINUOUS
10
20.8184989999999992
20
-34.2191279999999978
11
20.8120909999999988
21
-34.159517000000001
0
LINE
8
F.Cu
6
CONTINUOUS
10
20.8120909999999988
20
-34.159517000000001
11
20.7759059999999991
21
-34.0625009999999975
0
LINE
8
F.Cu
6
CONTINUOUS
10
20.7759059999999991
20
-34.0625009999999975
11
20.7617969999999978
21
-34.0246709999999979
0
LINE
8
F.Cu
6
CONTINUOUS
10
20.7617969999999978
20
-34.0246709999999979
11
20.7617930000000008
21
-34.0246640000000014
0
LINE
8
F.Cu
6
CONTINUOUS
10
20.7617930000000008
20
-34.0246640000000014
11
20.6755469999999981
21
-33.9094559999999987
0
LINE
8
F.Cu
6
CONTINUOUS
10
20.6755469999999981
20
-33.9094559999999987
11
20.6755479999999991
21
-33.9094559999999987
0
LINE
8
F.Cu
6
CONTINUOUS
10
20.6755479999999991
20
-33.9094559999999987
11
20.6755460000000006
21
-33.9094539999999967
0
LINE
8
F.Cu
6
CONTINUOUS
10
20.6755460000000006
20
-33.9094539999999967
11
20.6071659999999994
21
-33.8582649999999958
0
LINE
8
F.Cu
6
CONTINUOUS
10
20.6071659999999994
20
-33.8582649999999958
11
20.5652969999999975
21
-33.8023329999999973
0
LINE
8
F.Cu
6
CONTINUOUS
10
20.5652969999999975
20
-33.8023329999999973
11
20.5603130000000007
21
-33.732641000000001
0
LINE
8
F.Cu
6
CONTINUOUS
10
20.5603130000000007
20
-33.732641000000001
11
20.5937979999999996
21
-33.6713179999999994
0
LINE
8
F.Cu
6
CONTINUOUS
10
20.5937979999999996
20
-33.6713179999999994
11
20.6071609999999978
21
-33.6597379999999973
0
LINE
8
F.Cu
6
CONTINUOUS
10
20.6071609999999978
20
-33.6597379999999973
11
20.6755460000000006
21
-33.6085459999999969
0
LINE
8
F.Cu
6
CONTINUOUS
10
20.6755460000000006
20
-33.6085459999999969
11
20.7617960000000004
21
-33.4933309999999977
0
LINE
8
F.Cu
6
CONTINUOUS
10
20.7617960000000004
20
-33.4933309999999977
11
20.8120909999999988
21
-33.3584829999999997
0
LINE
8
F.Cu
6
CONTINUOUS
10
20.8120909999999988
20
-33.3584829999999997
11
20.8185000000000002
21
-33.2988730000000004
0
LINE
8
F.Cu
6
CONTINUOUS
10
20.8185000000000002
20
-33.2988730000000004
11
20.8184989999999992
21
-31.7110950000000003
0
LINE
8
F.Cu
6
CONTINUOUS
10
20.8184989999999992
20
-31.7110950000000003
11
20.8381839999999983
21
-31.6440570000000001
0
LINE
8
F.Cu
6
CONTINUOUS
10
20.8381839999999983
20
-31.6440570000000001
11
20.854813
21
-31.6234199999999994
0
LINE
8
F.Cu
6
CONTINUOUS
10
20.854813
20
-31.6234199999999994
11
30.9904159999999997
21
-21.4878189999999982
0
LINE
8
F.Cu
6
CONTINUOUS
10
30.9904159999999997
20
-21.4878189999999982
11
31.0517389999999978
21
-21.4543339999999993
0
LINE
8
F.Cu
6
CONTINUOUS
10
31.0517389999999978
20
-21.4543339999999993
11
31.0780969999999996
21
-21.4514999999999993
0
LINE
8
F.Cu
6
CONTINUOUS
10
31.0780969999999996
20
-21.4514999999999993
11
32.6389999999999958
21
-21.4514999999999993
0
LINE
8
F.Cu
6
CONTINUOUS
10
32.6389999999999958
20
-21.4514999999999993
11
32.706038999999997
21
-21.4711849999999984
0
LINE
8
F.Cu
6
CONTINUOUS
10
32.706038999999997
20
-21.4711849999999984
11
32.7517939999999967
21
-21.5239890000000003
0
LINE
8
F.Cu
6
CONTINUOUS
10
32.7517939999999967
20
-21.5239890000000003
11
32.7629999999999981
21
-21.5754999999999981
0
LINE
8
F.Cu
6
CONTINUOUS
10
32.7629999999999981
20
-21.5754999999999981
11
32.7629999999999981
21
-22.0790000000000006
0
LINE
8
F.Cu
6
CONTINUOUS
10
32.7629999999999981
20
-22.0790000000000006
11
33.1838929999999976
21
-22.0790000000000006
0
LINE
8
F.Cu
6
CONTINUOUS
10
33.1838929999999976
20
-22.0790000000000006
11
33.2629999999999981
21
-21.9998930000000001
0
LINE
8
F.Cu
6
CONTINUOUS
10
33.2629999999999981
20
-21.9998930000000001
11
33.2629999999999981
21
-21.5670000000000002
0
LINE
8
F.Cu
6
CONTINUOUS
10
33.2629999999999981
20
-21.5670000000000002
11
36.2879999999999967
21
-21.5670000000000002
0
LINE
8
F.Cu
6
CONTINUOUS
10
36.2879999999999967
20
-21.5670000000000002
11
36.2879999999999967
21
-22.0790000000000006
0
LINE
8
F.Cu
6
CONTINUOUS
10
36.2879999999999967
20
-22.0790000000000006
11
36.7879999999999967
21
-22.0790000000000006
0
LINE
8
F.Cu
6
CONTINUOUS
10
36.7879999999999967
20
-22.0790000000000006
11
36.7879999999999967
21
-21.5754999999999981
0
LINE
8
F.Cu
6
CONTINUOUS
10
36.7879999999999967
20
-21.5754999999999981
11
36.8076849999999993
21
-21.5084610000000005
0
LINE
8
F.Cu
6
CONTINUOUS
10
36.8076849999999993
20
-21.5084610000000005
11
36.8604890000000012
21
-21.4627060000000007
0
LINE
8
F.Cu
6
CONTINUOUS
10
36.8604890000000012
20
-21.4627060000000007
11
36.911999999999999
21
-21.4514999999999993
0
LINE
8
F.Cu
6
CONTINUOUS
10
36.911999999999999
20
-21.4514999999999993
11
43.3604999999999947
21
-21.4514999999999993
0
LINE
8
F.Cu
6
CONTINUOUS
10
43.3604999999999947
20
-21.4514999999999993
11
43.4275389999999959
21
-21.4711849999999984
0
LINE
8
F.Cu
6
CONTINUOUS
10
43.4275389999999959
20
-21.4711849999999984
11
43.4732939999999957
21
-21.5239890000000003
0
LINE
8
F.Cu
6
CONTINUOUS
10
43.4732939999999957
20
-21.5239890000000003
11
43.484499999999997
21
-21.5754999999999981
0
LINE
8
F.Cu
6
CONTINUOUS
10
43.484499999999997
20
-21.5754999999999981
11
43.4845009999999945
21
-22.2129999999999974
0
LINE
8
F.Cu
6
CONTINUOUS
10
43.4845009999999945
20
-22.2129999999999974
11
43.4648169999999965
21
-22.2800389999999986
0
LINE
8
F.Cu
6
CONTINUOUS
10
43.4648169999999965
20
-22.2800389999999986
11
43.4120129999999946
21
-22.3257939999999984
0
LINE
8
F.Cu
6
CONTINUOUS
10
43.4120129999999946
20
-22.3257939999999984
11
43.3605009999999993
21
-22.3369999999999997
0
LINE
8
F.Cu
6
CONTINUOUS
10
43.3605009999999993
20
-22.3369999999999997
11
42.4584410000000005
21
-22.3369999999999997
0
LINE
8
F.Cu
6
CONTINUOUS
10
42.4584410000000005
20
-22.3369999999999997
11
42.4196059999999946
21
-22.3474049999999984
0
LINE
8
F.Cu
6
CONTINUOUS
10
42.4196059999999946
20
-22.3474049999999984
11
42.4196069999999992
21
-22.3474059999999994
0
LINE
8
F.Cu
6
CONTINUOUS
10
42.4196069999999992
20
-22.3474059999999994
11
42.3057139999999947
21
-22.3779229999999991
0
LINE
8
F.Cu
6
CONTINUOUS
10
42.3057139999999947
20
-22.3779229999999991
11
42.3057090000000002
21
-22.3779259999999987
0
LINE
8
F.Cu
6
CONTINUOUS
10
42.3057090000000002
20
-22.3779259999999987
11
42.1687900000000013
21
-22.4569749999999999
0
LINE
8
F.Cu
6
CONTINUOUS
10
42.1687900000000013
20
-22.4569749999999999
11
42.1687820000000002
21
-22.456980999999999
0
LINE
8
F.Cu
6
CONTINUOUS
10
42.1687820000000002
20
-22.456980999999999
11
37.0001800000000003
21
-27.6255839999999999
0
LINE
8
F.Cu
6
CONTINUOUS
10
37.0001800000000003
20
-27.6255839999999999
11
36.9388569999999987
21
-27.6590689999999988
0
LINE
8
F.Cu
6
CONTINUOUS
10
36.9388569999999987
20
-27.6590689999999988
11
36.8691649999999953
21
-27.6540849999999985
0
LINE
8
F.Cu
6
CONTINUOUS
10
36.8691649999999953
20
-27.6540849999999985
11
36.8132319999999993
21
-27.612212999999997
0
LINE
8
F.Cu
6
CONTINUOUS
10
36.8132319999999993
20
-27.612212999999997
11
36.7888149999999996
21
-27.5467489999999984
0
LINE
8
F.Cu
6
CONTINUOUS
10
36.7888149999999996
20
-27.5467489999999984
11
36.7884990000000016
21
-27.537903
0
LINE
8
F.Cu
6
CONTINUOUS
10
36.7884990000000016
20
-27.537903
11
36.7884990000000016
21
-26.5991289999999978
0
LINE
8
F.Cu
6
CONTINUOUS
10
36.7884990000000016
20
-26.5991289999999978
11
36.788497999999997
21
-26.5991229999999987
0
LINE
8
F.Cu
6
CONTINUOUS
10
36.788497999999997
20
-26.5991229999999987
11
36.7884969999999996
21
-26.5991159999999986
0
LINE
8
F.Cu
6
CONTINUOUS
10
36.7884969999999996
20
-26.5991159999999986
11
36.7820910000000012
21
-26.539517
0
LINE
8
F.Cu
6
CONTINUOUS
10
36.7820910000000012
20
-26.539517
11
36.7735059999999976
21
-26.5164999999999971
0
LINE
8
F.Cu
6
CONTINUOUS
10
36.7735059999999976
20
-26.5164999999999971
11
36.7317970000000003
21
-26.4046710000000004
0
LINE
8
F.Cu
6
CONTINUOUS
10
36.7317970000000003
20
-26.4046710000000004
11
36.7317929999999961
21
-26.4046640000000004
0
LINE
8
F.Cu
6
CONTINUOUS
10
36.7317929999999961
20
-26.4046640000000004
11
36.6455470000000005
21
-26.2894559999999977
0
LINE
8
F.Cu
6
CONTINUOUS
10
36.6455470000000005
20
-26.2894559999999977
11
36.645547999999998
21
-26.2894559999999977
0
LINE
8
F.Cu
6
CONTINUOUS
10
36.645547999999998
20
-26.2894559999999977
11
36.645545999999996
21
-26.2894539999999992
0
LINE
8
F.Cu
6
CONTINUOUS
10
36.645545999999996
20
-26.2894539999999992
11
36.5771659999999983
21
-26.2382649999999984
0
LINE
8
F.Cu
6
CONTINUOUS
10
36.5771659999999983
20
-26.2382649999999984
11
36.5352969999999999
21
-26.1823329999999999
0
LINE
8
F.Cu
6
CONTINUOUS
10
36.5352969999999999
20
-26.1823329999999999
11
36.5303129999999996
21
-26.112641
0
LINE
8
F.Cu
6
CONTINUOUS
10
36.5303129999999996
20
-26.112641
11
36.5637979999999985
21
-26.0513179999999984
0
LINE
8
F.Cu
6
CONTINUOUS
10
36.5637979999999985
20
-26.0513179999999984
11
36.5771609999999967
21
-26.0397379999999998
0
LINE
8
F.Cu
6
CONTINUOUS
10
36.5771609999999967
20
-26.0397379999999998
11
36.645545999999996
21
-25.9885459999999995
0
LINE
8
F.Cu
6
CONTINUOUS
10
36.645545999999996
20
-25.9885459999999995
11
36.7317959999999957
21
-25.8733310000000003
0
LINE
8
F.Cu
6
CONTINUOUS
10
36.7317959999999957
20
-25.8733310000000003
11
36.7820910000000012
21
-25.7384829999999987
0
LINE
8
F.Cu
6
CONTINUOUS
10
36.7820910000000012
20
-25.7384829999999987
11
36.7884999999999991
21
-25.6788729999999994
0
LINE
8
F.Cu
6
CONTINUOUS
10
36.7884999999999991
20
-25.6788729999999994
11
36.7884990000000016
21
-24.0591279999999976
0
LINE
8
F.Cu
6
CONTINUOUS
10
36.7884990000000016
20
-24.0591279999999976
11
36.7820910000000012
21
-23.9995169999999973
0
LINE
8
F.Cu
6
CONTINUOUS
10
36.7820910000000012
20
-23.9995169999999973
11
36.7317959999999957
21
-23.8646689999999992
0
LINE
8
F.Cu
6
CONTINUOUS
10
36.7317959999999957
20
-23.8646689999999992
11
36.7317949999999982
21
-23.8646679999999982
0
LINE
8
F.Cu
6
CONTINUOUS
10
36.7317949999999982
20
-23.8646679999999982
11
36.7317929999999961
21
-23.8646639999999977
0
LINE
8
F.Cu
6
CONTINUOUS
10
36.7317929999999961
20
-23.8646639999999977
11
36.6455470000000005
21
-23.7494549999999975
0
LINE
8
F.Cu
6
CONTINUOUS
10
36.6455470000000005
20
-23.7494549999999975
11
36.576749999999997
21
-23.6979529999999983
0
LINE
8
F.Cu
6
CONTINUOUS
10
36.576749999999997
20
-23.6979529999999983
11
36.5348800000000011
21
-23.6420189999999977
0
LINE
8
F.Cu
6
CONTINUOUS
10
36.5348800000000011
20
-23.6420189999999977
11
36.5298960000000008
21
-23.5723269999999978
0
LINE
8
F.Cu
6
CONTINUOUS
10
36.5298960000000008
20
-23.5723269999999978
11
36.5633819999999972
21
-23.5110049999999973
0
LINE
8
F.Cu
6
CONTINUOUS
10
36.5633819999999972
20
-23.5110049999999973
11
36.576751999999999
21
-23.4994200000000006
0
LINE
8
F.Cu
6
CONTINUOUS
10
36.576751999999999
20
-23.4994200000000006
11
36.6451889999999949
21
-23.4481879999999983
0
LINE
8
F.Cu
6
CONTINUOUS
10
36.6451889999999949
20
-23.4481879999999983
11
36.6451899999999995
21
-23.4481869999999972
0
LINE
8
F.Cu
6
CONTINUOUS
10
36.6451899999999995
20
-23.4481869999999972
11
36.7313499999999991
21
-23.3330929999999981
0
LINE
8
F.Cu
6
CONTINUOUS
10
36.7313499999999991
20
-23.3330929999999981
11
36.7313539999999961
21
-23.333085999999998
0
LINE
8
F.Cu
6
CONTINUOUS
10
36.7313539999999961
20
-23.333085999999998
11
36.7815960000000004
21
-23.1983789999999992
0
LINE
8
F.Cu
6
CONTINUOUS
10
36.7815960000000004
20
-23.1983789999999992
11
36.7815979999999954
21
-23.1983719999999991
0
LINE
8
F.Cu
6
CONTINUOUS
10
36.7815979999999954
20
-23.1983719999999991
11
36.7879989999999992
21
-23.1388439999999989
0
LINE
8
F.Cu
6
CONTINUOUS
10
36.7879989999999992
20
-23.1388439999999989
11
36.7879999999999967
21
-23.1388269999999991
0
LINE
8
F.Cu
6
CONTINUOUS
10
36.7879999999999967
20
-23.1388269999999991
11
36.7879999999999967
21
-22.5790000000000006
0
LINE
8
F.Cu
6
CONTINUOUS
10
36.7879999999999967
20
-22.5790000000000006
11
36.2879999999999967
21
-22.5790000000000006
0
LINE
8
F.Cu
6
CONTINUOUS
10
36.2879999999999967
20
-22.5790000000000006
11
36.2879999999999967
21
-23.0909999999999975
0
LINE
8
F.Cu
6
CONTINUOUS
10
36.2879999999999967
20
-23.0909999999999975
11
33.5861069999999984
21
-23.0909999999999975
0
LINE
8
F.Cu
6
CONTINUOUS
10
33.5861069999999984
20
-23.0909999999999975
11
32.8393450000000016
21
-23.8377599999999994
0
LINE
8
F.Cu
6
CONTINUOUS
10
32.8393450000000016
20
-23.8377599999999994
11
32.8192060000000012
21
-23.8646639999999977
0
LINE
8
F.Cu
6
CONTINUOUS
10
32.8192060000000012
20
-23.8646639999999977
11
32.8192019999999971
21
-23.8646709999999977
0
LINE
8
F.Cu
6
CONTINUOUS
10
32.8192019999999971
20
-23.8646709999999977
11
32.7689079999999962
21
-23.9995169999999973
0
LINE
8
F.Cu
6
CONTINUOUS
10
32.7689079999999962
20
-23.9995169999999973
11
32.7625010000000003
21
-24.0591159999999995
0
LINE
8
F.Cu
6
CONTINUOUS
10
32.7625010000000003
20
-24.0591159999999995
11
32.7625010000000003
21
-24.0591229999999996
0
LINE
8
F.Cu
6
CONTINUOUS
10
32.7625010000000003
20
-24.0591229999999996
11
32.7624999999999957
21
-24.0591349999999977
0
LINE
8
F.Cu
6
CONTINUOUS
10
32.7624999999999957
20
-24.0591349999999977
11
32.7624999999999957
21
-25.6788699999999999
0
LINE
8
F.Cu
6
CONTINUOUS
10
32.7624999999999957
20
-25.6788699999999999
11
32.7625010000000003
21
-25.6788759999999989
0
LINE
8
F.Cu
6
CONTINUOUS
10
32.7625010000000003
20
-25.6788759999999989
11
32.7689079999999962
21
-25.7384829999999987
0
LINE
8
F.Cu
6
CONTINUOUS
10
32.7689079999999962
20
-25.7384829999999987
11
32.8192019999999971
21
-25.8733279999999972
0
LINE
8
F.Cu
6
CONTINUOUS
10
32.8192019999999971
20
-25.8733279999999972
11
32.8192060000000012
21
-25.8733349999999973
0
LINE
8
F.Cu
6
CONTINUOUS
10
32.8192060000000012
20
-25.8733349999999973
11
32.9054519999999968
21
-25.9885439999999974
0
LINE
8
F.Cu
6
CONTINUOUS
10
32.9054519999999968
20
-25.9885439999999974
11
32.9054530000000014
21
-25.9885439999999974
0
LINE
8
F.Cu
6
CONTINUOUS
10
32.9054530000000014
20
-25.9885439999999974
11
32.9054539999999989
21
-25.9885459999999995
0
LINE
8
F.Cu
6
CONTINUOUS
10
32.9054539999999989
20
-25.9885459999999995
11
32.9544470000000018
21
-26.0252219999999994
0
LINE
8
F.Cu
6
CONTINUOUS
10
32.9544470000000018
20
-26.0252219999999994
11
32.9738320000000016
21
-26.0397339999999993
0
LINE
8
F.Cu
6
CONTINUOUS
10
32.9738320000000016
20
-26.0397339999999993
11
33.0157019999999974
21
-26.0956679999999999
0
LINE
8
F.Cu
6
CONTINUOUS
10
33.0157019999999974
20
-26.0956679999999999
11
33.0206859999999978
21
-26.1653599999999997
0
LINE
8
F.Cu
6
CONTINUOUS
10
33.0206859999999978
20
-26.1653599999999997
11
32.9872000000000014
21
-26.2266820000000003
0
LINE
8
F.Cu
6
CONTINUOUS
10
32.9872000000000014
20
-26.2266820000000003
11
32.9738320000000016
21
-26.2382659999999994
0
LINE
8
F.Cu
6
CONTINUOUS
10
32.9738320000000016
20
-26.2382659999999994
11
32.9054519999999968
21
-26.2894550000000002
0
LINE
8
F.Cu
6
CONTINUOUS
10
32.9054519999999968
20
-26.2894550000000002
11
32.8192060000000012
21
-26.4046640000000004
0
LINE
8
F.Cu
6
CONTINUOUS
10
32.8192060000000012
20
-26.4046640000000004
11
32.8192019999999971
21
-26.4046710000000004
0
LINE
8
F.Cu
6
CONTINUOUS
10
32.8192019999999971
20
-26.4046710000000004
11
32.7689079999999962
21
-26.539517
0
LINE
8
F.Cu
6
CONTINUOUS
10
32.7689079999999962
20
-26.539517
11
32.7625010000000003
21
-26.5991159999999986
0
LINE
8
F.Cu
6
CONTINUOUS
10
32.7625010000000003
20
-26.5991159999999986
11
32.7625010000000003
21
-26.5991229999999987
0
LINE
8
F.Cu
6
CONTINUOUS
10
32.7625010000000003
20
-26.5991229999999987
11
32.7624999999999957
21
-26.5991350000000004
0
LINE
8
F.Cu
6
CONTINUOUS
10
32.7624999999999957
20
-26.5991350000000004
11
32.7624999999999957
21
-28.218869999999999
0
LINE
8
F.Cu
6
CONTINUOUS
10
32.7624999999999957
20
-28.218869999999999
11
32.7625010000000003
21
-28.2188759999999981
0
LINE
8
F.Cu
6
CONTINUOUS
10
32.7625010000000003
20
-28.2188759999999981
11
32.7689079999999962
21
-28.2784829999999978
0
LINE
8
F.Cu
6
CONTINUOUS
10
32.7689079999999962
20
-28.2784829999999978
11
32.8192019999999971
21
-28.4133279999999999
0
LINE
8
F.Cu
6
CONTINUOUS
10
32.8192019999999971
20
-28.4133279999999999
11
32.8192060000000012
21
-28.413335
0
LINE
8
F.Cu
6
CONTINUOUS
10
32.8192060000000012
20
-28.413335
11
32.9054519999999968
21
-28.5285440000000001
0
LINE
8
F.Cu
6
CONTINUOUS
10
32.9054519999999968
20
-28.5285440000000001
11
32.9054530000000014
21
-28.5285440000000001
0
LINE
8
F.Cu
6
CONTINUOUS
10
32.9054530000000014
20
-28.5285440000000001
11
32.9054539999999989
21
-28.5285459999999986
0
LINE
8
F.Cu
6
CONTINUOUS
10
32.9054539999999989
20
-28.5285459999999986
11
32.9544470000000018
21
-28.5652219999999986
0
LINE
8
F.Cu
6
CONTINUOUS
10
32.9544470000000018
20
-28.5652219999999986
11
32.9738320000000016
21
-28.5797339999999984
0
LINE
8
F.Cu
6
CONTINUOUS
10
32.9738320000000016
20
-28.5797339999999984
11
33.0157019999999974
21
-28.635667999999999
0
LINE
8
F.Cu
6
CONTINUOUS
10
33.0157019999999974
20
-28.635667999999999
11
33.0206859999999978
21
-28.7053599999999989
0
LINE
8
F.Cu
6
CONTINUOUS
10
33.0206859999999978
20
-28.7053599999999989
11
32.9872000000000014
21
-28.7666819999999994
0
LINE
8
F.Cu
6
CONTINUOUS
10
32.9872000000000014
20
-28.7666819999999994
11
32.9738320000000016
21
-28.7782659999999986
0
LINE
8
F.Cu
6
CONTINUOUS
10
32.9738320000000016
20
-28.7782659999999986
11
32.9054519999999968
21
-28.8294549999999994
0
LINE
8
F.Cu
6
CONTINUOUS
10
32.9054519999999968
20
-28.8294549999999994
11
32.8192060000000012
21
-28.9446639999999995
0
LINE
8
F.Cu
6
CONTINUOUS
10
32.8192060000000012
20
-28.9446639999999995
11
32.8192019999999971
21
-28.9446709999999996
0
LINE
8
F.Cu
6
CONTINUOUS
10
32.8192019999999971
20
-28.9446709999999996
11
32.7689079999999962
21
-29.0795169999999992
0
LINE
8
F.Cu
6
CONTINUOUS
10
32.7689079999999962
20
-29.0795169999999992
11
32.7625010000000003
21
-29.1391159999999978
0
LINE
8
F.Cu
6
CONTINUOUS
10
32.7625010000000003
20
-29.1391159999999978
11
32.7625010000000003
21
-29.1391229999999979
0
LINE
8
F.Cu
6
CONTINUOUS
10
32.7625010000000003
20
-29.1391229999999979
11
32.7624999999999957
21
-29.1391349999999996
0
LINE
8
F.Cu
6
CONTINUOUS
10
32.7624999999999957
20
-29.1391349999999996
11
32.7624999999999957
21
-30.7588699999999982
0
LINE
8
F.Cu
6
CONTINUOUS
10
32.7624999999999957
20
-30.7588699999999982
11
32.7625010000000003
21
-30.7588759999999972
0
LINE
8
F.Cu
6
CONTINUOUS
10
32.7625010000000003
20
-30.7588759999999972
11
32.7689079999999962
21
-30.818482999999997
0
LINE
8
F.Cu
6
CONTINUOUS
10
32.7689079999999962
20
-30.818482999999997
11
32.8192019999999971
21
-30.9533279999999991
0
LINE
8
F.Cu
6
CONTINUOUS
10
32.8192019999999971
20
-30.9533279999999991
11
32.8192060000000012
21
-30.9533349999999992
0
LINE
8
F.Cu
6
CONTINUOUS
10
32.8192060000000012
20
-30.9533349999999992
11
32.9054519999999968
21
-31.0685439999999993
0
LINE
8
F.Cu
6
CONTINUOUS
10
32.9054519999999968
20
-31.0685439999999993
11
32.9054530000000014
21
-31.0685439999999993
0
LINE
8
F.Cu
6
CONTINUOUS
10
32.9054530000000014
20
-31.0685439999999993
11
32.9054539999999989
21
-31.0685459999999978
0
LINE
8
F.Cu
6
CONTINUOUS
10
32.9054539999999989
20
-31.0685459999999978
11
32.9544470000000018
21
-31.1052219999999977
0
LINE
8
F.Cu
6
CONTINUOUS
10
32.9544470000000018
20
-31.1052219999999977
11
32.9738320000000016
21
-31.1197339999999976
0
LINE
8
F.Cu
6
CONTINUOUS
10
32.9738320000000016
20
-31.1197339999999976
11
33.0157019999999974
21
-31.1756679999999982
0
LINE
8
F.Cu
6
CONTINUOUS
10
33.0157019999999974
20
-31.1756679999999982
11
33.0206859999999978
21
-31.245359999999998
0
LINE
8
F.Cu
6
CONTINUOUS
10
33.0206859999999978
20
-31.245359999999998
11
32.9872000000000014
21
-31.3066819999999986
0
LINE
8
F.Cu
6
CONTINUOUS
10
32.9872000000000014
20
-31.3066819999999986
11
32.9738320000000016
21
-31.3182659999999977
0
LINE
8
F.Cu
6
CONTINUOUS
10
32.9738320000000016
20
-31.3182659999999977
11
32.9054519999999968
21
-31.3694549999999985
0
LINE
8
F.Cu
6
CONTINUOUS
10
32.9054519999999968
20
-31.3694549999999985
11
32.8192060000000012
21
-31.4846639999999987
0
LINE
8
F.Cu
6
CONTINUOUS
10
32.8192060000000012
20
-31.4846639999999987
11
32.8192019999999971
21
-31.4846709999999987
0
LINE
8
F.Cu
6
CONTINUOUS
10
32.8192019999999971
20
-31.4846709999999987
11
32.7689079999999962
21
-31.6195169999999983
0
LINE
8
F.Cu
6
CONTINUOUS
10
32.7689079999999962
20
-31.6195169999999983
11
32.7643819999999977
21
-31.6616179999999972
0
LINE
8
F.Cu
6
CONTINUOUS
10
32.7643819999999977
20
-31.6616179999999972
11
32.7625010000000003
21
-31.679122999999997
0
LINE
8
F.Cu
6
CONTINUOUS
10
32.7625010000000003
20
-31.679122999999997
11
32.7624999999999957
21
-31.6791349999999987
0
LINE
8
F.Cu
6
CONTINUOUS
10
32.7624999999999957
20
-31.6791349999999987
11
32.7624999999999957
21
-33.2988700000000009
0
LINE
8
F.Cu
6
CONTINUOUS
10
32.7624999999999957
20
-33.2988700000000009
11
32.7625010000000003
21
-33.2988759999999999
0
LINE
8
F.Cu
6
CONTINUOUS
10
32.7625010000000003
20
-33.2988759999999999
11
32.7689079999999962
21
-33.3584829999999997
0
LINE
8
F.Cu
6
CONTINUOUS
10
32.7689079999999962
20
-33.3584829999999997
11
32.8192019999999971
21
-33.4933279999999982
0
LINE
8
F.Cu
6
CONTINUOUS
10
32.8192019999999971
20
-33.4933279999999982
11
32.8192060000000012
21
-33.4933350000000019
0
LINE
8
F.Cu
6
CONTINUOUS
10
32.8192060000000012
20
-33.4933350000000019
11
32.9054519999999968
21
-33.608544000000002
0
LINE
8
F.Cu
6
CONTINUOUS
10
32.9054519999999968
20
-33.608544000000002
11
32.9054530000000014
21
-33.608544000000002
0
LINE
8
F.Cu
6
CONTINUOUS
10
32.9054530000000014
20
-33.608544000000002
11
32.9054539999999989
21
-33.6085459999999969
0
LINE
8
F.Cu
6
CONTINUOUS
10
32.9054539999999989
20
-33.6085459999999969
11
32.9544470000000018
21
-33.6452219999999969
0
LINE
8
F.Cu
6
CONTINUOUS
10
32.9544470000000018
20
-33.6452219999999969
11
32.9738320000000016
21
-33.6597340000000003
0
LINE
8
F.Cu
6
CONTINUOUS
10
32.9738320000000016
20
-33.6597340000000003
11
33.0157019999999974
21
-33.7156680000000009
0
LINE
8
F.Cu
6
CONTINUOUS
10
33.0157019999999974
20
-33.7156680000000009
11
33.0206859999999978
21
-33.7853599999999972
0
LINE
8
F.Cu
6
CONTINUOUS
10
33.0206859999999978
20
-33.7853599999999972
11
32.9872000000000014
21
-33.8466820000000013
0
LINE
8
F.Cu
6
CONTINUOUS
10
32.9872000000000014
20
-33.8466820000000013
11
32.9738320000000016
21
-33.8582660000000004
0
LINE
8
F.Cu
6
CONTINUOUS
10
32.9738320000000016
20
-33.8582660000000004
11
32.9054519999999968
21
-33.9094550000000012
0
LINE
8
F.Cu
6
CONTINUOUS
10
32.9054519999999968
20
-33.9094550000000012
11
32.8192060000000012
21
-34.0246640000000014
0
LINE
8
F.Cu
6
CONTINUOUS
10
32.8192060000000012
20
-34.0246640000000014
11
32.8192019999999971
21
-34.0246709999999979
0
LINE
8
F.Cu
6
CONTINUOUS
10
32.8192019999999971
20
-34.0246709999999979
11
32.7689079999999962
21
-34.159517000000001
0
LINE
8
F.Cu
6
CONTINUOUS
10
32.7689079999999962
20
-34.159517000000001
11
32.7625010000000003
21
-34.2191159999999996
0
LINE
8
F.Cu
6
CONTINUOUS
10
32.7625010000000003
20
-34.2191159999999996
11
32.7625010000000003
21
-34.2191229999999962
0
LINE
8
F.Cu
6
CONTINUOUS
10
32.7625010000000003
20
-34.2191229999999962
11
32.7624999999999957
21
-34.2191350000000014
0
LINE
8
F.Cu
6
CONTINUOUS
10
32.7624999999999957
20
-34.2191350000000014
11
32.7624999999999957
21
-35.83887
0
LINE
8
F.Cu
6
CONTINUOUS
10
32.7624999999999957
20
-35.83887
11
32.7625010000000003
21
-35.8388759999999991
0
LINE
8
F.Cu
6
CONTINUOUS
10
32.7625010000000003
20
-35.8388759999999991
11
32.7689079999999962
21
-35.8984829999999988
0
LINE
8
F.Cu
6
CONTINUOUS
10
32.7689079999999962
20
-35.8984829999999988
11
32.8192019999999971
21
-36.0333279999999974
0
LINE
8
F.Cu
6
CONTINUOUS
10
32.8192019999999971
20
-36.0333279999999974
11
32.8192060000000012
21
-36.033335000000001
0
LINE
8
F.Cu
6
CONTINUOUS
10
32.8192060000000012
20
-36.033335000000001
11
32.9054519999999968
21
-36.1485440000000011
0
LINE
8
F.Cu
6
CONTINUOUS
10
32.9054519999999968
20
-36.1485440000000011
11
32.9054530000000014
21
-36.1485440000000011
0
LINE
8
F.Cu
6
CONTINUOUS
10
32.9054530000000014
20
-36.1485440000000011
11
32.9054539999999989
21
-36.1485459999999961
0
LINE
8
F.Cu
6
CONTINUOUS
10
32.9054539999999989
20
-36.1485459999999961
11
32.9544470000000018
21
-36.185221999999996
0
LINE
8
F.Cu
6
CONTINUOUS
10
32.9544470000000018
20
-36.185221999999996
11
32.9738320000000016
21
-36.1997339999999994
0
LINE
8
F.Cu
6
CONTINUOUS
10
32.9738320000000016
20
-36.1997339999999994
11
33.0157019999999974
21
-36.255668
0
LINE
8
F.Cu
6
CONTINUOUS
10
33.0157019999999974
20
-36.255668
11
33.0206859999999978
21
-36.3253599999999963
0
LINE
8
F.Cu
6
CONTINUOUS
10
33.0206859999999978
20
-36.3253599999999963
11
32.9872000000000014
21
-36.3866820000000004
0
LINE
8
F.Cu
6
CONTINUOUS
10
32.9872000000000014
20
-36.3866820000000004
11
32.9738320000000016
21
-36.3982659999999996
0
LINE
8
F.Cu
6
CONTINUOUS
10
32.9738320000000016
20
-36.3982659999999996
11
32.9054519999999968
21
-36.4494550000000004
0
LINE
8
F.Cu
6
CONTINUOUS
10
32.9054519999999968
20
-36.4494550000000004
11
32.8192060000000012
21
-36.5646640000000005
0
LINE
8
F.Cu
6
CONTINUOUS
10
32.8192060000000012
20
-36.5646640000000005
11
32.8192019999999971
21
-36.564670999999997
0
LINE
8
F.Cu
6
CONTINUOUS
10
32.8192019999999971
20
-36.564670999999997
11
32.7689079999999962
21
-36.6995170000000002
0
LINE
8
F.Cu
6
CONTINUOUS
10
32.7689079999999962
20
-36.6995170000000002
11
32.7625010000000003
21
-36.7591159999999988
0
LINE
8
F.Cu
6
CONTINUOUS
10
32.7625010000000003
20
-36.7591159999999988
11
32.7625010000000003
21
-36.7591229999999953
0
LINE
8
F.Cu
6
CONTINUOUS
10
32.7625010000000003
20
-36.7591229999999953
11
32.7624999999999957
21
-36.7591350000000006
0
LINE
8
F.Cu
6
CONTINUOUS
10
32.7624999999999957
20
-36.7591350000000006
11
32.7624999999999957
21
-38.3788699999999992
0
LINE
8
F.Cu
6
CONTINUOUS
10
32.7624999999999957
20
-38.3788699999999992
11
32.7625010000000003
21
-38.3788759999999982
0
LINE
8
F.Cu
6
CONTINUOUS
10
32.7625010000000003
20
-38.3788759999999982
11
32.7689079999999962
21
-38.438482999999998
0
LINE
8
F.Cu
6
CONTINUOUS
10
32.7689079999999962
20
-38.438482999999998
11
32.8192019999999971
21
-38.5733279999999965
0
LINE
8
F.Cu
6
CONTINUOUS
10
32.8192019999999971
20
-38.5733279999999965
11
32.8192060000000012
21
-38.5733350000000002
0
LINE
8
F.Cu
6
CONTINUOUS
10
32.8192060000000012
20
-38.5733350000000002
11
32.9054519999999968
21
-38.6885440000000003
0
LINE
8
F.Cu
6
CONTINUOUS
10
32.9054519999999968
20
-38.6885440000000003
11
32.9054549999999963
21
-38.6885469999999998
0
LINE
8
F.Cu
6
CONTINUOUS
10
32.9054549999999963
20
-38.6885469999999998
11
33.0206639999999965
21
-38.7747929999999954
0
LINE
8
F.Cu
6
CONTINUOUS
10
33.0206639999999965
20
-38.7747929999999954
11
33.0206710000000001
21
-38.7747969999999995
0
LINE
8
F.Cu
6
CONTINUOUS
10
33.0206710000000001
20
-38.7747969999999995
11
33.1555169999999961
21
-38.8250910000000005
0
LINE
8
F.Cu
6
CONTINUOUS
10
33.1555169999999961
20
-38.8250910000000005
11
33.1555159999999987
21
-38.8250910000000005
0
LINE
8
F.Cu
6
CONTINUOUS
10
33.1555159999999987
20
-38.8250910000000005
11
33.1624440000000007
21
-38.8258349999999979
0
LINE
8
F.Cu
6
CONTINUOUS
10
33.1624440000000007
20
-38.8258349999999979
11
33.2151269999999954
21
-38.8314999999999984
0
LINE
8
F.Cu
6
CONTINUOUS
10
33.2151269999999954
20
-38.8314999999999984
11
36.3358719999999948
21
-38.8314990000000009
0
LINE
8
F.Cu
6
CONTINUOUS
10
36.3358719999999948
20
-38.8314990000000009
11
36.3954829999999987
21
-38.8250910000000005
0
LINE
8
F.Cu
6
CONTINUOUS
10
36.3954829999999987
20
-38.8250910000000005
11
36.5303309999999968
21
-38.7747959999999949
0
LINE
8
F.Cu
6
CONTINUOUS
10
36.5303309999999968
20
-38.7747959999999949
11
36.645545999999996
21
-38.6885459999999952
0
LINE
8
F.Cu
6
CONTINUOUS
10
36.645545999999996
20
-38.6885459999999952
11
36.7317959999999957
21
-38.573330999999996
0
LINE
8
F.Cu
6
CONTINUOUS
10
36.7317959999999957
20
-38.573330999999996
11
36.7820910000000012
21
-38.438482999999998
0
LINE
8
F.Cu
6
CONTINUOUS
10
36.7820910000000012
20
-38.438482999999998
11
36.7884999999999991
21
-38.3788729999999987
0
LINE
8
F.Cu
6
CONTINUOUS
10
36.7884999999999991
20
-38.3788729999999987
11
36.7884990000000016
21
-38.0057800000000015
0
LINE
8
F.Cu
6
CONTINUOUS
10
36.7884990000000016
20
-38.0057800000000015
11
36.8081829999999997
21
-37.9387429999999952
0
LINE
8
F.Cu
6
CONTINUOUS
10
36.8081829999999997
20
-37.9387429999999952
11
36.8609870000000015
21
-37.8929879999999955
0
LINE
8
F.Cu
6
CONTINUOUS
10
36.8609870000000015
20
-37.8929879999999955
11
36.9301460000000006
21
-37.8830439999999982
0
LINE
8
F.Cu
6
CONTINUOUS
10
36.9301460000000006
20
-37.8830439999999982
11
36.9937010000000015
21
-37.9120689999999954
0
LINE
8
F.Cu
6
CONTINUOUS
10
36.9937010000000015
20
-37.9120689999999954
11
37.0001800000000003
21
-37.9181010000000001
0
LINE
8
F.Cu
6
CONTINUOUS
10
37.0001800000000003
20
-37.9181010000000001
11
38.9631809999999987
21
-39.881101000000001
0
LINE
8
F.Cu
6
CONTINUOUS
10
38.9631809999999987
20
-39.881101000000001
11
38.9966659999999976
21
-39.9424239999999955
0
LINE
8
F.Cu
6
CONTINUOUS
10
38.9966659999999976
20
-39.9424239999999955
11
38.9994999999999976
21
-39.9687819999999974
0
LINE
8
F.Cu
6
CONTINUOUS
10
38.9994999999999976
20
-39.9687819999999974
11
38.9994999999999976
21
-40.5629999999999953
0
LINE
8
F.Cu
6
CONTINUOUS
10
38.9994999999999976
20
-40.5629999999999953
11
38.979814999999995
21
-40.6300389999999965
0
LINE
8
F.Cu
6
CONTINUOUS
10
38.979814999999995
20
-40.6300389999999965
11
38.9270110000000003
21
-40.6757939999999962
0
LINE
8
F.Cu
6
CONTINUOUS
10
38.9270110000000003
20
-40.6757939999999962
11
38.8754999999999953
21
-40.6869999999999976
0
LINE
8
F.Cu
6
CONTINUOUS
10
38.8754999999999953
20
-40.6869999999999976
11
21.5139549999999993
21
-40.6869999999999976
0
LINE
8
F.Cu
6
CONTINUOUS
10
21.5139549999999993
20
-40.6869999999999976
11
21.417311999999999
21
-40.7062239999999989
0
LINE
8
F.Cu
6
CONTINUOUS
10
21.417311999999999
20
-40.7062239999999989
11
21.3206670000000003
21
-40.7254469999999955
0
LINE
8
F.Cu
6
CONTINUOUS
10
21.3206670000000003
20
-40.7254469999999955
11
21.3206609999999976
21
-40.7254489999999976
0
LINE
8
F.Cu
6
CONTINUOUS
10
21.3206609999999976
20
-40.7254489999999976
11
21.2673339999999982
21
-40.7475370000000012
0
LINE
8
F.Cu
6
CONTINUOUS
10
21.2673339999999982
20
-40.7475370000000012
11
21.2673339999999982
21
-40.7475379999999987
0
LINE
8
F.Cu
6
CONTINUOUS
10
21.2673339999999982
20
-40.7475379999999987
11
21.2218149999999994
21
-40.7663919999999962
0
LINE
8
F.Cu
6
CONTINUOUS
10
21.2218149999999994
20
-40.7663919999999962
11
21.1385889999999996
21
-40.8008659999999992
0
LINE
8
F.Cu
6
CONTINUOUS
10
21.1385889999999996
20
-40.8008659999999992
11
21.138579
21
-40.8008710000000008
0
LINE
8
F.Cu
6
CONTINUOUS
10
21.138579
20
-40.8008710000000008
11
20.9747190000000003
21
-40.9103589999999997
0
LINE
8
F.Cu
6
CONTINUOUS
10
20.9747190000000003
20
-40.9103589999999997
11
20.9050399999999996
21
-40.9800380000000004
0
LINE
8
F.Cu
6
CONTINUOUS
10
20.9050399999999996
20
-40.9800380000000004
11
20.8353609999999989
21
-41.0497179999999986
0
LINE
8
F.Cu
6
CONTINUOUS
10
20.8353609999999989
20
-41.0497179999999986
11
20.8353579999999994
21
-41.0497209999999981
0
LINE
8
F.Cu
6
CONTINUOUS
10
20.8353579999999994
20
-41.0497209999999981
11
18.3622209999999981
21
-43.5228579999999994
0
LINE
8
F.Cu
6
CONTINUOUS
10
18.3622209999999981
20
-43.5228579999999994
11
18.3622179999999986
21
-43.5228609999999989
0
LINE
8
F.Cu
6
CONTINUOUS
10
18.3622179999999986
20
-43.5228609999999989
11
18.2972599999999979
21
-43.5878189999999961
0
LINE
8
F.Cu
6
CONTINUOUS
10
18.2972599999999979
20
-43.5878189999999961
11
18.2228589999999997
21
-43.6622190000000003
0
LINE
8
F.Cu
6
CONTINUOUS
10
18.2228589999999997
20
-43.6622190000000003
11
18.1999999999999993
21
-43.6964299999999994
0
LINE
8
F.Cu
6
CONTINUOUS
10
18.1999999999999993
20
-43.6964299999999994
11
18.1999999999999993
21
-45.6433229999999952
0
LINE
8
F.Cu
6
CONTINUOUS
10
18.1999999999999993
20
-45.6433229999999952
11
18.7571759999999976
21
-46.2004990000000006
0
LINE
8
F.Cu
6
CONTINUOUS
10
18.7571759999999976
20
-46.2004990000000006
11
19.4000079999999997
21
-46.2004990000000006
0
LINE
8
F.Cu
6
CONTINUOUS
10
19.4000079999999997
20
-46.2004990000000006
11
19.4000160000000008
21
-46.2004979999999961
0
LINE
8
F.Cu
6
CONTINUOUS
10
19.4000160000000008
20
-46.2004979999999961
11
19.4000190000000003
21
-46.2004979999999961
0
LINE
8
F.Cu
6
CONTINUOUS
10
19.4000190000000003
20
-46.2004979999999961
11
19.4563020000000009
21
-46.194747999999997
0
LINE
8
F.Cu
6
CONTINUOUS
10
19.4563020000000009
20
-46.194747999999997
11
19.5027969999999975
21
-46.1899990000000003
0
LINE
8
F.Cu
6
CONTINUOUS
10
19.5027969999999975
20
-46.1899990000000003
11
19.6693339999999992
21
-46.1348139999999987
0
LINE
8
F.Cu
6
CONTINUOUS
10
19.6693339999999992
20
-46.1348139999999987
11
19.8186560000000007
21
-46.0427119999999945
0
LINE
8
F.Cu
6
CONTINUOUS
10
19.8186560000000007
20
-46.0427119999999945
11
19.9123190000000001
21
-45.9490489999999951
0
LINE
8
F.Cu
6
CONTINUOUS
10
19.9123190000000001
20
-45.9490489999999951
11
19.9736419999999981
21
-45.9155639999999963
0
LINE
8
F.Cu
6
CONTINUOUS
10
19.9736419999999981
20
-45.9155639999999963
11
20.043333999999998
21
-45.9205479999999966
0
LINE
8
F.Cu
6
CONTINUOUS
10
20.043333999999998
20
-45.9205479999999966
11
20.0876809999999999
21
-45.9490489999999951
0
LINE
8
F.Cu
6
CONTINUOUS
10
20.0876809999999999
20
-45.9490489999999951
11
20.1813439999999993
21
-46.0427119999999945
0
LINE
8
F.Cu
6
CONTINUOUS
10
20.1813439999999993
20
-46.0427119999999945
11
20.3306660000000008
21
-46.1348139999999987
0
LINE
8
F.Cu
6
CONTINUOUS
10
20.3306660000000008
20
-46.1348139999999987
11
20.497202999999999
21
-46.1899990000000003
0
LINE
8
F.Cu
6
CONTINUOUS
10
20.497202999999999
20
-46.1899990000000003
11
20.5999909999999993
21
-46.2004999999999981
0
LINE
8
F.Cu
6
CONTINUOUS
10
20.5999909999999993
20
-46.2004999999999981
11
21.4000079999999997
21
-46.2004990000000006
0
LINE
8
F.Cu
6
CONTINUOUS
10
21.4000079999999997
20
-46.2004990000000006
11
21.4000159999999973
21
-46.2004979999999961
0
LINE
8
F.Cu
6
CONTINUOUS
10
21.4000159999999973
20
-46.2004979999999961
11
21.4000190000000003
21
-46.2004979999999961
0
LINE
8
F.Cu
6
CONTINUOUS
10
21.4000190000000003
20
-46.2004979999999961
11
21.4563019999999973
21
-46.194747999999997
0
LINE
8
F.Cu
6
CONTINUOUS
10
21.4563019999999973
20
-46.194747999999997
11
21.5027969999999975
21
-46.1899990000000003
0
LINE
8
F.Cu
6
CONTINUOUS
10
21.5027969999999975
20
-46.1899990000000003
11
21.6693339999999992
21
-46.1348139999999987
0
LINE
8
F.Cu
6
CONTINUOUS
10
21.6693339999999992
20
-46.1348139999999987
11
21.8186560000000007
21
-46.0427119999999945
0
LINE
8
F.Cu
6
CONTINUOUS
10
21.8186560000000007
20
-46.0427119999999945
11
21.8245489999999975
21
-46.0368190000000013
0
LINE
8
F.Cu
6
CONTINUOUS
10
21.8245489999999975
20
-46.0368190000000013
11
21.8858719999999991
21
-46.0033339999999953
0
LINE
8
F.Cu
6
CONTINUOUS
10
21.8858719999999991
20
-46.0033339999999953
11
21.9122299999999974
21
-46.0004999999999953
0
LINE
8
F.Cu
6
CONTINUOUS
10
21.9122299999999974
20
-46.0004999999999953
11
23.3416919999999983
21
-46.0004999999999953
0
LINE
8
F.Cu
6
CONTINUOUS
10
23.3416919999999983
20
-46.0004999999999953
11
23.4087309999999995
21
-46.0201849999999979
0
LINE
8
F.Cu
6
CONTINUOUS
10
23.4087309999999995
20
-46.0201849999999979
11
23.4293680000000002
21
-46.0368139999999997
0
LINE
8
F.Cu
6
CONTINUOUS
10
23.4293680000000002
20
-46.0368139999999997
11
23.4981349999999978
21
-46.1055810000000008
0
LINE
8
F.Cu
6
CONTINUOUS
10
23.4981349999999978
20
-46.1055810000000008
11
23.639602
21
-46.1892439999999951
0
LINE
8
F.Cu
6
CONTINUOUS
10
23.639602
20
-46.1892439999999951
11
23.642201
21
-46.1899990000000003
0
LINE
8
F.Cu
6
CONTINUOUS
10
23.642201
20
-46.1899990000000003
11
23.797425999999998
21
-46.2350969999999961
0
LINE
8
F.Cu
6
CONTINUOUS
10
23.797425999999998
20
-46.2350969999999961
11
23.7974289999999975
21
-46.2350969999999961
0
LINE
8
F.Cu
6
CONTINUOUS
10
23.7974289999999975
20
-46.2350969999999961
11
23.7974309999999996
21
-46.2350980000000007
0
LINE
8
F.Cu
6
CONTINUOUS
10
23.7974309999999996
20
-46.2350980000000007
11
23.834305999999998
21
-46.2379999999999995
0
LINE
8
F.Cu
6
CONTINUOUS
10
23.834305999999998
20
-46.2379999999999995
11
23.8343139999999991
21
-46.2379999999999995
0
LINE
8
F.Cu
6
CONTINUOUS
10
23.8343139999999991
20
-46.2379999999999995
11
24.2656859999999988
21
-46.2379999999999995
0
LINE
8
F.Cu
6
CONTINUOUS
10
24.2656859999999988
20
-46.2379999999999995
11
24.2656939999999999
21
-46.2379999999999995
0
LINE
8
F.Cu
6
CONTINUOUS
10
24.2656939999999999
20
-46.2379999999999995
11
24.3025689999999983
21
-46.2350980000000007
0
LINE
8
F.Cu
6
CONTINUOUS
10
24.3025689999999983
20
-46.2350980000000007
11
24.3025710000000004
21
-46.2350969999999961
0
LINE
8
F.Cu
6
CONTINUOUS
10
24.3025710000000004
20
-46.2350969999999961
11
24.3025729999999989
21
-46.2350969999999961
0
LINE
8
F.Cu
6
CONTINUOUS
10
24.3025729999999989
20
-46.2350969999999961
11
24.3441909999999986
21
-46.2230050000000006
0
LINE
8
F.Cu
6
CONTINUOUS
10
24.3441909999999986
20
-46.2230050000000006
11
24.4603979999999979
21
-46.1892439999999951
0
LINE
8
F.Cu
6
CONTINUOUS
10
24.4603979999999979
20
-46.1892439999999951
11
24.6018650000000001
21
-46.1055810000000008
0
LINE
8
F.Cu
6
CONTINUOUS
10
24.6018650000000001
20
-46.1055810000000008
11
24.718080999999998
21
-45.9893649999999994
0
LINE
8
F.Cu
6
CONTINUOUS
10
24.718080999999998
20
-45.9893649999999994
11
24.8017439999999993
21
-45.8478980000000007
0
LINE
8
F.Cu
6
CONTINUOUS
10
24.8017439999999993
20
-45.8478980000000007
11
24.8475979999999979
21
-45.6900690000000012
0
LINE
8
F.Cu
6
CONTINUOUS
10
24.8475979999999979
20
-45.6900690000000012
11
24.8505000000000003
21
-45.6531939999999992
0
LINE
8
F.Cu
6
CONTINUOUS
10
24.8505000000000003
20
-45.6531939999999992
11
24.8505000000000003
21
-45.6404339999999991
0
LINE
8
F.Cu
6
CONTINUOUS
10
24.8505000000000003
20
-45.6404339999999991
11
24.8558279999999989
21
-45.6222879999999975
0
LINE
8
F.Cu
6
CONTINUOUS
10
24.8558279999999989
20
-45.6222879999999975
11
24.8561659999999982
21
-45.6033800000000014
0
LINE
8
F.Cu
6
CONTINUOUS
10
24.8561659999999982
20
-45.6033800000000014
11
24.8696649999999977
21
-45.5751640000000009
0
LINE
8
F.Cu
6
CONTINUOUS
10
24.8696649999999977
20
-45.5751640000000009
11
24.8701849999999993
21
-45.5733949999999979
0
LINE
8
F.Cu
6
CONTINUOUS
10
24.8701849999999993
20
-45.5733949999999979
11
24.8713979999999992
21
-45.5715429999999984
0
LINE
8
F.Cu
6
CONTINUOUS
10
24.8713979999999992
20
-45.5715429999999984
11
24.8968980000000002
21
-45.5333800000000011
0
LINE
8
F.Cu
6
CONTINUOUS
10
24.8968980000000002
20
-45.5333800000000011
11
24.9505109999999988
21
-45.4885749999999973
0
LINE
8
F.Cu
6
CONTINUOUS
10
24.9505109999999988
20
-45.4885749999999973
11
25.019835999999998
21
-45.4798679999999962
0
LINE
8
F.Cu
6
CONTINUOUS
10
25.019835999999998
20
-45.4798679999999962
11
25.0828629999999997
21
-45.5100229999999968
0
LINE
8
F.Cu
6
CONTINUOUS
10
25.0828629999999997
20
-45.5100229999999968
11
25.1031019999999998
21
-45.5333800000000011
0
LINE
8
F.Cu
6
CONTINUOUS
10
25.1031019999999998
20
-45.5333800000000011
11
25.1286019999999972
21
-45.5715429999999984
0
LINE
8
F.Cu
6
CONTINUOUS
10
25.1286019999999972
20
-45.5715429999999984
11
25.1494800000000005
21
-45.6382199999999969
0
LINE
8
F.Cu
6
CONTINUOUS
10
25.1494800000000005
20
-45.6382199999999969
11
25.1494999999999997
21
-45.6404339999999991
0
LINE
8
F.Cu
6
CONTINUOUS
10
25.1494999999999997
20
-45.6404339999999991
11
25.1494999999999997
21
-45.6532009999999957
0
LINE
8
F.Cu
6
CONTINUOUS
10
25.1494999999999997
20
-45.6532009999999957
11
25.1524009999999976
21
-45.6900669999999991
0
LINE
8
F.Cu
6
CONTINUOUS
10
25.1524009999999976
20
-45.6900669999999991
11
25.1524019999999986
21
-45.6900729999999982
0
LINE
8
F.Cu
6
CONTINUOUS
10
25.1524019999999986
20
-45.6900729999999982
11
25.1982539999999986
21
-45.8478929999999991
0
LINE
8
F.Cu
6
CONTINUOUS
10
25.1982539999999986
20
-45.8478929999999991
11
25.1982549999999996
21
-45.8478959999999987
0
LINE
8
F.Cu
6
CONTINUOUS
10
25.1982549999999996
20
-45.8478959999999987
11
25.281917
21
-45.9893619999999999
0
LINE
8
F.Cu
6
CONTINUOUS
10
25.281917
20
-45.9893619999999999
11
25.281922999999999
21
-45.989370000000001
0
LINE
8
F.Cu
6
CONTINUOUS
10
25.281922999999999
20
-45.989370000000001
11
25.3981289999999973
21
-46.1055759999999992
0
LINE
8
F.Cu
6
CONTINUOUS
10
25.3981289999999973
20
-46.1055759999999992
11
25.3981329999999978
21
-46.1055789999999988
0
LINE
8
F.Cu
6
CONTINUOUS
10
25.3981329999999978
20
-46.1055789999999988
11
25.3981349999999999
21
-46.1055810000000008
0
LINE
8
F.Cu
6
CONTINUOUS
10
25.3981349999999999
20
-46.1055810000000008
11
25.5396019999999986
21
-46.1892439999999951
0
LINE
8
F.Cu
6
CONTINUOUS
10
25.5396019999999986
20
-46.1892439999999951
11
25.5422009999999986
21
-46.1899990000000003
0
LINE
8
F.Cu
6
CONTINUOUS
10
25.5422009999999986
20
-46.1899990000000003
11
25.6974260000000001
21
-46.2350969999999961
0
LINE
8
F.Cu
6
CONTINUOUS
10
25.6974260000000001
20
-46.2350969999999961
11
25.6974289999999996
21
-46.2350969999999961
0
LINE
8
F.Cu
6
CONTINUOUS
10
25.6974289999999996
20
-46.2350969999999961
11
25.6974309999999981
21
-46.2350980000000007
0
LINE
8
F.Cu
6
CONTINUOUS
10
25.6974309999999981
20
-46.2350980000000007
11
25.7343060000000001
21
-46.2379999999999995
0
LINE
8
F.Cu
6
CONTINUOUS
10
25.7343060000000001
20
-46.2379999999999995
11
25.7343139999999977
21
-46.2379999999999995
0
LINE
8
F.Cu
6
CONTINUOUS
10
25.7343139999999977
20
-46.2379999999999995
11
26.1656859999999973
21
-46.2379999999999995
0
LINE
8
F.Cu
6
CONTINUOUS
10
26.1656859999999973
20
-46.2379999999999995
11
26.1656939999999985
21
-46.2379999999999995
0
LINE
8
F.Cu
6
CONTINUOUS
10
26.1656939999999985
20
-46.2379999999999995
11
26.2025690000000004
21
-46.2350980000000007
0
LINE
8
F.Cu
6
CONTINUOUS
10
26.2025690000000004
20
-46.2350980000000007
11
26.2025709999999989
21
-46.2350969999999961
0
LINE
8
F.Cu
6
CONTINUOUS
10
26.2025709999999989
20
-46.2350969999999961
11
26.2025729999999974
21
-46.2350969999999961
0
LINE
8
F.Cu
6
CONTINUOUS
10
26.2025729999999974
20
-46.2350969999999961
11
26.2441909999999972
21
-46.2230050000000006
0
LINE
8
F.Cu
6
CONTINUOUS
10
26.2441909999999972
20
-46.2230050000000006
11
26.360398
21
-46.1892439999999951
0
LINE
8
F.Cu
6
CONTINUOUS
10
26.360398
20
-46.1892439999999951
11
26.5018649999999987
21
-46.1055810000000008
0
LINE
8
F.Cu
6
CONTINUOUS
10
26.5018649999999987
20
-46.1055810000000008
11
26.5706279999999992
21
-46.0368169999999992
0
LINE
8
F.Cu
6
CONTINUOUS
10
26.5706279999999992
20
-46.0368169999999992
11
26.6319489999999988
21
-46.0033339999999953
0
LINE
8
F.Cu
6
CONTINUOUS
10
26.6319489999999988
20
-46.0033339999999953
11
26.6583079999999981
21
-46.0004999999999953
0
LINE
8
F.Cu
6
CONTINUOUS
10
26.6583079999999981
20
-46.0004999999999953
11
41.6865060000000014
21
-46.0004999999999953
0
LINE
8
F.Cu
6
CONTINUOUS
10
41.6865060000000014
20
-46.0004999999999953
11
50.9604999999999961
21
-36.726504999999996
0
LINE
8
F.Cu
6
CONTINUOUS
10
50.9604999999999961
20
-36.726504999999996
11
50.9604999999999961
21
-35.4766410000000008
0
LINE
8
F.Cu
6
CONTINUOUS
10
50.9604999999999961
20
-35.4766410000000008
11
50.9801849999999988
21
-35.4096019999999996
0
LINE
8
F.Cu
6
CONTINUOUS
10
50.9801849999999988
20
-35.4096019999999996
11
51.0329890000000006
21
-35.3638469999999998
0
LINE
8
F.Cu
6
CONTINUOUS
10
51.0329890000000006
20
-35.3638469999999998
11
51.0411489999999972
21
-35.3604659999999953
0
LINE
8
F.Cu
6
CONTINUOUS
10
51.0411489999999972
20
-35.3604659999999953
11
51.0523309999999952
21
-35.3562960000000004
0
LINE
8
F.Cu
6
CONTINUOUS
10
51.0523309999999952
20
-35.3562960000000004
11
51.1675459999999944
21
-35.2700460000000007
0
LINE
8
F.Cu
6
CONTINUOUS
10
51.1675459999999944
20
-35.2700460000000007
11
51.2537959999999941
21
-35.1548310000000015
0
LINE
8
F.Cu
6
CONTINUOUS
10
51.2537959999999941
20
-35.1548310000000015
11
51.3040909999999997
21
-35.0199829999999963
0
LINE
8
F.Cu
6
CONTINUOUS
10
51.3040909999999997
20
-35.0199829999999963
11
51.3104999999999976
21
-34.960372999999997
0
LINE
8
F.Cu
6
CONTINUOUS
10
51.3104999999999976
20
-34.960372999999997
11
51.3104990000000001
21
-34.9364789999999985
0
LINE
8
F.Cu
6
CONTINUOUS
10
51.3104990000000001
20
-34.9364789999999985
11
51.3133300000000006
21
-34.9234629999999981
0
LINE
8
F.Cu
6
CONTINUOUS
10
51.3133300000000006
20
-34.9234629999999981
11
51.3239400000000003
21
-34.9040249999999972
0
LINE
8
F.Cu
6
CONTINUOUS
10
51.3239400000000003
20
-34.9040249999999972
11
51.3301790000000011
21
-34.8827749999999952
0
LINE
8
F.Cu
6
CONTINUOUS
10
51.3301790000000011
20
-34.8827749999999952
11
51.3468029999999942
21
-34.8621429999999961
0
LINE
8
F.Cu
6
CONTINUOUS
10
51.3468029999999942
20
-34.8621429999999961
11
51.3468079999999958
21
-34.8621359999999996
0
LINE
8
F.Cu
6
CONTINUOUS
10
51.3468079999999958
20
-34.8621359999999996
11
51.3468109999999953
21
-34.8621339999999975
0
LINE
8
F.Cu
6
CONTINUOUS
10
51.3468109999999953
20
-34.8621339999999975
11
51.346817999999999
21
-34.8621259999999964
0
LINE
8
F.Cu
6
CONTINUOUS
10
51.346817999999999
20
-34.8621259999999964
11
51.7490159999999975
21
-34.4599270000000004
0
LINE
8
F.Cu
6
CONTINUOUS
10
51.7490159999999975
20
-34.4599270000000004
11
51.686600999999996
21
-34.3092419999999976
0
LINE
8
F.Cu
6
CONTINUOUS
10
51.686600999999996
20
-34.3092419999999976
11
51.654092999999996
21
-34.1458149999999989
0
LINE
8
F.Cu
6
CONTINUOUS
10
51.654092999999996
20
-34.1458149999999989
11
51.654092999999996
21
-33.9791850000000011
0
LINE
8
F.Cu
6
CONTINUOUS
10
51.654092999999996
20
-33.9791850000000011
11
51.686600999999996
21
-33.8157579999999953
0
LINE
8
F.Cu
6
CONTINUOUS
10
51.686600999999996
20
-33.8157579999999953
11
51.7490169999999949
21
-33.6650709999999975
0
LINE
8
F.Cu
6
CONTINUOUS
10
51.7490169999999949
20
-33.6650709999999975
11
51.346817999999999
21
-33.2628720000000015
0
LINE
8
F.Cu
6
CONTINUOUS
10
51.346817999999999
20
-33.2628720000000015
11
51.3133330000000001
21
-33.201549
0
LINE
8
F.Cu
6
CONTINUOUS
10
51.3133330000000001
20
-33.201549
11
51.3133300000000006
21
-33.2015359999999973
0
LINE
8
F.Cu
6
CONTINUOUS
10
51.3133300000000006
20
-33.2015359999999973
11
51.3104990000000001
21
-33.1885149999999953
0
LINE
8
F.Cu
6
CONTINUOUS
10
51.3104990000000001
20
-33.1885149999999953
11
51.3104990000000001
21
-33.1646280000000004
0
LINE
8
F.Cu
6
CONTINUOUS
10
51.3104990000000001
20
-33.1646280000000004
11
51.3040909999999997
21
-33.1050169999999966
0
LINE
8
F.Cu
6
CONTINUOUS
10
51.3040909999999997
20
-33.1050169999999966
11
51.2759259999999983
21
-33.0295020000000008
0
LINE
8
F.Cu
6
CONTINUOUS
10
51.2759259999999983
20
-33.0295020000000008
11
51.2537979999999962
21
-32.9701729999999955
0
LINE
8
F.Cu
6
CONTINUOUS
10
51.2537979999999962
20
-32.9701729999999955
11
51.2537929999999946
21
-32.9701639999999969
0
LINE
8
F.Cu
6
CONTINUOUS
10
51.2537929999999946
20
-32.9701639999999969
11
51.167546999999999
21
-32.8549549999999968
0
LINE
8
F.Cu
6
CONTINUOUS
10
51.167546999999999
20
-32.8549549999999968
11
51.1675439999999995
21
-32.8549519999999973
0
LINE
8
F.Cu
6
CONTINUOUS
10
51.1675439999999995
20
-32.8549519999999973
11
51.0523349999999994
21
-32.7687060000000017
0
LINE
8
F.Cu
6
CONTINUOUS
10
51.0523349999999994
20
-32.7687060000000017
11
51.0523279999999957
21
-32.7687019999999976
0
LINE
8
F.Cu
6
CONTINUOUS
10
51.0523279999999957
20
-32.7687019999999976
11
50.9174819999999997
21
-32.7184079999999966
0
LINE
8
F.Cu
6
CONTINUOUS
10
50.9174819999999997
20
-32.7184079999999966
11
50.9174829999999972
21
-32.7184079999999966
0
LINE
8
F.Cu
6
CONTINUOUS
10
50.9174829999999972
20
-32.7184079999999966
11
50.8578830000000011
21
-32.7120010000000008
0
LINE
8
F.Cu
6
CONTINUOUS
10
50.8578830000000011
20
-32.7120010000000008
11
50.857880999999999
21
-32.7119999999999962
0
LINE
8
F.Cu
6
CONTINUOUS
10
50.857880999999999
20
-32.7119999999999962
11
50.8578729999999979
21
-32.7119999999999962
0
LINE
8
F.Cu
6
CONTINUOUS
10
50.8578729999999979
20
-32.7119999999999962
11
50.8578639999999993
21
-32.7119999999999962
0
LINE
8
F.Cu
6
CONTINUOUS
10
50.8578639999999993
20
-32.7119999999999962
11
49.0621289999999988
21
-32.7119999999999962
0
LINE
8
F.Cu
6
CONTINUOUS
10
49.0621289999999988
20
-32.7119999999999962
11
49.0621229999999997
21
-32.7120010000000008
0
LINE
8
F.Cu
6
CONTINUOUS
10
49.0621229999999997
20
-32.7120010000000008
11
49.002516
21
-32.7184079999999966
0
LINE
8
F.Cu
6
CONTINUOUS
10
49.002516
20
-32.7184079999999966
11
48.8676709999999943
21
-32.7687019999999976
0
LINE
8
F.Cu
6
CONTINUOUS
10
48.8676709999999943
20
-32.7687019999999976
11
48.8676639999999978
21
-32.7687060000000017
0
LINE
8
F.Cu
6
CONTINUOUS
10
48.8676639999999978
20
-32.7687060000000017
11
48.7524549999999977
21
-32.8549519999999973
0
LINE
8
F.Cu
6
CONTINUOUS
10
48.7524549999999977
20
-32.8549519999999973
11
48.7524519999999981
21
-32.8549549999999968
0
LINE
8
F.Cu
6
CONTINUOUS
10
48.7524519999999981
20
-32.8549549999999968
11
48.6662059999999954
21
-32.9701639999999969
0
LINE
8
F.Cu
6
CONTINUOUS
10
48.6662059999999954
20
-32.9701639999999969
11
48.6662019999999984
21
-32.9701710000000006
0
LINE
8
F.Cu
6
CONTINUOUS
10
48.6662019999999984
20
-32.9701710000000006
11
48.6159079999999975
21
-33.1050169999999966
0
LINE
8
F.Cu
6
CONTINUOUS
10
48.6159079999999975
20
-33.1050169999999966
11
48.6095009999999945
21
-33.1646159999999952
0
LINE
8
F.Cu
6
CONTINUOUS
10
48.6095009999999945
20
-33.1646159999999952
11
48.609499999999997
21
-33.164634999999997
0
LINE
8
F.Cu
6
CONTINUOUS
10
48.609499999999997
20
-33.164634999999997
11
48.609499999999997
21
-34.9603699999999975
0
LINE
8
F.Cu
6
CONTINUOUS
10
48.609499999999997
20
-34.9603699999999975
11
48.6095009999999945
21
-34.9603759999999966
0
LINE
8
F.Cu
6
CONTINUOUS
10
48.6095009999999945
20
-34.9603759999999966
11
48.6159079999999975
21
-35.0199829999999963
0
LINE
8
F.Cu
6
CONTINUOUS
10
48.6159079999999975
20
-35.0199829999999963
11
48.6662019999999984
21
-35.1548279999999949
0
LINE
8
F.Cu
6
CONTINUOUS
10
48.6662019999999984
20
-35.1548279999999949
11
48.6662059999999954
21
-35.1548349999999985
0
LINE
8
F.Cu
6
CONTINUOUS
10
48.6662059999999954
20
-35.1548349999999985
11
48.7524519999999981
21
-35.2700439999999986
0
LINE
8
F.Cu
6
CONTINUOUS
10
48.7524519999999981
20
-35.2700439999999986
11
48.7524549999999977
21
-35.2700469999999981
0
LINE
8
F.Cu
6
CONTINUOUS
10
48.7524549999999977
20
-35.2700469999999981
11
48.8676649999999952
21
-35.3562939999999983
0
LINE
8
F.Cu
6
CONTINUOUS
10
48.8676649999999952
20
-35.3562939999999983
11
48.8676669999999973
21
-35.3562939999999983
0
LINE
8
F.Cu
6
CONTINUOUS
10
48.8676669999999973
20
-35.3562939999999983
11
48.8676689999999994
21
-35.3562960000000004
0
LINE
8
F.Cu
6
CONTINUOUS
10
48.8676689999999994
20
-35.3562960000000004
11
48.8788300000000007
21
-35.3604580000000013
0
LINE
8
F.Cu
6
CONTINUOUS
10
48.8788300000000007
20
-35.3604580000000013
11
48.9347640000000013
21
-35.4023259999999951
0
LINE
8
F.Cu
6
CONTINUOUS
10
48.9347640000000013
20
-35.4023259999999951
11
48.9591840000000005
21
-35.4677889999999962
0
LINE
8
F.Cu
6
CONTINUOUS
10
48.9591840000000005
20
-35.4677889999999962
11
48.9594999999999985
21
-35.4766410000000008
0
LINE
8
F.Cu
6
CONTINUOUS
10
48.9594999999999985
20
-35.4766410000000008
11
48.9594999999999985
21
-36.2712730000000008
0
LINE
8
F.Cu
6
CONTINUOUS
10
48.9594999999999985
20
-36.2712730000000008
11
48.9398149999999958
21
-36.3383119999999948
0
LINE
8
F.Cu
6
CONTINUOUS
10
48.9398149999999958
20
-36.3383119999999948
11
48.9231809999999996
21
-36.3589539999999971
0
LINE
8
F.Cu
6
CONTINUOUS
10
48.9231809999999996
20
-36.3589539999999971
11
44.4971809999999977
21
-40.784953999999999
0
LINE
8
F.Cu
6
CONTINUOUS
10
44.4971809999999977
20
-40.784953999999999
11
44.4358579999999961
21
-40.8184389999999979
0
LINE
8
F.Cu
6
CONTINUOUS
10
44.4358579999999961
20
-40.8184389999999979
11
44.3661659999999998
21
-40.8134549999999976
0
LINE
8
F.Cu
6
CONTINUOUS
10
44.3661659999999998
20
-40.8134549999999976
11
44.3102329999999967
21
-40.7715829999999997
0
LINE
8
F.Cu
6
CONTINUOUS
10
44.3102329999999967
20
-40.7715829999999997
11
44.285815999999997
21
-40.7061190000000011
0
LINE
8
F.Cu
6
CONTINUOUS
10
44.285815999999997
20
-40.7061190000000011
11
44.285499999999999
21
-40.6972729999999956
0
LINE
8
F.Cu
6
CONTINUOUS
10
44.285499999999999
20
-40.6972729999999956
11
44.285499999999999
21
-28.0649999999999977
0
LINE
8
F.Cu
6
CONTINUOUS
10
44.285499999999999
20
-28.0649999999999977
11
44.3051849999999945
21
-27.9979610000000001
0
LINE
8
F.Cu
6
CONTINUOUS
10
44.3051849999999945
20
-27.9979610000000001
11
44.3579889999999963
21
-27.9522060000000003
0
LINE
8
F.Cu
6
CONTINUOUS
10
44.3579889999999963
20
-27.9522060000000003
11
44.4271469999999979
21
-27.9422619999999995
0
LINE
8
F.Cu
6
CONTINUOUS
10
44.4271469999999979
20
-27.9422619999999995
11
44.4478189999999955
21
-27.9470689999999991
0
LINE
8
F.Cu
6
CONTINUOUS
10
44.4478189999999955
20
-27.9470689999999991
11
44.5303609999999992
21
-27.9738889999999998
0
LINE
8
F.Cu
6
CONTINUOUS
10
44.5303609999999992
20
-27.9738889999999998
11
44.7425730000000001
21
-28.0075000000000003
0
LINE
8
F.Cu
6
CONTINUOUS
10
44.7425730000000001
20
-28.0075000000000003
11
44.75
21
-28.0075000000000003
0
LINE
8
F.Cu
6
CONTINUOUS
10
44.75
20
-28.0075000000000003
11
44.75
21
-27.5003080000000004
0
LINE
8
F.Cu
6
CONTINUOUS
10
44.75
20
-27.5003080000000004
11
44.5989039999999974
21
-27.4702529999999996
0
LINE
8
F.Cu
6
CONTINUOUS
10
44.5989039999999974
20
-27.4702529999999996
11
44.4422420000000002
21
-27.4053620000000002
0
LINE
8
F.Cu
6
CONTINUOUS
10
44.4422420000000002
20
-27.4053620000000002
11
44.301249999999996
21
-27.3111539999999984
0
LINE
8
F.Cu
6
CONTINUOUS
10
44.301249999999996
20
-27.3111539999999984
11
44.1813459999999978
21
-27.1912500000000001
0
LINE
8
F.Cu
6
CONTINUOUS
10
44.1813459999999978
20
-27.1912500000000001
11
44.0871379999999959
21
-27.0502579999999995
0
LINE
8
F.Cu
6
CONTINUOUS
10
44.0871379999999959
20
-27.0502579999999995
11
44.0222470000000001
21
-26.8935959999999987
0
LINE
8
F.Cu
6
CONTINUOUS
10
44.0222470000000001
20
-26.8935959999999987
11
43.9891649999999998
21
-26.7272849999999984
0
LINE
8
F.Cu
6
CONTINUOUS
10
43.9891649999999998
20
-26.7272849999999984
11
43.9891649999999998
21
-26.5577149999999982
0
LINE
8
F.Cu
6
CONTINUOUS
10
43.9891649999999998
20
-26.5577149999999982
11
44.0222470000000001
21
-26.3914039999999979
0
LINE
8
F.Cu
6
CONTINUOUS
10
44.0222470000000001
20
-26.3914039999999979
11
44.0871379999999959
21
-26.2347419999999971
0
LINE
8
F.Cu
6
CONTINUOUS
10
44.0871379999999959
20
-26.2347419999999971
11
44.1813459999999978
21
-26.09375
0
LINE
8
F.Cu
6
CONTINUOUS
10
44.1813459999999978
20
-26.09375
11
44.301249999999996
21
-25.9738459999999982
0
LINE
8
F.Cu
6
CONTINUOUS
10
44.301249999999996
20
-25.9738459999999982
11
44.4422420000000002
21
-25.8796379999999999
0
LINE
8
F.Cu
6
CONTINUOUS
10
44.4422420000000002
20
-25.8796379999999999
11
44.5989039999999974
21
-25.8147470000000006
0
LINE
8
F.Cu
6
CONTINUOUS
10
44.5989039999999974
20
-25.8147470000000006
11
44.7652149999999978
21
-25.7816650000000003
0
LINE
8
F.Cu
6
CONTINUOUS
10
44.7652149999999978
20
-25.7816650000000003
11
44.8500000000000014
21
-25.7774999999999999
0
LINE
8
F.Cu
6
CONTINUOUS
10
44.8500000000000014
20
-25.7774999999999999
11
45.1499999999999986
21
-25.7774999999999999
0
LINE
8
F.Cu
6
CONTINUOUS
10
45.1499999999999986
20
-25.7774999999999999
11
45.2347849999999951
21
-25.7816650000000003
0
LINE
8
F.Cu
6
CONTINUOUS
10
45.2347849999999951
20
-25.7816650000000003
11
45.4010959999999955
21
-25.8147470000000006
0
LINE
8
F.Cu
6
CONTINUOUS
10
45.4010959999999955
20
-25.8147470000000006
11
45.5577579999999998
21
-25.8796379999999999
0
LINE
8
F.Cu
6
CONTINUOUS
10
45.5577579999999998
20
-25.8796379999999999
11
45.6987499999999969
21
-25.9738459999999982
0
LINE
8
F.Cu
6
CONTINUOUS
10
45.6987499999999969
20
-25.9738459999999982
11
45.8186539999999951
21
-26.09375
0
LINE
8
F.Cu
6
CONTINUOUS
10
45.8186539999999951
20
-26.09375
11
45.851227999999999
21
-26.1424999999999983
0
LINE
8
F.Cu
6
CONTINUOUS
10
45.851227999999999
20
-26.1424999999999983
11
46.422785999999995
21
-26.1424999999999983
0
LINE
8
F.Cu
6
CONTINUOUS
10
46.422785999999995
20
-26.1424999999999983
11
46.414995999999995
21
-26.1185239999999972
0
LINE
8
F.Cu
6
CONTINUOUS
10
46.414995999999995
20
-26.1185239999999972
11
46.3174519999999958
21
-25.9270829999999997
0
LINE
8
F.Cu
6
CONTINUOUS
10
46.3174519999999958
20
-25.9270829999999997
11
46.191161000000001
21
-25.7532589999999999
0
LINE
8
F.Cu
6
CONTINUOUS
10
46.191161000000001
20
-25.7532589999999999
11
46.0392399999999995
21
-25.6013379999999984
0
LINE
8
F.Cu
6
CONTINUOUS
10
46.0392399999999995
20
-25.6013379999999984
11
45.8627719999999997
21
-25.4731260000000006
0
LINE
8
F.Cu
6
CONTINUOUS
10
45.8627719999999997
20
-25.4731260000000006
11
45.8459760000000003
21
-25.4513449999999999
0
LINE
8
F.Cu
6
CONTINUOUS
10
45.8459760000000003
20
-25.4513449999999999
11
45.8266029999999986
21
-25.4318249999999999
0
LINE
8
F.Cu
6
CONTINUOUS
10
45.8266029999999986
20
-25.4318249999999999
11
45.8249469999999945
21
-25.4240719999999989
0
LINE
8
F.Cu
6
CONTINUOUS
10
45.8249469999999945
20
-25.4240719999999989
11
45.8201070000000001
21
-25.4177959999999992
0
LINE
8
F.Cu
6
CONTINUOUS
10
45.8201070000000001
20
-25.4177959999999992
11
45.8177529999999962
21
-25.390394999999998
0
LINE
8
F.Cu
6
CONTINUOUS
10
45.8177529999999962
20
-25.390394999999998
11
45.8120079999999987
21
-25.3634969999999988
0
LINE
8
F.Cu
6
CONTINUOUS
10
45.8120079999999987
20
-25.3634969999999988
11
45.8148059999999973
21
-25.3560789999999976
0
LINE
8
F.Cu
6
CONTINUOUS
10
45.8148059999999973
20
-25.3560789999999976
11
45.8141279999999966
21
-25.3481819999999978
0
LINE
8
F.Cu
6
CONTINUOUS
10
45.8141279999999966
20
-25.3481819999999978
11
45.8269619999999946
21
-25.3238579999999978
0
LINE
8
F.Cu
6
CONTINUOUS
10
45.8269619999999946
20
-25.3238579999999978
11
45.8366709999999955
21
-25.2981249999999989
0
LINE
8
F.Cu
6
CONTINUOUS
10
45.8366709999999955
20
-25.2981249999999989
11
45.8447029999999955
21
-25.2902360000000002
0
LINE
8
F.Cu
6
CONTINUOUS
10
45.8447029999999955
20
-25.2902360000000002
11
45.8467339999999979
21
-25.2863879999999988
0
LINE
8
F.Cu
6
CONTINUOUS
10
45.8467339999999979
20
-25.2863879999999988
11
45.8617220000000003
21
-25.273261999999999
0
LINE
8
F.Cu
6
CONTINUOUS
10
45.8617220000000003
20
-25.273261999999999
11
45.8654359999999954
21
-25.2705020000000005
0
LINE
8
F.Cu
6
CONTINUOUS
10
45.8654359999999954
20
-25.2705020000000005
11
45.8656779999999955
21
-25.2703799999999994
0
LINE
8
F.Cu
6
CONTINUOUS
10
45.8656779999999955
20
-25.2703799999999994
11
46.0395630000000011
21
-25.1440449999999984
0
LINE
8
F.Cu
6
CONTINUOUS
10
46.0395630000000011
20
-25.1440449999999984
11
46.0507259999999974
21
-25.1328809999999976
0
LINE
8
F.Cu
6
CONTINUOUS
10
46.0507259999999974
20
-25.1328809999999976
11
46.0580339999999993
21
-25.1274540000000002
0
LINE
8
F.Cu
6
CONTINUOUS
10
46.0580339999999993
20
-25.1274540000000002
11
46.0826159999999945
21
-25.118389999999998
0
LINE
8
F.Cu
6
CONTINUOUS
10
46.0826159999999945
20
-25.118389999999998
11
46.1056120000000007
21
-25.105833999999998
0
LINE
8
F.Cu
6
CONTINUOUS
10
46.1056120000000007
20
-25.105833999999998
11
46.1212260000000001
21
-25.1041549999999987
0
LINE
8
F.Cu
6
CONTINUOUS
10
46.1212260000000001
20
-25.1041549999999987
11
46.1235889999999955
21
-25.1032839999999986
0
LINE
8
F.Cu
6
CONTINUOUS
10
46.1235889999999955
20
-25.1032839999999986
11
46.1254640000000009
21
-25.1036989999999989
0
LINE
8
F.Cu
6
CONTINUOUS
10
46.1254640000000009
20
-25.1036989999999989
11
46.1319699999999955
21
-25.102999999999998
0
LINE
8
F.Cu
6
CONTINUOUS
10
46.1319699999999955
20
-25.102999999999998
11
47.4014589999999956
21
-25.102999999999998
0
LINE
8
F.Cu
6
CONTINUOUS
10
47.4014589999999956
20
-25.102999999999998
11
51.3680299999999974
21
-25.102999999999998
0
LINE
8
F.Cu
6
CONTINUOUS
10
51.3680299999999974
20
-25.102999999999998
11
51.4350689999999986
21
-25.1226850000000006
0
LINE
8
F.Cu
6
CONTINUOUS
10
51.4350689999999986
20
-25.1226850000000006
11
51.4557110000000009
21
-25.1393190000000004
0
LINE
8
F.Cu
6
CONTINUOUS
10
51.4557110000000009
20
-25.1393190000000004
11
51.4604369999999989
21
-25.1440449999999984
0
LINE
8
F.Cu
6
CONTINUOUS
10
51.4604369999999989
20
-25.1440449999999984
11
51.4604399999999984
21
-25.1440470000000005
0
LINE
8
F.Cu
6
CONTINUOUS
10
51.4604399999999984
20
-25.1440470000000005
11
51.6372259999999983
21
-25.2724899999999977
0
LINE
8
F.Cu
6
CONTINUOUS
10
51.6372259999999983
20
-25.2724899999999977
11
51.6798919999999953
21
-25.3278199999999991
0
LINE
8
F.Cu
6
CONTINUOUS
10
51.6798919999999953
20
-25.3278199999999991
11
51.6858709999999988
21
-25.3974329999999995
0
LINE
8
F.Cu
6
CONTINUOUS
10
51.6858709999999988
20
-25.3974329999999995
11
51.6532649999999975
21
-25.4592279999999995
0
LINE
8
F.Cu
6
CONTINUOUS
10
51.6532649999999975
20
-25.4592279999999995
11
51.6372269999999958
21
-25.4731260000000006
0
LINE
8
F.Cu
6
CONTINUOUS
10
51.6372269999999958
20
-25.4731260000000006
11
51.4607600000000005
21
-25.6013379999999984
0
LINE
8
F.Cu
6
CONTINUOUS
10
51.4607600000000005
20
-25.6013379999999984
11
51.4607589999999959
21
-25.6013379999999984
0
LINE
8
F.Cu
6
CONTINUOUS
10
51.4607589999999959
20
-25.6013379999999984
11
51.3088379999999944
21
-25.7532589999999999
0
LINE
8
F.Cu
6
CONTINUOUS
10
51.3088379999999944
20
-25.7532589999999999
11
51.1825469999999996
21
-25.9270829999999997
0
LINE
8
F.Cu
6
CONTINUOUS
10
51.1825469999999996
20
-25.9270829999999997
11
51.0850030000000004
21
-26.1185239999999972
0
LINE
8
F.Cu
6
CONTINUOUS
10
51.0850030000000004
20
-26.1185239999999972
11
51.0772130000000004
21
-26.1424999999999983
0
LINE
8
F.Cu
6
CONTINUOUS
10
51.0772130000000004
20
-26.1424999999999983
11
51.648772000000001
21
-26.1424999999999983
0
LINE
8
F.Cu
6
CONTINUOUS
10
51.648772000000001
20
-26.1424999999999983
11
51.6813459999999978
21
-26.09375
0
LINE
8
F.Cu
6
CONTINUOUS
10
51.6813459999999978
20
-26.09375
11
51.801249999999996
21
-25.9738459999999982
0
LINE
8
F.Cu
6
CONTINUOUS
10
51.801249999999996
20
-25.9738459999999982
11
51.9422420000000002
21
-25.8796379999999999
0
LINE
8
F.Cu
6
CONTINUOUS
10
51.9422420000000002
20
-25.8796379999999999
11
52.0989039999999974
21
-25.8147470000000006
0
LINE
8
F.Cu
6
CONTINUOUS
10
52.0989039999999974
20
-25.8147470000000006
11
52.2652149999999978
21
-25.7816650000000003
0
LINE
8
F.Cu
6
CONTINUOUS
10
52.2652149999999978
20
-25.7816650000000003
11
52.3499999999999943
21
-25.7774999999999999
0
LINE
8
F.Cu
6
CONTINUOUS
10
52.3499999999999943
20
-25.7774999999999999
11
52.6499999999999986
21
-25.7774999999999999
0
LINE
8
F.Cu
6
CONTINUOUS
10
52.6499999999999986
20
-25.7774999999999999
11
52.7347849999999951
21
-25.7816650000000003
0
LINE
8
F.Cu
6
CONTINUOUS
10
52.7347849999999951
20
-25.7816650000000003
11
52.9010959999999955
21
-25.8147470000000006
0
LINE
8
F.Cu
6
CONTINUOUS
10
52.9010959999999955
20
-25.8147470000000006
11
53.0577579999999998
21
-25.8796379999999999
0
LINE
8
F.Cu
6
CONTINUOUS
10
53.0577579999999998
20
-25.8796379999999999
11
53.1987499999999969
21
-25.9738459999999982
0
LINE
8
F.Cu
6
CONTINUOUS
10
53.1987499999999969
20
-25.9738459999999982
11
53.3186539999999951
21
-26.09375
0
LINE
8
F.Cu
6
CONTINUOUS
10
53.3186539999999951
20
-26.09375
11
53.412861999999997
21
-26.2347419999999971
0
LINE
8
F.Cu
6
CONTINUOUS
10
53.412861999999997
20
-26.2347419999999971
11
53.4777529999999999
21
-26.3914039999999979
0
LINE
8
F.Cu
6
CONTINUOUS
10
53.4777529999999999
20
-26.3914039999999979
11
53.4779709999999966
21
-26.3924999999999983
0
LINE
8
F.Cu
6
CONTINUOUS
10
53.4779709999999966
20
-26.3924999999999983
11
53.9924189999999982
21
-26.3924999999999983
0
LINE
8
F.Cu
6
CONTINUOUS
10
53.9924189999999982
20
-26.3924999999999983
11
53.9813890000000001
21
-26.3228639999999992
0
LINE
8
F.Cu
6
CONTINUOUS
10
53.9813890000000001
20
-26.3228639999999992
11
53.914995999999995
21
-26.1185239999999972
0
LINE
8
F.Cu
6
CONTINUOUS
10
53.914995999999995
20
-26.1185239999999972
11
53.8174519999999958
21
-25.9270829999999997
0
LINE
8
F.Cu
6
CONTINUOUS
10
53.8174519999999958
20
-25.9270829999999997
11
53.691161000000001
21
-25.7532589999999999
0
LINE
8
F.Cu
6
CONTINUOUS
10
53.691161000000001
20
-25.7532589999999999
11
53.5392399999999995
21
-25.6013379999999984
0
LINE
8
F.Cu
6
CONTINUOUS
10
53.5392399999999995
20
-25.6013379999999984
11
53.3627719999999997
21
-25.4731260000000006
0
LINE
8
F.Cu
6
CONTINUOUS
10
53.3627719999999997
20
-25.4731260000000006
11
53.3201070000000001
21
-25.4177959999999992
0
LINE
8
F.Cu
6
CONTINUOUS
10
53.3201070000000001
20
-25.4177959999999992
11
53.3141279999999966
21
-25.3481819999999978
0
LINE
8
F.Cu
6
CONTINUOUS
10
53.3141279999999966
20
-25.3481819999999978
11
53.3467339999999979
21
-25.2863879999999988
0
LINE
8
F.Cu
6
CONTINUOUS
10
53.3467339999999979
20
-25.2863879999999988
11
53.3627729999999971
21
-25.2724899999999977
0
LINE
8
F.Cu
6
CONTINUOUS
10
53.3627729999999971
20
-25.2724899999999977
11
53.365674999999996
21
-25.2703810000000004
0
LINE
8
F.Cu
6
CONTINUOUS
10
53.365674999999996
20
-25.2703810000000004
11
53.3656779999999955
21
-25.2703799999999994
0
LINE
8
F.Cu
6
CONTINUOUS
10
53.3656779999999955
20
-25.2703799999999994
11
53.5395630000000011
21
-25.1440449999999984
0
LINE
8
F.Cu
6
CONTINUOUS
10
53.5395630000000011
20
-25.1440449999999984
11
53.5750069999999994
21
-25.1085999999999991
0
LINE
8
F.Cu
6
CONTINUOUS
10
53.5750069999999994
20
-25.1085999999999991
11
53.5869999999999962
21
-25.1013459999999995
0
LINE
8
F.Cu
6
CONTINUOUS
10
53.5869999999999962
20
-25.1013459999999995
11
53.5938899999999947
21
-25.0931169999999995
0
LINE
8
F.Cu
6
CONTINUOUS
10
53.5938899999999947
20
-25.0931169999999995
11
53.6151099999999943
21
-25.0843419999999995
0
LINE
8
F.Cu
6
CONTINUOUS
10
53.6151099999999943
20
-25.0843419999999995
11
53.6257409999999979
21
-25.0779129999999988
0
LINE
8
F.Cu
6
CONTINUOUS
10
53.6257409999999979
20
-25.0779129999999988
11
53.6320309999999978
21
-25.0759489999999978
0
LINE
8
F.Cu
6
CONTINUOUS
10
53.6320309999999978
20
-25.0759489999999978
11
53.6409929999999946
21
-25.0741669999999992
0
LINE
8
F.Cu
6
CONTINUOUS
10
53.6409929999999946
20
-25.0741669999999992
11
53.6893359999999973
21
-25.064550999999998
0
LINE
8
F.Cu
6
CONTINUOUS
10
53.6893359999999973
20
-25.064550999999998
11
53.7477349999999987
21
-25.0403609999999972
0
LINE
8
F.Cu
6
CONTINUOUS
10
53.7477349999999987
20
-25.0403609999999972
11
53.8714139999999944
21
-24.9891319999999979
0
LINE
8
F.Cu
6
CONTINUOUS
10
53.8714139999999944
20
-24.9891319999999979
11
54.0352819999999952
21
-24.8796389999999974
0
LINE
8
F.Cu
6
CONTINUOUS
10
54.0352819999999952
20
-24.8796389999999974
11
54.1746389999999991
21
-24.7402820000000006
0
LINE
8
F.Cu
6
CONTINUOUS
10
54.1746389999999991
20
-24.7402820000000006
11
54.1746399999999966
21
-24.7402789999999975
0
LINE
8
F.Cu
6
CONTINUOUS
10
54.1746399999999966
20
-24.7402789999999975
11
54.1817059999999984
21
-24.7332140000000003
0
LINE
8
F.Cu
6
CONTINUOUS
10
54.1817059999999984
20
-24.7332140000000003
11
54.1817089999999979
21
-24.7332099999999997
0
LINE
8
F.Cu
6
CONTINUOUS
10
54.1817089999999979
20
-24.7332099999999997
11
55.6377779999999973
21
-23.2771410000000003
0
LINE
8
F.Cu
6
CONTINUOUS
10
55.6377779999999973
20
-23.2771410000000003
11
55.6377819999999943
21
-23.2771389999999982
0
LINE
8
F.Cu
6
CONTINUOUS
10
55.6377819999999943
20
-23.2771389999999982
11
55.7771389999999982
21
-23.1377819999999979
0
LINE
8
F.Cu
6
CONTINUOUS
10
55.7771389999999982
20
-23.1377819999999979
11
55.8866319999999988
21
-22.9739140000000006
0
LINE
8
F.Cu
6
CONTINUOUS
10
55.8866319999999988
20
-22.9739140000000006
11
55.9620509999999953
21
-22.791834999999999
0
LINE
8
F.Cu
6
CONTINUOUS
10
55.9620509999999953
20
-22.791834999999999
11
55.963401999999995
21
-22.7850459999999977
0
LINE
8
F.Cu
6
CONTINUOUS
10
55.963401999999995
20
-22.7850459999999977
11
56.0004999999999953
21
-22.5985399999999998
0
LINE
8
F.Cu
6
CONTINUOUS
10
56.0004999999999953
20
-22.5985399999999998
11
56.0004999999999953
21
-22.4014600000000002
0
LINE
8
F.Cu
6
CONTINUOUS
10
56.0004999999999953
20
-22.4014600000000002
11
56.0004999999999953
21
-19.9014589999999991
0
LINE
8
F.Cu
6
CONTINUOUS
10
56.0004999999999953
20
-19.9014589999999991
11
56.0004999999999953
21
-19.9014559999999996
0
LINE
8
F.Cu
6
CONTINUOUS
10
56.0004999999999953
20
-19.9014559999999996
11
55.9812749999999966
21
-19.8048119999999983
0
LINE
8
F.Cu
6
CONTINUOUS
10
55.9812749999999966
20
-19.8048119999999983
11
55.9620509999999953
21
-19.7081649999999975
0
LINE
8
F.Cu
6
CONTINUOUS
10
55.9620509999999953
20
-19.7081649999999975
11
55.9620499999999979
21
-19.708161999999998
0
LINE
8
F.Cu
6
CONTINUOUS
10
55.9620499999999979
20
-19.708161999999998
11
55.9610109999999992
21
-19.7056539999999991
0
LINE
8
F.Cu
6
CONTINUOUS
10
55.9610109999999992
20
-19.7056539999999991
11
55.9610079999999996
21
-19.705646999999999
0
LINE
8
F.Cu
6
CONTINUOUS
10
55.9610079999999996
20
-19.705646999999999
11
55.9399609999999967
21
-19.6548349999999985
0
LINE
8
F.Cu
6
CONTINUOUS
10
55.9399609999999967
20
-19.6548349999999985
11
55.9399609999999967
21
-19.6548339999999975
0
LINE
8
F.Cu
6
CONTINUOUS
10
55.9399609999999967
20
-19.6548339999999975
11
55.9115749999999991
21
-19.5863060000000004
0
LINE
8
F.Cu
6
CONTINUOUS
10
55.9115749999999991
20
-19.5863060000000004
11
55.8866349999999983
21
-19.5260919999999984
0
LINE
8
F.Cu
6
CONTINUOUS
10
55.8866349999999983
20
-19.5260919999999984
11
55.8866279999999946
21
-19.5260789999999993
0
LINE
8
F.Cu
6
CONTINUOUS
10
55.8866279999999946
20
-19.5260789999999993
11
55.7771389999999982
21
-19.3622179999999986
0
LINE
8
F.Cu
6
CONTINUOUS
10
55.7771389999999982
20
-19.3622179999999986
11
55.7771359999999987
21
-19.362213999999998
0
LINE
8
F.Cu
6
CONTINUOUS
10
55.7771359999999987
20
-19.362213999999998
11
55.634685999999995
21
-19.2197639999999978
0
LINE
8
F.Cu
6
CONTINUOUS
10
55.634685999999995
20
-19.2197639999999978
11
55.6346549999999951
21
-19.219735
0
LINE
8
F.Cu
6
CONTINUOUS
10
55.6346549999999951
20
-19.219735
11
53.2814789999999974
21
-16.8665589999999987
0
LINE
8
F.Cu
6
CONTINUOUS
10
53.2814789999999974
20
-16.8665589999999987
11
53.2814589999999981
21
-16.866537000000001
0
LINE
8
F.Cu
6
CONTINUOUS
10
53.2814589999999981
20
-16.866537000000001
11
53.1377850000000009
21
-16.7228630000000003
0
LINE
8
F.Cu
6
CONTINUOUS
10
53.1377850000000009
20
-16.7228630000000003
11
53.1377809999999968
21
-16.7228600000000007
0
LINE
8
F.Cu
6
CONTINUOUS
10
53.1377809999999968
20
-16.7228600000000007
11
52.9739159999999956
21
-16.6133689999999987
0
LINE
8
F.Cu
6
CONTINUOUS
10
52.9739159999999956
20
-16.6133689999999987
11
52.9739110000000011
21
-16.6133659999999992
0
LINE
8
F.Cu
6
CONTINUOUS
10
52.9739110000000011
20
-16.6133659999999992
11
52.9013149999999968
21
-16.5832960000000007
0
LINE
8
F.Cu
6
CONTINUOUS
10
52.9013149999999968
20
-16.5832960000000007
11
52.8451649999999944
21
-16.5600379999999987
0
LINE
8
F.Cu
6
CONTINUOUS
10
52.8451649999999944
20
-16.5600379999999987
11
52.7918359999999964
21
-16.5379489999999976
0
LINE
8
F.Cu
6
CONTINUOUS
10
52.7918359999999964
20
-16.5379489999999976
11
52.7918319999999994
21
-16.5379480000000001
0
LINE
8
F.Cu
6
CONTINUOUS
10
52.7918319999999994
20
-16.5379480000000001
11
52.7918279999999953
21
-16.537945999999998
0
LINE
8
F.Cu
6
CONTINUOUS
10
52.7918279999999953
20
-16.537945999999998
11
52.6951879999999946
21
-16.5187239999999989
0
LINE
8
F.Cu
6
CONTINUOUS
10
52.6951879999999946
20
-16.5187239999999989
11
52.5985439999999969
21
-16.4994999999999976
0
LINE
8
F.Cu
6
CONTINUOUS
10
52.5985439999999969
20
-16.4994999999999976
11
52.5985409999999973
21
-16.4994999999999976
0
LINE
8
F.Cu
6
CONTINUOUS
10
52.5985409999999973
20
-16.4994999999999976
11
50.0935399999999973
21
-16.4994999999999976
0
LINE
8
F.Cu
6
CONTINUOUS
10
50.0935399999999973
20
-16.4994999999999976
11
49.8964590000000001
21
-16.4994999999999976
0
LINE
8
F.Cu
6
CONTINUOUS
10
49.8964590000000001
20
-16.4994999999999976
11
49.8964560000000006
21
-16.4994999999999976
0
LINE
8
F.Cu
6
CONTINUOUS
10
49.8964560000000006
20
-16.4994999999999976
11
49.7031709999999975
21
-16.537945999999998
0
LINE
8
F.Cu
6
CONTINUOUS
10
49.7031709999999975
20
-16.537945999999998
11
49.7031670000000005
21
-16.5379480000000001
0
LINE
8
F.Cu
6
CONTINUOUS
10
49.7031670000000005
20
-16.5379480000000001
11
49.7031649999999985
21
-16.5379480000000001
0
LINE
8
F.Cu
6
CONTINUOUS
10
49.7031649999999985
20
-16.5379480000000001
11
49.703164000000001
21
-16.5379489999999976
0
LINE
8
F.Cu
6
CONTINUOUS
10
49.703164000000001
20
-16.5379489999999976
11
49.6277449999999973
21
-16.5691880000000005
0
LINE
8
F.Cu
6
CONTINUOUS
10
49.6277449999999973
20
-16.5691880000000005
11
49.6277429999999953
21
-16.5691889999999979
0
LINE
8
F.Cu
6
CONTINUOUS
10
49.6277429999999953
20
-16.5691889999999979
11
49.5210849999999994
21
-16.6133679999999977
0
LINE
8
F.Cu
6
CONTINUOUS
10
49.5210849999999994
20
-16.6133679999999977
11
49.5210849999999994
21
-16.6133689999999987
0
LINE
8
F.Cu
6
CONTINUOUS
10
49.5210849999999994
20
-16.6133689999999987
11
49.5210839999999948
21
-16.6133689999999987
0
LINE
8
F.Cu
6
CONTINUOUS
10
49.5210839999999948
20
-16.6133689999999987
11
49.3572220000000002
21
-16.7228569999999976
0
LINE
8
F.Cu
6
CONTINUOUS
10
49.3572220000000002
20
-16.7228569999999976
11
49.357213999999999
21
-16.7228630000000003
0
LINE
8
F.Cu
6
CONTINUOUS
10
49.357213999999999
20
-16.7228630000000003
11
47.3278989999999951
21
-18.7521810000000002
0
LINE
8
F.Cu
6
CONTINUOUS
10
47.3278989999999951
20
-18.7521810000000002
11
47.2665760000000006
21
-18.7856659999999991
0
LINE
8
F.Cu
6
CONTINUOUS
10
47.2665760000000006
20
-18.7856659999999991
11
47.2402179999999987
21
-18.7884999999999991
0
LINE
8
F.Cu
6
CONTINUOUS
10
47.2402179999999987
20
-18.7884999999999991
11
36.7967329999999961
21
-18.7884999999999991
0
LINE
8
F.Cu
6
CONTINUOUS
10
36.7967329999999961
20
-18.7884999999999991
11
36.729693999999995
21
-18.768815
0
LINE
8
F.Cu
6
CONTINUOUS
10
36.729693999999995
20
-18.768815
11
36.6974680000000006
21
-18.7388130000000004
0
LINE
8
F.Cu
6
CONTINUOUS
10
36.6974680000000006
20
-18.7388130000000004
11
36.645545999999996
21
-18.6694539999999982
0
LINE
8
F.Cu
6
CONTINUOUS
10
36.645545999999996
20
-18.6694539999999982
11
36.6227090000000004
21
-18.6523579999999995
0
LINE
8
F.Cu
6
CONTINUOUS
10
36.6227090000000004
20
-18.6523579999999995
11
36.5303350000000009
21
-18.5832060000000006
0
LINE
8
F.Cu
6
CONTINUOUS
10
36.5303350000000009
20
-18.5832060000000006
11
36.5303279999999972
21
-18.583202
0
LINE
8
F.Cu
6
CONTINUOUS
10
36.5303279999999972
20
-18.583202
11
36.3954820000000012
21
-18.532907999999999
0
LINE
8
F.Cu
6
CONTINUOUS
10
36.3954820000000012
20
-18.532907999999999
11
36.3954829999999987
21
-18.532907999999999
0
LINE
8
F.Cu
6
CONTINUOUS
10
36.3954829999999987
20
-18.532907999999999
11
36.3358829999999955
21
-18.5265009999999997
0
LINE
8
F.Cu
6
CONTINUOUS
10
36.3358829999999955
20
-18.5265009999999997
11
36.3358810000000005
21
-18.5264999999999986
0
LINE
8
F.Cu
6
CONTINUOUS
10
36.3358810000000005
20
-18.5264999999999986
11
36.3358729999999994
21
-18.5264999999999986
0
LINE
8
F.Cu
6
CONTINUOUS
10
36.3358729999999994
20
-18.5264999999999986
11
36.3358640000000008
21
-18.5264999999999986
0
LINE
8
F.Cu
6
CONTINUOUS
10
36.3358640000000008
20
-18.5264999999999986
11
33.2151289999999975
21
-18.5264999999999986
0
LINE
8
F.Cu
6
CONTINUOUS
10
33.2151289999999975
20
-18.5264999999999986
11
33.2151229999999984
21
-18.5265009999999997
0
LINE
8
F.Cu
6
CONTINUOUS
10
33.2151229999999984
20
-18.5265009999999997
11
33.1555159999999987
21
-18.532907999999999
0
LINE
8
F.Cu
6
CONTINUOUS
10
33.1555159999999987
20
-18.532907999999999
11
33.0206710000000001
21
-18.583202
0
LINE
8
F.Cu
6
CONTINUOUS
10
33.0206710000000001
20
-18.583202
11
33.0206639999999965
21
-18.5832060000000006
0
LINE
8
F.Cu
6
CONTINUOUS
10
33.0206639999999965
20
-18.5832060000000006
11
32.9054549999999963
21
-18.6694519999999997
0
LINE
8
F.Cu
6
CONTINUOUS
10
32.9054549999999963
20
-18.6694519999999997
11
32.9054519999999968
21
-18.6694549999999992
0
LINE
8
F.Cu
6
CONTINUOUS
10
32.9054519999999968
20
-18.6694549999999992
11
32.8192060000000012
21
-18.7846639999999994
0
LINE
8
F.Cu
6
CONTINUOUS
10
32.8192060000000012
20
-18.7846639999999994
11
32.8192019999999971
21
-18.7846709999999995
0
LINE
8
F.Cu
6
CONTINUOUS
10
32.8192019999999971
20
-18.7846709999999995
11
32.7689079999999962
21
-18.919516999999999
0
LINE
8
F.Cu
6
CONTINUOUS
10
32.7689079999999962
20
-18.919516999999999
11
32.7625010000000003
21
-18.9791159999999977
0
LINE
8
F.Cu
6
CONTINUOUS
10
32.7625010000000003
20
-18.9791159999999977
11
32.7625010000000003
21
-18.9791229999999977
0
LINE
8
F.Cu
6
CONTINUOUS
10
32.7625010000000003
20
-18.9791229999999977
11
32.7624999999999957
21
-18.9791349999999994
0
LINE
8
F.Cu
6
CONTINUOUS
10
32.7624999999999957
20
-18.9791349999999994
11
32.7625010000000003
21
-20.1265000000000001
0
LINE
8
F.Cu
6
CONTINUOUS
10
32.7625010000000003
20
-20.1265000000000001
11
32.7428159999999977
21
-20.1935389999999977
0
LINE
8
F.Cu
6
CONTINUOUS
10
32.7428159999999977
20
-20.1935389999999977
11
32.6900130000000004
21
-20.2392939999999975
0
LINE
8
F.Cu
6
CONTINUOUS
10
32.6900130000000004
20
-20.2392939999999975
11
32.638500999999998
21
-20.2504999999999988
0
LINE
8
F.Cu
6
CONTINUOUS
10
32.638500999999998
20
-20.2504999999999988
11
30.6989389999999993
21
-20.2504999999999988
0
LINE
8
F.Cu
6
CONTINUOUS
10
30.6989389999999993
20
-20.2504999999999988
11
30.6869839999999989
21
-20.253702999999998
0
LINE
8
F.Cu
6
CONTINUOUS
10
30.6869839999999989
20
-20.253702999999998
11
30.686985
21
-20.253703999999999
0
LINE
8
F.Cu
6
CONTINUOUS
10
30.686985
20
-20.253703999999999
11
30.5462139999999991
21
-20.2914229999999982
0
LINE
8
F.Cu
6
CONTINUOUS
10
30.5462139999999991
20
-20.2914229999999982
11
30.5462089999999975
21
-20.2914259999999977
0
LINE
8
F.Cu
6
CONTINUOUS
10
30.5462089999999975
20
-20.2914259999999977
11
30.4092899999999986
21
-20.370474999999999
0
LINE
8
F.Cu
6
CONTINUOUS
10
30.4092899999999986
20
-20.370474999999999
11
30.4092819999999975
21
-20.3704809999999981
0
LINE
8
F.Cu
6
CONTINUOUS
10
30.4092819999999975
20
-20.3704809999999981
11
21.0301799999999979
21
-29.7495839999999987
0
LINE
8
F.Cu
6
CONTINUOUS
10
21.0301799999999979
20
-29.7495839999999987
11
20.9688569999999999
21
-29.7830689999999976
0
LINE
8
F.Cu
6
CONTINUOUS
10
20.9688569999999999
20
-29.7830689999999976
11
20.899165
21
-29.7780849999999973
0
LINE
8
F.Cu
6
CONTINUOUS
10
20.899165
20
-29.7780849999999973
11
20.8432320000000004
21
-29.7362129999999993
0
LINE
8
F.Cu
6
CONTINUOUS
10
20.8432320000000004
20
-29.7362129999999993
11
20.8188150000000007
21
-29.6707489999999972
0
LINE
8
F.Cu
6
CONTINUOUS
10
20.8188150000000007
20
-29.6707489999999972
11
20.8184989999999992
21
-29.6619029999999988
0
LINE
8
F.Cu
6
CONTINUOUS
10
20.8184989999999992
20
-29.6619029999999988
11
20.8184989999999992
21
-29.1391289999999969
0
LINE
8
F.Cu
6
CONTINUOUS
10
20.8184989999999992
20
-29.1391289999999969
11
20.8184979999999982
21
-29.1391229999999979
0
LINE
8
F.Cu
6
CONTINUOUS
10
20.8184979999999982
20
-29.1391229999999979
11
20.8184970000000007
21
-29.1391159999999978
0
LINE
8
F.Cu
6
CONTINUOUS
10
20.8184970000000007
20
-29.1391159999999978
11
20.8120909999999988
21
-29.0795169999999992
0
LINE
8
F.Cu
6
CONTINUOUS
10
20.8120909999999988
20
-29.0795169999999992
11
20.7617960000000004
21
-28.9446689999999975
0
LINE
8
F.Cu
6
CONTINUOUS
10
20.7617960000000004
20
-28.9446689999999975
11
20.7617949999999993
21
-28.9446680000000001
0
LINE
8
F.Cu
6
CONTINUOUS
10
20.7617949999999993
20
-28.9446680000000001
11
20.7617930000000008
21
-28.9446639999999995
0
LINE
8
F.Cu
6
CONTINUOUS
10
20.7617930000000008
20
-28.9446639999999995
11
20.6755469999999981
21
-28.8294560000000004
0
LINE
8
F.Cu
6
CONTINUOUS
10
20.6755469999999981
20
-28.8294560000000004
11
20.6755479999999991
21
-28.8294560000000004
0
LINE
8
F.Cu
6
CONTINUOUS
10
20.6755479999999991
20
-28.8294560000000004
11
20.6755460000000006
21
-28.8294539999999984
0
LINE
8
F.Cu
6
CONTINUOUS
10
20.6755460000000006
20
-28.8294539999999984
11
20.6071659999999994
21
-28.7782649999999975
0
LINE
8
F.Cu
6
CONTINUOUS
10
20.6071659999999994
20
-28.7782649999999975
11
20.5652969999999975
21
-28.722332999999999
0
LINE
8
F.Cu
6
CONTINUOUS
10
20.5652969999999975
20
-28.722332999999999
11
20.5603130000000007
21
-28.6526409999999991
0
LINE
8
F.Cu
6
CONTINUOUS
10
20.5603130000000007
20
-28.6526409999999991
11
20.5937979999999996
21
-28.5913179999999976
0
LINE
8
F.Cu
6
CONTINUOUS
10
20.5937979999999996
20
-28.5913179999999976
11
20.6071609999999978
21
-28.579737999999999
0
LINE
8
F.Cu
6
CONTINUOUS
10
20.6071609999999978
20
-28.579737999999999
11
20.6755460000000006
21
-28.5285459999999986
0
LINE
8
F.Cu
6
CONTINUOUS
10
20.6755460000000006
20
-28.5285459999999986
11
20.7617960000000004
21
-28.4133309999999994
0
LINE
8
F.Cu
6
CONTINUOUS
10
20.7617960000000004
20
-28.4133309999999994
11
20.8120909999999988
21
-28.2784829999999978
0
LINE
8
F.Cu
6
CONTINUOUS
10
20.8120909999999988
20
-28.2784829999999978
11
20.8185000000000002
21
-28.2188729999999985
0
LINE
8
F.Cu
6
CONTINUOUS
10
20.8185000000000002
20
-28.2188729999999985
11
20.8184989999999992
21
-26.5991280000000003
0
LINE
8
F.Cu
6
CONTINUOUS
10
20.8184989999999992
20
-26.5991280000000003
11
20.8120909999999988
21
-26.539517
0
LINE
8
F.Cu
6
CONTINUOUS
10
20.8120909999999988
20
-26.539517
11
20.8035059999999987
21
-26.5164999999999971
0
LINE
8
F.Cu
6
CONTINUOUS
10
20.8035059999999987
20
-26.5164999999999971
11
20.7617969999999978
21
-26.4046710000000004
0
LINE
8
F.Cu
6
CONTINUOUS
10
20.7617969999999978
20
-26.4046710000000004
11
20.7617930000000008
21
-26.4046640000000004
0
LINE
8
F.Cu
6
CONTINUOUS
10
20.7617930000000008
20
-26.4046640000000004
11
20.6755469999999981
21
-26.2894559999999977
0
LINE
8
F.Cu
6
CONTINUOUS
10
20.6755469999999981
20
-26.2894559999999977
11
20.6755479999999991
21
-26.2894559999999977
0
LINE
8
F.Cu
6
CONTINUOUS
10
20.6755479999999991
20
-26.2894559999999977
11
20.6755460000000006
21
-26.2894539999999992
0
LINE
8
F.Cu
6
CONTINUOUS
10
20.6755460000000006
20
-26.2894539999999992
11
20.6071659999999994
21
-26.2382649999999984
0
LINE
8
F.Cu
6
CONTINUOUS
10
20.6071659999999994
20
-26.2382649999999984
11
20.5652969999999975
21
-26.1823329999999999
0
LINE
8
F.Cu
6
CONTINUOUS
10
20.5652969999999975
20
-26.1823329999999999
11
20.5603130000000007
21
-26.112641
0
LINE
8
F.Cu
6
CONTINUOUS
10
20.5603130000000007
20
-26.112641
11
20.5937979999999996
21
-26.0513179999999984
0
LINE
8
F.Cu
6
CONTINUOUS
10
20.5937979999999996
20
-26.0513179999999984
11
20.6071609999999978
21
-26.0397379999999998
0
LINE
8
F.Cu
6
CONTINUOUS
10
20.6071609999999978
20
-26.0397379999999998
11
20.6755460000000006
21
-25.9885459999999995
0
LINE
8
F.Cu
6
CONTINUOUS
10
20.6755460000000006
20
-25.9885459999999995
11
20.7617960000000004
21
-25.8733310000000003
0
LINE
8
F.Cu
6
CONTINUOUS
10
20.7617960000000004
20
-25.8733310000000003
11
20.8120909999999988
21
-25.7384829999999987
0
LINE
8
F.Cu
6
CONTINUOUS
10
20.8120909999999988
20
-25.7384829999999987
11
20.8185000000000002
21
-25.6788729999999994
0
LINE
8
F.Cu
6
CONTINUOUS
10
20.8185000000000002
20
-25.6788729999999994
11
20.8184989999999992
21
-24.0591279999999976
0
LINE
8
F.Cu
6
CONTINUOUS
10
20.8184989999999992
20
-24.0591279999999976
11
20.8120909999999988
21
-23.9995169999999973
0
LINE
8
F.Cu
6
CONTINUOUS
10
20.8120909999999988
20
-23.9995169999999973
11
20.7617960000000004
21
-23.8646689999999992
0
LINE
8
F.Cu
6
CONTINUOUS
10
20.7617960000000004
20
-23.8646689999999992
11
20.7617949999999993
21
-23.8646679999999982
0
LINE
8
F.Cu
6
CONTINUOUS
10
20.7617949999999993
20
-23.8646679999999982
11
20.7617930000000008
21
-23.8646639999999977
0
LINE
8
F.Cu
6
CONTINUOUS
10
20.7617930000000008
20
-23.8646639999999977
11
20.6755469999999981
21
-23.7494559999999986
0
LINE
8
F.Cu
6
CONTINUOUS
10
20.6755469999999981
20
-23.7494559999999986
11
20.6755479999999991
21
-23.7494559999999986
0
LINE
8
F.Cu
6
CONTINUOUS
10
20.6755479999999991
20
-23.7494559999999986
11
20.6755460000000006
21
-23.7494540000000001
0
LINE
8
F.Cu
6
CONTINUOUS
10
20.6755460000000006
20
-23.7494540000000001
11
20.6071659999999994
21
-23.6982649999999992
0
LINE
8
F.Cu
6
CONTINUOUS
10
20.6071659999999994
20
-23.6982649999999992
11
20.5652969999999975
21
-23.6423329999999972
0
LINE
8
F.Cu
6
CONTINUOUS
10
20.5652969999999975
20
-23.6423329999999972
11
20.5603130000000007
21
-23.5726409999999973
0
LINE
8
F.Cu
6
CONTINUOUS
10
20.5603130000000007
20
-23.5726409999999973
11
20.5937979999999996
21
-23.5113179999999993
0
LINE
8
F.Cu
6
CONTINUOUS
10
20.5937979999999996
20
-23.5113179999999993
11
20.6071609999999978
21
-23.4997380000000007
0
LINE
8
F.Cu
6
CONTINUOUS
10
20.6071609999999978
20
-23.4997380000000007
11
20.6755460000000006
21
-23.4485460000000003
0
LINE
8
F.Cu
6
CONTINUOUS
10
20.6755460000000006
20
-23.4485460000000003
11
20.7617960000000004
21
-23.3333309999999976
0
LINE
8
F.Cu
6
CONTINUOUS
10
20.7617960000000004
20
-23.3333309999999976
11
20.8120909999999988
21
-23.1984829999999995
0
LINE
8
F.Cu
6
CONTINUOUS
10
20.8120909999999988
20
-23.1984829999999995
11
20.8185000000000002
21
-23.1388730000000002
0
LINE
8
F.Cu
6
CONTINUOUS
10
20.8185000000000002
20
-23.1388730000000002
11
20.8184989999999992
21
-21.5191279999999985
0
LINE
8
F.Cu
6
CONTINUOUS
10
20.8184989999999992
20
-21.5191279999999985
11
20.8120909999999988
21
-21.4595169999999982
0
LINE
8
F.Cu
6
CONTINUOUS
10
20.8120909999999988
20
-21.4595169999999982
11
20.7617960000000004
21
-21.3246690000000001
0
LINE
8
F.Cu
6
CONTINUOUS
10
20.7617960000000004
20
-21.3246690000000001
11
20.7617949999999993
21
-21.3246679999999991
0
LINE
8
F.Cu
6
CONTINUOUS
10
20.7617949999999993
20
-21.3246679999999991
11
20.7617930000000008
21
-21.3246639999999985
0
LINE
8
F.Cu
6
CONTINUOUS
10
20.7617930000000008
20
-21.3246639999999985
11
20.6755469999999981
21
-21.2094559999999994
0
LINE
8
F.Cu
6
CONTINUOUS
10
20.6755469999999981
20
-21.2094559999999994
11
20.6755479999999991
21
-21.2094559999999994
0
LINE
8
F.Cu
6
CONTINUOUS
10
20.6755479999999991
20
-21.2094559999999994
11
20.6755460000000006
21
-21.2094539999999974
0
LINE
8
F.Cu
6
CONTINUOUS
10
20.6755460000000006
20
-21.2094539999999974
11
20.6071659999999994
21
-21.1582650000000001
0
LINE
8
F.Cu
6
CONTINUOUS
10
20.6071659999999994
20
-21.1582650000000001
11
20.5652969999999975
21
-21.102332999999998
0
LINE
8
F.Cu
6
CONTINUOUS
10
20.5652969999999975
20
-21.102332999999998
11
20.5603130000000007
21
-21.0326409999999981
0
LINE
8
F.Cu
6
CONTINUOUS
10
20.5603130000000007
20
-21.0326409999999981
11
20.5937979999999996
21
-20.9713180000000001
0
LINE
8
F.Cu
6
CONTINUOUS
10
20.5937979999999996
20
-20.9713180000000001
11
20.6071609999999978
21
-20.959737999999998
0
LINE
8
F.Cu
6
CONTINUOUS
10
20.6071609999999978
20
-20.959737999999998
11
20.6755460000000006
21
-20.9085459999999976
0
LINE
8
F.Cu
6
CONTINUOUS
10
20.6755460000000006
20
-20.9085459999999976
11
20.7617960000000004
21
-20.7933309999999985
0
LINE
8
F.Cu
6
CONTINUOUS
10
20.7617960000000004
20
-20.7933309999999985
11
20.8120909999999988
21
-20.6584830000000004
0
LINE
8
F.Cu
6
CONTINUOUS
10
20.8120909999999988
20
-20.6584830000000004
11
20.8185000000000002
21
-20.5988729999999975
0
LINE
8
F.Cu
6
CONTINUOUS
10
20.8185000000000002
20
-20.5988729999999975
11
20.8184989999999992
21
-18.9791279999999993
0
LINE
8
F.Cu
6
CONTINUOUS
10
20.8184989999999992
20
-18.9791279999999993
11
20.8120909999999988
21
-18.919516999999999
0
LINE
8
F.Cu
6
CONTINUOUS
10
20.8120909999999988
20
-18.919516999999999
11
20.7617960000000004
21
-18.7846689999999974
0
LINE
8
F.Cu
6
CONTINUOUS
10
20.7617960000000004
20
-18.7846689999999974
11
20.7617949999999993
21
-18.7846679999999999
0
LINE
8
F.Cu
6
CONTINUOUS
10
20.7617949999999993
20
-18.7846679999999999
11
20.7617930000000008
21
-18.7846639999999994
0
LINE
8
F.Cu
6
CONTINUOUS
10
20.7617930000000008
20
-18.7846639999999994
11
20.6755469999999981
21
-18.6694549999999992
0
LINE
8
F.Cu
6
CONTINUOUS
10
20.6755469999999981
20
-18.6694549999999992
11
20.6755439999999986
21
-18.6694519999999997
0
LINE
8
F.Cu
6
CONTINUOUS
10
20.6755439999999986
20
-18.6694519999999997
11
20.5603349999999985
21
-18.5832060000000006
0
LINE
8
F.Cu
6
CONTINUOUS
10
20.5603349999999985
20
-18.5832060000000006
11
20.5603279999999984
21
-18.583202
0
LINE
8
F.Cu
6
CONTINUOUS
10
20.5603279999999984
20
-18.583202
11
20.4254819999999988
21
-18.532907999999999
0
LINE
8
F.Cu
6
CONTINUOUS
10
20.4254819999999988
20
-18.532907999999999
11
20.4254829999999998
21
-18.532907999999999
0
LINE
8
F.Cu
6
CONTINUOUS
10
20.4254829999999998
20
-18.532907999999999
11
20.3658830000000002
21
-18.5265009999999997
0
LINE
8
F.Cu
6
CONTINUOUS
10
20.3658830000000002
20
-18.5265009999999997
11
20.3658809999999981
21
-18.5264999999999986
0
LINE
8
F.Cu
6
CONTINUOUS
10
20.3658809999999981
20
-18.5264999999999986
11
20.3658730000000006
21
-18.5264999999999986
0
LINE
8
F.Cu
6
CONTINUOUS
10
20.3658730000000006
20
-18.5264999999999986
11
20.3658639999999984
21
-18.5264999999999986
0
LINE
8
F.Cu
6
CONTINUOUS
10
20.3658639999999984
20
-18.5264999999999986
11
17.2451289999999986
21
-18.5264999999999986
0
LINE
8
F.Cu
6
CONTINUOUS
10
17.2451289999999986
20
-18.5264999999999986
11
17.2451229999999995
21
-18.5265009999999997
0
LINE
8
F.Cu
6
CONTINUOUS
10
17.2451229999999995
20
-18.5265009999999997
11
17.1855159999999998
21
-18.532907999999999
0
LINE
8
F.Cu
6
CONTINUOUS
10
17.1855159999999998
20
-18.532907999999999
11
17.0506709999999977
21
-18.583202
0
LINE
8
F.Cu
6
CONTINUOUS
10
17.0506709999999977
20
-18.583202
11
17.0506639999999976
21
-18.5832060000000006
0
LINE
8
F.Cu
6
CONTINUOUS
10
17.0506639999999976
20
-18.5832060000000006
11
16.9354549999999975
21
-18.6694519999999997
0
LINE
8
F.Cu
6
CONTINUOUS
10
16.9354549999999975
20
-18.6694519999999997
11
16.935451999999998
21
-18.6694549999999992
0
LINE
8
F.Cu
6
CONTINUOUS
10
16.935451999999998
20
-18.6694549999999992
11
16.8492059999999988
21
-18.7846639999999994
0
LINE
8
F.Cu
6
CONTINUOUS
10
16.8492059999999988
20
-18.7846639999999994
11
16.8492019999999982
21
-18.7846709999999995
0
LINE
8
F.Cu
6
CONTINUOUS
10
16.8492019999999982
20
-18.7846709999999995
11
16.7989080000000008
21
-18.919516999999999
0
LINE
8
F.Cu
6
CONTINUOUS
10
16.7989080000000008
20
-18.919516999999999
11
16.7925009999999979
21
-18.9791159999999977
0
LINE
8
F.Cu
6
CONTINUOUS
10
16.7925009999999979
20
-18.9791159999999977
11
16.7925009999999979
21
-18.9791229999999977
0
LINE
8
F.Cu
6
CONTINUOUS
10
16.7925009999999979
20
-18.9791229999999977
11
16.7925000000000004
21
-18.9791349999999994
0
LINE
8
F.Cu
6
CONTINUOUS
10
16.7925000000000004
20
-18.9791349999999994
11
16.7925000000000004
21
-20.598869999999998
0
LINE
8
F.Cu
6
CONTINUOUS
10
51.7382819999999981
20
-35.1777689999999978
11
51.7382819999999981
21
-35.1777699999999953
0
LINE
8
F.Cu
6
CONTINUOUS
10
51.7382819999999981
20
-35.1777699999999953
11
51.7924489999999977
21
-35.2171239999999983
0
LINE
8
F.Cu
6
CONTINUOUS
10
51.7924489999999977
20
-35.2171239999999983
11
51.9817819999999955
21
-35.3135949999999994
0
LINE
8
F.Cu
6
CONTINUOUS
10
51.9817819999999955
20
-35.3135949999999994
11
52.
21
-35.3195139999999981
0
LINE
8
F.Cu
6
CONTINUOUS
10
52.
20
-35.3195139999999981
11
52.
21
-34.916050999999996
0
LINE
8
F.Cu
6
CONTINUOUS
10
52.
20
-34.916050999999996
11
51.7382819999999981
21
-35.1777689999999978
0
LINE
8
F.Cu
6
CONTINUOUS
10
53.
20
-35.3195139999999981
11
53.0182169999999999
21
-35.3135949999999994
0
LINE
8
F.Cu
6
CONTINUOUS
10
53.0182169999999999
20
-35.3135949999999994
11
53.2075539999999947
21
-35.2171219999999963
0
LINE
8
F.Cu
6
CONTINUOUS
10
53.2075539999999947
20
-35.2171219999999963
11
53.2617159999999998
21
-35.1777699999999953
0
LINE
8
F.Cu
6
CONTINUOUS
10
53.2617159999999998
20
-35.1777699999999953
11
53.2617169999999973
21
-35.1777699999999953
0
LINE
8
F.Cu
6
CONTINUOUS
10
53.2617169999999973
20
-35.1777699999999953
11
53.
21
-34.916052999999998
0
LINE
8
F.Cu
6
CONTINUOUS
10
53.
20
-34.916052999999998
11
53.
21
-35.3195139999999981
0
LINE
8
F.Cu
6
CONTINUOUS
10
53.2509809999999959
20
-33.6650689999999955
11
53.3133989999999969
21
-33.8157579999999953
0
LINE
8
F.Cu
6
CONTINUOUS
10
53.3133989999999969
20
-33.8157579999999953
11
53.3459069999999969
21
-33.9791850000000011
0
LINE
8
F.Cu
6
CONTINUOUS
10
53.3459069999999969
20
-33.9791850000000011
11
53.3459069999999969
21
-34.1458149999999989
0
LINE
8
F.Cu
6
CONTINUOUS
10
53.3459069999999969
20
-34.1458149999999989
11
53.3133989999999969
21
-34.3092419999999976
0
LINE
8
F.Cu
6
CONTINUOUS
10
53.3133989999999969
20
-34.3092419999999976
11
53.2509820000000005
21
-34.4599289999999954
0
LINE
8
F.Cu
6
CONTINUOUS
10
53.2509820000000005
20
-34.4599289999999954
11
53.6152699999999953
21
-34.8242169999999973
0
LINE
8
F.Cu
6
CONTINUOUS
10
53.6152699999999953
20
-34.8242169999999973
11
53.6152699999999953
21
-34.8242159999999998
0
LINE
8
F.Cu
6
CONTINUOUS
10
53.6152699999999953
20
-34.8242159999999998
11
53.6546219999999963
21
-34.7700540000000018
0
LINE
8
F.Cu
6
CONTINUOUS
10
53.6546219999999963
20
-34.7700540000000018
11
53.7510949999999994
21
-34.5807169999999999
0
LINE
8
F.Cu
6
CONTINUOUS
10
53.7510949999999994
20
-34.5807169999999999
11
53.8167569999999955
21
-34.3786300000000011
0
LINE
8
F.Cu
6
CONTINUOUS
10
53.8167569999999955
20
-34.3786300000000011
11
53.8167569999999955
21
-34.3786270000000016
0
LINE
8
F.Cu
6
CONTINUOUS
10
53.8167569999999955
20
-34.3786270000000016
11
53.8499999999999943
21
-34.1687459999999987
0
LINE
8
F.Cu
6
CONTINUOUS
10
53.8499999999999943
20
-34.1687459999999987
11
53.8499999999999943
21
-33.9562529999999967
0
LINE
8
F.Cu
6
CONTINUOUS
10
53.8499999999999943
20
-33.9562529999999967
11
53.8167569999999955
21
-33.7463720000000009
0
LINE
8
F.Cu
6
CONTINUOUS
10
53.8167569999999955
20
-33.7463720000000009
11
53.8167569999999955
21
-33.7463690000000014
0
LINE
8
F.Cu
6
CONTINUOUS
10
53.8167569999999955
20
-33.7463690000000014
11
53.7510949999999994
21
-33.5442819999999955
0
LINE
8
F.Cu
6
CONTINUOUS
10
53.7510949999999994
20
-33.5442819999999955
11
53.6546239999999983
21
-33.3549489999999977
0
LINE
8
F.Cu
6
CONTINUOUS
10
53.6546239999999983
20
-33.3549489999999977
11
53.6152699999999953
21
-33.3007819999999981
0
LINE
8
F.Cu
6
CONTINUOUS
10
53.6152699999999953
20
-33.3007819999999981
11
53.6152689999999978
21
-33.3007819999999981
0
LINE
8
F.Cu
6
CONTINUOUS
10
53.6152689999999978
20
-33.3007819999999981
11
53.2509809999999959
21
-33.6650689999999955
0
LINE
8
F.Cu
6
CONTINUOUS
10
51.9817819999999955
20
-32.811403999999996
11
51.7924389999999946
21
-32.9078799999999987
0
LINE
8
F.Cu
6
CONTINUOUS
10
51.7924389999999946
20
-32.9078799999999987
11
51.7382819999999981
21
-32.947226999999998
0
LINE
8
F.Cu
6
CONTINUOUS
10
51.7382819999999981
20
-32.947226999999998
11
51.7382819999999981
21
-32.9472279999999955
0
LINE
8
F.Cu
6
CONTINUOUS
10
51.7382819999999981
20
-32.9472279999999955
11
52.
21
-33.2089459999999974
0
LINE
8
F.Cu
6
CONTINUOUS
10
52.
20
-33.2089459999999974
11
52.
21
-32.8054839999999999
0
LINE
8
F.Cu
6
CONTINUOUS
10
52.
20
-32.8054839999999999
11
51.9817819999999955
21
-32.811403999999996
0
LINE
8
F.Cu
6
CONTINUOUS
10
53.
20
-33.2089439999999954
11
53.2617159999999998
21
-32.9472279999999955
0
LINE
8
F.Cu
6
CONTINUOUS
10
53.2617159999999998
20
-32.9472279999999955
11
53.2075499999999977
21
-32.9078749999999971
0
LINE
8
F.Cu
6
CONTINUOUS
10
53.2075499999999977
20
-32.9078749999999971
11
53.0182169999999999
21
-32.811403999999996
0
LINE
8
F.Cu
6
CONTINUOUS
10
53.0182169999999999
20
-32.811403999999996
11
53.
21
-32.8054839999999999
0
LINE
8
F.Cu
6
CONTINUOUS
10
53.
20
-32.8054839999999999
11
53.
21
-33.2089439999999954
0
LINE
8
F.Cu
6
CONTINUOUS
10
45.851227999999999
20
-27.1424999999999983
11
45.8186539999999951
21
-27.1912500000000001
0
LINE
8
F.Cu
6
CONTINUOUS
10
45.8186539999999951
20
-27.1912500000000001
11
45.6987499999999969
21
-27.3111539999999984
0
LINE
8
F.Cu
6
CONTINUOUS
10
45.6987499999999969
20
-27.3111539999999984
11
45.5577579999999998
21
-27.4053620000000002
0
LINE
8
F.Cu
6
CONTINUOUS
10
45.5577579999999998
20
-27.4053620000000002
11
45.4010959999999955
21
-27.4702529999999996
0
LINE
8
F.Cu
6
CONTINUOUS
10
45.4010959999999955
20
-27.4702529999999996
11
45.25
21
-27.5003080000000004
0
LINE
8
F.Cu
6
CONTINUOUS
10
45.25
20
-27.5003080000000004
11
45.25
21
-28.0075000000000003
0
LINE
8
F.Cu
6
CONTINUOUS
10
45.25
20
-28.0075000000000003
11
45.2574269999999999
21
-28.0075000000000003
0
LINE
8
F.Cu
6
CONTINUOUS
10
45.2574269999999999
20
-28.0075000000000003
11
45.4696390000000008
21
-27.9738879999999988
0
LINE
8
F.Cu
6
CONTINUOUS
10
45.4696390000000008
20
-27.9738879999999988
11
45.4696420000000003
21
-27.9738879999999988
0
LINE
8
F.Cu
6
CONTINUOUS
10
45.4696420000000003
20
-27.9738879999999988
11
45.6739749999999987
21
-27.9074959999999983
0
LINE
8
F.Cu
6
CONTINUOUS
10
45.6739749999999987
20
-27.9074959999999983
11
45.8654159999999962
21
-27.8099519999999991
0
LINE
8
F.Cu
6
CONTINUOUS
10
45.8654159999999962
20
-27.8099519999999991
11
46.0392399999999995
21
-27.6836609999999972
0
LINE
8
F.Cu
6
CONTINUOUS
10
46.0392399999999995
20
-27.6836609999999972
11
46.191161000000001
21
-27.5317399999999992
0
LINE
8
F.Cu
6
CONTINUOUS
10
46.191161000000001
20
-27.5317399999999992
11
46.3174519999999958
21
-27.3579159999999995
0
LINE
8
F.Cu
6
CONTINUOUS
10
46.3174519999999958
20
-27.3579159999999995
11
46.414995999999995
21
-27.1664749999999984
0
LINE
8
F.Cu
6
CONTINUOUS
10
46.414995999999995
20
-27.1664749999999984
11
46.422785999999995
21
-27.1424999999999983
0
LINE
8
F.Cu
6
CONTINUOUS
10
46.422785999999995
20
-27.1424999999999983
11
45.851227999999999
21
-27.1424999999999983
0
LINE
8
F.Cu
6
CONTINUOUS
10
51.0772130000000004
20
-27.1424999999999983
11
51.0850030000000004
21
-27.1664749999999984
0
LINE
8
F.Cu
6
CONTINUOUS
10
51.0850030000000004
20
-27.1664749999999984
11
51.1825469999999996
21
-27.3579159999999995
0
LINE
8
F.Cu
6
CONTINUOUS
10
51.1825469999999996
20
-27.3579159999999995
11
51.3088379999999944
21
-27.5317399999999992
0
LINE
8
F.Cu
6
CONTINUOUS
10
51.3088379999999944
20
-27.5317399999999992
11
51.4607589999999959
21
-27.6836609999999972
0
LINE
8
F.Cu
6
CONTINUOUS
10
51.4607589999999959
20
-27.6836609999999972
11
51.6345829999999992
21
-27.8099519999999991
0
LINE
8
F.Cu
6
CONTINUOUS
10
51.6345829999999992
20
-27.8099519999999991
11
51.8260239999999968
21
-27.9074959999999983
0
LINE
8
F.Cu
6
CONTINUOUS
10
51.8260239999999968
20
-27.9074959999999983
11
52.
21
-27.9640239999999984
0
LINE
8
F.Cu
6
CONTINUOUS
10
52.
20
-27.9640239999999984
11
52.
21
-27.4292850000000001
0
LINE
8
F.Cu
6
CONTINUOUS
10
52.
20
-27.4292850000000001
11
51.9422420000000002
21
-27.4053620000000002
0
LINE
8
F.Cu
6
CONTINUOUS
10
51.9422420000000002
20
-27.4053620000000002
11
51.801249999999996
21
-27.3111539999999984
0
LINE
8
F.Cu
6
CONTINUOUS
10
51.801249999999996
20
-27.3111539999999984
11
51.6813459999999978
21
-27.1912500000000001
0
LINE
8
F.Cu
6
CONTINUOUS
10
51.6813459999999978
20
-27.1912500000000001
11
51.648772000000001
21
-27.1424999999999983
0
LINE
8
F.Cu
6
CONTINUOUS
10
51.648772000000001
20
-27.1424999999999983
11
51.0772130000000004
21
-27.1424999999999983
0
LINE
8
F.Cu
6
CONTINUOUS
10
53.4777529999999999
20
-26.8935959999999987
11
53.412861999999997
21
-27.0502579999999995
0
LINE
8
F.Cu
6
CONTINUOUS
10
53.412861999999997
20
-27.0502579999999995
11
53.3186539999999951
21
-27.1912500000000001
0
LINE
8
F.Cu
6
CONTINUOUS
10
53.3186539999999951
20
-27.1912500000000001
11
53.1987499999999969
21
-27.3111539999999984
0
LINE
8
F.Cu
6
CONTINUOUS
10
53.1987499999999969
20
-27.3111539999999984
11
53.0577579999999998
21
-27.4053620000000002
0
LINE
8
F.Cu
6
CONTINUOUS
10
53.0577579999999998
20
-27.4053620000000002
11
53.
21
-27.4292850000000001
0
LINE
8
F.Cu
6
CONTINUOUS
10
53.
20
-27.4292850000000001
11
53.
21
-27.9640239999999984
0
LINE
8
F.Cu
6
CONTINUOUS
10
53.
20
-27.9640239999999984
11
53.1739749999999987
21
-27.9074959999999983
0
LINE
8
F.Cu
6
CONTINUOUS
10
53.1739749999999987
20
-27.9074959999999983
11
53.3654159999999962
21
-27.8099519999999991
0
LINE
8
F.Cu
6
CONTINUOUS
10
53.3654159999999962
20
-27.8099519999999991
11
53.5392399999999995
21
-27.6836609999999972
0
LINE
8
F.Cu
6
CONTINUOUS
10
53.5392399999999995
20
-27.6836609999999972
11
53.691161000000001
21
-27.5317399999999992
0
LINE
8
F.Cu
6
CONTINUOUS
10
53.691161000000001
20
-27.5317399999999992
11
53.8174519999999958
21
-27.3579159999999995
0
LINE
8
F.Cu
6
CONTINUOUS
10
53.8174519999999958
20
-27.3579159999999995
11
53.914995999999995
21
-27.1664749999999984
0
LINE
8
F.Cu
6
CONTINUOUS
10
53.914995999999995
20
-27.1664749999999984
11
53.9813890000000001
21
-26.962135
0
LINE
8
F.Cu
6
CONTINUOUS
10
53.9813890000000001
20
-26.962135
11
53.9924189999999982
21
-26.8924999999999983
0
LINE
8
F.Cu
6
CONTINUOUS
10
53.9924189999999982
20
-26.8924999999999983
11
53.4779709999999966
21
-26.8924999999999983
0
LINE
8
F.Cu
6
CONTINUOUS
10
53.4779709999999966
20
-26.8924999999999983
11
53.4777529999999999
21
-26.8935959999999987
  0
ENDSEC
  0
EOF
