0
SECTION
2
HEADER
9
$ACADVER
1
AC1015
9
$INSUNITS
70
4
0
ENDSEC
0
SECTION
2
TABLES
0
TABLE
2
LAYER
70
2
0
LAYER
2
0
70
0
62
7
6
CONTINUOUS
0
LAYER
2
B.Cu
70
0
62
1
6
CONTINUOUS
0
ENDTAB
0
ENDSEC
0
SECTION
2
ENTITIES
0
LWPOLYLINE
8
B.Cu
90
21
70
0
10
168.945671
20
-136.644030
10
169.026777
20
-136.698223
10
169.080970
20
-136.779329
10
169.100000
20
-136.875000
10
169.100000
20
-138.075000
10
169.080970
20
-138.170671
10
169.026777
20
-138.251777
10
168.945671
20
-138.305970
10
168.850000
20
-138.325000
10
167.400000
20
-138.325000
10
167.304329
20
-138.305970
10
167.223223
20
-138.251777
10
167.169030
20
-138.170671
10
167.150000
20
-138.075000
10
167.150000
20
-136.875000
10
167.169030
20
-136.779329
10
167.223223
20
-136.698223
10
167.304329
20
-136.644030
10
167.400000
20
-136.625000
10
168.850000
20
-136.625000
10
168.945671
20
-136.644030
0
LWPOLYLINE
8
B.Cu
90
37
70
0
10
133.208315
20
-139.654093
10
133.371742
20
-139.686601
10
133.525687
20
-139.750367
10
133.664234
20
-139.842941
10
133.782059
20
-139.960766
10
133.874633
20
-140.099313
10
133.938399
20
-140.253258
10
133.970907
20
-140.416685
10
133.970907
20
-140.583315
10
133.938399
20
-140.746742
10
133.874633
20
-140.900687
10
133.782059
20
-141.039234
10
133.664234
20
-141.157059
10
133.525687
20
-141.249633
10
133.371742
20
-141.313399
10
133.208315
20
-141.345907
10
133.125000
20
-141.350000
10
132.875000
20
-141.350000
10
132.791685
20
-141.345907
10
132.628258
20
-141.313399
10
132.474313
20
-141.249633
10
132.335766
20
-141.157059
10
132.217941
20
-141.039234
10
132.125367
20
-140.900687
10
132.061601
20
-140.746742
10
132.029093
20
-140.583315
10
132.029093
20
-140.416685
10
132.061601
20
-140.253258
10
132.125367
20
-140.099313
10
132.217941
20
-139.960766
10
132.335766
20
-139.842941
10
132.474313
20
-139.750367
10
132.628258
20
-139.686601
10
132.791685
20
-139.654093
10
132.875000
20
-139.650000
10
133.125000
20
-139.650000
10
133.208315
20
-139.654093
0
LWPOLYLINE
8
B.Cu
90
37
70
0
10
168.223017
20
-138.979815
10
168.415285
20
-139.018060
10
168.596397
20
-139.093079
10
168.759393
20
-139.201990
10
168.898010
20
-139.340607
10
169.006921
20
-139.503603
10
169.081940
20
-139.684715
10
169.120185
20
-139.876983
10
169.120185
20
-140.073017
10
169.081940
20
-140.265285
10
169.006921
20
-140.446397
10
168.898010
20
-140.609393
10
168.759393
20
-140.748010
10
168.596397
20
-140.856921
10
168.415285
20
-140.931940
10
168.223017
20
-140.970185
10
168.125000
20
-140.975000
10
152.185000
20
-140.975000
10
152.086983
20
-140.970185
10
151.894715
20
-140.931940
10
151.713603
20
-140.856921
10
151.550607
20
-140.748010
10
151.411990
20
-140.609393
10
151.303079
20
-140.446397
10
151.228060
20
-140.265285
10
151.189815
20
-140.073017
10
151.189815
20
-139.876983
10
151.228060
20
-139.684715
10
151.303079
20
-139.503603
10
151.411990
20
-139.340607
10
151.550607
20
-139.201990
10
151.713603
20
-139.093079
10
151.894715
20
-139.018060
10
152.086983
20
-138.979815
10
152.185000
20
-138.975000
10
168.125000
20
-138.975000
10
168.223017
20
-138.979815
0
LWPOLYLINE
8
B.Cu
90
41
70
0
10
140.298875
20
-124.008467
10
140.435433
20
-124.065031
10
140.558333
20
-124.147150
10
140.662850
20
-124.251667
10
140.744969
20
-124.374567
10
140.801533
20
-124.511125
10
140.830369
20
-124.656095
10
140.830369
20
-124.803905
10
140.801533
20
-124.948875
10
140.744969
20
-125.085433
10
140.662850
20
-125.208333
10
140.558333
20
-125.312850
10
140.435433
20
-125.394969
10
140.298875
20
-125.451533
10
140.153905
20
-125.480369
10
140.036738
20
-125.480369
10
139.313553
20
-126.203553
10
139.264396
20
-126.246661
10
139.264381
20
-126.246677
10
139.151342
20
-126.311940
10
139.025263
20
-126.345723
10
139.025248
20
-126.345723
10
138.960000
20
-126.350000
10
131.450000
20
-126.350000
10
131.450000
20
-126.700000
10
129.750000
20
-126.700000
10
129.750000
20
-125.000000
10
131.450000
20
-125.000000
10
131.450000
20
-125.350000
10
138.752894
20
-125.350000
10
139.329631
20
-124.773262
10
139.329631
20
-124.656095
10
139.358467
20
-124.511125
10
139.415031
20
-124.374567
10
139.497150
20
-124.251667
10
139.601667
20
-124.147150
10
139.724567
20
-124.065031
10
139.861125
20
-124.008467
10
140.006095
20
-123.979631
10
140.153905
20
-123.979631
10
140.298875
20
-124.008467
0
LWPOLYLINE
8
B.Cu
90
5
70
0
10
163.350000
20
-119.270000
10
161.650000
20
-119.270000
10
161.650000
20
-117.570000
10
163.350000
20
-117.570000
10
163.350000
20
-119.270000
0
LWPOLYLINE
8
B.Cu
90
37
70
0
10
168.333315
20
-141.629093
10
168.496742
20
-141.661601
10
168.650687
20
-141.725367
10
168.789234
20
-141.817941
10
168.907059
20
-141.935766
10
168.999633
20
-142.074313
10
169.063399
20
-142.228258
10
169.095907
20
-142.391685
10
169.095907
20
-142.558315
10
169.063399
20
-142.721742
10
168.999633
20
-142.875687
10
168.907059
20
-143.014234
10
168.789234
20
-143.132059
10
168.650687
20
-143.224633
10
168.496742
20
-143.288399
10
168.333315
20
-143.320907
10
168.250000
20
-143.325000
10
168.000000
20
-143.325000
10
167.916685
20
-143.320907
10
167.753258
20
-143.288399
10
167.599313
20
-143.224633
10
167.460766
20
-143.132059
10
167.342941
20
-143.014234
10
167.250367
20
-142.875687
10
167.186601
20
-142.721742
10
167.154093
20
-142.558315
10
167.154093
20
-142.391685
10
167.186601
20
-142.228258
10
167.250367
20
-142.074313
10
167.342941
20
-141.935766
10
167.460766
20
-141.817941
10
167.599313
20
-141.725367
10
167.753258
20
-141.661601
10
167.916685
20
-141.629093
10
168.000000
20
-141.625000
10
168.250000
20
-141.625000
10
168.333315
20
-141.629093
0
LWPOLYLINE
8
B.Cu
90
33
70
0
10
155.538875
20
-124.008467
10
155.675433
20
-124.065031
10
155.798333
20
-124.147150
10
155.902850
20
-124.251667
10
155.984969
20
-124.374567
10
156.041533
20
-124.511125
10
156.070369
20
-124.656095
10
156.070369
20
-124.803905
10
156.041533
20
-124.948875
10
155.984969
20
-125.085433
10
155.902850
20
-125.208333
10
155.798333
20
-125.312850
10
155.675433
20
-125.394969
10
155.538875
20
-125.451533
10
155.393905
20
-125.480369
10
155.246095
20
-125.480369
10
155.101125
20
-125.451533
10
154.964567
20
-125.394969
10
154.841667
20
-125.312850
10
154.737150
20
-125.208333
10
154.655031
20
-125.085433
10
154.598467
20
-124.948875
10
154.569631
20
-124.803905
10
154.569631
20
-124.656095
10
154.598467
20
-124.511125
10
154.655031
20
-124.374567
10
154.737150
20
-124.251667
10
154.841667
20
-124.147150
10
154.964567
20
-124.065031
10
155.101125
20
-124.008467
10
155.246095
20
-123.979631
10
155.393905
20
-123.979631
10
155.538875
20
-124.008467
0
LWPOLYLINE
8
B.Cu
90
33
70
0
10
162.746742
20
-122.686601
10
162.900687
20
-122.750367
10
163.039234
20
-122.842941
10
163.157059
20
-122.960766
10
163.249633
20
-123.099313
10
163.313399
20
-123.253258
10
163.345907
20
-123.416685
10
163.345907
20
-123.583315
10
163.313399
20
-123.746742
10
163.249633
20
-123.900687
10
163.157059
20
-124.039234
10
163.039234
20
-124.157059
10
162.900687
20
-124.249633
10
162.746742
20
-124.313399
10
162.583315
20
-124.345907
10
162.416685
20
-124.345907
10
162.253258
20
-124.313399
10
162.099313
20
-124.249633
10
161.960766
20
-124.157059
10
161.842941
20
-124.039234
10
161.750367
20
-123.900687
10
161.686601
20
-123.746742
10
161.654093
20
-123.583315
10
161.654093
20
-123.416685
10
161.686601
20
-123.253258
10
161.750367
20
-123.099313
10
161.842941
20
-122.960766
10
161.960766
20
-122.842941
10
162.099313
20
-122.750367
10
162.253258
20
-122.686601
10
162.416685
20
-122.654093
10
162.583315
20
-122.654093
10
162.746742
20
-122.686601
0
LWPOLYLINE
8
B.Cu
90
33
70
0
10
155.538875
20
-121.468467
10
155.675433
20
-121.525031
10
155.798333
20
-121.607150
10
155.902850
20
-121.711667
10
155.984969
20
-121.834567
10
156.041533
20
-121.971125
10
156.070369
20
-122.116095
10
156.070369
20
-122.263905
10
156.041533
20
-122.408875
10
155.984969
20
-122.545433
10
155.902850
20
-122.668333
10
155.798333
20
-122.772850
10
155.675433
20
-122.854969
10
155.538875
20
-122.911533
10
155.393905
20
-122.940369
10
155.246095
20
-122.940369
10
155.101125
20
-122.911533
10
154.964567
20
-122.854969
10
154.841667
20
-122.772850
10
154.737150
20
-122.668333
10
154.655031
20
-122.545433
10
154.598467
20
-122.408875
10
154.569631
20
-122.263905
10
154.569631
20
-122.116095
10
154.598467
20
-121.971125
10
154.655031
20
-121.834567
10
154.737150
20
-121.711667
10
154.841667
20
-121.607150
10
154.964567
20
-121.525031
10
155.101125
20
-121.468467
10
155.246095
20
-121.439631
10
155.393905
20
-121.439631
10
155.538875
20
-121.468467
0
LWPOLYLINE
8
B.Cu
90
33
70
0
10
162.746742
20
-120.146601
10
162.900687
20
-120.210367
10
163.039234
20
-120.302941
10
163.157059
20
-120.420766
10
163.249633
20
-120.559313
10
163.313399
20
-120.713258
10
163.345907
20
-120.876685
10
163.345907
20
-121.043315
10
163.313399
20
-121.206742
10
163.249633
20
-121.360687
10
163.157059
20
-121.499234
10
163.039234
20
-121.617059
10
162.900687
20
-121.709633
10
162.746742
20
-121.773399
10
162.583315
20
-121.805907
10
162.416685
20
-121.805907
10
162.253258
20
-121.773399
10
162.099313
20
-121.709633
10
161.960766
20
-121.617059
10
161.842941
20
-121.499234
10
161.750367
20
-121.360687
10
161.686601
20
-121.206742
10
161.654093
20
-121.043315
10
161.654093
20
-120.876685
10
161.686601
20
-120.713258
10
161.750367
20
-120.559313
10
161.842941
20
-120.420766
10
161.960766
20
-120.302941
10
162.099313
20
-120.210367
10
162.253258
20
-120.146601
10
162.416685
20
-120.114093
10
162.583315
20
-120.114093
10
162.746742
20
-120.146601
0
LWPOLYLINE
8
B.Cu
90
33
70
0
10
155.538875
20
-118.928467
10
155.675433
20
-118.985031
10
155.798333
20
-119.067150
10
155.902850
20
-119.171667
10
155.984969
20
-119.294567
10
156.041533
20
-119.431125
10
156.070369
20
-119.576095
10
156.070369
20
-119.723905
10
156.041533
20
-119.868875
10
155.984969
20
-120.005433
10
155.902850
20
-120.128333
10
155.798333
20
-120.232850
10
155.675433
20
-120.314969
10
155.538875
20
-120.371533
10
155.393905
20
-120.400369
10
155.246095
20
-120.400369
10
155.101125
20
-120.371533
10
154.964567
20
-120.314969
10
154.841667
20
-120.232850
10
154.737150
20
-120.128333
10
154.655031
20
-120.005433
10
154.598467
20
-119.868875
10
154.569631
20
-119.723905
10
154.569631
20
-119.576095
10
154.598467
20
-119.431125
10
154.655031
20
-119.294567
10
154.737150
20
-119.171667
10
154.841667
20
-119.067150
10
154.964567
20
-118.985031
10
155.101125
20
-118.928467
10
155.246095
20
-118.899631
10
155.393905
20
-118.899631
10
155.538875
20
-118.928467
0
LWPOLYLINE
8
B.Cu
90
33
70
0
10
155.538875
20
-116.388467
10
155.675433
20
-116.445031
10
155.798333
20
-116.527150
10
155.902850
20
-116.631667
10
155.984969
20
-116.754567
10
156.041533
20
-116.891125
10
156.070369
20
-117.036095
10
156.070369
20
-117.183905
10
156.041533
20
-117.328875
10
155.984969
20
-117.465433
10
155.902850
20
-117.588333
10
155.798333
20
-117.692850
10
155.675433
20
-117.774969
10
155.538875
20
-117.831533
10
155.393905
20
-117.860369
10
155.246095
20
-117.860369
10
155.101125
20
-117.831533
10
154.964567
20
-117.774969
10
154.841667
20
-117.692850
10
154.737150
20
-117.588333
10
154.655031
20
-117.465433
10
154.598467
20
-117.328875
10
154.569631
20
-117.183905
10
154.569631
20
-117.036095
10
154.598467
20
-116.891125
10
154.655031
20
-116.754567
10
154.737150
20
-116.631667
10
154.841667
20
-116.527150
10
154.964567
20
-116.445031
10
155.101125
20
-116.388467
10
155.246095
20
-116.359631
10
155.393905
20
-116.359631
10
155.538875
20
-116.388467
0
LWPOLYLINE
8
B.Cu
90
33
70
0
10
155.538875
20
-113.848467
10
155.675433
20
-113.905031
10
155.798333
20
-113.987150
10
155.902850
20
-114.091667
10
155.984969
20
-114.214567
10
156.041533
20
-114.351125
10
156.070369
20
-114.496095
10
156.070369
20
-114.643905
10
156.041533
20
-114.788875
10
155.984969
20
-114.925433
10
155.902850
20
-115.048333
10
155.798333
20
-115.152850
10
155.675433
20
-115.234969
10
155.538875
20
-115.291533
10
155.393905
20
-115.320369
10
155.246095
20
-115.320369
10
155.101125
20
-115.291533
10
154.964567
20
-115.234969
10
154.841667
20
-115.152850
10
154.737150
20
-115.048333
10
154.655031
20
-114.925433
10
154.598467
20
-114.788875
10
154.569631
20
-114.643905
10
154.569631
20
-114.496095
10
154.598467
20
-114.351125
10
154.655031
20
-114.214567
10
154.737150
20
-114.091667
10
154.841667
20
-113.987150
10
154.964567
20
-113.905031
10
155.101125
20
-113.848467
10
155.246095
20
-113.819631
10
155.393905
20
-113.819631
10
155.538875
20
-113.848467
0
LWPOLYLINE
8
B.Cu
90
33
70
0
10
166.166742
20
-112.686601
10
166.320687
20
-112.750367
10
166.459234
20
-112.842941
10
166.577059
20
-112.960766
10
166.669633
20
-113.099313
10
166.733399
20
-113.253258
10
166.765907
20
-113.416685
10
166.765907
20
-113.583315
10
166.733399
20
-113.746742
10
166.669633
20
-113.900687
10
166.577059
20
-114.039234
10
166.459234
20
-114.157059
10
166.320687
20
-114.249633
10
166.166742
20
-114.313399
10
166.003315
20
-114.345907
10
165.836685
20
-114.345907
10
165.673258
20
-114.313399
10
165.519313
20
-114.249633
10
165.380766
20
-114.157059
10
165.262941
20
-114.039234
10
165.170367
20
-113.900687
10
165.106601
20
-113.746742
10
165.074093
20
-113.583315
10
165.074093
20
-113.416685
10
165.106601
20
-113.253258
10
165.170367
20
-113.099313
10
165.262941
20
-112.960766
10
165.380766
20
-112.842941
10
165.519313
20
-112.750367
10
165.673258
20
-112.686601
10
165.836685
20
-112.654093
10
166.003315
20
-112.654093
10
166.166742
20
-112.686601
0
LWPOLYLINE
8
B.Cu
90
104
70
0
10
119.850000
20
-99.250000
10
117.000000
20
-99.250000
10
117.000000
20
-103.875000
10
120.524999
20
-103.875000
10
120.620670
20
-103.894030
10
120.701776
20
-103.948224
10
120.755970
20
-104.029330
10
120.774999
20
-104.125002
10
120.775000
20
-105.724999
10
120.755970
20
-105.820670
10
120.701776
20
-105.901776
10
120.620670
20
-105.955970
10
120.524998
20
-105.974999
10
117.000000
20
-105.974999
10
117.000000
20
-114.935786
10
130.874214
20
-128.810000
10
139.672597
20
-128.810000
10
139.805607
20
-128.676990
10
139.968603
20
-128.568079
10
140.149715
20
-128.493060
10
140.341983
20
-128.454815
10
140.440000
20
-128.450000
10
142.000000
20
-128.450000
10
142.098017
20
-128.454815
10
142.290285
20
-128.493060
10
142.471397
20
-128.568079
10
142.518012
20
-128.599226
10
142.634394
20
-128.676989
10
142.707107
20
-128.742893
10
143.439214
20
-129.475000
10
144.500000
20
-129.475000
10
144.598017
20
-129.479815
10
144.790285
20
-129.518060
10
144.971397
20
-129.593079
10
145.134393
20
-129.701990
10
145.273010
20
-129.840607
10
145.381921
20
-130.003603
10
145.456940
20
-130.184715
10
145.495185
20
-130.376983
10
145.500000
20
-130.475000
10
145.500000
20
-132.964000
10
160.233056
20
-132.964000
10
175.080000
20
-118.117056
10
175.080000
20
-117.000000
10
175.080000
20
-113.500000
10
175.084815
20
-113.401983
10
175.123060
20
-113.209715
10
175.198079
20
-113.028603
10
175.306990
20
-112.865607
10
175.445607
20
-112.726990
10
175.608603
20
-112.618079
10
175.789715
20
-112.543060
10
175.981983
20
-112.504815
10
176.178017
20
-112.504815
10
176.370285
20
-112.543060
10
176.551397
20
-112.618079
10
176.714393
20
-112.726990
10
176.853010
20
-112.865607
10
176.961921
20
-113.028603
10
177.036940
20
-113.209715
10
177.075185
20
-113.401983
10
177.080000
20
-113.500000
10
177.080000
20
-117.000000
10
177.080000
20
-118.531270
10
177.075185
20
-118.629287
10
177.036940
20
-118.821555
10
176.961921
20
-119.002667
10
176.907465
20
-119.084165
10
176.853010
20
-119.165664
10
176.787107
20
-119.238377
10
161.354377
20
-134.671107
10
161.281664
20
-134.737011
10
161.165282
20
-134.814773
10
161.118667
20
-134.845921
10
160.937555
20
-134.920940
10
160.745287
20
-134.959185
10
160.647270
20
-134.964000
10
144.234000
20
-134.964000
10
144.135983
20
-134.959185
10
143.943715
20
-134.920940
10
143.762603
20
-134.845921
10
143.599606
20
-134.737010
10
143.526893
20
-134.671106
10
141.927893
20
-133.072107
10
139.665786
20
-130.810000
10
130.460000
20
-130.810000
10
130.361983
20
-130.805185
10
130.169715
20
-130.766940
10
129.988603
20
-130.691921
10
129.848066
20
-130.598017
10
129.825606
20
-130.583010
10
129.752893
20
-130.517107
10
115.292893
20
-116.057107
10
115.226989
20
-115.984394
10
115.149226
20
-115.868012
10
115.118079
20
-115.821397
10
115.043060
20
-115.640285
10
115.004815
20
-115.448017
10
115.000000
20
-115.350000
10
115.000000
20
-99.250000
10
114.150000
20
-99.250000
10
114.150000
20
-94.750000
10
119.850000
20
-94.750000
10
119.850000
20
-99.250000
0
LWPOLYLINE
8
B.Cu
90
33
70
0
10
163.626742
20
-112.686601
10
163.780687
20
-112.750367
10
163.919234
20
-112.842941
10
164.037059
20
-112.960766
10
164.129633
20
-113.099313
10
164.193399
20
-113.253258
10
164.225907
20
-113.416685
10
164.225907
20
-113.583315
10
164.193399
20
-113.746742
10
164.129633
20
-113.900687
10
164.037059
20
-114.039234
10
163.919234
20
-114.157059
10
163.780687
20
-114.249633
10
163.626742
20
-114.313399
10
163.463315
20
-114.345907
10
163.296685
20
-114.345907
10
163.133258
20
-114.313399
10
162.979313
20
-114.249633
10
162.840766
20
-114.157059
10
162.722941
20
-114.039234
10
162.630367
20
-113.900687
10
162.566601
20
-113.746742
10
162.534093
20
-113.583315
10
162.534093
20
-113.416685
10
162.566601
20
-113.253258
10
162.630367
20
-113.099313
10
162.722941
20
-112.960766
10
162.840766
20
-112.842941
10
162.979313
20
-112.750367
10
163.133258
20
-112.686601
10
163.296685
20
-112.654093
10
163.463315
20
-112.654093
10
163.626742
20
-112.686601
0
LWPOLYLINE
8
B.Cu
90
33
70
0
10
155.538875
20
-111.308467
10
155.675433
20
-111.365031
10
155.798333
20
-111.447150
10
155.902850
20
-111.551667
10
155.984969
20
-111.674567
10
156.041533
20
-111.811125
10
156.070369
20
-111.956095
10
156.070369
20
-112.103905
10
156.041533
20
-112.248875
10
155.984969
20
-112.385433
10
155.902850
20
-112.508333
10
155.798333
20
-112.612850
10
155.675433
20
-112.694969
10
155.538875
20
-112.751533
10
155.393905
20
-112.780369
10
155.246095
20
-112.780369
10
155.101125
20
-112.751533
10
154.964567
20
-112.694969
10
154.841667
20
-112.612850
10
154.737150
20
-112.508333
10
154.655031
20
-112.385433
10
154.598467
20
-112.248875
10
154.569631
20
-112.103905
10
154.569631
20
-111.956095
10
154.598467
20
-111.811125
10
154.655031
20
-111.674567
10
154.737150
20
-111.551667
10
154.841667
20
-111.447150
10
154.964567
20
-111.365031
10
155.101125
20
-111.308467
10
155.246095
20
-111.279631
10
155.393905
20
-111.279631
10
155.538875
20
-111.308467
0
LWPOLYLINE
8
B.Cu
90
5
70
0
10
161.690000
20
-114.350000
10
159.990000
20
-114.350000
10
159.990000
20
-112.650000
10
161.690000
20
-112.650000
10
161.690000
20
-114.350000
0
LWPOLYLINE
8
B.Cu
90
33
70
0
10
155.538875
20
-108.768467
10
155.675433
20
-108.825031
10
155.798333
20
-108.907150
10
155.902850
20
-109.011667
10
155.984969
20
-109.134567
10
156.041533
20
-109.271125
10
156.070369
20
-109.416095
10
156.070369
20
-109.563905
10
156.041533
20
-109.708875
10
155.984969
20
-109.845433
10
155.902850
20
-109.968333
10
155.798333
20
-110.072850
10
155.675433
20
-110.154969
10
155.538875
20
-110.211533
10
155.393905
20
-110.240369
10
155.246095
20
-110.240369
10
155.101125
20
-110.211533
10
154.964567
20
-110.154969
10
154.841667
20
-110.072850
10
154.737150
20
-109.968333
10
154.655031
20
-109.845433
10
154.598467
20
-109.708875
10
154.569631
20
-109.563905
10
154.569631
20
-109.416095
10
154.598467
20
-109.271125
10
154.655031
20
-109.134567
10
154.737150
20
-109.011667
10
154.841667
20
-108.907150
10
154.964567
20
-108.825031
10
155.101125
20
-108.768467
10
155.246095
20
-108.739631
10
155.393905
20
-108.739631
10
155.538875
20
-108.768467
0
LWPOLYLINE
8
B.Cu
90
33
70
0
10
130.846742
20
-114.876601
10
131.000687
20
-114.940367
10
131.139234
20
-115.032941
10
131.257059
20
-115.150766
10
131.349633
20
-115.289313
10
131.413399
20
-115.443258
10
131.445907
20
-115.606685
10
131.445907
20
-115.773315
10
131.413399
20
-115.936742
10
131.349633
20
-116.090687
10
131.257059
20
-116.229234
10
131.139234
20
-116.347059
10
131.000687
20
-116.439633
10
130.846742
20
-116.503399
10
130.683315
20
-116.535907
10
130.516685
20
-116.535907
10
130.353258
20
-116.503399
10
130.199313
20
-116.439633
10
130.060766
20
-116.347059
10
129.942941
20
-116.229234
10
129.850367
20
-116.090687
10
129.786601
20
-115.936742
10
129.754093
20
-115.773315
10
129.754093
20
-115.606685
10
129.786601
20
-115.443258
10
129.850367
20
-115.289313
10
129.942941
20
-115.150766
10
130.060766
20
-115.032941
10
130.199313
20
-114.940367
10
130.353258
20
-114.876601
10
130.516685
20
-114.844093
10
130.683315
20
-114.844093
10
130.846742
20
-114.876601
0
LWPOLYLINE
8
B.Cu
90
33
70
0
10
140.298875
20
-108.768467
10
140.435433
20
-108.825031
10
140.558333
20
-108.907150
10
140.662850
20
-109.011667
10
140.744969
20
-109.134567
10
140.801533
20
-109.271125
10
140.830369
20
-109.416095
10
140.830369
20
-109.563905
10
140.801533
20
-109.708875
10
140.744969
20
-109.845433
10
140.662850
20
-109.968333
10
140.558333
20
-110.072850
10
140.435433
20
-110.154969
10
140.298875
20
-110.211533
10
140.153905
20
-110.240369
10
140.006095
20
-110.240369
10
139.861125
20
-110.211533
10
139.724567
20
-110.154969
10
139.601667
20
-110.072850
10
139.497150
20
-109.968333
10
139.415031
20
-109.845433
10
139.358467
20
-109.708875
10
139.329631
20
-109.563905
10
139.329631
20
-109.416095
10
139.358467
20
-109.271125
10
139.415031
20
-109.134567
10
139.497150
20
-109.011667
10
139.601667
20
-108.907150
10
139.724567
20
-108.825031
10
139.861125
20
-108.768467
10
140.006095
20
-108.739631
10
140.153905
20
-108.739631
10
140.298875
20
-108.768467
0
LWPOLYLINE
8
B.Cu
90
37
70
0
10
116.746742
20
-138.061601
10
116.900687
20
-138.125367
10
117.039234
20
-138.217941
10
117.157059
20
-138.335766
10
117.249633
20
-138.474313
10
117.313399
20
-138.628258
10
117.345907
20
-138.791685
10
117.350000
20
-138.875000
10
117.350000
20
-139.125000
10
117.345907
20
-139.208315
10
117.313399
20
-139.371742
10
117.249633
20
-139.525687
10
117.157059
20
-139.664234
10
117.039234
20
-139.782059
10
116.900687
20
-139.874633
10
116.746742
20
-139.938399
10
116.583315
20
-139.970907
10
116.416685
20
-139.970907
10
116.253258
20
-139.938399
10
116.099313
20
-139.874633
10
115.960766
20
-139.782059
10
115.842941
20
-139.664234
10
115.750367
20
-139.525687
10
115.686601
20
-139.371742
10
115.654093
20
-139.208315
10
115.650000
20
-139.125000
10
115.650000
20
-138.875000
10
115.654093
20
-138.791685
10
115.686601
20
-138.628258
10
115.750367
20
-138.474313
10
115.842941
20
-138.335766
10
115.960766
20
-138.217941
10
116.099313
20
-138.125367
10
116.253258
20
-138.061601
10
116.416685
20
-138.029093
10
116.583315
20
-138.029093
10
116.746742
20
-138.061601
0
LWPOLYLINE
8
B.Cu
90
33
70
0
10
130.846742
20
-117.416601
10
131.000687
20
-117.480367
10
131.139234
20
-117.572941
10
131.257059
20
-117.690766
10
131.349633
20
-117.829313
10
131.413399
20
-117.983258
10
131.445907
20
-118.146685
10
131.445907
20
-118.313315
10
131.413399
20
-118.476742
10
131.349633
20
-118.630687
10
131.257059
20
-118.769234
10
131.139234
20
-118.887059
10
131.000687
20
-118.979633
10
130.846742
20
-119.043399
10
130.683315
20
-119.075907
10
130.516685
20
-119.075907
10
130.353258
20
-119.043399
10
130.199313
20
-118.979633
10
130.060766
20
-118.887059
10
129.942941
20
-118.769234
10
129.850367
20
-118.630687
10
129.786601
20
-118.476742
10
129.754093
20
-118.313315
10
129.754093
20
-118.146685
10
129.786601
20
-117.983258
10
129.850367
20
-117.829313
10
129.942941
20
-117.690766
10
130.060766
20
-117.572941
10
130.199313
20
-117.480367
10
130.353258
20
-117.416601
10
130.516685
20
-117.384093
10
130.683315
20
-117.384093
10
130.846742
20
-117.416601
0
LWPOLYLINE
8
B.Cu
90
33
70
0
10
140.298875
20
-111.308467
10
140.435433
20
-111.365031
10
140.558333
20
-111.447150
10
140.662850
20
-111.551667
10
140.744969
20
-111.674567
10
140.801533
20
-111.811125
10
140.830369
20
-111.956095
10
140.830369
20
-112.103905
10
140.801533
20
-112.248875
10
140.744969
20
-112.385433
10
140.662850
20
-112.508333
10
140.558333
20
-112.612850
10
140.435433
20
-112.694969
10
140.298875
20
-112.751533
10
140.153905
20
-112.780369
10
140.006095
20
-112.780369
10
139.861125
20
-112.751533
10
139.724567
20
-112.694969
10
139.601667
20
-112.612850
10
139.497150
20
-112.508333
10
139.415031
20
-112.385433
10
139.358467
20
-112.248875
10
139.329631
20
-112.103905
10
139.329631
20
-111.956095
10
139.358467
20
-111.811125
10
139.415031
20
-111.674567
10
139.497150
20
-111.551667
10
139.601667
20
-111.447150
10
139.724567
20
-111.365031
10
139.861125
20
-111.308467
10
140.006095
20
-111.279631
10
140.153905
20
-111.279631
10
140.298875
20
-111.308467
0
LWPOLYLINE
8
B.Cu
90
37
70
0
10
119.246742
20
-138.061601
10
119.400687
20
-138.125367
10
119.539234
20
-138.217941
10
119.657059
20
-138.335766
10
119.749633
20
-138.474313
10
119.813399
20
-138.628258
10
119.845907
20
-138.791685
10
119.850000
20
-138.875000
10
119.850000
20
-139.125000
10
119.845907
20
-139.208315
10
119.813399
20
-139.371742
10
119.749633
20
-139.525687
10
119.657059
20
-139.664234
10
119.539234
20
-139.782059
10
119.400687
20
-139.874633
10
119.246742
20
-139.938399
10
119.083315
20
-139.970907
10
118.916685
20
-139.970907
10
118.753258
20
-139.938399
10
118.599313
20
-139.874633
10
118.460766
20
-139.782059
10
118.342941
20
-139.664234
10
118.250367
20
-139.525687
10
118.186601
20
-139.371742
10
118.154093
20
-139.208315
10
118.150000
20
-139.125000
10
118.150000
20
-138.875000
10
118.154093
20
-138.791685
10
118.186601
20
-138.628258
10
118.250367
20
-138.474313
10
118.342941
20
-138.335766
10
118.460766
20
-138.217941
10
118.599313
20
-138.125367
10
118.753258
20
-138.061601
10
118.916685
20
-138.029093
10
119.083315
20
-138.029093
10
119.246742
20
-138.061601
0
LWPOLYLINE
8
B.Cu
90
33
70
0
10
130.846742
20
-119.956601
10
131.000687
20
-120.020367
10
131.139234
20
-120.112941
10
131.257059
20
-120.230766
10
131.349633
20
-120.369313
10
131.413399
20
-120.523258
10
131.445907
20
-120.686685
10
131.445907
20
-120.853315
10
131.413399
20
-121.016742
10
131.349633
20
-121.170687
10
131.257059
20
-121.309234
10
131.139234
20
-121.427059
10
131.000687
20
-121.519633
10
130.846742
20
-121.583399
10
130.683315
20
-121.615907
10
130.516685
20
-121.615907
10
130.353258
20
-121.583399
10
130.199313
20
-121.519633
10
130.060766
20
-121.427059
10
129.942941
20
-121.309234
10
129.850367
20
-121.170687
10
129.786601
20
-121.016742
10
129.754093
20
-120.853315
10
129.754093
20
-120.686685
10
129.786601
20
-120.523258
10
129.850367
20
-120.369313
10
129.942941
20
-120.230766
10
130.060766
20
-120.112941
10
130.199313
20
-120.020367
10
130.353258
20
-119.956601
10
130.516685
20
-119.924093
10
130.683315
20
-119.924093
10
130.846742
20
-119.956601
0
LWPOLYLINE
8
B.Cu
90
33
70
0
10
140.298875
20
-113.848467
10
140.435433
20
-113.905031
10
140.558333
20
-113.987150
10
140.662850
20
-114.091667
10
140.744969
20
-114.214567
10
140.801533
20
-114.351125
10
140.830369
20
-114.496095
10
140.830369
20
-114.643905
10
140.801533
20
-114.788875
10
140.744969
20
-114.925433
10
140.662850
20
-115.048333
10
140.558333
20
-115.152850
10
140.435433
20
-115.234969
10
140.298875
20
-115.291533
10
140.153905
20
-115.320369
10
140.006095
20
-115.320369
10
139.861125
20
-115.291533
10
139.724567
20
-115.234969
10
139.601667
20
-115.152850
10
139.497150
20
-115.048333
10
139.415031
20
-114.925433
10
139.358467
20
-114.788875
10
139.329631
20
-114.643905
10
139.329631
20
-114.496095
10
139.358467
20
-114.351125
10
139.415031
20
-114.214567
10
139.497150
20
-114.091667
10
139.601667
20
-113.987150
10
139.724567
20
-113.905031
10
139.861125
20
-113.848467
10
140.006095
20
-113.819631
10
140.153905
20
-113.819631
10
140.298875
20
-113.848467
0
LWPOLYLINE
8
B.Cu
90
33
70
0
10
130.846742
20
-122.496601
10
131.000687
20
-122.560367
10
131.139234
20
-122.652941
10
131.257059
20
-122.770766
10
131.349633
20
-122.909313
10
131.413399
20
-123.063258
10
131.445907
20
-123.226685
10
131.445907
20
-123.393315
10
131.413399
20
-123.556742
10
131.349633
20
-123.710687
10
131.257059
20
-123.849234
10
131.139234
20
-123.967059
10
131.000687
20
-124.059633
10
130.846742
20
-124.123399
10
130.683315
20
-124.155907
10
130.516685
20
-124.155907
10
130.353258
20
-124.123399
10
130.199313
20
-124.059633
10
130.060766
20
-123.967059
10
129.942941
20
-123.849234
10
129.850367
20
-123.710687
10
129.786601
20
-123.556742
10
129.754093
20
-123.393315
10
129.754093
20
-123.226685
10
129.786601
20
-123.063258
10
129.850367
20
-122.909313
10
129.942941
20
-122.770766
10
130.060766
20
-122.652941
10
130.199313
20
-122.560367
10
130.353258
20
-122.496601
10
130.516685
20
-122.464093
10
130.683315
20
-122.464093
10
130.846742
20
-122.496601
0
LWPOLYLINE
8
B.Cu
90
33
70
0
10
140.298875
20
-116.388467
10
140.435433
20
-116.445031
10
140.558333
20
-116.527150
10
140.662850
20
-116.631667
10
140.744969
20
-116.754567
10
140.801533
20
-116.891125
10
140.830369
20
-117.036095
10
140.830369
20
-117.183905
10
140.801533
20
-117.328875
10
140.744969
20
-117.465433
10
140.662850
20
-117.588333
10
140.558333
20
-117.692850
10
140.435433
20
-117.774969
10
140.298875
20
-117.831533
10
140.153905
20
-117.860369
10
140.006095
20
-117.860369
10
139.861125
20
-117.831533
10
139.724567
20
-117.774969
10
139.601667
20
-117.692850
10
139.497150
20
-117.588333
10
139.415031
20
-117.465433
10
139.358467
20
-117.328875
10
139.329631
20
-117.183905
10
139.329631
20
-117.036095
10
139.358467
20
-116.891125
10
139.415031
20
-116.754567
10
139.497150
20
-116.631667
10
139.601667
20
-116.527150
10
139.724567
20
-116.445031
10
139.861125
20
-116.388467
10
140.006095
20
-116.359631
10
140.153905
20
-116.359631
10
140.298875
20
-116.388467
0
LWPOLYLINE
8
B.Cu
90
37
70
0
10
121.746742
20
-138.061601
10
121.900687
20
-138.125367
10
122.039234
20
-138.217941
10
122.157059
20
-138.335766
10
122.249633
20
-138.474313
10
122.313399
20
-138.628258
10
122.345907
20
-138.791685
10
122.350000
20
-138.875000
10
122.350000
20
-139.125000
10
122.345907
20
-139.208315
10
122.313399
20
-139.371742
10
122.249633
20
-139.525687
10
122.157059
20
-139.664234
10
122.039234
20
-139.782059
10
121.900687
20
-139.874633
10
121.746742
20
-139.938399
10
121.583315
20
-139.970907
10
121.416685
20
-139.970907
10
121.253258
20
-139.938399
10
121.099313
20
-139.874633
10
120.960766
20
-139.782059
10
120.842941
20
-139.664234
10
120.750367
20
-139.525687
10
120.686601
20
-139.371742
10
120.654093
20
-139.208315
10
120.650000
20
-139.125000
10
120.650000
20
-138.875000
10
120.654093
20
-138.791685
10
120.686601
20
-138.628258
10
120.750367
20
-138.474313
10
120.842941
20
-138.335766
10
120.960766
20
-138.217941
10
121.099313
20
-138.125367
10
121.253258
20
-138.061601
10
121.416685
20
-138.029093
10
121.583315
20
-138.029093
10
121.746742
20
-138.061601
0
LWPOLYLINE
8
B.Cu
90
33
70
0
10
140.298875
20
-118.928467
10
140.435433
20
-118.985031
10
140.558333
20
-119.067150
10
140.662850
20
-119.171667
10
140.744969
20
-119.294567
10
140.801533
20
-119.431125
10
140.830369
20
-119.576095
10
140.830369
20
-119.723905
10
140.801533
20
-119.868875
10
140.744969
20
-120.005433
10
140.662850
20
-120.128333
10
140.558333
20
-120.232850
10
140.435433
20
-120.314969
10
140.298875
20
-120.371533
10
140.153905
20
-120.400369
10
140.006095
20
-120.400369
10
139.861125
20
-120.371533
10
139.724567
20
-120.314969
10
139.601667
20
-120.232850
10
139.497150
20
-120.128333
10
139.415031
20
-120.005433
10
139.358467
20
-119.868875
10
139.329631
20
-119.723905
10
139.329631
20
-119.576095
10
139.358467
20
-119.431125
10
139.415031
20
-119.294567
10
139.497150
20
-119.171667
10
139.601667
20
-119.067150
10
139.724567
20
-118.985031
10
139.861125
20
-118.928467
10
140.006095
20
-118.899631
10
140.153905
20
-118.899631
10
140.298875
20
-118.928467
0
LWPOLYLINE
8
B.Cu
90
37
70
0
10
124.246742
20
-138.061601
10
124.400687
20
-138.125367
10
124.539234
20
-138.217941
10
124.657059
20
-138.335766
10
124.749633
20
-138.474313
10
124.813399
20
-138.628258
10
124.845907
20
-138.791685
10
124.850000
20
-138.875000
10
124.850000
20
-139.125000
10
124.845907
20
-139.208315
10
124.813399
20
-139.371742
10
124.749633
20
-139.525687
10
124.657059
20
-139.664234
10
124.539234
20
-139.782059
10
124.400687
20
-139.874633
10
124.246742
20
-139.938399
10
124.083315
20
-139.970907
10
123.916685
20
-139.970907
10
123.753258
20
-139.938399
10
123.599313
20
-139.874633
10
123.460766
20
-139.782059
10
123.342941
20
-139.664234
10
123.250367
20
-139.525687
10
123.186601
20
-139.371742
10
123.154093
20
-139.208315
10
123.150000
20
-139.125000
10
123.150000
20
-138.875000
10
123.154093
20
-138.791685
10
123.186601
20
-138.628258
10
123.250367
20
-138.474313
10
123.342941
20
-138.335766
10
123.460766
20
-138.217941
10
123.599313
20
-138.125367
10
123.753258
20
-138.061601
10
123.916685
20
-138.029093
10
124.083315
20
-138.029093
10
124.246742
20
-138.061601
0
LWPOLYLINE
8
B.Cu
90
33
70
0
10
140.298875
20
-121.428467
10
140.435433
20
-121.485031
10
140.558333
20
-121.567150
10
140.662850
20
-121.671667
10
140.744969
20
-121.794567
10
140.801533
20
-121.931125
10
140.830369
20
-122.076095
10
140.830369
20
-122.223905
10
140.801533
20
-122.368875
10
140.744969
20
-122.505433
10
140.662850
20
-122.628333
10
140.558333
20
-122.732850
10
140.435433
20
-122.814969
10
140.298875
20
-122.871533
10
140.153905
20
-122.900369
10
140.006095
20
-122.900369
10
139.861125
20
-122.871533
10
139.724567
20
-122.814969
10
139.601667
20
-122.732850
10
139.497150
20
-122.628333
10
139.415031
20
-122.505433
10
139.358467
20
-122.368875
10
139.329631
20
-122.223905
10
139.329631
20
-122.076095
10
139.358467
20
-121.931125
10
139.415031
20
-121.794567
10
139.497150
20
-121.671667
10
139.601667
20
-121.567150
10
139.724567
20
-121.485031
10
139.861125
20
-121.428467
10
140.006095
20
-121.399631
10
140.153905
20
-121.399631
10
140.298875
20
-121.428467
0
LWPOLYLINE
8
B.Cu
90
44
70
0
10
138.680557
20
-126.869454
10
138.761339
20
-126.923430
10
138.815315
20
-127.004212
10
138.834269
20
-127.099500
10
138.831204
20
-127.138450
10
138.826000
20
-127.171304
10
138.826000
20
-127.368687
10
138.826001
20
-127.368703
10
138.856875
20
-127.563640
10
138.856877
20
-127.563646
10
138.917870
20
-127.751364
10
138.917874
20
-127.751373
10
139.007482
20
-127.927239
10
139.009420
20
-127.930401
10
139.010276
20
-127.932722
10
139.011924
20
-127.935956
10
139.011541
20
-127.936151
10
139.043046
20
-128.021551
10
139.039230
20
-128.118631
10
138.998554
20
-128.206861
10
138.927210
20
-128.272809
10
138.836060
20
-128.306435
10
138.797111
20
-128.309500
10
131.184667
20
-128.309500
10
131.089379
20
-128.290546
10
131.008597
20
-128.236570
10
130.397596
20
-127.625569
10
130.343620
20
-127.544787
10
130.324666
20
-127.449499
10
130.343620
20
-127.354211
10
130.397596
20
-127.273429
10
130.478378
20
-127.219453
10
130.573666
20
-127.200499
10
131.497866
20
-127.200499
10
131.497872
20
-127.200499
10
131.557483
20
-127.194091
10
131.692331
20
-127.143796
10
131.807546
20
-127.057546
10
131.887846
20
-126.950278
10
131.960124
20
-126.885356
10
132.051745
20
-126.853034
10
132.087180
20
-126.850500
10
138.585269
20
-126.850500
10
138.680557
20
-126.869454
0
LWPOLYLINE
8
B.Cu
90
117
70
0
10
113.683716
20
-65.519454
10
113.764498
20
-65.573430
10
113.818474
20
-65.654212
10
113.837428
20
-65.749500
10
113.818474
20
-65.844788
10
113.787762
20
-65.898721
10
113.706205
20
-66.007667
10
113.655908
20
-66.142518
10
113.649500
20
-66.202123
10
113.649500
20
-70.797865
10
113.649500
20
-70.797868
10
113.649501
20
-70.797872
10
113.651567
20
-70.817093
10
113.655908
20
-70.857480
10
113.655909
20
-70.857483
10
113.706204
20
-70.992331
10
113.792454
20
-71.107546
10
113.907669
20
-71.193796
10
114.042517
20
-71.244091
10
114.102127
20
-71.250500
10
119.897872
20
-71.250499
10
119.957483
20
-71.244091
10
120.092331
20
-71.193796
10
120.207546
20
-71.107546
10
120.293796
20
-70.992331
10
120.344091
20
-70.857483
10
120.350500
20
-70.797873
10
120.350499
20
-66.202128
10
120.344091
20
-66.142517
10
120.293796
20
-66.007669
10
120.293795
20
-66.007667
10
120.212238
20
-65.898721
10
120.170307
20
-65.811080
10
120.165106
20
-65.714065
10
120.197428
20
-65.622444
10
120.262351
20
-65.550166
10
120.349992
20
-65.508235
10
120.411572
20
-65.500500
10
122.588428
20
-65.500500
10
122.683716
20
-65.519454
10
122.764498
20
-65.573430
10
122.818474
20
-65.654212
10
122.837428
20
-65.749500
10
122.818474
20
-65.844788
10
122.787762
20
-65.898721
10
122.706205
20
-66.007667
10
122.655908
20
-66.142518
10
122.649500
20
-66.202123
10
122.649500
20
-70.797865
10
122.649500
20
-70.797868
10
122.649501
20
-70.797872
10
122.651567
20
-70.817093
10
122.655908
20
-70.857480
10
122.655909
20
-70.857483
10
122.706204
20
-70.992331
10
122.792454
20
-71.107546
10
122.907669
20
-71.193796
10
123.042517
20
-71.244091
10
123.102127
20
-71.250500
10
128.897872
20
-71.250499
10
128.957483
20
-71.244091
10
129.092331
20
-71.193796
10
129.207546
20
-71.107546
10
129.293796
20
-70.992331
10
129.344091
20
-70.857483
10
129.350500
20
-70.797873
10
129.350499
20
-66.202128
10
129.344091
20
-66.142517
10
129.293796
20
-66.007669
10
129.293795
20
-66.007667
10
129.212238
20
-65.898721
10
129.170307
20
-65.811080
10
129.165106
20
-65.714065
10
129.197428
20
-65.622444
10
129.262351
20
-65.550166
10
129.349992
20
-65.508235
10
129.411572
20
-65.500500
10
134.751000
20
-65.500500
10
134.846288
20
-65.519454
10
134.927070
20
-65.573430
10
134.981046
20
-65.654212
10
135.000000
20
-65.749500
10
135.000000
20
-107.500000
10
160.499999
20
-107.500000
10
160.500000
20
-107.500000
10
160.500000
20
-65.749500
10
160.518954
20
-65.654212
10
160.572930
20
-65.573430
10
160.653712
20
-65.519454
10
160.749000
20
-65.500500
10
178.250500
20
-65.500500
10
178.345788
20
-65.519454
10
178.426570
20
-65.573430
10
178.480546
20
-65.654212
10
178.499500
20
-65.749500
10
178.499500
20
-146.750500
10
178.480546
20
-146.845788
10
178.426570
20
-146.926570
10
178.345788
20
-146.980546
10
178.250500
20
-146.999500
10
112.749500
20
-146.999500
10
112.654212
20
-146.980546
10
112.573430
20
-146.926570
10
112.519454
20
-146.845788
10
112.500500
20
-146.750500
10
112.500500
20
-143.750000
10
112.500500
20
-142.937465
10
112.500500
20
-142.473757
10
112.500500
20
-138.768703
10
112.500500
20
-94.702123
10
112.500500
20
-65.749500
10
112.519454
20
-65.654212
10
112.573430
20
-65.573430
10
112.654212
20
-65.519454
10
112.749500
20
-65.500500
10
113.588428
20
-65.500500
10
113.683716
20
-65.519454
0
LWPOLYLINE
8
B.Cu
90
18
70
0
10
131.535494
20
-143.752693
10
131.590642
20
-143.919123
10
131.682681
20
-144.068341
10
131.682684
20
-144.068345
10
131.806654
20
-144.192315
10
131.806658
20
-144.192318
10
131.955878
20
-144.284358
10
131.955879
20
-144.284359
10
132.122298
20
-144.339504
10
132.122305
20
-144.339505
10
132.225024
20
-144.349999
10
132.250000
20
-144.349998
10
132.250000
20
-143.845027
10
132.179329
20
-143.830970
10
132.098223
20
-143.776777
10
132.080331
20
-143.750000
10
131.535219
20
-143.750000
10
131.535494
20
-143.752693
0
LWPOLYLINE
8
B.Cu
90
23
70
0
10
134.462592
20
-143.758469
10
134.462592
20
-143.758467
10
134.464505
20
-143.752694
10
134.464780
20
-143.750000
10
133.919669
20
-143.750000
10
133.901777
20
-143.776777
10
133.820671
20
-143.830970
10
133.750000
20
-143.845027
10
133.750000
20
-144.349998
10
133.750001
20
-144.349999
10
133.774968
20
-144.349999
10
133.774984
20
-144.349998
10
133.877699
20
-144.339505
10
133.877702
20
-144.339504
10
134.044119
20
-144.284359
10
134.044121
20
-144.284358
10
134.193341
20
-144.192318
10
134.193345
20
-144.192315
10
134.317315
20
-144.068345
10
134.317318
20
-144.068341
10
134.409357
20
-143.919123
10
134.414049
20
-143.904964
10
134.462592
20
-143.758469
0
LWPOLYLINE
8
B.Cu
90
19
70
0
10
150.770000
20
-143.330001
10
150.770000
20
-143.477832
10
150.776401
20
-143.537371
10
150.776403
20
-143.537378
10
150.826646
20
-143.672087
10
150.912810
20
-143.787187
10
150.912812
20
-143.787189
10
151.027912
20
-143.873353
10
151.162621
20
-143.923596
10
151.162628
20
-143.923598
10
151.222167
20
-143.929999
10
151.222175
20
-143.930000
10
151.369999
20
-143.930000
10
151.370000
20
-143.929999
10
151.370000
20
-143.430000
10
151.270000
20
-143.430000
10
151.270000
20
-143.330000
10
150.770001
20
-143.330000
10
150.770000
20
-143.330001
0
LWPOLYLINE
8
B.Cu
90
20
70
0
10
152.970000
20
-143.430000
10
152.870000
20
-143.430000
10
152.870000
20
-143.929999
10
152.870001
20
-143.930000
10
153.017825
20
-143.930000
10
153.017832
20
-143.929999
10
153.077371
20
-143.923598
10
153.077378
20
-143.923596
10
153.212087
20
-143.873353
10
153.327187
20
-143.787189
10
153.327189
20
-143.787187
10
153.413353
20
-143.672087
10
153.463596
20
-143.537378
10
153.463598
20
-143.537371
10
153.469999
20
-143.477832
10
153.470000
20
-143.477825
10
153.470000
20
-143.330001
10
153.469999
20
-143.330000
10
152.970000
20
-143.330000
10
152.970000
20
-143.430000
0
LWPOLYLINE
8
B.Cu
90
10
70
0
10
143.150001
20
-142.473741
10
143.150000
20
-142.473757
10
143.150000
20
-142.686242
10
143.150001
20
-142.686255
10
143.175033
20
-142.844304
10
143.175034
20
-142.844305
10
143.439339
20
-142.580000
10
143.373513
20
-142.514174
10
143.175033
20
-142.315694
10
143.150001
20
-142.473741
0
LWPOLYLINE
8
B.Cu
90
9
70
0
10
145.560660
20
-142.579999
10
145.824965
20
-142.844304
10
145.849999
20
-142.686254
10
145.850000
20
-142.686245
10
145.850000
20
-142.514174
10
145.850000
20
-142.473756
10
145.849999
20
-142.473745
10
145.824964
20
-142.315693
10
145.560660
20
-142.579999
0
LWPOLYLINE
8
B.Cu
90
847
70
0
10
113.649500
20
-99.297865
10
113.649500
20
-99.297868
10
113.649501
20
-99.297872
10
113.651567
20
-99.317093
10
113.655908
20
-99.357480
10
113.655909
20
-99.357483
10
113.706204
20
-99.492331
10
113.792454
20
-99.607546
10
113.907669
20
-99.693796
10
114.042517
20
-99.744091
10
114.102127
20
-99.750500
10
114.250501
20
-99.750499
10
114.345787
20
-99.769452
10
114.426568
20
-99.823428
10
114.480545
20
-99.904209
10
114.499500
20
-99.999497
10
114.499500
20
-115.468087
10
114.499501
20
-115.468103
10
114.535223
20
-115.693643
10
114.536447
20
-115.701368
10
114.609432
20
-115.925992
10
114.716657
20
-116.136434
10
114.855483
20
-116.327510
10
129.482490
20
-130.954517
10
129.673566
20
-131.093343
10
129.884008
20
-131.200568
10
130.108631
20
-131.273553
10
130.341908
20
-131.310500
10
139.355333
20
-131.310500
10
139.450621
20
-131.329454
10
139.531402
20
-131.383429
10
141.657490
20
-133.509518
10
141.657493
20
-133.509520
10
143.256490
20
-135.108517
10
143.447566
20
-135.247343
10
143.658007
20
-135.354568
10
143.730992
20
-135.378282
10
143.882632
20
-135.427553
10
144.115908
20
-135.464500
10
144.115912
20
-135.464500
10
160.765358
20
-135.464500
10
160.765362
20
-135.464500
10
160.998638
20
-135.427553
10
161.223262
20
-135.354568
10
161.433704
20
-135.247343
10
161.624780
20
-135.108517
10
177.224517
20
-119.508780
10
177.363343
20
-119.317704
10
177.470568
20
-119.107262
10
177.543553
20
-118.882638
10
177.580500
20
-118.649362
10
177.580500
20
-118.413178
10
177.580500
20
-116.881908
10
177.580500
20
-113.381908
10
177.543553
20
-113.148632
10
177.470568
20
-112.924008
10
177.363343
20
-112.713567
10
177.363341
20
-112.713564
10
177.363340
20
-112.713562
10
177.224521
20
-112.522495
10
177.224519
20
-112.522493
10
177.224517
20
-112.522490
10
177.057510
20
-112.355483
10
177.057506
20
-112.355480
10
177.057504
20
-112.355478
10
176.866437
20
-112.216659
10
176.845916
20
-112.206203
10
176.655992
20
-112.109432
10
176.655989
20
-112.109431
10
176.655987
20
-112.109430
10
176.531079
20
-112.068845
10
176.431368
20
-112.036447
10
176.431366
20
-112.036446
10
176.431364
20
-112.036446
10
176.198103
20
-111.999501
10
176.198094
20
-111.999500
10
176.198092
20
-111.999500
10
175.961908
20
-111.999500
10
175.961905
20
-111.999500
10
175.961896
20
-111.999501
10
175.728635
20
-112.036446
10
175.504012
20
-112.109430
10
175.293562
20
-112.216659
10
175.102495
20
-112.355478
10
174.935478
20
-112.522495
10
174.796659
20
-112.713562
10
174.689430
20
-112.924012
10
174.616446
20
-113.148635
10
174.579501
20
-113.381896
10
174.579500
20
-113.381912
10
174.579500
20
-113.418020
10
174.560546
20
-113.513308
10
174.506570
20
-113.594090
10
174.353032
20
-113.747627
10
174.289633
20
-113.900687
10
174.197059
20
-114.039234
10
174.079234
20
-114.157059
10
173.940687
20
-114.249633
10
173.787626
20
-114.313032
10
173.275694
20
-114.824965
10
173.433745
20
-114.849999
10
173.433756
20
-114.850000
10
173.646244
20
-114.850000
10
173.646256
20
-114.849999
10
173.856123
20
-114.816758
10
174.058215
20
-114.751095
10
174.058224
20
-114.751091
10
174.217456
20
-114.669959
10
174.310963
20
-114.643587
10
174.407444
20
-114.655006
10
174.492212
20
-114.702477
10
174.552360
20
-114.778775
10
174.578732
20
-114.872282
10
174.579500
20
-114.891819
10
174.579500
20
-117.806603
10
174.560546
20
-117.901891
10
174.506570
20
-117.982673
10
164.195958
20
-128.293284
10
164.115176
20
-128.347260
10
164.019888
20
-128.366214
10
163.942943
20
-128.354027
10
163.824965
20
-128.315693
10
163.313032
20
-128.827626
10
163.249633
20
-128.980687
10
163.157059
20
-129.119234
10
163.039234
20
-129.237059
10
162.900687
20
-129.329633
10
162.747626
20
-129.393032
10
162.235693
20
-129.904965
10
162.274027
20
-130.022943
10
162.285446
20
-130.119425
10
162.259074
20
-130.212932
10
162.213284
20
-130.275958
10
160.098673
20
-132.390570
10
160.017891
20
-132.444546
10
159.922603
20
-132.463500
10
146.249500
20
-132.463500
10
146.154212
20
-132.444546
10
146.073430
20
-132.390570
10
146.019454
20
-132.309788
10
146.000500
20
-132.214500
10
146.000500
20
-130.356912
10
146.000498
20
-130.356896
10
145.987679
20
-130.275958
10
145.963553
20
-130.123632
10
145.890568
20
-129.899008
10
145.783343
20
-129.688567
10
145.783341
20
-129.688564
10
145.783340
20
-129.688562
10
145.644521
20
-129.497495
10
145.644519
20
-129.497493
10
145.644517
20
-129.497490
10
145.477510
20
-129.330483
10
145.477506
20
-129.330480
10
145.477504
20
-129.330478
10
145.286437
20
-129.191659
10
145.075986
20
-129.084429
10
145.066951
20
-129.080687
10
145.067730
20
-129.078805
10
144.995476
20
-129.038344
10
144.935327
20
-128.962047
10
144.908953
20
-128.868541
10
144.920370
20
-128.772059
10
144.967840
20
-128.687290
10
145.044137
20
-128.627141
10
145.137643
20
-128.600767
10
145.157185
20
-128.599999
10
145.199976
20
-128.599999
10
145.302699
20
-128.589505
10
145.302702
20
-128.589504
10
145.469119
20
-128.534359
10
145.469121
20
-128.534358
10
145.618341
20
-128.442318
10
145.618345
20
-128.442315
10
145.742319
20
-128.318341
10
145.834356
20
-128.169125
10
145.857263
20
-128.100000
10
142.998139
20
-128.100000
10
142.902851
20
-128.081046
10
142.856387
20
-128.050000
10
142.586401
20
-128.050000
10
142.524382
20
-128.040177
10
142.475000
20
-128.050000
10
141.525000
20
-128.050000
10
141.429329
20
-128.030970
10
141.348223
20
-127.976777
10
141.294030
20
-127.895671
10
141.275000
20
-127.800000
10
141.275000
20
-127.300000
10
141.294030
20
-127.204329
10
141.348223
20
-127.123223
10
141.429329
20
-127.069030
10
141.500000
20
-127.054972
10
141.500000
20
-126.910660
10
140.786400
20
-127.624260
10
140.712969
20
-127.673324
10
140.662850
20
-127.748333
10
140.558333
20
-127.852850
10
140.435433
20
-127.934969
10
140.298875
20
-127.991533
10
140.153905
20
-128.020369
10
140.006095
20
-128.020369
10
139.861125
20
-127.991533
10
139.724567
20
-127.934969
10
139.601667
20
-127.852850
10
139.497150
20
-127.748333
10
139.415031
20
-127.625433
10
139.358467
20
-127.488875
10
139.329631
20
-127.343905
10
139.329631
20
-127.196095
10
139.358467
20
-127.051125
10
139.415031
20
-126.914567
10
139.497150
20
-126.791667
10
139.601667
20
-126.687150
10
139.676672
20
-126.637032
10
139.725739
20
-126.563600
10
139.739338
20
-126.550001
10
140.275152
20
-126.014186
10
140.355934
20
-125.960209
10
140.374248
20
-125.953452
10
140.561561
20
-125.892591
10
140.737501
20
-125.802944
10
140.897252
20
-125.686879
10
141.036879
20
-125.547252
10
141.152944
20
-125.387501
10
141.242591
20
-125.211561
10
141.303610
20
-125.023763
10
141.334500
20
-124.828731
10
141.334500
20
-124.631269
10
141.303610
20
-124.436237
10
141.242591
20
-124.248439
10
141.152946
20
-124.072502
10
141.152945
20
-124.072501
10
141.152944
20
-124.072499
10
141.036879
20
-123.912748
10
140.897252
20
-123.773121
10
140.737501
20
-123.657056
10
140.737498
20
-123.657054
10
140.737492
20
-123.657050
10
140.729752
20
-123.652307
10
140.658409
20
-123.586358
10
140.617734
20
-123.498128
10
140.613920
20
-123.401047
10
140.647547
20
-123.309898
10
140.713496
20
-123.238555
10
140.729752
20
-123.227693
10
140.737492
20
-123.222949
10
140.737493
20
-123.222947
10
140.737501
20
-123.222944
10
140.897252
20
-123.106879
10
141.036879
20
-122.967252
10
141.152944
20
-122.807501
10
141.242591
20
-122.631561
10
141.303610
20
-122.443763
10
141.334500
20
-122.248731
10
141.334500
20
-122.051269
10
141.303610
20
-121.856237
10
141.242591
20
-121.668439
10
141.173326
20
-121.532500
10
141.152946
20
-121.492502
10
141.152945
20
-121.492501
10
141.152944
20
-121.492499
10
141.036879
20
-121.332748
10
140.897252
20
-121.193121
10
140.897250
20
-121.193119
10
140.771071
20
-121.101446
10
140.705121
20
-121.030103
10
140.671494
20
-120.938954
10
140.675308
20
-120.841873
10
140.715982
20
-120.753643
10
140.771071
20
-120.698554
10
140.819040
20
-120.663703
10
140.897252
20
-120.606879
10
141.036879
20
-120.467252
10
141.152944
20
-120.307501
10
141.242591
20
-120.131561
10
141.303610
20
-119.943763
10
141.334500
20
-119.748731
10
141.334500
20
-119.551269
10
141.303610
20
-119.356237
10
141.242591
20
-119.168439
10
141.212709
20
-119.109793
10
141.152946
20
-118.992502
10
141.152945
20
-118.992501
10
141.152944
20
-118.992499
10
141.036879
20
-118.832748
10
140.897252
20
-118.693121
10
140.897250
20
-118.693119
10
140.743543
20
-118.581446
10
140.677593
20
-118.510103
10
140.643966
20
-118.418954
10
140.647780
20
-118.321874
10
140.688454
20
-118.233643
10
140.743543
20
-118.178554
10
140.819026
20
-118.123713
10
140.897252
20
-118.066879
10
141.036879
20
-117.927252
10
141.152944
20
-117.767501
10
141.242591
20
-117.591561
10
141.303610
20
-117.403763
10
141.334500
20
-117.208731
10
141.334500
20
-117.011269
10
141.303610
20
-116.816237
10
141.242591
20
-116.628439
10
141.212709
20
-116.569793
10
141.152946
20
-116.452502
10
141.152945
20
-116.452501
10
141.152944
20
-116.452499
10
141.036879
20
-116.292748
10
140.897252
20
-116.153121
10
140.897250
20
-116.153119
10
140.743543
20
-116.041446
10
140.677593
20
-115.970103
10
140.643966
20
-115.878954
10
140.647780
20
-115.781874
10
140.688454
20
-115.693643
10
140.743543
20
-115.638554
10
140.819026
20
-115.583713
10
140.897252
20
-115.526879
10
141.036879
20
-115.387252
10
141.152944
20
-115.227501
10
141.242591
20
-115.051561
10
141.303610
20
-114.863763
10
141.334500
20
-114.668731
10
141.334500
20
-114.471269
10
141.303610
20
-114.276237
10
141.242591
20
-114.088439
10
141.206910
20
-114.018412
10
141.152946
20
-113.912502
10
141.152945
20
-113.912501
10
141.152944
20
-113.912499
10
141.036879
20
-113.752748
10
140.897252
20
-113.613121
10
140.897250
20
-113.613119
10
140.743543
20
-113.501446
10
140.677593
20
-113.430103
10
140.643966
20
-113.338954
10
140.647780
20
-113.241874
10
140.688454
20
-113.153643
10
140.743543
20
-113.098554
10
140.897252
20
-112.986879
10
141.036879
20
-112.847252
10
141.152944
20
-112.687501
10
141.242591
20
-112.511561
10
141.303610
20
-112.323763
10
141.334500
20
-112.128731
10
141.334500
20
-111.931269
10
141.303610
20
-111.736237
10
141.242591
20
-111.548439
10
141.152944
20
-111.372499
10
141.036879
20
-111.212748
10
140.897252
20
-111.073121
10
140.897250
20
-111.073119
10
140.743543
20
-110.961446
10
140.677593
20
-110.890103
10
140.643966
20
-110.798954
10
140.647780
20
-110.701874
10
140.688454
20
-110.613643
10
140.743543
20
-110.558554
10
140.897252
20
-110.446879
10
141.036879
20
-110.307252
10
141.152944
20
-110.147501
10
141.242591
20
-109.971561
10
141.303610
20
-109.783763
10
141.334500
20
-109.588731
10
141.334500
20
-109.391273
10
141.334500
20
-109.391269
10
141.303610
20
-109.196237
10
141.242591
20
-109.008439
10
141.152944
20
-108.832499
10
141.036879
20
-108.672748
10
140.897252
20
-108.533121
10
140.737501
20
-108.417056
10
140.737498
20
-108.417054
10
140.737497
20
-108.417053
10
140.561560
20
-108.327408
10
140.561556
20
-108.327407
10
140.373760
20
-108.266389
10
140.178741
20
-108.235501
10
140.178734
20
-108.235500
10
140.178731
20
-108.235500
10
139.981269
20
-108.235500
10
139.981266
20
-108.235500
10
139.981258
20
-108.235501
10
139.786239
20
-108.266389
10
139.598443
20
-108.327407
10
139.598439
20
-108.327408
10
139.422502
20
-108.417053
10
139.422500
20
-108.417055
10
139.262746
20
-108.533122
10
139.123122
20
-108.672746
10
139.007055
20
-108.832500
10
139.007053
20
-108.832502
10
138.917408
20
-109.008439
10
138.917407
20
-109.008443
10
138.856389
20
-109.196239
10
138.825501
20
-109.391258
10
138.825500
20
-109.391273
10
138.825500
20
-109.588726
10
138.825501
20
-109.588741
10
138.856389
20
-109.783760
10
138.917407
20
-109.971556
10
138.917408
20
-109.971560
10
139.007053
20
-110.147497
10
139.007054
20
-110.147498
10
139.007056
20
-110.147501
10
139.123121
20
-110.307252
10
139.262748
20
-110.446879
10
139.416457
20
-110.558554
10
139.482406
20
-110.629897
10
139.516033
20
-110.721047
10
139.512219
20
-110.818127
10
139.471545
20
-110.906358
10
139.416457
20
-110.961446
10
139.262746
20
-111.073122
10
139.123122
20
-111.212746
10
139.007055
20
-111.372500
10
139.007053
20
-111.372502
10
138.917408
20
-111.548439
10
138.917407
20
-111.548443
10
138.856389
20
-111.736239
10
138.825501
20
-111.931258
10
138.825500
20
-111.931273
10
138.825500
20
-112.128726
10
138.825501
20
-112.128741
10
138.856389
20
-112.323760
10
138.917407
20
-112.511556
10
138.917408
20
-112.511560
10
139.007053
20
-112.687497
10
139.007054
20
-112.687498
10
139.007056
20
-112.687501
10
139.123121
20
-112.847252
10
139.262748
20
-112.986879
10
139.416457
20
-113.098554
10
139.482406
20
-113.169897
10
139.516033
20
-113.261047
10
139.512219
20
-113.358127
10
139.471545
20
-113.446358
10
139.416457
20
-113.501446
10
139.262746
20
-113.613122
10
139.123122
20
-113.752746
10
139.007055
20
-113.912500
10
139.007053
20
-113.912502
10
138.917408
20
-114.088439
10
138.917407
20
-114.088443
10
138.856389
20
-114.276239
10
138.825501
20
-114.471258
10
138.825500
20
-114.471273
10
138.825500
20
-114.668726
10
138.825501
20
-114.668741
10
138.856389
20
-114.863760
10
138.917407
20
-115.051556
10
138.917408
20
-115.051560
10
139.007053
20
-115.227497
10
139.007054
20
-115.227498
10
139.007056
20
-115.227501
10
139.123121
20
-115.387252
10
139.262748
20
-115.526879
10
139.340974
20
-115.583713
10
139.416457
20
-115.638554
10
139.482406
20
-115.709897
10
139.516033
20
-115.801047
10
139.512219
20
-115.898127
10
139.471545
20
-115.986358
10
139.416457
20
-116.041446
10
139.262746
20
-116.153122
10
139.123122
20
-116.292746
10
139.007055
20
-116.452500
10
139.007053
20
-116.452502
10
138.917408
20
-116.628439
10
138.917407
20
-116.628443
10
138.856389
20
-116.816239
10
138.825501
20
-117.011258
10
138.825500
20
-117.011273
10
138.825500
20
-117.208726
10
138.825501
20
-117.208741
10
138.856389
20
-117.403760
10
138.917407
20
-117.591556
10
138.917408
20
-117.591560
10
139.007053
20
-117.767497
10
139.007054
20
-117.767498
10
139.007056
20
-117.767501
10
139.123121
20
-117.927252
10
139.262748
20
-118.066879
10
139.340974
20
-118.123713
10
139.416457
20
-118.178554
10
139.482406
20
-118.249897
10
139.516033
20
-118.341047
10
139.512219
20
-118.438127
10
139.471545
20
-118.526358
10
139.416457
20
-118.581446
10
139.262746
20
-118.693122
10
139.123122
20
-118.832746
10
139.007055
20
-118.992500
10
139.007053
20
-118.992502
10
138.917408
20
-119.168439
10
138.917407
20
-119.168443
10
138.856389
20
-119.356239
10
138.825501
20
-119.551258
10
138.825500
20
-119.551273
10
138.825500
20
-119.748726
10
138.825501
20
-119.748741
10
138.856389
20
-119.943760
10
138.917407
20
-120.131556
10
138.917408
20
-120.131560
10
139.007053
20
-120.307497
10
139.007054
20
-120.307498
10
139.007056
20
-120.307501
10
139.123121
20
-120.467252
10
139.262748
20
-120.606879
10
139.340974
20
-120.663713
10
139.388929
20
-120.698554
10
139.454878
20
-120.769897
10
139.488505
20
-120.861047
10
139.484691
20
-120.958127
10
139.444017
20
-121.046358
10
139.388929
20
-121.101446
10
139.262746
20
-121.193122
10
139.123122
20
-121.332746
10
139.007055
20
-121.492500
10
139.007053
20
-121.492502
10
138.917408
20
-121.668439
10
138.917407
20
-121.668443
10
138.856389
20
-121.856239
10
138.825501
20
-122.051258
10
138.825500
20
-122.051273
10
138.825500
20
-122.248726
10
138.825501
20
-122.248741
10
138.856389
20
-122.443760
10
138.917407
20
-122.631556
10
138.917408
20
-122.631560
10
139.007053
20
-122.807497
10
139.007054
20
-122.807498
10
139.007056
20
-122.807501
10
139.123121
20
-122.967252
10
139.262748
20
-123.106879
10
139.368562
20
-123.183757
10
139.422503
20
-123.222947
10
139.430253
20
-123.227696
10
139.501595
20
-123.293647
10
139.542267
20
-123.381879
10
139.546078
20
-123.478959
10
139.512449
20
-123.570108
10
139.446498
20
-123.641450
10
139.430253
20
-123.652304
10
139.422503
20
-123.657052
10
139.262746
20
-123.773122
10
139.123122
20
-123.912746
10
139.007055
20
-124.072500
10
139.007053
20
-124.072502
10
138.917408
20
-124.248439
10
138.917407
20
-124.248443
10
138.856389
20
-124.436238
10
138.849765
20
-124.478062
10
138.816137
20
-124.569212
10
138.779902
20
-124.615176
10
138.618512
20
-124.776568
10
138.537731
20
-124.830545
10
138.442443
20
-124.849500
10
132.087180
20
-124.849500
10
131.991892
20
-124.830546
10
131.911110
20
-124.776570
10
131.887846
20
-124.749721
10
131.807549
20
-124.642458
10
131.807548
20
-124.642457
10
131.807546
20
-124.642454
10
131.692331
20
-124.556204
10
131.692329
20
-124.556203
10
131.678073
20
-124.545531
10
131.680426
20
-124.542387
10
131.631106
20
-124.501144
10
131.586099
20
-124.415043
10
131.577467
20
-124.318272
10
131.606526
20
-124.225564
10
131.625274
20
-124.198376
10
131.624353
20
-124.197707
10
131.630104
20
-124.189792
10
131.755051
20
-124.017816
10
131.851557
20
-123.828412
10
131.917246
20
-123.626243
10
131.941122
20
-123.475500
10
131.950499
20
-123.416296
10
131.950500
20
-123.416284
10
131.950500
20
-123.203715
10
131.950499
20
-123.203703
10
131.928941
20
-123.067601
10
131.917246
20
-122.993757
10
131.851557
20
-122.791588
10
131.755051
20
-122.602184
10
131.630104
20
-122.430208
10
131.479792
20
-122.279896
10
131.426867
20
-122.241444
10
131.360920
20
-122.170103
10
131.327293
20
-122.078953
10
131.331107
20
-121.981873
10
131.371781
20
-121.893642
10
131.426867
20
-121.838555
10
131.479792
20
-121.800104
10
131.630104
20
-121.649792
10
131.755051
20
-121.477816
10
131.851557
20
-121.288412
10
131.917246
20
-121.086243
10
131.937538
20
-120.958127
10
131.950499
20
-120.876296
10
131.950500
20
-120.876284
10
131.950500
20
-120.663715
10
131.950499
20
-120.663703
10
131.928941
20
-120.527601
10
131.917246
20
-120.453757
10
131.851557
20
-120.251588
10
131.755051
20
-120.062184
10
131.630104
20
-119.890208
10
131.479792
20
-119.739896
10
131.426867
20
-119.701444
10
131.360920
20
-119.630103
10
131.327293
20
-119.538953
10
131.331107
20
-119.441873
10
131.371781
20
-119.353642
10
131.426867
20
-119.298555
10
131.479792
20
-119.260104
10
131.630104
20
-119.109792
10
131.755051
20
-118.937816
10
131.851557
20
-118.748412
10
131.917246
20
-118.546243
10
131.941122
20
-118.395500
10
131.950499
20
-118.336296
10
131.950500
20
-118.336284
10
131.950500
20
-118.123715
10
131.950499
20
-118.123703
10
131.928161
20
-117.982673
10
131.917246
20
-117.913757
10
131.851557
20
-117.711588
10
131.755051
20
-117.522184
10
131.630104
20
-117.350208
10
131.479792
20
-117.199896
10
131.426867
20
-117.161444
10
131.360920
20
-117.090103
10
131.327293
20
-116.998953
10
131.331107
20
-116.901873
10
131.371781
20
-116.813642
10
131.426867
20
-116.758555
10
131.479792
20
-116.720104
10
131.630104
20
-116.569792
10
131.755051
20
-116.397816
10
131.851557
20
-116.208412
10
131.917246
20
-116.006243
10
131.941122
20
-115.855500
10
131.950499
20
-115.796296
10
131.950500
20
-115.796284
10
131.950500
20
-115.583715
10
131.950499
20
-115.583703
10
131.928941
20
-115.447601
10
131.917246
20
-115.373757
10
131.851557
20
-115.171588
10
131.755051
20
-114.982184
10
131.630104
20
-114.810208
10
131.479792
20
-114.659896
10
131.307816
20
-114.534949
10
131.118412
20
-114.438443
10
131.118409
20
-114.438442
10
131.118407
20
-114.438441
10
130.916246
20
-114.372755
10
130.916243
20
-114.372754
10
130.916241
20
-114.372753
10
130.916232
20
-114.372751
10
130.812993
20
-114.356400
10
130.721843
20
-114.322773
10
130.675877
20
-114.286536
10
130.600000
20
-114.210660
10
130.524122
20
-114.286537
10
130.443341
20
-114.340513
10
130.387007
20
-114.356400
10
130.283767
20
-114.372751
10
130.283753
20
-114.372755
10
130.081592
20
-114.438441
10
129.892182
20
-114.534950
10
129.720206
20
-114.659897
10
129.569897
20
-114.810206
10
129.444950
20
-114.982182
10
129.348441
20
-115.171592
10
129.282753
20
-115.373759
10
129.249500
20
-115.583703
10
129.249500
20
-115.796296
10
129.282753
20
-116.006240
10
129.282754
20
-116.006243
10
129.348443
20
-116.208412
10
129.444949
20
-116.397816
10
129.484681
20
-116.452502
10
129.569897
20
-116.569793
10
129.720207
20
-116.720103
10
129.773131
20
-116.758555
10
129.839080
20
-116.829899
10
129.872707
20
-116.921049
10
129.868892
20
-117.018129
10
129.828217
20
-117.106359
10
129.773131
20
-117.161445
10
129.720207
20
-117.199896
10
129.569897
20
-117.350206
10
129.444950
20
-117.522182
10
129.348441
20
-117.711592
10
129.282753
20
-117.913759
10
129.249500
20
-118.123703
10
129.249500
20
-118.336296
10
129.282753
20
-118.546240
10
129.316259
20
-118.649362
10
129.348443
20
-118.748412
10
129.444949
20
-118.937816
10
129.484681
20
-118.992502
10
129.569897
20
-119.109793
10
129.720207
20
-119.260103
10
129.773131
20
-119.298555
10
129.839080
20
-119.369899
10
129.872707
20
-119.461049
10
129.868892
20
-119.558129
10
129.828217
20
-119.646359
10
129.773131
20
-119.701445
10
129.720207
20
-119.739896
10
129.569897
20
-119.890206
10
129.444950
20
-120.062182
10
129.348441
20
-120.251592
10
129.282753
20
-120.453759
10
129.249500
20
-120.663703
10
129.249500
20
-120.876296
10
129.282753
20
-121.086240
10
129.282754
20
-121.086243
10
129.348443
20
-121.288412
10
129.444949
20
-121.477816
10
129.484681
20
-121.532502
10
129.569897
20
-121.649793
10
129.720207
20
-121.800103
10
129.773131
20
-121.838555
10
129.839080
20
-121.909899
10
129.872707
20
-122.001049
10
129.868892
20
-122.098129
10
129.828217
20
-122.186359
10
129.773131
20
-122.241445
10
129.720207
20
-122.279896
10
129.569897
20
-122.430206
10
129.444950
20
-122.602182
10
129.348441
20
-122.791592
10
129.282753
20
-122.993759
10
129.249500
20
-123.203703
10
129.249500
20
-123.416296
10
129.282753
20
-123.626240
10
129.282754
20
-123.626243
10
129.348443
20
-123.828412
10
129.444949
20
-124.017816
10
129.484680
20
-124.072502
10
129.575647
20
-124.197707
10
129.573346
20
-124.199378
10
129.611792
20
-124.268055
10
129.623195
20
-124.364538
10
129.596808
20
-124.458041
10
129.536647
20
-124.534329
10
129.521405
20
-124.544834
10
129.521927
20
-124.545531
10
129.507670
20
-124.556203
10
129.507669
20
-124.556204
10
129.490293
20
-124.569212
10
129.392455
20
-124.642453
10
129.392453
20
-124.642455
10
129.306204
20
-124.757669
10
129.255908
20
-124.892518
10
129.249500
20
-124.952123
10
129.249500
20
-125.876333
10
129.230546
20
-125.971621
10
129.176570
20
-126.052403
10
129.095788
20
-126.106379
10
129.000500
20
-126.125333
10
128.905212
20
-126.106379
10
128.824430
20
-126.052403
10
117.573430
20
-114.801403
10
117.519454
20
-114.720621
10
117.500500
20
-114.625333
10
117.500500
20
-113.043757
10
117.500500
20
-111.825033
10
117.500500
20
-106.724500
10
117.519454
20
-106.629212
10
117.573430
20
-106.548430
10
117.654212
20
-106.494454
10
117.749500
20
-106.475500
10
120.574999
20
-106.475500
10
120.575008
20
-106.475500
10
120.677797
20
-106.464999
10
120.844334
20
-106.409814
10
120.993655
20
-106.317711
10
121.117711
20
-106.193655
10
121.209814
20
-106.044334
10
121.264999
20
-105.877797
10
121.275500
20
-105.775008
10
121.275500
20
-105.675001
10
121.275500
20
-104.075019
10
121.275500
20
-104.074992
10
121.264999
20
-103.972203
10
121.209814
20
-103.805666
10
121.117711
20
-103.656345
10
120.993655
20
-103.532289
10
120.844334
20
-103.440186
10
120.844335
20
-103.440186
10
120.761065
20
-103.412593
10
120.677797
20
-103.385001
10
120.657239
20
-103.382900
10
120.575012
20
-103.374500
10
120.575008
20
-103.374500
10
117.749500
20
-103.374500
10
117.654212
20
-103.355546
10
117.573430
20
-103.301570
10
117.519454
20
-103.220788
10
117.500500
20
-103.125500
10
117.500500
20
-99.999499
10
117.519454
20
-99.904211
10
117.573430
20
-99.823429
10
117.654212
20
-99.769453
10
117.749500
20
-99.750499
10
119.897866
20
-99.750499
10
119.897872
20
-99.750499
10
119.957483
20
-99.744091
10
120.092331
20
-99.693796
10
120.207546
20
-99.607546
10
120.293796
20
-99.492331
10
120.344091
20
-99.357483
10
120.350500
20
-99.297873
10
120.350499
20
-97.750001
10
120.350499
20
-96.250000
10
120.350499
20
-94.702167
10
120.350499
20
-94.702134
10
120.350499
20
-94.702128
10
120.344091
20
-94.642517
10
120.293796
20
-94.507669
10
120.207546
20
-94.392454
10
120.092331
20
-94.306204
10
120.012117
20
-94.276286
10
119.957481
20
-94.255908
10
119.897873
20
-94.249500
10
114.102134
20
-94.249500
10
114.102130
20
-94.249500
10
114.102128
20
-94.249501
10
114.089314
20
-94.250878
10
114.042519
20
-94.255908
10
114.042515
20
-94.255909
10
113.907670
20
-94.306203
10
113.792455
20
-94.392453
10
113.792453
20
-94.392455
10
113.706204
20
-94.507669
10
113.655908
20
-94.642518
10
113.649500
20
-94.702123
10
113.649500
20
-99.297865
0
LWPOLYLINE
8
B.Cu
90
32
70
0
10
143.800024
20
-126.450000
10
143.697300
20
-126.460494
10
143.697297
20
-126.460495
10
143.530880
20
-126.515640
10
143.530878
20
-126.515641
10
143.381658
20
-126.607681
10
143.381654
20
-126.607684
10
143.288570
20
-126.700769
10
143.207788
20
-126.754745
10
143.112500
20
-126.773699
10
143.017212
20
-126.754745
10
142.956632
20
-126.714267
10
142.954724
20
-126.716681
10
142.943341
20
-126.707681
10
142.794121
20
-126.615641
10
142.794120
20
-126.615640
10
142.627701
20
-126.560495
10
142.627694
20
-126.560494
10
142.524981
20
-126.550000
10
142.500001
20
-126.550000
10
142.500000
20
-126.550001
10
142.500000
20
-127.049999
10
142.500001
20
-127.050000
10
142.844999
20
-127.050000
10
142.872069
20
-127.022930
10
142.952851
20
-126.968954
10
143.048139
20
-126.950000
10
143.924999
20
-126.950000
10
143.925000
20
-126.949999
10
143.925000
20
-126.450001
10
143.925000
20
-126.449999
10
143.800024
20
-126.450000
0
LWPOLYLINE
8
B.Cu
90
8
70
0
10
131.660660
20
-113.149999
10
131.924965
20
-113.414304
10
131.949999
20
-113.256254
10
131.950000
20
-113.256245
10
131.950000
20
-113.043756
10
131.949999
20
-113.043745
10
131.924964
20
-112.885693
10
131.660660
20
-113.149999
0
LWPOLYLINE
8
B.Cu
90
28
70
0
10
127.975000
20
-105.724999
10
127.955970
20
-105.820670
10
127.901776
20
-105.901776
10
127.820670
20
-105.955970
10
127.724998
20
-105.974999
10
126.475000
20
-105.974999
10
126.475000
20
-106.474999
10
126.475001
20
-106.475000
10
127.774970
20
-106.475000
10
127.774980
20
-106.474999
10
127.877693
20
-106.464505
10
127.877700
20
-106.464504
10
128.044119
20
-106.409359
10
128.044120
20
-106.409358
10
128.193340
20
-106.317318
10
128.193344
20
-106.317315
10
128.317315
20
-106.193344
10
128.317318
20
-106.193340
10
128.409358
20
-106.044120
10
128.409359
20
-106.044119
10
128.464504
20
-105.877700
10
128.464505
20
-105.877693
10
128.474999
20
-105.774980
10
128.475000
20
-105.774970
10
128.475000
20
-105.675001
10
128.474999
20
-105.675000
10
127.975000
20
-105.675000
10
127.975000
20
-105.724999
0
LWPOLYLINE
8
B.Cu
90
20
70
0
10
128.850000
20
-99.250000
10
126.750000
20
-99.250000
10
126.750000
20
-99.749999
10
126.750001
20
-99.750000
10
128.897825
20
-99.750000
10
128.897832
20
-99.749999
10
128.957371
20
-99.743598
10
128.957378
20
-99.743596
10
129.092087
20
-99.693353
10
129.207187
20
-99.607189
10
129.207189
20
-99.607187
10
129.293353
20
-99.492087
10
129.343596
20
-99.357378
10
129.343598
20
-99.357371
10
129.349999
20
-99.297832
10
129.350000
20
-99.297825
10
129.350000
20
-97.750001
10
129.349999
20
-97.750000
10
128.850000
20
-97.750000
10
128.850000
20
-99.250000
0
LWPOLYLINE
8
B.Cu
90
8
70
0
10
144.393745
20
-143.929999
10
144.393756
20
-143.930000
10
144.606245
20
-143.930000
10
144.606254
20
-143.929999
10
144.764304
20
-143.904965
10
144.499999
20
-143.640660
10
144.235693
20
-143.904964
10
144.393745
20
-143.929999
0
LWPOLYLINE
8
B.Cu
90
201
70
0
10
150.684500
20
-140.093087
10
150.684501
20
-140.093103
10
150.714111
20
-140.280051
10
150.721447
20
-140.326368
10
150.794432
20
-140.550992
10
150.822611
20
-140.606296
10
150.901659
20
-140.761437
10
151.046233
20
-140.960425
10
151.044491
20
-140.961690
10
151.084670
20
-141.033413
10
151.096101
20
-141.129894
10
151.069740
20
-141.223404
10
151.009601
20
-141.299709
10
150.997089
20
-141.309720
10
150.912813
20
-141.372809
10
150.912810
20
-141.372812
10
150.826646
20
-141.487912
10
150.776403
20
-141.622621
10
150.776401
20
-141.622628
10
150.770000
20
-141.682167
10
150.770000
20
-141.829999
10
150.770001
20
-141.830000
10
151.270000
20
-141.830000
10
151.270000
20
-141.730000
10
152.970000
20
-141.730000
10
152.970000
20
-141.830000
10
153.469999
20
-141.830000
10
153.470000
20
-141.829999
10
153.470000
20
-141.724500
10
153.488954
20
-141.629212
10
153.542930
20
-141.548430
10
153.623712
20
-141.494454
10
153.719000
20
-141.475500
10
166.587239
20
-141.475500
10
166.682527
20
-141.494454
10
166.763309
20
-141.548430
10
166.817285
20
-141.629212
10
166.836239
20
-141.724500
10
166.817285
20
-141.819788
10
166.809100
20
-141.837540
10
166.795931
20
-141.863385
10
166.748445
20
-141.956583
10
166.748441
20
-141.956592
10
166.682753
20
-142.158759
10
166.649500
20
-142.368703
10
166.649500
20
-142.581296
10
166.682753
20
-142.791240
10
166.730264
20
-142.937465
10
166.748443
20
-142.993412
10
166.844949
20
-143.182816
10
166.969896
20
-143.354792
10
167.120208
20
-143.505104
10
167.292184
20
-143.630051
10
167.481588
20
-143.726557
10
167.683757
20
-143.792246
10
167.757601
20
-143.803941
10
167.893703
20
-143.825499
10
167.893710
20
-143.825499
10
167.893713
20
-143.825500
10
167.893716
20
-143.825500
10
168.356284
20
-143.825500
10
168.356287
20
-143.825500
10
168.356290
20
-143.825499
10
168.356296
20
-143.825499
10
168.455476
20
-143.809789
10
168.566243
20
-143.792246
10
168.768412
20
-143.726557
10
168.957816
20
-143.630051
10
169.129792
20
-143.505104
10
169.280104
20
-143.354792
10
169.405051
20
-143.182816
10
169.501557
20
-142.993412
10
169.567246
20
-142.791243
10
169.590278
20
-142.645826
10
169.600499
20
-142.581296
10
169.600500
20
-142.581284
10
169.600500
20
-142.368715
10
169.600499
20
-142.368703
10
169.567246
20
-142.158759
10
169.567246
20
-142.158757
10
169.501557
20
-141.956588
10
169.405051
20
-141.767184
10
169.280104
20
-141.595208
10
169.129792
20
-141.444896
10
169.129531
20
-141.444635
10
169.075555
20
-141.363853
10
169.056601
20
-141.268565
10
169.075555
20
-141.173277
10
169.129528
20
-141.092498
10
169.269517
20
-140.952510
10
169.408343
20
-140.761433
10
169.515568
20
-140.550992
10
169.588553
20
-140.326368
10
169.625500
20
-140.093092
10
169.625500
20
-139.856908
10
169.588553
20
-139.623632
10
169.515568
20
-139.399008
10
169.408343
20
-139.188567
10
169.408341
20
-139.188564
10
169.408340
20
-139.188562
10
169.275787
20
-139.006119
10
169.235112
20
-138.917888
10
169.231298
20
-138.820808
10
169.264925
20
-138.729658
10
169.309667
20
-138.679234
10
169.308400
20
-138.677967
10
169.318653
20
-138.667713
10
169.318656
20
-138.667712
10
169.442712
20
-138.543656
10
169.534814
20
-138.394334
10
169.589999
20
-138.227797
10
169.600500
20
-138.125009
10
169.600499
20
-136.824992
10
169.589999
20
-136.722203
10
169.534814
20
-136.555666
10
169.442712
20
-136.406344
10
169.318656
20
-136.282288
10
169.169334
20
-136.190186
10
169.169332
20
-136.190185
10
169.169330
20
-136.190184
10
169.169332
20
-136.190184
10
169.002802
20
-136.135002
10
169.002798
20
-136.135001
10
169.002797
20
-136.135001
10
168.900009
20
-136.124500
10
168.900005
20
-136.124500
10
167.349993
20
-136.124500
10
167.247199
20
-136.135001
10
167.080667
20
-136.190185
10
166.931346
20
-136.282286
10
166.807286
20
-136.406346
10
166.715184
20
-136.555668
10
166.660002
20
-136.722197
10
166.660001
20
-136.722204
10
166.649500
20
-136.824988
10
166.649500
20
-138.125005
10
166.653709
20
-138.166206
10
166.657181
20
-138.200197
10
166.648010
20
-138.296916
10
166.602522
20
-138.382765
10
166.527644
20
-138.444671
10
166.434776
20
-138.473211
10
166.409471
20
-138.474500
10
153.545500
20
-138.474500
10
153.450212
20
-138.455546
10
153.369430
20
-138.401570
10
153.315454
20
-138.320788
10
153.296500
20
-138.225500
10
153.315454
20
-138.130212
10
153.323639
20
-138.112457
10
153.342372
20
-138.075691
10
153.371557
20
-138.018412
10
153.437246
20
-137.816243
10
153.470500
20
-137.606287
10
153.470500
20
-137.393713
10
153.470499
20
-137.393710
10
153.470499
20
-137.393703
10
153.437246
20
-137.183759
10
153.437246
20
-137.183757
10
153.371557
20
-136.981588
10
153.275051
20
-136.792184
10
153.150104
20
-136.620208
10
152.999792
20
-136.469896
10
152.827816
20
-136.344949
10
152.638412
20
-136.248443
10
152.638409
20
-136.248442
10
152.638407
20
-136.248441
10
152.436240
20
-136.182753
10
152.226296
20
-136.149500
10
152.226287
20
-136.149500
10
152.013713
20
-136.149500
10
152.013703
20
-136.149500
10
151.803759
20
-136.182753
10
151.601592
20
-136.248441
10
151.412182
20
-136.344950
10
151.240206
20
-136.469897
10
151.089897
20
-136.620206
10
150.964950
20
-136.792182
10
150.868441
20
-136.981592
10
150.802753
20
-137.183759
10
150.769500
20
-137.393703
10
150.769500
20
-137.606296
10
150.802753
20
-137.816240
10
150.860903
20
-137.995208
10
150.868443
20
-138.018412
10
150.964949
20
-138.207816
10
151.073041
20
-138.356592
10
151.089897
20
-138.379793
10
151.197969
20
-138.487865
10
151.251945
20
-138.568647
10
151.270899
20
-138.663935
10
151.251945
20
-138.759223
10
151.197971
20
-138.840001
10
151.066528
20
-138.971445
10
151.040478
20
-138.997495
10
150.901659
20
-139.188562
10
150.794430
20
-139.399012
10
150.721446
20
-139.623635
10
150.684501
20
-139.856896
10
150.684500
20
-139.856912
10
150.684500
20
-140.093087
0
LWPOLYLINE
8
B.Cu
90
248
70
0
10
115.149500
20
-139.231296
10
115.182753
20
-139.441240
10
115.240903
20
-139.620208
10
115.248443
20
-139.643412
10
115.344949
20
-139.832816
10
115.469896
20
-140.004792
10
115.620208
20
-140.155104
10
115.792184
20
-140.280051
10
115.981588
20
-140.376557
10
116.183757
20
-140.442246
10
116.257601
20
-140.453941
10
116.393703
20
-140.475499
10
116.393710
20
-140.475499
10
116.393713
20
-140.475500
10
116.393716
20
-140.475500
10
116.606284
20
-140.475500
10
116.606287
20
-140.475500
10
116.606290
20
-140.475499
10
116.606296
20
-140.475499
10
116.705476
20
-140.459789
10
116.816243
20
-140.442246
10
117.018412
20
-140.376557
10
117.207816
20
-140.280051
10
117.379792
20
-140.155104
10
117.530104
20
-140.004792
10
117.548554
20
-139.979396
10
117.619894
20
-139.913449
10
117.711044
20
-139.879820
10
117.808124
20
-139.883633
10
117.896355
20
-139.924306
10
117.951444
20
-139.979395
10
117.969896
20
-140.004792
10
118.120208
20
-140.155104
10
118.292184
20
-140.280051
10
118.481588
20
-140.376557
10
118.683757
20
-140.442246
10
118.757601
20
-140.453941
10
118.893703
20
-140.475499
10
118.893710
20
-140.475499
10
118.893713
20
-140.475500
10
118.893716
20
-140.475500
10
119.106284
20
-140.475500
10
119.106287
20
-140.475500
10
119.106290
20
-140.475499
10
119.106296
20
-140.475499
10
119.205476
20
-140.459789
10
119.316243
20
-140.442246
10
119.518412
20
-140.376557
10
119.707816
20
-140.280051
10
119.879792
20
-140.155104
10
120.030104
20
-140.004792
10
120.048554
20
-139.979396
10
120.119894
20
-139.913449
10
120.211044
20
-139.879820
10
120.308124
20
-139.883633
10
120.396355
20
-139.924306
10
120.451444
20
-139.979395
10
120.469896
20
-140.004792
10
120.620208
20
-140.155104
10
120.792184
20
-140.280051
10
120.981588
20
-140.376557
10
121.183757
20
-140.442246
10
121.257601
20
-140.453941
10
121.393703
20
-140.475499
10
121.393710
20
-140.475499
10
121.393713
20
-140.475500
10
121.393716
20
-140.475500
10
121.606284
20
-140.475500
10
121.606287
20
-140.475500
10
121.606290
20
-140.475499
10
121.606296
20
-140.475499
10
121.705476
20
-140.459789
10
121.816243
20
-140.442246
10
122.018412
20
-140.376557
10
122.207816
20
-140.280051
10
122.379792
20
-140.155104
10
122.530104
20
-140.004792
10
122.548554
20
-139.979396
10
122.619894
20
-139.913449
10
122.711044
20
-139.879820
10
122.808124
20
-139.883633
10
122.896355
20
-139.924306
10
122.951444
20
-139.979395
10
122.969896
20
-140.004792
10
123.120208
20
-140.155104
10
123.292184
20
-140.280051
10
123.481588
20
-140.376557
10
123.683757
20
-140.442246
10
123.757601
20
-140.453941
10
123.893703
20
-140.475499
10
123.893710
20
-140.475499
10
123.893713
20
-140.475500
10
123.893716
20
-140.475500
10
124.106284
20
-140.475500
10
124.106287
20
-140.475500
10
124.106290
20
-140.475499
10
124.106296
20
-140.475499
10
124.205476
20
-140.459789
10
124.316243
20
-140.442246
10
124.518412
20
-140.376557
10
124.707816
20
-140.280051
10
124.879792
20
-140.155104
10
124.906813
20
-140.128083
10
124.987593
20
-140.074105
10
125.082881
20
-140.055150
10
125.178170
20
-140.074103
10
125.258952
20
-140.128078
10
125.294813
20
-140.173430
10
125.307288
20
-140.193656
10
125.431344
20
-140.317712
10
125.580666
20
-140.409814
10
125.580669
20
-140.409815
10
125.580667
20
-140.409815
10
125.744310
20
-140.464040
10
125.747203
20
-140.464999
10
125.849991
20
-140.475500
10
127.150008
20
-140.475499
10
127.252797
20
-140.464999
10
127.419334
20
-140.409814
10
127.568656
20
-140.317712
10
127.692712
20
-140.193656
10
127.784814
20
-140.044334
10
127.839999
20
-139.877797
10
127.850500
20
-139.775009
10
127.850499
20
-138.224992
10
127.839999
20
-138.122203
10
127.839328
20
-138.120179
10
127.786997
20
-137.962253
10
127.786996
20
-137.962251
10
127.784815
20
-137.955668
10
127.776181
20
-137.941669
10
127.746595
20
-137.893703
10
127.692712
20
-137.806344
10
127.568656
20
-137.682288
10
127.419334
20
-137.590186
10
127.419332
20
-137.590185
10
127.419330
20
-137.590184
10
127.419332
20
-137.590184
10
127.252802
20
-137.535002
10
127.252798
20
-137.535001
10
127.252797
20
-137.535001
10
127.150009
20
-137.524500
10
127.150005
20
-137.524500
10
125.849993
20
-137.524500
10
125.747199
20
-137.535001
10
125.580667
20
-137.590185
10
125.431346
20
-137.682286
10
125.307285
20
-137.806347
10
125.294812
20
-137.826570
10
125.228655
20
-137.897720
10
125.140306
20
-137.938138
10
125.043216
20
-137.941669
10
124.952164
20
-137.907776
10
124.906815
20
-137.871919
10
124.879793
20
-137.844897
10
124.707817
20
-137.719950
10
124.707818
20
-137.719950
10
124.707816
20
-137.719949
10
124.518412
20
-137.623443
10
124.518409
20
-137.623442
10
124.518407
20
-137.623441
10
124.316240
20
-137.557753
10
124.106296
20
-137.524500
10
124.106287
20
-137.524500
10
123.893713
20
-137.524500
10
123.893703
20
-137.524500
10
123.683759
20
-137.557753
10
123.481592
20
-137.623441
10
123.292182
20
-137.719950
10
123.120206
20
-137.844897
10
122.969897
20
-137.995206
10
122.969896
20
-137.995208
10
122.953038
20
-138.018412
10
122.951446
20
-138.020603
10
122.880103
20
-138.086552
10
122.788953
20
-138.120179
10
122.691873
20
-138.116365
10
122.603642
20
-138.075691
10
122.548554
20
-138.020603
10
122.530104
20
-137.995208
10
122.379792
20
-137.844896
10
122.207816
20
-137.719949
10
122.018412
20
-137.623443
10
122.018409
20
-137.623442
10
122.018407
20
-137.623441
10
121.816240
20
-137.557753
10
121.606296
20
-137.524500
10
121.606287
20
-137.524500
10
121.393713
20
-137.524500
10
121.393703
20
-137.524500
10
121.183759
20
-137.557753
10
120.981592
20
-137.623441
10
120.792182
20
-137.719950
10
120.620206
20
-137.844897
10
120.469897
20
-137.995206
10
120.469896
20
-137.995208
10
120.453038
20
-138.018412
10
120.451446
20
-138.020603
10
120.380103
20
-138.086552
10
120.288953
20
-138.120179
10
120.191873
20
-138.116365
10
120.103642
20
-138.075691
10
120.048554
20
-138.020603
10
120.030104
20
-137.995208
10
119.879792
20
-137.844896
10
119.707816
20
-137.719949
10
119.518412
20
-137.623443
10
119.518409
20
-137.623442
10
119.518407
20
-137.623441
10
119.316240
20
-137.557753
10
119.106296
20
-137.524500
10
119.106287
20
-137.524500
10
118.893713
20
-137.524500
10
118.893703
20
-137.524500
10
118.683759
20
-137.557753
10
118.481592
20
-137.623441
10
118.292182
20
-137.719950
10
118.120206
20
-137.844897
10
117.969897
20
-137.995206
10
117.969896
20
-137.995208
10
117.953038
20
-138.018412
10
117.951446
20
-138.020603
10
117.880103
20
-138.086552
10
117.788953
20
-138.120179
10
117.691873
20
-138.116365
10
117.603642
20
-138.075691
10
117.548554
20
-138.020603
10
117.530104
20
-137.995208
10
117.379792
20
-137.844896
10
117.207816
20
-137.719949
10
117.018412
20
-137.623443
10
117.018409
20
-137.623442
10
117.018407
20
-137.623441
10
116.816240
20
-137.557753
10
116.606296
20
-137.524500
10
116.606287
20
-137.524500
10
116.393713
20
-137.524500
10
116.393703
20
-137.524500
10
116.183759
20
-137.557753
10
115.981592
20
-137.623441
10
115.792182
20
-137.719950
10
115.620206
20
-137.844897
10
115.469897
20
-137.995206
10
115.344950
20
-138.167182
10
115.248441
20
-138.356592
10
115.182753
20
-138.558759
10
115.149500
20
-138.768703
10
115.149500
20
-139.231296
0
LWPOLYLINE
8
B.Cu
90
121
70
0
10
131.524500
20
-138.106296
10
131.557753
20
-138.316240
10
131.613517
20
-138.487865
10
131.623443
20
-138.518412
10
131.719949
20
-138.707816
10
131.844896
20
-138.879792
10
131.995208
20
-139.030104
10
132.020604
20
-139.048555
10
132.086552
20
-139.119897
10
132.120179
20
-139.211047
10
132.116365
20
-139.308127
10
132.075691
20
-139.396358
10
132.020604
20
-139.451444
10
132.020600
20
-139.451448
10
131.995206
20
-139.469897
10
131.844897
20
-139.620206
10
131.732426
20
-139.775011
10
131.719949
20
-139.792184
10
131.647837
20
-139.933713
10
131.623441
20
-139.981592
10
131.557753
20
-140.183759
10
131.524500
20
-140.393703
10
131.524500
20
-140.606296
10
131.557753
20
-140.816240
10
131.591399
20
-140.919793
10
131.623443
20
-141.018412
10
131.719949
20
-141.207816
10
131.828516
20
-141.357246
10
131.844897
20
-141.379793
10
131.872282
20
-141.407178
10
131.926258
20
-141.487960
10
131.945212
20
-141.583248
10
131.926258
20
-141.678536
10
131.872282
20
-141.759318
10
131.826935
20
-141.795173
10
131.806663
20
-141.807676
10
131.806654
20
-141.807684
10
131.682684
20
-141.931654
10
131.682681
20
-141.931658
10
131.590642
20
-142.080876
10
131.535494
20
-142.247306
10
131.535219
20
-142.249999
10
131.535220
20
-142.250000
10
132.080331
20
-142.250000
10
132.098223
20
-142.223223
10
132.179329
20
-142.169030
10
132.275000
20
-142.150000
10
133.725000
20
-142.150000
10
133.820671
20
-142.169030
10
133.901777
20
-142.223223
10
133.919669
20
-142.250000
10
134.464780
20
-142.250000
10
134.464505
20
-142.247306
10
134.409357
20
-142.080876
10
134.317318
20
-141.931658
10
134.317315
20
-141.931654
10
134.193345
20
-141.807684
10
134.193341
20
-141.807681
10
134.173066
20
-141.795175
10
134.101916
20
-141.729019
10
134.061498
20
-141.640670
10
134.057967
20
-141.543579
10
134.091860
20
-141.452527
10
134.127720
20
-141.407176
10
134.155100
20
-141.379796
10
134.155104
20
-141.379792
10
134.280051
20
-141.207816
10
134.376557
20
-141.018412
10
134.442246
20
-140.816243
10
134.475500
20
-140.606287
10
134.475500
20
-140.393713
10
134.475499
20
-140.393710
10
134.475499
20
-140.393703
10
134.442246
20
-140.183759
10
134.442246
20
-140.183757
10
134.376557
20
-139.981588
10
134.280051
20
-139.792184
10
134.155104
20
-139.620208
10
134.004792
20
-139.469896
10
133.979396
20
-139.451445
10
133.913449
20
-139.380106
10
133.879820
20
-139.288956
10
133.883633
20
-139.191876
10
133.924306
20
-139.103645
10
133.979395
20
-139.048555
10
134.004792
20
-139.030104
10
134.155104
20
-138.879792
10
134.280051
20
-138.707816
10
134.376557
20
-138.518412
10
134.442246
20
-138.316243
10
134.471711
20
-138.130212
10
134.475499
20
-138.106296
10
134.475500
20
-138.106284
10
134.475500
20
-137.893715
10
134.475499
20
-137.893703
10
134.442246
20
-137.683759
10
134.442246
20
-137.683757
10
134.376557
20
-137.481588
10
134.331777
20
-137.393703
10
134.280051
20
-137.292184
10
134.155104
20
-137.120208
10
134.004792
20
-136.969896
10
133.832816
20
-136.844949
10
133.643412
20
-136.748443
10
133.643409
20
-136.748442
10
133.643407
20
-136.748441
10
133.441240
20
-136.682753
10
133.231296
20
-136.649500
10
133.231287
20
-136.649500
10
132.768713
20
-136.649500
10
132.768703
20
-136.649500
10
132.558759
20
-136.682753
10
132.356592
20
-136.748441
10
132.167182
20
-136.844950
10
131.995206
20
-136.969897
10
131.844897
20
-137.120206
10
131.719950
20
-137.292182
10
131.623441
20
-137.481592
10
131.557753
20
-137.683759
10
131.524500
20
-137.893703
10
131.524500
20
-138.106296
0
LWPOLYLINE
8
B.Cu
90
98
70
0
10
143.149500
20
-137.606296
10
143.182753
20
-137.816240
10
143.240903
20
-137.995208
10
143.248443
20
-138.018412
10
143.344949
20
-138.207816
10
143.453041
20
-138.356592
10
143.469897
20
-138.379793
10
143.620207
20
-138.530103
10
143.673131
20
-138.568555
10
143.739080
20
-138.639899
10
143.772707
20
-138.731049
10
143.768892
20
-138.828129
10
143.728217
20
-138.916359
10
143.673131
20
-138.971445
10
143.620207
20
-139.009896
10
143.469897
20
-139.160206
10
143.344950
20
-139.332182
10
143.248441
20
-139.521592
10
143.182753
20
-139.723759
10
143.149500
20
-139.933703
10
143.149500
20
-140.146296
10
143.182753
20
-140.356240
10
143.194925
20
-140.393703
10
143.248443
20
-140.558412
10
143.344949
20
-140.747816
10
143.469896
20
-140.919792
10
143.620208
20
-141.070104
10
143.792184
20
-141.195051
10
143.981588
20
-141.291557
10
144.183757
20
-141.357246
10
144.287009
20
-141.373599
10
144.378153
20
-141.407223
10
144.424123
20
-141.443462
10
144.500000
20
-141.519339
10
144.575873
20
-141.443465
10
144.656654
20
-141.389488
10
144.712984
20
-141.373600
10
144.816243
20
-141.357246
10
145.018412
20
-141.291557
10
145.207816
20
-141.195051
10
145.379792
20
-141.070104
10
145.530104
20
-140.919792
10
145.655051
20
-140.747816
10
145.751557
20
-140.558412
10
145.817246
20
-140.356243
10
145.834789
20
-140.245476
10
145.850499
20
-140.146296
10
145.850500
20
-140.146284
10
145.850500
20
-139.933715
10
145.850498
20
-139.933701
10
145.842956
20
-139.886077
10
145.838336
20
-139.856912
10
145.817246
20
-139.723759
10
145.817246
20
-139.723757
10
145.751557
20
-139.521588
10
145.655051
20
-139.332184
10
145.530104
20
-139.160208
10
145.379792
20
-139.009896
10
145.326867
20
-138.971444
10
145.260920
20
-138.900103
10
145.227293
20
-138.808953
10
145.231107
20
-138.711873
10
145.271781
20
-138.623642
10
145.326867
20
-138.568555
10
145.379792
20
-138.530104
10
145.530104
20
-138.379792
10
145.655051
20
-138.207816
10
145.751557
20
-138.018412
10
145.817246
20
-137.816243
10
145.850500
20
-137.606287
10
145.850500
20
-137.393713
10
145.850499
20
-137.393710
10
145.850499
20
-137.393703
10
145.817246
20
-137.183759
10
145.817246
20
-137.183757
10
145.751557
20
-136.981588
10
145.655051
20
-136.792184
10
145.530104
20
-136.620208
10
145.379792
20
-136.469896
10
145.207816
20
-136.344949
10
145.018412
20
-136.248443
10
145.018409
20
-136.248442
10
145.018407
20
-136.248441
10
144.816240
20
-136.182753
10
144.606296
20
-136.149500
10
144.606287
20
-136.149500
10
144.393713
20
-136.149500
10
144.393703
20
-136.149500
10
144.183759
20
-136.182753
10
143.981592
20
-136.248441
10
143.792182
20
-136.344950
10
143.620206
20
-136.469897
10
143.469897
20
-136.620206
10
143.344950
20
-136.792182
10
143.248441
20
-136.981592
10
143.182753
20
-137.183759
10
143.149500
20
-137.393703
10
143.149500
20
-137.606296
0
LWPOLYLINE
8
B.Cu
90
10
70
0
10
161.150000
20
-128.686242
10
161.150001
20
-128.686255
10
161.175033
20
-128.844304
10
161.175034
20
-128.844305
10
161.439339
20
-128.580000
10
161.373513
20
-128.514174
10
161.175033
20
-128.315694
10
161.150001
20
-128.473741
10
161.150000
20
-128.473757
10
161.150000
20
-128.686242
0
LWPOLYLINE
8
B.Cu
90
15
70
0
10
145.075000
20
-126.949999
10
145.075001
20
-126.950000
10
145.857262
20
-126.950000
10
145.834356
20
-126.880874
10
145.742319
20
-126.731658
10
145.618345
20
-126.607684
10
145.618341
20
-126.607681
10
145.469121
20
-126.515641
10
145.469120
20
-126.515640
10
145.302701
20
-126.460495
10
145.302694
20
-126.460494
10
145.199981
20
-126.450000
10
145.075001
20
-126.450000
10
145.075000
20
-126.450001
10
145.075000
20
-126.949999
0
LWPOLYLINE
8
B.Cu
90
177
70
0
10
161.149500
20
-119.317865
10
161.149500
20
-119.317868
10
161.149501
20
-119.317872
10
161.151567
20
-119.337093
10
161.155908
20
-119.377480
10
161.155909
20
-119.377484
10
161.206203
20
-119.512329
10
161.206204
20
-119.512331
10
161.292454
20
-119.627546
10
161.407669
20
-119.713796
10
161.407670
20
-119.713796
10
161.421927
20
-119.724469
10
161.419572
20
-119.727614
10
161.468869
20
-119.768825
10
161.513889
20
-119.854919
10
161.522536
20
-119.951689
10
161.493492
20
-120.044401
10
161.474739
20
-120.071633
10
161.475647
20
-120.072293
10
161.344950
20
-120.252182
10
161.248441
20
-120.441592
10
161.182753
20
-120.643759
10
161.149500
20
-120.853703
10
161.149500
20
-121.066296
10
161.182753
20
-121.276240
10
161.248249
20
-121.477817
10
161.248443
20
-121.478412
10
161.344949
20
-121.667816
10
161.468998
20
-121.838555
10
161.469897
20
-121.839793
10
161.620207
20
-121.990103
10
161.673131
20
-122.028555
10
161.739080
20
-122.099899
10
161.772707
20
-122.191049
10
161.768892
20
-122.288129
10
161.728217
20
-122.376359
10
161.673131
20
-122.431445
10
161.620207
20
-122.469896
10
161.469897
20
-122.620206
10
161.344950
20
-122.792182
10
161.248441
20
-122.981592
10
161.182753
20
-123.183759
10
161.149500
20
-123.393703
10
161.149500
20
-123.606296
10
161.182753
20
-123.816240
10
161.248249
20
-124.017817
10
161.248443
20
-124.018412
10
161.344949
20
-124.207816
10
161.469896
20
-124.379792
10
161.620208
20
-124.530104
10
161.637114
20
-124.542387
10
161.673131
20
-124.568555
10
161.739080
20
-124.639899
10
161.772707
20
-124.731049
10
161.768892
20
-124.828129
10
161.728217
20
-124.916359
10
161.673131
20
-124.971445
10
161.620207
20
-125.009896
10
161.469897
20
-125.160206
10
161.344950
20
-125.332182
10
161.248441
20
-125.521592
10
161.182753
20
-125.723759
10
161.149500
20
-125.933703
10
161.149500
20
-126.146296
10
161.182753
20
-126.356240
10
161.245709
20
-126.550000
10
161.248443
20
-126.558412
10
161.344949
20
-126.747816
10
161.469896
20
-126.919792
10
161.620208
20
-127.070104
10
161.792184
20
-127.195051
10
161.981588
20
-127.291557
10
162.183757
20
-127.357246
10
162.287009
20
-127.373599
10
162.378153
20
-127.407223
10
162.424123
20
-127.443462
10
162.500000
20
-127.519339
10
162.575873
20
-127.443465
10
162.656654
20
-127.389488
10
162.712984
20
-127.373600
10
162.816243
20
-127.357246
10
163.018412
20
-127.291557
10
163.207816
20
-127.195051
10
163.379792
20
-127.070104
10
163.530104
20
-126.919792
10
163.655051
20
-126.747816
10
163.751557
20
-126.558412
10
163.817246
20
-126.356243
10
163.850500
20
-126.146287
10
163.850500
20
-125.933713
10
163.850499
20
-125.933710
10
163.850499
20
-125.933703
10
163.817246
20
-125.723759
10
163.817246
20
-125.723757
10
163.751557
20
-125.521588
10
163.655051
20
-125.332184
10
163.530104
20
-125.160208
10
163.379792
20
-125.009896
10
163.326867
20
-124.971444
10
163.260920
20
-124.900103
10
163.227293
20
-124.808953
10
163.231107
20
-124.711873
10
163.271781
20
-124.623642
10
163.326867
20
-124.568555
10
163.379792
20
-124.530104
10
163.530104
20
-124.379792
10
163.655051
20
-124.207816
10
163.751557
20
-124.018412
10
163.817246
20
-123.816243
10
163.844931
20
-123.641450
10
163.850499
20
-123.606296
10
163.850500
20
-123.606284
10
163.850500
20
-123.393715
10
163.850499
20
-123.393703
10
163.817246
20
-123.183759
10
163.817246
20
-123.183757
10
163.751557
20
-122.981588
10
163.655051
20
-122.792184
10
163.530104
20
-122.620208
10
163.379792
20
-122.469896
10
163.326867
20
-122.431444
10
163.260920
20
-122.360103
10
163.227293
20
-122.268953
10
163.231107
20
-122.171873
10
163.271781
20
-122.083642
10
163.326867
20
-122.028555
10
163.379792
20
-121.990104
10
163.530104
20
-121.839792
10
163.655051
20
-121.667816
10
163.751557
20
-121.478412
10
163.817246
20
-121.276243
10
163.842459
20
-121.117056
10
163.850499
20
-121.066296
10
163.850500
20
-121.066284
10
163.850500
20
-120.853715
10
163.850499
20
-120.853703
10
163.817246
20
-120.643759
10
163.817246
20
-120.643757
10
163.751557
20
-120.441588
10
163.655051
20
-120.252184
10
163.530104
20
-120.080208
10
163.530102
20
-120.080206
10
163.524353
20
-120.072293
10
163.526655
20
-120.070620
10
163.488214
20
-120.001966
10
163.476802
20
-119.905484
10
163.503180
20
-119.811979
10
163.563334
20
-119.735685
10
163.578597
20
-119.725169
10
163.578073
20
-119.724469
10
163.592329
20
-119.713796
10
163.592331
20
-119.713796
10
163.707546
20
-119.627546
10
163.793796
20
-119.512331
10
163.844091
20
-119.377483
10
163.850500
20
-119.317873
10
163.850499
20
-117.522128
10
163.844091
20
-117.462517
10
163.793796
20
-117.327669
10
163.707546
20
-117.212454
10
163.592331
20
-117.126204
10
163.495539
20
-117.090103
10
163.457481
20
-117.075908
10
163.397873
20
-117.069500
10
161.602134
20
-117.069500
10
161.602130
20
-117.069500
10
161.602128
20
-117.069501
10
161.589314
20
-117.070878
10
161.542519
20
-117.075908
10
161.542515
20
-117.075909
10
161.407670
20
-117.126203
10
161.292455
20
-117.212453
10
161.292453
20
-117.212455
10
161.206204
20
-117.327669
10
161.155908
20
-117.462518
10
161.149500
20
-117.522123
10
161.149500
20
-119.317865
0
LWPOLYLINE
8
B.Cu
90
10
70
0
10
129.250000
20
-113.256242
10
129.250001
20
-113.256255
10
129.275033
20
-113.414304
10
129.275034
20
-113.414305
10
129.539339
20
-113.150000
10
129.473513
20
-113.084174
10
129.275033
20
-112.885694
10
129.250001
20
-113.043741
10
129.250000
20
-113.043757
10
129.250000
20
-113.256242
0
LWPOLYLINE
8
B.Cu
90
251
70
0
10
159.489500
20
-114.397865
10
159.489501
20
-114.397869
10
159.495908
20
-114.457480
10
159.495909
20
-114.457484
10
159.520850
20
-114.524353
10
159.546204
20
-114.592331
10
159.632454
20
-114.707546
10
159.747669
20
-114.793796
10
159.882517
20
-114.844091
10
159.942127
20
-114.850500
10
161.737872
20
-114.850499
10
161.797483
20
-114.844091
10
161.932331
20
-114.793796
10
162.047546
20
-114.707546
10
162.133796
20
-114.592331
10
162.133796
20
-114.592329
10
162.144469
20
-114.578073
10
162.147616
20
-114.580429
10
162.188789
20
-114.531159
10
162.274875
20
-114.486123
10
162.371643
20
-114.477458
10
162.464360
20
-114.506485
10
162.491626
20
-114.525270
10
162.492293
20
-114.524353
10
162.500206
20
-114.530102
10
162.500208
20
-114.530104
10
162.672184
20
-114.655051
10
162.861588
20
-114.751557
10
163.063757
20
-114.817246
10
163.112493
20
-114.824965
10
163.273703
20
-114.850499
10
163.273710
20
-114.850499
10
163.273713
20
-114.850500
10
163.273716
20
-114.850500
10
163.486284
20
-114.850500
10
163.486287
20
-114.850500
10
163.486290
20
-114.850499
10
163.486296
20
-114.850499
10
163.585476
20
-114.834789
10
163.696243
20
-114.817246
10
163.898412
20
-114.751557
10
164.087816
20
-114.655051
10
164.259792
20
-114.530104
10
164.410104
20
-114.379792
10
164.448555
20
-114.326867
10
164.519897
20
-114.260920
10
164.611047
20
-114.227293
10
164.708127
20
-114.231107
10
164.796358
20
-114.271781
10
164.851444
20
-114.326867
10
164.889896
20
-114.379792
10
165.040208
20
-114.530104
10
165.212184
20
-114.655051
10
165.401588
20
-114.751557
10
165.603757
20
-114.817246
10
165.652493
20
-114.824965
10
165.813703
20
-114.850499
10
165.813710
20
-114.850499
10
165.813713
20
-114.850500
10
165.813716
20
-114.850500
10
166.026284
20
-114.850500
10
166.026287
20
-114.850500
10
166.026290
20
-114.850499
10
166.026296
20
-114.850499
10
166.125476
20
-114.834789
10
166.236243
20
-114.817246
10
166.438412
20
-114.751557
10
166.627816
20
-114.655051
10
166.799792
20
-114.530104
10
166.950104
20
-114.379792
10
166.988555
20
-114.326867
10
167.059897
20
-114.260920
10
167.151047
20
-114.227293
10
167.248127
20
-114.231107
10
167.336358
20
-114.271781
10
167.391444
20
-114.326867
10
167.429896
20
-114.379792
10
167.580208
20
-114.530104
10
167.752184
20
-114.655051
10
167.941588
20
-114.751557
10
168.143757
20
-114.817246
10
168.192493
20
-114.824965
10
168.353703
20
-114.850499
10
168.353710
20
-114.850499
10
168.353713
20
-114.850500
10
168.353716
20
-114.850500
10
168.566284
20
-114.850500
10
168.566287
20
-114.850500
10
168.566290
20
-114.850499
10
168.566296
20
-114.850499
10
168.665476
20
-114.834789
10
168.776243
20
-114.817246
10
168.978412
20
-114.751557
10
169.167816
20
-114.655051
10
169.339792
20
-114.530104
10
169.490104
20
-114.379792
10
169.528555
20
-114.326867
10
169.599897
20
-114.260920
10
169.691047
20
-114.227293
10
169.788127
20
-114.231107
10
169.876358
20
-114.271781
10
169.931444
20
-114.326867
10
169.969896
20
-114.379792
10
170.120208
20
-114.530104
10
170.292184
20
-114.655051
10
170.481588
20
-114.751557
10
170.683757
20
-114.817246
10
170.732493
20
-114.824965
10
170.893703
20
-114.850499
10
170.893710
20
-114.850499
10
170.893713
20
-114.850500
10
170.893716
20
-114.850500
10
171.106284
20
-114.850500
10
171.106287
20
-114.850500
10
171.106290
20
-114.850499
10
171.106296
20
-114.850499
10
171.205476
20
-114.834789
10
171.316243
20
-114.817246
10
171.518412
20
-114.751557
10
171.707816
20
-114.655051
10
171.879792
20
-114.530104
10
172.030104
20
-114.379792
10
172.155051
20
-114.207816
10
172.251557
20
-114.018412
10
172.317246
20
-113.816243
10
172.333600
20
-113.712988
10
172.367225
20
-113.621843
10
172.403465
20
-113.575873
10
172.479339
20
-113.500000
10
172.413513
20
-113.434174
10
172.403462
20
-113.424123
10
172.349486
20
-113.343341
10
172.333600
20
-113.287014
10
172.317246
20
-113.183757
10
172.251557
20
-112.981588
10
172.155051
20
-112.792184
10
172.030104
20
-112.620208
10
171.879792
20
-112.469896
10
171.707816
20
-112.344949
10
171.518412
20
-112.248443
10
171.518409
20
-112.248442
10
171.518407
20
-112.248441
10
171.316240
20
-112.182753
10
171.267500
20
-112.175033
10
171.106296
20
-112.149500
10
171.106287
20
-112.149500
10
170.893713
20
-112.149500
10
170.893703
20
-112.149500
10
170.683759
20
-112.182753
10
170.481592
20
-112.248441
10
170.292182
20
-112.344950
10
170.120206
20
-112.469897
10
169.969896
20
-112.620207
10
169.931445
20
-112.673131
10
169.860101
20
-112.739080
10
169.768951
20
-112.772707
10
169.671871
20
-112.768892
10
169.583641
20
-112.728217
10
169.528555
20
-112.673131
10
169.490103
20
-112.620207
10
169.339793
20
-112.469897
10
169.297734
20
-112.439339
10
169.167816
20
-112.344949
10
168.978412
20
-112.248443
10
168.978409
20
-112.248442
10
168.978407
20
-112.248441
10
168.776240
20
-112.182753
10
168.566296
20
-112.149500
10
168.566287
20
-112.149500
10
168.353713
20
-112.149500
10
168.353703
20
-112.149500
10
168.143759
20
-112.182753
10
167.941592
20
-112.248441
10
167.752182
20
-112.344950
10
167.580206
20
-112.469897
10
167.429896
20
-112.620207
10
167.391445
20
-112.673131
10
167.320101
20
-112.739080
10
167.228951
20
-112.772707
10
167.131871
20
-112.768892
10
167.043641
20
-112.728217
10
166.988555
20
-112.673131
10
166.950103
20
-112.620207
10
166.799793
20
-112.469897
10
166.757734
20
-112.439339
10
166.627816
20
-112.344949
10
166.438412
20
-112.248443
10
166.438409
20
-112.248442
10
166.438407
20
-112.248441
10
166.236240
20
-112.182753
10
166.026296
20
-112.149500
10
166.026287
20
-112.149500
10
165.813713
20
-112.149500
10
165.813703
20
-112.149500
10
165.603759
20
-112.182753
10
165.401592
20
-112.248441
10
165.212182
20
-112.344950
10
165.040206
20
-112.469897
10
164.889896
20
-112.620207
10
164.851445
20
-112.673131
10
164.780101
20
-112.739080
10
164.688951
20
-112.772707
10
164.591871
20
-112.768892
10
164.503641
20
-112.728217
10
164.448555
20
-112.673131
10
164.410103
20
-112.620207
10
164.259793
20
-112.469897
10
164.217734
20
-112.439339
10
164.087816
20
-112.344949
10
163.898412
20
-112.248443
10
163.898409
20
-112.248442
10
163.898407
20
-112.248441
10
163.696240
20
-112.182753
10
163.486296
20
-112.149500
10
163.486287
20
-112.149500
10
163.273713
20
-112.149500
10
163.273703
20
-112.149500
10
163.063759
20
-112.182753
10
162.861592
20
-112.248441
10
162.672182
20
-112.344950
10
162.657685
20
-112.355483
10
162.500208
20
-112.469896
10
162.500206
20
-112.469897
10
162.492293
20
-112.475647
10
162.490630
20
-112.473359
10
162.421814
20
-112.511834
10
162.325324
20
-112.523184
10
162.231835
20
-112.496746
10
162.155581
20
-112.436543
10
162.145160
20
-112.421409
10
162.144469
20
-112.421927
10
162.133796
20
-112.407670
10
162.133796
20
-112.407669
10
162.047546
20
-112.292454
10
161.932331
20
-112.206204
10
161.848757
20
-112.175033
10
161.797481
20
-112.155908
10
161.737873
20
-112.149500
10
159.942134
20
-112.149500
10
159.942130
20
-112.149500
10
159.942128
20
-112.149501
10
159.929314
20
-112.150878
10
159.882519
20
-112.155908
10
159.882515
20
-112.155909
10
159.747670
20
-112.206203
10
159.632455
20
-112.292453
10
159.632453
20
-112.292455
10
159.546204
20
-112.407669
10
159.495908
20
-112.542518
10
159.489500
20
-112.602123
10
159.489500
20
-114.397865
0
LWPOLYLINE
8
B.Cu
90
9
70
0
10
173.540000
20
-112.439339
10
173.804305
20
-112.175034
10
173.804304
20
-112.175033
10
173.646255
20
-112.150001
10
173.646243
20
-112.150000
10
173.433757
20
-112.150000
10
173.433741
20
-112.150001
10
173.275694
20
-112.175033
10
173.540000
20
-112.439339
0
LWPOLYLINE
8
B.Cu
90
9
70
0
10
130.600000
20
-112.089339
10
130.864305
20
-111.825034
10
130.864304
20
-111.825033
10
130.706255
20
-111.800001
10
130.706243
20
-111.800000
10
130.493757
20
-111.800000
10
130.493741
20
-111.800001
10
130.335694
20
-111.825033
10
130.600000
20
-112.089339
0
LWPOLYLINE
8
B.Cu
90
462
70
0
10
154.065500
20
-109.588726
10
154.065501
20
-109.588741
10
154.096389
20
-109.783760
10
154.157407
20
-109.971556
10
154.157408
20
-109.971560
10
154.247053
20
-110.147497
10
154.247054
20
-110.147498
10
154.247056
20
-110.147501
10
154.363121
20
-110.307252
10
154.502748
20
-110.446879
10
154.656457
20
-110.558554
10
154.722406
20
-110.629897
10
154.756033
20
-110.721047
10
154.752219
20
-110.818127
10
154.711545
20
-110.906358
10
154.656457
20
-110.961446
10
154.502746
20
-111.073122
10
154.363122
20
-111.212746
10
154.247055
20
-111.372500
10
154.247053
20
-111.372502
10
154.157408
20
-111.548439
10
154.157407
20
-111.548443
10
154.096389
20
-111.736239
10
154.065501
20
-111.931258
10
154.065500
20
-111.931273
10
154.065500
20
-112.128726
10
154.065501
20
-112.128741
10
154.096389
20
-112.323760
10
154.157407
20
-112.511556
10
154.157408
20
-112.511560
10
154.247053
20
-112.687497
10
154.247054
20
-112.687498
10
154.247056
20
-112.687501
10
154.363121
20
-112.847252
10
154.502748
20
-112.986879
10
154.656457
20
-113.098554
10
154.722406
20
-113.169897
10
154.756033
20
-113.261047
10
154.752219
20
-113.358127
10
154.711545
20
-113.446358
10
154.656457
20
-113.501446
10
154.502746
20
-113.613122
10
154.363122
20
-113.752746
10
154.247055
20
-113.912500
10
154.247053
20
-113.912502
10
154.157408
20
-114.088439
10
154.157407
20
-114.088443
10
154.096389
20
-114.276239
10
154.065501
20
-114.471258
10
154.065500
20
-114.471273
10
154.065500
20
-114.668726
10
154.065501
20
-114.668741
10
154.096389
20
-114.863760
10
154.157407
20
-115.051556
10
154.157408
20
-115.051560
10
154.247053
20
-115.227497
10
154.247054
20
-115.227498
10
154.247056
20
-115.227501
10
154.363121
20
-115.387252
10
154.502748
20
-115.526879
10
154.580974
20
-115.583713
10
154.656457
20
-115.638554
10
154.722406
20
-115.709897
10
154.756033
20
-115.801047
10
154.752219
20
-115.898127
10
154.711545
20
-115.986358
10
154.656457
20
-116.041446
10
154.502746
20
-116.153122
10
154.363122
20
-116.292746
10
154.247055
20
-116.452500
10
154.247053
20
-116.452502
10
154.157408
20
-116.628439
10
154.157407
20
-116.628443
10
154.096389
20
-116.816239
10
154.065501
20
-117.011258
10
154.065500
20
-117.011273
10
154.065500
20
-117.208726
10
154.065501
20
-117.208741
10
154.096389
20
-117.403760
10
154.157407
20
-117.591556
10
154.157408
20
-117.591560
10
154.247053
20
-117.767497
10
154.247054
20
-117.767498
10
154.247056
20
-117.767501
10
154.363121
20
-117.927252
10
154.502748
20
-118.066879
10
154.580974
20
-118.123713
10
154.656457
20
-118.178554
10
154.722406
20
-118.249897
10
154.756033
20
-118.341047
10
154.752219
20
-118.438127
10
154.711545
20
-118.526358
10
154.656457
20
-118.581446
10
154.502746
20
-118.693122
10
154.363122
20
-118.832746
10
154.247055
20
-118.992500
10
154.247053
20
-118.992502
10
154.157408
20
-119.168439
10
154.157407
20
-119.168443
10
154.096389
20
-119.356239
10
154.065501
20
-119.551258
10
154.065500
20
-119.551273
10
154.065500
20
-119.748726
10
154.065501
20
-119.748741
10
154.096389
20
-119.943760
10
154.157407
20
-120.131556
10
154.157408
20
-120.131560
10
154.247053
20
-120.307497
10
154.247054
20
-120.307498
10
154.247056
20
-120.307501
10
154.363121
20
-120.467252
10
154.502748
20
-120.606879
10
154.580974
20
-120.663713
10
154.656457
20
-120.718554
10
154.722406
20
-120.789897
10
154.756033
20
-120.881047
10
154.752219
20
-120.978127
10
154.711545
20
-121.066358
10
154.656457
20
-121.121446
10
154.502746
20
-121.233122
10
154.363122
20
-121.372746
10
154.247055
20
-121.532500
10
154.247053
20
-121.532502
10
154.157408
20
-121.708439
10
154.157407
20
-121.708443
10
154.096389
20
-121.896239
10
154.065501
20
-122.091258
10
154.065500
20
-122.091273
10
154.065500
20
-122.288726
10
154.065501
20
-122.288741
10
154.096389
20
-122.483760
10
154.157407
20
-122.671556
10
154.157408
20
-122.671560
10
154.247053
20
-122.847497
10
154.247054
20
-122.847498
10
154.247056
20
-122.847501
10
154.363121
20
-123.007252
10
154.502748
20
-123.146879
10
154.656457
20
-123.258554
10
154.722406
20
-123.329897
10
154.756033
20
-123.421047
10
154.752219
20
-123.518127
10
154.711545
20
-123.606358
10
154.656457
20
-123.661446
10
154.502746
20
-123.773122
10
154.363122
20
-123.912746
10
154.247055
20
-124.072500
10
154.247053
20
-124.072502
10
154.157408
20
-124.248439
10
154.157407
20
-124.248443
10
154.096389
20
-124.436239
10
154.065501
20
-124.631258
10
154.065500
20
-124.631273
10
154.065500
20
-124.828726
10
154.065501
20
-124.828741
10
154.096389
20
-125.023760
10
154.157407
20
-125.211556
10
154.157408
20
-125.211560
10
154.247053
20
-125.387497
10
154.247054
20
-125.387498
10
154.247056
20
-125.387501
10
154.363121
20
-125.547252
10
154.502748
20
-125.686879
10
154.656457
20
-125.798554
10
154.722406
20
-125.869897
10
154.756033
20
-125.961047
10
154.752219
20
-126.058127
10
154.711545
20
-126.146358
10
154.656457
20
-126.201446
10
154.502746
20
-126.313122
10
154.363122
20
-126.452746
10
154.247055
20
-126.612500
10
154.247053
20
-126.612502
10
154.157408
20
-126.788439
10
154.157407
20
-126.788443
10
154.096389
20
-126.976239
10
154.065501
20
-127.171258
10
154.065500
20
-127.171273
10
154.065500
20
-127.368726
10
154.065501
20
-127.368741
10
154.096389
20
-127.563760
10
154.157407
20
-127.751556
10
154.157408
20
-127.751560
10
154.247053
20
-127.927497
10
154.247054
20
-127.927498
10
154.247056
20
-127.927501
10
154.363121
20
-128.087252
10
154.502748
20
-128.226879
10
154.628636
20
-128.318341
10
154.656457
20
-128.338554
10
154.722406
20
-128.409897
10
154.756033
20
-128.501047
10
154.752219
20
-128.598127
10
154.711545
20
-128.686358
10
154.656457
20
-128.741446
10
154.502746
20
-128.853122
10
154.363122
20
-128.992746
10
154.247055
20
-129.152500
10
154.247053
20
-129.152502
10
154.157408
20
-129.328439
10
154.157407
20
-129.328443
10
154.096389
20
-129.516239
10
154.065501
20
-129.711258
10
154.065500
20
-129.711273
10
154.065500
20
-129.908726
10
154.065501
20
-129.908741
10
154.096389
20
-130.103760
10
154.157407
20
-130.291556
10
154.157408
20
-130.291560
10
154.247053
20
-130.467497
10
154.247054
20
-130.467498
10
154.247056
20
-130.467501
10
154.363121
20
-130.627252
10
154.502748
20
-130.766879
10
154.662499
20
-130.882944
10
154.662501
20
-130.882945
10
154.662502
20
-130.882946
10
154.802967
20
-130.954517
10
154.838439
20
-130.972591
10
155.026237
20
-131.033610
10
155.221269
20
-131.064500
10
155.221273
20
-131.064500
10
155.418727
20
-131.064500
10
155.418731
20
-131.064500
10
155.613763
20
-131.033610
10
155.801561
20
-130.972591
10
155.977501
20
-130.882944
10
156.137252
20
-130.766879
10
156.276879
20
-130.627252
10
156.392944
20
-130.467501
10
156.482591
20
-130.291561
10
156.543610
20
-130.103763
10
156.574500
20
-129.908731
10
156.574500
20
-129.711269
10
156.543610
20
-129.516237
10
156.482591
20
-129.328439
10
156.392946
20
-129.152502
10
156.392945
20
-129.152501
10
156.392944
20
-129.152499
10
156.276879
20
-128.992748
10
156.137252
20
-128.853121
10
156.137250
20
-128.853119
10
155.983543
20
-128.741446
10
155.957080
20
-128.712819
10
155.928454
20
-128.686357
10
155.924311
20
-128.677370
10
155.917593
20
-128.670103
10
155.904100
20
-128.633529
10
155.887779
20
-128.598126
10
155.887390
20
-128.588236
10
155.883966
20
-128.578954
10
155.885496
20
-128.540005
10
155.883966
20
-128.501046
10
155.887391
20
-128.491760
10
155.887780
20
-128.481874
10
155.891522
20
-128.473757
10
155.904099
20
-128.446473
10
155.917594
20
-128.409896
10
155.924311
20
-128.402629
10
155.928454
20
-128.393643
10
155.983543
20
-128.338554
10
156.011364
20
-128.318341
10
156.137252
20
-128.226879
10
156.276879
20
-128.087252
10
156.392944
20
-127.927501
10
156.482591
20
-127.751561
10
156.543610
20
-127.563763
10
156.574500
20
-127.368731
10
156.574500
20
-127.171269
10
156.543610
20
-126.976237
10
156.482591
20
-126.788439
10
156.441442
20
-126.707681
10
156.392946
20
-126.612502
10
156.392945
20
-126.612501
10
156.392944
20
-126.612499
10
156.276879
20
-126.452748
10
156.137252
20
-126.313121
10
156.137250
20
-126.313119
10
155.983543
20
-126.201446
10
155.917593
20
-126.130103
10
155.883966
20
-126.038954
10
155.887780
20
-125.941874
10
155.928454
20
-125.853643
10
155.983543
20
-125.798554
10
156.137252
20
-125.686879
10
156.276879
20
-125.547252
10
156.392944
20
-125.387501
10
156.482591
20
-125.211561
10
156.543610
20
-125.023763
10
156.574500
20
-124.828731
10
156.574500
20
-124.631269
10
156.543610
20
-124.436237
10
156.482591
20
-124.248439
10
156.392946
20
-124.072502
10
156.392945
20
-124.072501
10
156.392944
20
-124.072499
10
156.276879
20
-123.912748
10
156.137252
20
-123.773121
10
156.137250
20
-123.773119
10
155.983543
20
-123.661446
10
155.917593
20
-123.590103
10
155.883966
20
-123.498954
10
155.887780
20
-123.401874
10
155.928454
20
-123.313643
10
155.983543
20
-123.258554
10
156.137252
20
-123.146879
10
156.276879
20
-123.007252
10
156.392944
20
-122.847501
10
156.482591
20
-122.671561
10
156.543610
20
-122.483763
10
156.574500
20
-122.288731
10
156.574500
20
-122.091269
10
156.543610
20
-121.896237
10
156.482591
20
-121.708439
10
156.452709
20
-121.649793
10
156.392946
20
-121.532502
10
156.392945
20
-121.532501
10
156.392944
20
-121.532499
10
156.276879
20
-121.372748
10
156.137252
20
-121.233121
10
156.137250
20
-121.233119
10
155.983543
20
-121.121446
10
155.917593
20
-121.050103
10
155.883966
20
-120.958954
10
155.887780
20
-120.861874
10
155.928454
20
-120.773643
10
155.983543
20
-120.718554
10
156.059026
20
-120.663713
10
156.137252
20
-120.606879
10
156.276879
20
-120.467252
10
156.392944
20
-120.307501
10
156.482591
20
-120.131561
10
156.543610
20
-119.943763
10
156.574500
20
-119.748731
10
156.574500
20
-119.551269
10
156.543610
20
-119.356237
10
156.482591
20
-119.168439
10
156.452709
20
-119.109793
10
156.392946
20
-118.992502
10
156.392945
20
-118.992501
10
156.392944
20
-118.992499
10
156.276879
20
-118.832748
10
156.137252
20
-118.693121
10
156.137250
20
-118.693119
10
155.983543
20
-118.581446
10
155.917593
20
-118.510103
10
155.883966
20
-118.418954
10
155.887780
20
-118.321874
10
155.928454
20
-118.233643
10
155.983543
20
-118.178554
10
156.059026
20
-118.123713
10
156.137252
20
-118.066879
10
156.276879
20
-117.927252
10
156.392944
20
-117.767501
10
156.482591
20
-117.591561
10
156.505151
20
-117.522130
10
156.505153
20
-117.522123
10
156.532319
20
-117.438514
10
156.532319
20
-117.438513
10
156.543610
20
-117.403763
10
156.574500
20
-117.208731
10
156.574500
20
-117.011269
10
156.543610
20
-116.816237
10
156.482591
20
-116.628439
10
156.452709
20
-116.569793
10
156.392946
20
-116.452502
10
156.392945
20
-116.452501
10
156.392944
20
-116.452499
10
156.276879
20
-116.292748
10
156.137252
20
-116.153121
10
156.137250
20
-116.153119
10
155.983543
20
-116.041446
10
155.917593
20
-115.970103
10
155.883966
20
-115.878954
10
155.887780
20
-115.781874
10
155.928454
20
-115.693643
10
155.983543
20
-115.638554
10
156.059026
20
-115.583713
10
156.137252
20
-115.526879
10
156.276879
20
-115.387252
10
156.392944
20
-115.227501
10
156.482591
20
-115.051561
10
156.543610
20
-114.863763
10
156.574500
20
-114.668731
10
156.574500
20
-114.471269
10
156.543610
20
-114.276237
10
156.482591
20
-114.088439
10
156.446910
20
-114.018412
10
156.392946
20
-113.912502
10
156.392945
20
-113.912501
10
156.392944
20
-113.912499
10
156.276879
20
-113.752748
10
156.137252
20
-113.613121
10
156.137250
20
-113.613119
10
155.983543
20
-113.501446
10
155.917593
20
-113.430103
10
155.883966
20
-113.338954
10
155.887780
20
-113.241874
10
155.928454
20
-113.153643
10
155.983543
20
-113.098554
10
156.137252
20
-112.986879
10
156.276879
20
-112.847252
10
156.392944
20
-112.687501
10
156.436447
20
-112.602123
10
156.482591
20
-112.511561
10
156.496129
20
-112.469897
10
156.543610
20
-112.323763
10
156.543610
20
-112.323760
10
156.548569
20
-112.292455
10
156.574500
20
-112.128731
10
156.574500
20
-111.931269
10
156.543610
20
-111.736237
10
156.482591
20
-111.548439
10
156.392944
20
-111.372499
10
156.276879
20
-111.212748
10
156.137252
20
-111.073121
10
156.137250
20
-111.073119
10
155.983543
20
-110.961446
10
155.917593
20
-110.890103
10
155.883966
20
-110.798954
10
155.887780
20
-110.701874
10
155.928454
20
-110.613643
10
155.983543
20
-110.558554
10
156.137252
20
-110.446879
10
156.276879
20
-110.307252
10
156.392944
20
-110.147501
10
156.482591
20
-109.971561
10
156.543610
20
-109.783763
10
156.574500
20
-109.588731
10
156.574500
20
-109.391269
10
156.543610
20
-109.196237
10
156.482591
20
-109.008439
10
156.392944
20
-108.832499
10
156.276879
20
-108.672748
10
156.137252
20
-108.533121
10
155.977501
20
-108.417056
10
155.977498
20
-108.417054
10
155.977497
20
-108.417053
10
155.801560
20
-108.327408
10
155.801556
20
-108.327407
10
155.613760
20
-108.266389
10
155.418741
20
-108.235501
10
155.418734
20
-108.235500
10
155.418731
20
-108.235500
10
155.221269
20
-108.235500
10
155.221266
20
-108.235500
10
155.221258
20
-108.235501
10
155.026239
20
-108.266389
10
154.838443
20
-108.327407
10
154.838439
20
-108.327408
10
154.662502
20
-108.417053
10
154.662500
20
-108.417055
10
154.502746
20
-108.533122
10
154.363122
20
-108.672746
10
154.247055
20
-108.832500
10
154.247053
20
-108.832502
10
154.157408
20
-109.008439
10
154.157407
20
-109.008443
10
154.096389
20
-109.196239
10
154.065501
20
-109.391258
10
154.065500
20
-109.391273
10
154.065500
20
-109.588726
0
LWPOLYLINE
8
B.Cu
90
27
70
0
10
122.975000
20
-105.774980
10
122.985494
20
-105.877693
10
122.985495
20
-105.877700
10
123.040640
20
-106.044119
10
123.040641
20
-106.044120
10
123.132681
20
-106.193340
10
123.132684
20
-106.193344
10
123.256655
20
-106.317315
10
123.256659
20
-106.317318
10
123.405879
20
-106.409358
10
123.405880
20
-106.409359
10
123.572299
20
-106.464504
10
123.572306
20
-106.464505
10
123.675019
20
-106.474999
10
123.675030
20
-106.475000
10
124.974999
20
-106.475000
10
124.975000
20
-106.474999
10
124.975000
20
-105.974999
10
123.725001
20
-105.975000
10
123.629330
20
-105.955970
10
123.548224
20
-105.901776
10
123.494030
20
-105.820670
10
123.475001
20
-105.724998
10
123.475001
20
-105.675000
10
122.975001
20
-105.675000
10
122.975000
20
-105.675001
10
122.975000
20
-105.774980
0
LWPOLYLINE
8
B.Cu
90
26
70
0
10
122.975000
20
-104.174999
10
122.975001
20
-104.175000
10
123.475000
20
-104.175000
10
123.475000
20
-104.125001
10
123.494030
20
-104.029330
10
123.548224
20
-103.948224
10
123.629330
20
-103.894030
10
123.725002
20
-103.875001
10
124.975000
20
-103.875000
10
124.975000
20
-103.375001
10
124.974999
20
-103.375000
10
123.675019
20
-103.375000
10
123.572306
20
-103.385494
10
123.572299
20
-103.385495
10
123.405880
20
-103.440640
10
123.405879
20
-103.440641
10
123.256659
20
-103.532681
10
123.256655
20
-103.532684
10
123.132684
20
-103.656655
10
123.132681
20
-103.656659
10
123.040641
20
-103.805879
10
123.040640
20
-103.805880
10
122.985495
20
-103.972299
10
122.985494
20
-103.972306
10
122.975000
20
-104.075019
10
122.975000
20
-104.174999
0
LWPOLYLINE
8
B.Cu
90
27
70
0
10
126.475000
20
-103.875000
10
127.724999
20
-103.875000
10
127.820670
20
-103.894030
10
127.901776
20
-103.948224
10
127.955970
20
-104.029330
10
127.974999
20
-104.125002
10
127.974999
20
-104.175000
10
128.474999
20
-104.175000
10
128.475000
20
-104.174999
10
128.475000
20
-104.075029
10
128.474999
20
-104.075019
10
128.464505
20
-103.972306
10
128.464504
20
-103.972299
10
128.409359
20
-103.805880
10
128.409358
20
-103.805879
10
128.317318
20
-103.656659
10
128.317315
20
-103.656655
10
128.193344
20
-103.532684
10
128.193340
20
-103.532681
10
128.044120
20
-103.440641
10
128.044119
20
-103.440640
10
127.877700
20
-103.385495
10
127.877693
20
-103.385494
10
127.774980
20
-103.375000
10
126.475001
20
-103.375000
10
126.475000
20
-103.375001
10
126.475000
20
-103.875000
0
LWPOLYLINE
8
B.Cu
90
19
70
0
10
122.650000
20
-99.297832
10
122.656401
20
-99.357371
10
122.656403
20
-99.357378
10
122.706646
20
-99.492087
10
122.792810
20
-99.607187
10
122.792812
20
-99.607189
10
122.907912
20
-99.693353
10
123.042621
20
-99.743596
10
123.042628
20
-99.743598
10
123.102167
20
-99.749999
10
123.102175
20
-99.750000
10
125.249999
20
-99.750000
10
125.250000
20
-99.749999
10
125.250000
20
-99.250000
10
123.150000
20
-99.250000
10
123.150000
20
-97.750000
10
122.650001
20
-97.750000
10
122.650000
20
-97.750001
10
122.650000
20
-99.297832
0
LWPOLYLINE
8
B.Cu
90
18
70
0
10
122.650000
20
-96.249999
10
122.650001
20
-96.250000
10
123.150000
20
-96.250000
10
123.150000
20
-94.750000
10
125.250000
20
-94.750000
10
125.250000
20
-94.250001
10
125.249999
20
-94.250000
10
123.102167
20
-94.250000
10
123.042628
20
-94.256401
10
123.042621
20
-94.256403
10
122.907912
20
-94.306646
10
122.792812
20
-94.392810
10
122.792810
20
-94.392812
10
122.706646
20
-94.507912
10
122.656403
20
-94.642621
10
122.656401
20
-94.642628
10
122.650000
20
-94.702167
10
122.650000
20
-96.249999
0
LWPOLYLINE
8
B.Cu
90
19
70
0
10
126.750000
20
-94.750000
10
128.850000
20
-94.750000
10
128.850000
20
-96.250000
10
129.349999
20
-96.250000
10
129.350000
20
-96.249999
10
129.350000
20
-94.702175
10
129.349999
20
-94.702167
10
129.343598
20
-94.642628
10
129.343596
20
-94.642621
10
129.293353
20
-94.507912
10
129.207189
20
-94.392812
10
129.207187
20
-94.392810
10
129.092087
20
-94.306646
10
128.957378
20
-94.256403
10
128.957371
20
-94.256401
10
128.897832
20
-94.250000
10
126.750001
20
-94.250000
10
126.750000
20
-94.250001
10
126.750000
20
-94.750000
0
LWPOLYLINE
8
B.Cu
90
33
70
0
10
155.538875
20
-126.548467
10
155.675433
20
-126.605031
10
155.798333
20
-126.687150
10
155.902850
20
-126.791667
10
155.984969
20
-126.914567
10
156.041533
20
-127.051125
10
156.070369
20
-127.196095
10
156.070369
20
-127.343905
10
156.041533
20
-127.488875
10
155.984969
20
-127.625433
10
155.902850
20
-127.748333
10
155.798333
20
-127.852850
10
155.675433
20
-127.934969
10
155.538875
20
-127.991533
10
155.393905
20
-128.020369
10
155.246095
20
-128.020369
10
155.101125
20
-127.991533
10
154.964567
20
-127.934969
10
154.841667
20
-127.852850
10
154.737150
20
-127.748333
10
154.655031
20
-127.625433
10
154.598467
20
-127.488875
10
154.569631
20
-127.343905
10
154.569631
20
-127.196095
10
154.598467
20
-127.051125
10
154.655031
20
-126.914567
10
154.737150
20
-126.791667
10
154.841667
20
-126.687150
10
154.964567
20
-126.605031
10
155.101125
20
-126.548467
10
155.246095
20
-126.519631
10
155.393905
20
-126.519631
10
155.538875
20
-126.548467
0
LWPOLYLINE
8
B.Cu
90
33
70
0
10
155.538875
20
-129.088467
10
155.675433
20
-129.145031
10
155.798333
20
-129.227150
10
155.902850
20
-129.331667
10
155.984969
20
-129.454567
10
156.041533
20
-129.591125
10
156.070369
20
-129.736095
10
156.070369
20
-129.883905
10
156.041533
20
-130.028875
10
155.984969
20
-130.165433
10
155.902850
20
-130.288333
10
155.798333
20
-130.392850
10
155.675433
20
-130.474969
10
155.538875
20
-130.531533
10
155.393905
20
-130.560369
10
155.246095
20
-130.560369
10
155.101125
20
-130.531533
10
154.964567
20
-130.474969
10
154.841667
20
-130.392850
10
154.737150
20
-130.288333
10
154.655031
20
-130.165433
10
154.598467
20
-130.028875
10
154.569631
20
-129.883905
10
154.569631
20
-129.736095
10
154.598467
20
-129.591125
10
154.655031
20
-129.454567
10
154.737150
20
-129.331667
10
154.841667
20
-129.227150
10
154.964567
20
-129.145031
10
155.101125
20
-129.088467
10
155.246095
20
-129.059631
10
155.393905
20
-129.059631
10
155.538875
20
-129.088467
0
LWPOLYLINE
8
B.Cu
90
33
70
0
10
168.706742
20
-112.686601
10
168.860687
20
-112.750367
10
168.999234
20
-112.842941
10
169.117059
20
-112.960766
10
169.209633
20
-113.099313
10
169.273399
20
-113.253258
10
169.305907
20
-113.416685
10
169.305907
20
-113.583315
10
169.273399
20
-113.746742
10
169.209633
20
-113.900687
10
169.117059
20
-114.039234
10
168.999234
20
-114.157059
10
168.860687
20
-114.249633
10
168.706742
20
-114.313399
10
168.543315
20
-114.345907
10
168.376685
20
-114.345907
10
168.213258
20
-114.313399
10
168.059313
20
-114.249633
10
167.920766
20
-114.157059
10
167.802941
20
-114.039234
10
167.710367
20
-113.900687
10
167.646601
20
-113.746742
10
167.614093
20
-113.583315
10
167.614093
20
-113.416685
10
167.646601
20
-113.253258
10
167.710367
20
-113.099313
10
167.802941
20
-112.960766
10
167.920766
20
-112.842941
10
168.059313
20
-112.750367
10
168.213258
20
-112.686601
10
168.376685
20
-112.654093
10
168.543315
20
-112.654093
10
168.706742
20
-112.686601
0
LWPOLYLINE
8
B.Cu
90
33
70
0
10
171.246742
20
-112.686601
10
171.400687
20
-112.750367
10
171.539234
20
-112.842941
10
171.657059
20
-112.960766
10
171.749633
20
-113.099313
10
171.813399
20
-113.253258
10
171.845907
20
-113.416685
10
171.845907
20
-113.583315
10
171.813399
20
-113.746742
10
171.749633
20
-113.900687
10
171.657059
20
-114.039234
10
171.539234
20
-114.157059
10
171.400687
20
-114.249633
10
171.246742
20
-114.313399
10
171.083315
20
-114.345907
10
170.916685
20
-114.345907
10
170.753258
20
-114.313399
10
170.599313
20
-114.249633
10
170.460766
20
-114.157059
10
170.342941
20
-114.039234
10
170.250367
20
-113.900687
10
170.186601
20
-113.746742
10
170.154093
20
-113.583315
10
170.154093
20
-113.416685
10
170.186601
20
-113.253258
10
170.250367
20
-113.099313
10
170.342941
20
-112.960766
10
170.460766
20
-112.842941
10
170.599313
20
-112.750367
10
170.753258
20
-112.686601
10
170.916685
20
-112.654093
10
171.083315
20
-112.654093
10
171.246742
20
-112.686601
0
LWPOLYLINE
8
B.Cu
90
21
70
0
10
127.195671
20
-138.044030
10
127.276777
20
-138.098223
10
127.330970
20
-138.179329
10
127.350000
20
-138.275000
10
127.350000
20
-139.725000
10
127.330970
20
-139.820671
10
127.276777
20
-139.901777
10
127.195671
20
-139.955970
10
127.100000
20
-139.975000
10
125.900000
20
-139.975000
10
125.804329
20
-139.955970
10
125.723223
20
-139.901777
10
125.669030
20
-139.820671
10
125.650000
20
-139.725000
10
125.650000
20
-138.275000
10
125.669030
20
-138.179329
10
125.723223
20
-138.098223
10
125.804329
20
-138.044030
10
125.900000
20
-138.025000
10
127.100000
20
-138.025000
10
127.195671
20
-138.044030
0
LWPOLYLINE
8
B.Cu
90
37
70
0
10
133.208315
20
-137.154093
10
133.371742
20
-137.186601
10
133.525687
20
-137.250367
10
133.664234
20
-137.342941
10
133.782059
20
-137.460766
10
133.874633
20
-137.599313
10
133.938399
20
-137.753258
10
133.970907
20
-137.916685
10
133.970907
20
-138.083315
10
133.938399
20
-138.246742
10
133.874633
20
-138.400687
10
133.782059
20
-138.539234
10
133.664234
20
-138.657059
10
133.525687
20
-138.749633
10
133.371742
20
-138.813399
10
133.208315
20
-138.845907
10
133.125000
20
-138.850000
10
132.875000
20
-138.850000
10
132.791685
20
-138.845907
10
132.628258
20
-138.813399
10
132.474313
20
-138.749633
10
132.335766
20
-138.657059
10
132.217941
20
-138.539234
10
132.125367
20
-138.400687
10
132.061601
20
-138.246742
10
132.029093
20
-138.083315
10
132.029093
20
-137.916685
10
132.061601
20
-137.753258
10
132.125367
20
-137.599313
10
132.217941
20
-137.460766
10
132.335766
20
-137.342941
10
132.474313
20
-137.250367
10
132.628258
20
-137.186601
10
132.791685
20
-137.154093
10
132.875000
20
-137.150000
10
133.125000
20
-137.150000
10
133.208315
20
-137.154093
0
LWPOLYLINE
8
B.Cu
90
33
70
0
10
162.746742
20
-125.226601
10
162.900687
20
-125.290367
10
163.039234
20
-125.382941
10
163.157059
20
-125.500766
10
163.249633
20
-125.639313
10
163.313399
20
-125.793258
10
163.345907
20
-125.956685
10
163.345907
20
-126.123315
10
163.313399
20
-126.286742
10
163.249633
20
-126.440687
10
163.157059
20
-126.579234
10
163.039234
20
-126.697059
10
162.900687
20
-126.789633
10
162.746742
20
-126.853399
10
162.583315
20
-126.885907
10
162.416685
20
-126.885907
10
162.253258
20
-126.853399
10
162.099313
20
-126.789633
10
161.960766
20
-126.697059
10
161.842941
20
-126.579234
10
161.750367
20
-126.440687
10
161.686601
20
-126.286742
10
161.654093
20
-126.123315
10
161.654093
20
-125.956685
10
161.686601
20
-125.793258
10
161.750367
20
-125.639313
10
161.842941
20
-125.500766
10
161.960766
20
-125.382941
10
162.099313
20
-125.290367
10
162.253258
20
-125.226601
10
162.416685
20
-125.194093
10
162.583315
20
-125.194093
10
162.746742
20
-125.226601
0
LWPOLYLINE
8
B.Cu
90
5
70
0
10
119.850000
20
-70.750000
10
114.150000
20
-70.750000
10
114.150000
20
-66.250000
10
119.850000
20
-66.250000
10
119.850000
20
-70.750000
0
LWPOLYLINE
8
B.Cu
90
5
70
0
10
128.850000
20
-70.750000
10
123.150000
20
-70.750000
10
123.150000
20
-66.250000
10
128.850000
20
-66.250000
10
128.850000
20
-70.750000
0
LWPOLYLINE
8
B.Cu
90
33
70
0
10
152.366742
20
-136.686601
10
152.520687
20
-136.750367
10
152.659234
20
-136.842941
10
152.777059
20
-136.960766
10
152.869633
20
-137.099313
10
152.933399
20
-137.253258
10
152.965907
20
-137.416685
10
152.965907
20
-137.583315
10
152.933399
20
-137.746742
10
152.869633
20
-137.900687
10
152.777059
20
-138.039234
10
152.659234
20
-138.157059
10
152.520687
20
-138.249633
10
152.366742
20
-138.313399
10
152.203315
20
-138.345907
10
152.036685
20
-138.345907
10
151.873258
20
-138.313399
10
151.719313
20
-138.249633
10
151.580766
20
-138.157059
10
151.462941
20
-138.039234
10
151.370367
20
-137.900687
10
151.306601
20
-137.746742
10
151.274093
20
-137.583315
10
151.274093
20
-137.416685
10
151.306601
20
-137.253258
10
151.370367
20
-137.099313
10
151.462941
20
-136.960766
10
151.580766
20
-136.842941
10
151.719313
20
-136.750367
10
151.873258
20
-136.686601
10
152.036685
20
-136.654093
10
152.203315
20
-136.654093
10
152.366742
20
-136.686601
0
LWPOLYLINE
8
B.Cu
90
33
70
0
10
144.746742
20
-139.226601
10
144.900687
20
-139.290367
10
145.039234
20
-139.382941
10
145.157059
20
-139.500766
10
145.249633
20
-139.639313
10
145.313399
20
-139.793258
10
145.345907
20
-139.956685
10
145.345907
20
-140.123315
10
145.313399
20
-140.286742
10
145.249633
20
-140.440687
10
145.157059
20
-140.579234
10
145.039234
20
-140.697059
10
144.900687
20
-140.789633
10
144.746742
20
-140.853399
10
144.583315
20
-140.885907
10
144.416685
20
-140.885907
10
144.253258
20
-140.853399
10
144.099313
20
-140.789633
10
143.960766
20
-140.697059
10
143.842941
20
-140.579234
10
143.750367
20
-140.440687
10
143.686601
20
-140.286742
10
143.654093
20
-140.123315
10
143.654093
20
-139.956685
10
143.686601
20
-139.793258
10
143.750367
20
-139.639313
10
143.842941
20
-139.500766
10
143.960766
20
-139.382941
10
144.099313
20
-139.290367
10
144.253258
20
-139.226601
10
144.416685
20
-139.194093
10
144.583315
20
-139.194093
10
144.746742
20
-139.226601
0
LWPOLYLINE
8
B.Cu
90
33
70
0
10
144.746742
20
-136.686601
10
144.900687
20
-136.750367
10
145.039234
20
-136.842941
10
145.157059
20
-136.960766
10
145.249633
20
-137.099313
10
145.313399
20
-137.253258
10
145.345907
20
-137.416685
10
145.345907
20
-137.583315
10
145.313399
20
-137.746742
10
145.249633
20
-137.900687
10
145.157059
20
-138.039234
10
145.039234
20
-138.157059
10
144.900687
20
-138.249633
10
144.746742
20
-138.313399
10
144.583315
20
-138.345907
10
144.416685
20
-138.345907
10
144.253258
20
-138.313399
10
144.099313
20
-138.249633
10
143.960766
20
-138.157059
10
143.842941
20
-138.039234
10
143.750367
20
-137.900687
10
143.686601
20
-137.746742
10
143.654093
20
-137.583315
10
143.654093
20
-137.416685
10
143.686601
20
-137.253258
10
143.750367
20
-137.099313
10
143.842941
20
-136.960766
10
143.960766
20
-136.842941
10
144.099313
20
-136.750367
10
144.253258
20
-136.686601
10
144.416685
20
-136.654093
10
144.583315
20
-136.654093
10
144.746742
20
-136.686601
0
ENDSEC
0
EOF
