0
SECTION
2
HEADER
9
$ACADVER
1
AC1015
9
$INSUNITS
70
4
0
ENDSEC
0
SECTION
2
TABLES
0
TABLE
2
LAYER
70
2
0
LAYER
2
0
70
0
62
7
6
CONTINUOUS
0
LAYER
2
F.Cu
70
0
62
1
6
CONTINUOUS
0
ENDTAB
0
ENDSEC
0
SECTION
2
ENTITIES
0
LWPOLYLINE
8
F.Cu
90
74
70
0
10
153.579610
20
-122.645672
10
153.715257
20
-122.723988
10
153.826012
20
-122.834743
10
153.904328
20
-122.970390
10
153.944867
20
-123.121684
10
153.944867
20
-123.278316
10
153.904328
20
-123.429610
10
153.826012
20
-123.565257
10
153.715257
20
-123.676012
10
153.579610
20
-123.754328
10
153.428316
20
-123.794867
10
153.271684
20
-123.794867
10
153.143131
20
-123.760421
10
152.250000
20
-124.653553
10
152.250000
20
-128.396446
10
161.068553
20
-137.215000
10
161.753785
20
-137.215000
10
161.768338
20
-137.205276
10
161.820000
20
-137.195000
10
162.190000
20
-137.195000
10
162.241662
20
-137.205276
10
162.271180
20
-137.225000
10
167.150000
20
-137.225000
10
167.150000
20
-136.875000
10
167.169030
20
-136.779329
10
167.223223
20
-136.698223
10
167.304329
20
-136.644030
10
167.400000
20
-136.625000
10
168.850000
20
-136.625000
10
168.945671
20
-136.644030
10
169.026777
20
-136.698223
10
169.080970
20
-136.779329
10
169.100000
20
-136.875000
10
169.100000
20
-138.075000
10
169.080970
20
-138.170671
10
169.026777
20
-138.251777
10
168.945671
20
-138.305970
10
168.850000
20
-138.325000
10
167.400000
20
-138.325000
10
167.304329
20
-138.305970
10
167.223223
20
-138.251777
10
167.169030
20
-138.170671
10
167.150000
20
-138.075000
10
167.150000
20
-137.725000
10
162.240274
20
-137.725000
10
162.190000
20
-137.735000
10
161.820000
20
-137.735000
10
161.768338
20
-137.724724
10
161.753785
20
-137.715000
10
160.965000
20
-137.715000
10
160.916237
20
-137.710197
10
160.916228
20
-137.710197
10
160.826108
20
-137.672868
10
160.788224
20
-137.641777
10
151.823223
20
-128.676777
10
151.792137
20
-128.638897
10
151.792133
20
-128.638893
10
151.754804
20
-128.548773
10
151.750000
20
-128.500000
10
151.750000
20
-124.550000
10
151.754804
20
-124.501227
10
151.792133
20
-124.411107
10
151.792137
20
-124.411102
10
151.823223
20
-124.373223
10
152.789578
20
-123.406868
10
152.755133
20
-123.278316
10
152.755133
20
-123.121684
10
152.795672
20
-122.970390
10
152.873988
20
-122.834743
10
152.984743
20
-122.723988
10
153.120390
20
-122.645672
10
153.271684
20
-122.605133
10
153.428316
20
-122.605133
10
153.579610
20
-122.645672
0
LWPOLYLINE
8
F.Cu
90
150
70
0
10
140.298875
20
-124.008467
10
140.435433
20
-124.065031
10
140.558333
20
-124.147150
10
140.662850
20
-124.251667
10
140.744969
20
-124.374567
10
140.801533
20
-124.511125
10
140.830369
20
-124.656095
10
140.830369
20
-124.803905
10
140.801533
20
-124.948875
10
140.744969
20
-125.085433
10
140.662850
20
-125.208333
10
140.558333
20
-125.312850
10
140.435433
20
-125.394969
10
140.298875
20
-125.451533
10
140.153905
20
-125.480369
10
140.036738
20
-125.480369
10
138.500000
20
-127.017106
10
138.500000
20
-135.500000
10
138.495723
20
-135.565247
10
138.495723
20
-135.565263
10
138.461940
20
-135.691342
10
138.396677
20
-135.804381
10
138.396661
20
-135.804396
10
138.353554
20
-135.853553
10
134.207106
20
-140.000000
10
134.500000
20
-140.000000
10
134.565248
20
-140.004277
10
134.565263
20
-140.004277
10
134.691342
20
-140.038060
10
134.804381
20
-140.103323
10
134.804396
20
-140.103338
10
134.853553
20
-140.146447
10
138.707107
20
-144.000000
10
152.792894
20
-144.000000
10
153.500000
20
-143.292893
10
153.500000
20
-141.207106
10
152.832894
20
-140.540000
10
152.803274
20
-140.540000
10
152.777059
20
-140.579234
10
152.659234
20
-140.697059
10
152.520687
20
-140.789633
10
152.366742
20
-140.853399
10
152.203315
20
-140.885907
10
152.036685
20
-140.885907
10
151.873258
20
-140.853399
10
151.719313
20
-140.789633
10
151.580766
20
-140.697059
10
151.462941
20
-140.579234
10
151.370367
20
-140.440687
10
151.306601
20
-140.286742
10
151.274093
20
-140.123315
10
151.274093
20
-139.956685
10
151.306601
20
-139.793258
10
151.370367
20
-139.639313
10
151.462941
20
-139.500766
10
151.580766
20
-139.382941
10
151.719313
20
-139.290367
10
151.873258
20
-139.226601
10
152.036685
20
-139.194093
10
152.203315
20
-139.194093
10
152.366742
20
-139.226601
10
152.520687
20
-139.290367
10
152.659234
20
-139.382941
10
152.777059
20
-139.500766
10
152.803274
20
-139.540000
10
153.040000
20
-139.540000
10
153.105248
20
-139.544277
10
153.105263
20
-139.544277
10
153.217358
20
-139.574313
10
153.231342
20
-139.578060
10
153.344381
20
-139.643323
10
153.344396
20
-139.643338
10
153.393553
20
-139.686447
10
154.353553
20
-140.646447
10
154.396661
20
-140.695603
10
154.396677
20
-140.695619
10
154.426925
20
-140.748011
10
154.461940
20
-140.808658
10
154.495723
20
-140.934737
10
154.495723
20
-140.934752
10
154.500000
20
-141.000000
10
154.500000
20
-143.500000
10
154.495723
20
-143.565247
10
154.495723
20
-143.565263
10
154.469079
20
-143.664698
10
154.461940
20
-143.691342
10
154.396677
20
-143.804381
10
154.396669
20
-143.804388
10
154.353554
20
-143.853553
10
153.353553
20
-144.853553
10
153.304396
20
-144.896661
10
153.304381
20
-144.896677
10
153.191342
20
-144.961940
10
153.065263
20
-144.995723
10
153.065248
20
-144.995723
10
153.000000
20
-145.000000
10
138.500000
20
-145.000000
10
138.434752
20
-144.995723
10
138.434737
20
-144.995723
10
138.308658
20
-144.961940
10
138.195619
20
-144.896677
10
138.195610
20
-144.896668
10
138.146446
20
-144.853553
10
134.292894
20
-141.000000
10
133.808274
20
-141.000000
10
133.782059
20
-141.039234
10
133.664234
20
-141.157059
10
133.525687
20
-141.249633
10
133.371742
20
-141.313399
10
133.208315
20
-141.345907
10
133.125000
20
-141.350000
10
132.875000
20
-141.350000
10
132.791685
20
-141.345907
10
132.628258
20
-141.313399
10
132.474313
20
-141.249633
10
132.335766
20
-141.157059
10
132.217941
20
-141.039234
10
132.125367
20
-140.900687
10
132.061601
20
-140.746742
10
132.029093
20
-140.583315
10
132.029093
20
-140.416685
10
132.061601
20
-140.253258
10
132.125367
20
-140.099313
10
132.217941
20
-139.960766
10
132.335766
20
-139.842941
10
132.474313
20
-139.750367
10
132.628258
20
-139.686601
10
132.791685
20
-139.654093
10
132.875000
20
-139.650000
10
133.125000
20
-139.650000
10
133.142055
20
-139.650837
10
137.500000
20
-135.292893
10
137.500000
20
-126.810000
10
137.504277
20
-126.744752
10
137.504277
20
-126.744737
10
137.538060
20
-126.618658
10
137.603323
20
-126.505619
10
137.603338
20
-126.505603
10
137.646447
20
-126.456447
10
139.329631
20
-124.773262
10
139.329631
20
-124.656095
10
139.358467
20
-124.511125
10
139.415031
20
-124.374567
10
139.497150
20
-124.251667
10
139.601667
20
-124.147150
10
139.724567
20
-124.065031
10
139.861125
20
-124.008467
10
140.006095
20
-123.979631
10
140.153905
20
-123.979631
10
140.298875
20
-124.008467
0
LWPOLYLINE
8
F.Cu
90
70
70
0
10
170.018017
20
-117.424815
10
170.210285
20
-117.463060
10
170.391397
20
-117.538079
10
170.438012
20
-117.569226
10
170.554394
20
-117.646989
10
170.627107
20
-117.712893
10
173.707107
20
-120.792893
10
173.773011
20
-120.865607
10
173.838297
20
-120.963316
10
173.881921
20
-121.028603
10
173.956940
20
-121.209715
10
173.995185
20
-121.401983
10
174.000000
20
-121.500000
10
174.000000
20
-137.500000
10
173.995185
20
-137.598017
10
173.956941
20
-137.790284
10
173.881922
20
-137.971396
10
173.773011
20
-138.134393
10
173.707107
20
-138.207106
10
171.232107
20
-140.682107
10
171.159394
20
-140.748011
10
171.044170
20
-140.825000
10
170.996397
20
-140.856921
10
170.815285
20
-140.931940
10
170.623017
20
-140.970185
10
170.525000
20
-140.975000
10
168.125000
20
-140.975000
10
168.026983
20
-140.970185
10
167.834715
20
-140.931940
10
167.653603
20
-140.856921
10
167.490607
20
-140.748010
10
167.351990
20
-140.609393
10
167.243079
20
-140.446397
10
167.168060
20
-140.265285
10
167.129815
20
-140.073017
10
167.129815
20
-139.876983
10
167.168060
20
-139.684715
10
167.243079
20
-139.503603
10
167.351990
20
-139.340607
10
167.490607
20
-139.201990
10
167.653603
20
-139.093079
10
167.834715
20
-139.018060
10
168.026983
20
-138.979815
10
168.125000
20
-138.975000
10
170.110786
20
-138.975000
10
172.000000
20
-137.085786
10
172.000000
20
-121.914214
10
169.505786
20
-119.420000
10
162.500000
20
-119.420000
10
162.401983
20
-119.415185
10
162.209715
20
-119.376940
10
162.028603
20
-119.301921
10
161.980830
20
-119.270000
10
161.650000
20
-119.270000
10
161.650000
20
-118.939169
10
161.618079
20
-118.891397
10
161.543060
20
-118.710285
10
161.504815
20
-118.518017
10
161.504815
20
-118.321983
10
161.543060
20
-118.129715
10
161.618079
20
-117.948603
10
161.650000
20
-117.900830
10
161.650000
20
-117.570000
10
161.980830
20
-117.570000
10
162.028603
20
-117.538079
10
162.209715
20
-117.463060
10
162.401983
20
-117.424815
10
162.500000
20
-117.420000
10
169.920000
20
-117.420000
10
170.018017
20
-117.424815
0
LWPOLYLINE
8
F.Cu
90
5
70
0
10
131.450000
20
-126.700000
10
129.750000
20
-126.700000
10
129.750000
20
-125.000000
10
131.450000
20
-125.000000
10
131.450000
20
-126.700000
0
LWPOLYLINE
8
F.Cu
90
75
70
0
10
153.679610
20
-116.495672
10
153.815257
20
-116.573988
10
153.926012
20
-116.684743
10
154.004328
20
-116.820390
10
154.044867
20
-116.971684
10
154.044867
20
-117.128316
10
154.004328
20
-117.279610
10
153.926012
20
-117.415257
10
153.815257
20
-117.526012
10
153.679610
20
-117.604328
10
153.528316
20
-117.644867
10
153.371684
20
-117.644867
10
153.243132
20
-117.610421
10
151.250000
20
-119.603554
10
151.250000
20
-128.896446
10
164.578554
20
-142.225000
10
167.187951
20
-142.225000
10
167.250367
20
-142.074313
10
167.342941
20
-141.935766
10
167.460766
20
-141.817941
10
167.599313
20
-141.725367
10
167.753258
20
-141.661601
10
167.916685
20
-141.629093
10
168.000000
20
-141.625000
10
168.250000
20
-141.625000
10
168.333315
20
-141.629093
10
168.496742
20
-141.661601
10
168.650687
20
-141.725367
10
168.789234
20
-141.817941
10
168.907059
20
-141.935766
10
168.999633
20
-142.074313
10
169.063399
20
-142.228258
10
169.095907
20
-142.391685
10
169.095907
20
-142.558315
10
169.063399
20
-142.721742
10
168.999633
20
-142.875687
10
168.907059
20
-143.014234
10
168.789234
20
-143.132059
10
168.650687
20
-143.224633
10
168.496742
20
-143.288399
10
168.333315
20
-143.320907
10
168.250000
20
-143.325000
10
168.000000
20
-143.325000
10
167.916685
20
-143.320907
10
167.753258
20
-143.288399
10
167.599313
20
-143.224633
10
167.460766
20
-143.132059
10
167.342941
20
-143.014234
10
167.250367
20
-142.875687
10
167.187951
20
-142.725000
10
164.475000
20
-142.725000
10
164.426237
20
-142.720197
10
164.426228
20
-142.720197
10
164.336108
20
-142.682868
10
164.298223
20
-142.651777
10
150.823223
20
-129.176777
10
150.792137
20
-129.138897
10
150.792133
20
-129.138893
10
150.754804
20
-129.048773
10
150.750000
20
-129.000000
10
150.750000
20
-119.500000
10
150.754804
20
-119.451227
10
150.792133
20
-119.361107
10
150.792137
20
-119.361102
10
150.823223
20
-119.323223
10
152.889578
20
-117.256867
10
152.855133
20
-117.128316
10
152.855133
20
-116.971684
10
152.895672
20
-116.820390
10
152.973988
20
-116.684743
10
153.084743
20
-116.573988
10
153.220390
20
-116.495672
10
153.371684
20
-116.455133
10
153.528316
20
-116.455133
10
153.679610
20
-116.495672
0
LWPOLYLINE
8
F.Cu
90
5
70
0
10
140.834000
20
-130.564000
10
139.326000
20
-130.564000
10
139.326000
20
-129.056000
10
140.834000
20
-129.056000
10
140.834000
20
-130.564000
0
LWPOLYLINE
8
F.Cu
90
42
70
0
10
174.900000
20
-73.285786
10
177.707107
20
-76.092893
10
177.773011
20
-76.165607
10
177.838297
20
-76.263316
10
177.881921
20
-76.328603
10
177.881921
20
-76.328604
10
177.956941
20
-76.509716
10
177.973950
20
-76.595232
10
177.995185
20
-76.701983
10
178.000000
20
-76.800000
10
178.000000
20
-112.580000
10
177.995185
20
-112.678017
10
177.980793
20
-112.750367
10
177.956940
20
-112.870285
10
177.881921
20
-113.051397
10
177.773010
20
-113.214394
10
177.707106
20
-113.287107
10
176.787107
20
-114.207107
10
176.714394
20
-114.273011
10
176.551396
20
-114.381921
10
176.370284
20
-114.456940
10
176.178017
20
-114.495184
10
175.981983
20
-114.495184
10
175.789716
20
-114.456940
10
175.608604
20
-114.381921
10
175.445606
20
-114.273011
10
175.306989
20
-114.134394
10
175.198079
20
-113.971396
10
175.123060
20
-113.790284
10
175.084816
20
-113.598017
10
175.084816
20
-113.401983
10
175.123060
20
-113.209716
10
175.198079
20
-113.028604
10
175.306989
20
-112.865606
10
175.372893
20
-112.792893
10
176.000000
20
-112.165786
10
176.000000
20
-77.214214
10
173.285786
20
-74.500000
10
172.500000
20
-74.500000
10
172.500000
20
-72.500000
10
174.900000
20
-72.500000
10
174.900000
20
-73.285786
0
LWPOLYLINE
8
F.Cu
90
5
70
0
10
170.700000
20
-74.500000
10
168.300000
20
-74.500000
10
168.300000
20
-72.500000
10
170.700000
20
-72.500000
10
170.700000
20
-74.500000
0
LWPOLYLINE
8
F.Cu
90
21
70
0
10
133.820671
20
-142.169030
10
133.901777
20
-142.223223
10
133.955970
20
-142.304329
10
133.975000
20
-142.400000
10
133.975000
20
-143.600000
10
133.955970
20
-143.695671
10
133.901777
20
-143.776777
10
133.820671
20
-143.830970
10
133.725000
20
-143.850000
10
132.275000
20
-143.850000
10
132.179329
20
-143.830970
10
132.098223
20
-143.776777
10
132.044030
20
-143.695671
10
132.025000
20
-143.600000
10
132.025000
20
-142.400000
10
132.044030
20
-142.304329
10
132.098223
20
-142.223223
10
132.179329
20
-142.169030
10
132.275000
20
-142.150000
10
133.725000
20
-142.150000
10
133.820671
20
-142.169030
0
LWPOLYLINE
8
F.Cu
90
35
70
0
10
152.970000
20
-143.430000
10
151.270000
20
-143.430000
10
151.270000
20
-143.080000
10
145.183274
20
-143.080000
10
145.157059
20
-143.119234
10
145.039234
20
-143.237059
10
144.900687
20
-143.329633
10
144.746742
20
-143.393399
10
144.583315
20
-143.425907
10
144.416685
20
-143.425907
10
144.253258
20
-143.393399
10
144.099313
20
-143.329633
10
143.960766
20
-143.237059
10
143.842941
20
-143.119234
10
143.750367
20
-142.980687
10
143.686601
20
-142.826742
10
143.654093
20
-142.663315
10
143.654093
20
-142.496685
10
143.686601
20
-142.333258
10
143.750367
20
-142.179313
10
143.842941
20
-142.040766
10
143.960766
20
-141.922941
10
144.099313
20
-141.830367
10
144.253258
20
-141.766601
10
144.416685
20
-141.734093
10
144.583315
20
-141.734093
10
144.746742
20
-141.766601
10
144.900687
20
-141.830367
10
145.039234
20
-141.922941
10
145.157059
20
-142.040766
10
145.183274
20
-142.080000
10
151.270000
20
-142.080000
10
151.270000
20
-141.730000
10
152.970000
20
-141.730000
10
152.970000
20
-143.430000
0
LWPOLYLINE
8
F.Cu
90
51
70
0
10
162.746742
20
-127.766601
10
162.900687
20
-127.830367
10
163.039234
20
-127.922941
10
163.157059
20
-128.040766
10
163.249633
20
-128.179313
10
163.313399
20
-128.333258
10
163.345907
20
-128.496685
10
163.345907
20
-128.663315
10
163.313399
20
-128.826742
10
163.249633
20
-128.980687
10
163.157059
20
-129.119234
10
163.039234
20
-129.237059
10
162.900687
20
-129.329633
10
162.746742
20
-129.393399
10
162.583315
20
-129.425907
10
162.416685
20
-129.425907
10
162.255000
20
-129.393745
10
162.255000
20
-136.194188
10
162.285459
20
-136.214541
10
162.314724
20
-136.258338
10
162.325000
20
-136.310000
10
162.325000
20
-136.580000
10
162.314724
20
-136.631662
10
162.285459
20
-136.675459
10
162.241662
20
-136.704724
10
162.190000
20
-136.715000
10
161.820000
20
-136.715000
10
161.768338
20
-136.704724
10
161.724541
20
-136.675459
10
161.695276
20
-136.631662
10
161.685000
20
-136.580000
10
161.685000
20
-136.310000
10
161.695276
20
-136.258338
10
161.724541
20
-136.214541
10
161.755000
20
-136.194188
10
161.755000
20
-129.075000
10
161.759804
20
-129.026227
10
161.767837
20
-129.006833
10
161.750367
20
-128.980687
10
161.686601
20
-128.826742
10
161.654093
20
-128.663315
10
161.654093
20
-128.496685
10
161.686601
20
-128.333258
10
161.750367
20
-128.179313
10
161.842941
20
-128.040766
10
161.960766
20
-127.922941
10
162.099313
20
-127.830367
10
162.253258
20
-127.766601
10
162.416685
20
-127.734093
10
162.583315
20
-127.734093
10
162.746742
20
-127.766601
0
LWPOLYLINE
8
F.Cu
90
33
70
0
10
140.298875
20
-126.548467
10
140.435433
20
-126.605031
10
140.558333
20
-126.687150
10
140.662850
20
-126.791667
10
140.744969
20
-126.914567
10
140.801533
20
-127.051125
10
140.830369
20
-127.196095
10
140.830369
20
-127.343905
10
140.801533
20
-127.488875
10
140.744969
20
-127.625433
10
140.662850
20
-127.748333
10
140.558333
20
-127.852850
10
140.435433
20
-127.934969
10
140.298875
20
-127.991533
10
140.153905
20
-128.020369
10
140.006095
20
-128.020369
10
139.861125
20
-127.991533
10
139.724567
20
-127.934969
10
139.601667
20
-127.852850
10
139.497150
20
-127.748333
10
139.415031
20
-127.625433
10
139.358467
20
-127.488875
10
139.329631
20
-127.343905
10
139.329631
20
-127.196095
10
139.358467
20
-127.051125
10
139.415031
20
-126.914567
10
139.497150
20
-126.791667
10
139.601667
20
-126.687150
10
139.724567
20
-126.605031
10
139.861125
20
-126.548467
10
140.006095
20
-126.519631
10
140.153905
20
-126.519631
10
140.298875
20
-126.548467
0
LWPOLYLINE
8
F.Cu
90
171
70
0
10
166.500000
20
-74.500000
10
166.300000
20
-74.500000
10
166.300000
20
-81.500000
10
166.300000
20
-95.500000
10
166.500000
20
-95.500000
10
166.500000
20
-97.500000
10
165.714214
20
-97.500000
10
163.427107
20
-99.787107
10
163.354394
20
-99.853011
10
163.238012
20
-99.930773
10
163.191397
20
-99.961921
10
163.010285
20
-100.036940
10
162.818017
20
-100.075185
10
162.720000
20
-100.080000
10
157.914214
20
-100.080000
10
156.000000
20
-101.994214
10
156.000000
20
-104.120786
10
156.089214
20
-104.210000
10
166.452081
20
-104.210000
10
166.550098
20
-104.214815
10
166.742366
20
-104.253060
10
166.923478
20
-104.328079
10
166.970093
20
-104.359226
10
167.086475
20
-104.436989
10
167.159188
20
-104.502893
10
170.425000
20
-107.768705
10
170.425000
20
-106.200001
10
170.444030
20
-106.104330
10
170.498224
20
-106.023224
10
170.579330
20
-105.969030
10
170.675002
20
-105.950001
10
172.274999
20
-105.950000
10
172.370670
20
-105.969030
10
172.451776
20
-106.023224
10
172.505970
20
-106.104330
10
172.524999
20
-106.200002
10
172.524999
20
-109.868704
10
174.247107
20
-111.590812
10
174.313010
20
-111.663525
10
174.367465
20
-111.745024
10
174.421921
20
-111.826522
10
174.496940
20
-112.007634
10
174.535185
20
-112.199902
10
174.540000
20
-112.297919
10
174.540000
20
-113.500000
10
174.535185
20
-113.598017
10
174.496940
20
-113.790285
10
174.421921
20
-113.971397
10
174.313010
20
-114.134393
10
174.174393
20
-114.273010
10
174.011397
20
-114.381921
10
173.830285
20
-114.456940
10
173.638017
20
-114.495185
10
173.441983
20
-114.495185
10
173.249715
20
-114.456940
10
173.068603
20
-114.381921
10
172.905607
20
-114.273010
10
172.766990
20
-114.134393
10
172.658079
20
-113.971397
10
172.583060
20
-113.790285
10
172.544815
20
-113.598017
10
172.540000
20
-113.500000
10
172.540000
20
-112.712133
10
166.037867
20
-106.210000
10
155.675000
20
-106.210000
10
155.576983
20
-106.205185
10
155.384715
20
-106.166940
10
155.203603
20
-106.091921
10
155.100791
20
-106.023224
10
155.040606
20
-105.983010
10
154.967893
20
-105.917107
10
154.292893
20
-105.242107
10
154.226989
20
-105.169394
10
154.149226
20
-105.053012
10
154.118079
20
-105.006397
10
154.043060
20
-104.825285
10
154.004815
20
-104.633017
10
154.000000
20
-104.535000
10
154.000000
20
-101.580000
10
154.004815
20
-101.481983
10
154.043060
20
-101.289715
10
154.118079
20
-101.108603
10
154.149226
20
-101.061987
10
154.226989
20
-100.945606
10
154.292893
20
-100.872893
10
156.325000
20
-98.840786
10
156.325000
20
-98.630000
10
156.500000
20
-98.630000
10
156.500000
20
-95.600000
10
156.325000
20
-95.600000
10
156.325000
20
-94.700000
10
156.500000
20
-94.700000
10
156.500000
20
-91.670000
10
156.325000
20
-91.670000
10
156.325000
20
-90.770000
10
156.609216
20
-90.770000
10
156.618079
20
-90.748603
10
156.726990
20
-90.585607
10
156.865607
20
-90.446990
10
157.028603
20
-90.338079
10
157.209715
20
-90.263060
10
157.401983
20
-90.224815
10
157.598017
20
-90.224815
10
157.790285
20
-90.263060
10
157.971397
20
-90.338079
10
158.134393
20
-90.446990
10
158.273010
20
-90.585607
10
158.381921
20
-90.748603
10
158.390784
20
-90.770000
10
158.675000
20
-90.770000
10
158.675000
20
-91.670000
10
158.500000
20
-91.670000
10
158.500000
20
-94.700000
10
158.675000
20
-94.700000
10
158.675000
20
-95.600000
10
158.500000
20
-95.600000
10
158.500000
20
-98.080000
10
162.305786
20
-98.080000
10
164.100000
20
-96.285786
10
164.100000
20
-95.500000
10
164.300000
20
-95.500000
10
164.300000
20
-82.500000
10
158.500000
20
-82.500000
10
158.500000
20
-82.910000
10
158.675000
20
-82.910000
10
158.675000
20
-83.810000
10
158.390784
20
-83.810000
10
158.381921
20
-83.831397
10
158.273010
20
-83.994393
10
158.134393
20
-84.133010
10
157.971397
20
-84.241921
10
157.790285
20
-84.316940
10
157.598017
20
-84.355185
10
157.401983
20
-84.355185
10
157.209715
20
-84.316940
10
157.028603
20
-84.241921
10
156.865607
20
-84.133010
10
156.726990
20
-83.994393
10
156.618079
20
-83.831397
10
156.609216
20
-83.810000
10
156.325000
20
-83.810000
10
156.325000
20
-82.910000
10
156.500000
20
-82.910000
10
156.500000
20
-81.500000
10
156.500000
20
-79.880000
10
156.325000
20
-79.880000
10
156.325000
20
-78.980000
10
156.609216
20
-78.980000
10
156.618079
20
-78.958603
10
156.726990
20
-78.795607
10
156.865607
20
-78.656990
10
157.028603
20
-78.548079
10
157.209715
20
-78.473060
10
157.401983
20
-78.434815
10
157.598017
20
-78.434815
10
157.790285
20
-78.473060
10
157.971397
20
-78.548079
10
158.134393
20
-78.656990
10
158.273010
20
-78.795607
10
158.381921
20
-78.958603
10
158.390784
20
-78.980000
10
158.675000
20
-78.980000
10
158.675000
20
-79.880000
10
158.500000
20
-79.880000
10
158.500000
20
-80.500000
10
164.300000
20
-80.500000
10
164.300000
20
-74.500000
10
164.100000
20
-74.500000
10
164.100000
20
-72.500000
10
166.500000
20
-72.500000
10
166.500000
20
-74.500000
0
LWPOLYLINE
8
F.Cu
90
33
70
0
10
130.846742
20
-112.336601
10
131.000687
20
-112.400367
10
131.139234
20
-112.492941
10
131.257059
20
-112.610766
10
131.349633
20
-112.749313
10
131.413399
20
-112.903258
10
131.445907
20
-113.066685
10
131.445907
20
-113.233315
10
131.413399
20
-113.396742
10
131.349633
20
-113.550687
10
131.257059
20
-113.689234
10
131.139234
20
-113.807059
10
131.000687
20
-113.899633
10
130.846742
20
-113.963399
10
130.683315
20
-113.995907
10
130.516685
20
-113.995907
10
130.353258
20
-113.963399
10
130.199313
20
-113.899633
10
130.060766
20
-113.807059
10
129.942941
20
-113.689234
10
129.850367
20
-113.550687
10
129.786601
20
-113.396742
10
129.754093
20
-113.233315
10
129.754093
20
-113.066685
10
129.786601
20
-112.903258
10
129.850367
20
-112.749313
10
129.942941
20
-112.610766
10
130.060766
20
-112.492941
10
130.199313
20
-112.400367
10
130.353258
20
-112.336601
10
130.516685
20
-112.304093
10
130.683315
20
-112.304093
10
130.846742
20
-112.336601
0
LWPOLYLINE
8
F.Cu
90
5
70
0
10
153.175000
20
-87.290000
10
148.175000
20
-87.290000
10
148.175000
20
-82.290000
10
153.175000
20
-82.290000
10
153.175000
20
-87.290000
0
LWPOLYLINE
8
F.Cu
90
5
70
0
10
145.675000
20
-79.700000
10
142.675000
20
-79.700000
10
142.675000
20
-76.700000
10
145.675000
20
-76.700000
10
145.675000
20
-79.700000
0
LWPOLYLINE
8
F.Cu
90
5
70
0
10
139.025000
20
-75.950000
10
136.675000
20
-75.950000
10
136.675000
20
-75.050000
10
139.025000
20
-75.050000
10
139.025000
20
-75.950000
0
LWPOLYLINE
8
F.Cu
90
5
70
0
10
158.675000
20
-75.950000
10
156.325000
20
-75.950000
10
156.325000
20
-75.050000
10
158.675000
20
-75.050000
10
158.675000
20
-75.950000
0
LWPOLYLINE
8
F.Cu
90
52
70
0
10
174.900000
20
-97.500000
10
174.114214
20
-97.500000
10
172.524999
20
-99.089214
10
172.525000
20
-102.999999
10
172.505970
20
-103.095670
10
172.451776
20
-103.176776
10
172.370670
20
-103.230970
10
172.274998
20
-103.249999
10
170.675001
20
-103.250000
10
170.579330
20
-103.230970
10
170.498224
20
-103.176776
10
170.444030
20
-103.095670
10
170.425001
20
-102.999998
10
170.425000
20
-101.189212
10
167.897107
20
-103.717107
10
167.824394
20
-103.783011
10
167.708012
20
-103.860773
10
167.661397
20
-103.891921
10
167.480285
20
-103.966940
10
167.288017
20
-104.005185
10
167.190000
20
-104.010000
10
157.500000
20
-104.010000
10
157.401983
20
-104.005185
10
157.209715
20
-103.966940
10
157.028603
20
-103.891921
10
156.865607
20
-103.783010
10
156.726990
20
-103.644393
10
156.618079
20
-103.481397
10
156.609216
20
-103.460000
10
156.325000
20
-103.460000
10
156.325000
20
-102.560000
10
156.609216
20
-102.560000
10
156.618079
20
-102.538603
10
156.726990
20
-102.375607
10
156.865607
20
-102.236990
10
157.028603
20
-102.128079
10
157.209715
20
-102.053060
10
157.401983
20
-102.014815
10
157.500000
20
-102.010000
10
164.193013
20
-102.010000
10
164.254329
20
-101.969030
10
164.350000
20
-101.950000
10
165.650000
20
-101.950000
10
165.745671
20
-101.969030
10
165.806987
20
-102.010000
10
166.775786
20
-102.010000
10
170.642883
20
-98.142903
10
170.642893
20
-98.142893
10
172.500000
20
-96.285786
10
172.500000
20
-95.500000
10
174.900000
20
-95.500000
10
174.900000
20
-97.500000
0
LWPOLYLINE
8
F.Cu
90
63
70
0
10
162.746742
20
-122.686601
10
162.900687
20
-122.750367
10
163.039234
20
-122.842941
10
163.157059
20
-122.960766
10
163.249633
20
-123.099313
10
163.313399
20
-123.253258
10
163.345907
20
-123.416685
10
163.345907
20
-123.583315
10
163.313399
20
-123.746742
10
163.249633
20
-123.900687
10
163.157059
20
-124.039234
10
163.039234
20
-124.157059
10
162.900687
20
-124.249633
10
162.746742
20
-124.313399
10
162.583315
20
-124.345907
10
162.416685
20
-124.345907
10
162.370405
20
-124.336701
10
161.623553
20
-125.083553
10
161.574396
20
-125.126661
10
161.574381
20
-125.126677
10
161.461342
20
-125.191940
10
161.335263
20
-125.225723
10
161.335248
20
-125.225723
10
161.270000
20
-125.230000
10
155.881183
20
-125.230000
10
155.798333
20
-125.312850
10
155.675433
20
-125.394969
10
155.538875
20
-125.451533
10
155.393905
20
-125.480369
10
155.246095
20
-125.480369
10
155.101125
20
-125.451533
10
154.964567
20
-125.394969
10
154.841667
20
-125.312850
10
154.737150
20
-125.208333
10
154.655031
20
-125.085433
10
154.598467
20
-124.948875
10
154.569631
20
-124.803905
10
154.569631
20
-124.656095
10
154.598467
20
-124.511125
10
154.655031
20
-124.374567
10
154.737150
20
-124.251667
10
154.841667
20
-124.147150
10
154.964567
20
-124.065031
10
155.101125
20
-124.008467
10
155.246095
20
-123.979631
10
155.393905
20
-123.979631
10
155.538875
20
-124.008467
10
155.675433
20
-124.065031
10
155.798333
20
-124.147150
10
155.881183
20
-124.230000
10
161.062894
20
-124.230000
10
161.663298
20
-123.629594
10
161.654093
20
-123.583315
10
161.654093
20
-123.416685
10
161.686601
20
-123.253258
10
161.750367
20
-123.099313
10
161.842941
20
-122.960766
10
161.960766
20
-122.842941
10
162.099313
20
-122.750367
10
162.253258
20
-122.686601
10
162.416685
20
-122.654093
10
162.583315
20
-122.654093
10
162.746742
20
-122.686601
0
LWPOLYLINE
8
F.Cu
90
63
70
0
10
162.746742
20
-120.146601
10
162.900687
20
-120.210367
10
163.039234
20
-120.302941
10
163.157059
20
-120.420766
10
163.249633
20
-120.559313
10
163.313399
20
-120.713258
10
163.345907
20
-120.876685
10
163.345907
20
-121.043315
10
163.313399
20
-121.206742
10
163.249633
20
-121.360687
10
163.157059
20
-121.499234
10
163.039234
20
-121.617059
10
162.900687
20
-121.709633
10
162.746742
20
-121.773399
10
162.583315
20
-121.805907
10
162.416685
20
-121.805907
10
162.370405
20
-121.796701
10
161.623553
20
-122.543553
10
161.574396
20
-122.586661
10
161.574381
20
-122.586677
10
161.461342
20
-122.651940
10
161.335263
20
-122.685723
10
161.335248
20
-122.685723
10
161.270000
20
-122.690000
10
155.881183
20
-122.690000
10
155.798333
20
-122.772850
10
155.675433
20
-122.854969
10
155.538875
20
-122.911533
10
155.393905
20
-122.940369
10
155.246095
20
-122.940369
10
155.101125
20
-122.911533
10
154.964567
20
-122.854969
10
154.841667
20
-122.772850
10
154.737150
20
-122.668333
10
154.655031
20
-122.545433
10
154.598467
20
-122.408875
10
154.569631
20
-122.263905
10
154.569631
20
-122.116095
10
154.598467
20
-121.971125
10
154.655031
20
-121.834567
10
154.737150
20
-121.711667
10
154.841667
20
-121.607150
10
154.964567
20
-121.525031
10
155.101125
20
-121.468467
10
155.246095
20
-121.439631
10
155.393905
20
-121.439631
10
155.538875
20
-121.468467
10
155.675433
20
-121.525031
10
155.798333
20
-121.607150
10
155.881183
20
-121.690000
10
161.062894
20
-121.690000
10
161.663298
20
-121.089594
10
161.654093
20
-121.043315
10
161.654093
20
-120.876685
10
161.686601
20
-120.713258
10
161.750367
20
-120.559313
10
161.842941
20
-120.420766
10
161.960766
20
-120.302941
10
162.099313
20
-120.210367
10
162.253258
20
-120.146601
10
162.416685
20
-120.114093
10
162.583315
20
-120.114093
10
162.746742
20
-120.146601
0
LWPOLYLINE
8
F.Cu
90
33
70
0
10
155.538875
20
-118.928467
10
155.675433
20
-118.985031
10
155.798333
20
-119.067150
10
155.902850
20
-119.171667
10
155.984969
20
-119.294567
10
156.041533
20
-119.431125
10
156.070369
20
-119.576095
10
156.070369
20
-119.723905
10
156.041533
20
-119.868875
10
155.984969
20
-120.005433
10
155.902850
20
-120.128333
10
155.798333
20
-120.232850
10
155.675433
20
-120.314969
10
155.538875
20
-120.371533
10
155.393905
20
-120.400369
10
155.246095
20
-120.400369
10
155.101125
20
-120.371533
10
154.964567
20
-120.314969
10
154.841667
20
-120.232850
10
154.737150
20
-120.128333
10
154.655031
20
-120.005433
10
154.598467
20
-119.868875
10
154.569631
20
-119.723905
10
154.569631
20
-119.576095
10
154.598467
20
-119.431125
10
154.655031
20
-119.294567
10
154.737150
20
-119.171667
10
154.841667
20
-119.067150
10
154.964567
20
-118.985031
10
155.101125
20
-118.928467
10
155.246095
20
-118.899631
10
155.393905
20
-118.899631
10
155.538875
20
-118.928467
0
LWPOLYLINE
8
F.Cu
90
33
70
0
10
155.538875
20
-116.388467
10
155.675433
20
-116.445031
10
155.798333
20
-116.527150
10
155.902850
20
-116.631667
10
155.984969
20
-116.754567
10
156.041533
20
-116.891125
10
156.070369
20
-117.036095
10
156.070369
20
-117.183905
10
156.041533
20
-117.328875
10
155.984969
20
-117.465433
10
155.902850
20
-117.588333
10
155.798333
20
-117.692850
10
155.675433
20
-117.774969
10
155.538875
20
-117.831533
10
155.393905
20
-117.860369
10
155.246095
20
-117.860369
10
155.101125
20
-117.831533
10
154.964567
20
-117.774969
10
154.841667
20
-117.692850
10
154.737150
20
-117.588333
10
154.655031
20
-117.465433
10
154.598467
20
-117.328875
10
154.569631
20
-117.183905
10
154.569631
20
-117.036095
10
154.598467
20
-116.891125
10
154.655031
20
-116.754567
10
154.737150
20
-116.631667
10
154.841667
20
-116.527150
10
154.964567
20
-116.445031
10
155.101125
20
-116.388467
10
155.246095
20
-116.359631
10
155.393905
20
-116.359631
10
155.538875
20
-116.388467
0
LWPOLYLINE
8
F.Cu
90
73
70
0
10
166.166742
20
-112.686601
10
166.320687
20
-112.750367
10
166.459234
20
-112.842941
10
166.577059
20
-112.960766
10
166.669633
20
-113.099313
10
166.733399
20
-113.253258
10
166.765907
20
-113.416685
10
166.765907
20
-113.583315
10
166.733399
20
-113.746742
10
166.669633
20
-113.900687
10
166.577059
20
-114.039234
10
166.459234
20
-114.157059
10
166.320687
20
-114.249633
10
166.166742
20
-114.313399
10
166.003315
20
-114.345907
10
165.836685
20
-114.345907
10
165.673258
20
-114.313399
10
165.522570
20
-114.250982
10
163.096777
20
-116.676777
10
163.058897
20
-116.707862
10
163.058893
20
-116.707867
10
162.968773
20
-116.745196
10
162.920000
20
-116.750000
10
157.250000
20
-116.750000
10
157.201227
20
-116.745196
10
157.111107
20
-116.707867
10
157.111102
20
-116.707862
10
157.073223
20
-116.676777
10
155.644307
20
-115.247861
10
155.538875
20
-115.291533
10
155.393905
20
-115.320369
10
155.246095
20
-115.320369
10
155.101125
20
-115.291533
10
154.964567
20
-115.234969
10
154.841667
20
-115.152850
10
154.737150
20
-115.048333
10
154.655031
20
-114.925433
10
154.598467
20
-114.788875
10
154.569631
20
-114.643905
10
154.569631
20
-114.496095
10
154.598467
20
-114.351125
10
154.655031
20
-114.214567
10
154.737150
20
-114.091667
10
154.841667
20
-113.987150
10
154.964567
20
-113.905031
10
155.101125
20
-113.848467
10
155.246095
20
-113.819631
10
155.393905
20
-113.819631
10
155.538875
20
-113.848467
10
155.675433
20
-113.905031
10
155.798333
20
-113.987150
10
155.902850
20
-114.091667
10
155.984969
20
-114.214567
10
156.041533
20
-114.351125
10
156.070369
20
-114.496095
10
156.070369
20
-114.643905
10
156.041533
20
-114.788875
10
155.997861
20
-114.894307
10
157.353554
20
-116.250000
10
162.816446
20
-116.250000
10
165.169017
20
-113.897429
10
165.106601
20
-113.746742
10
165.074093
20
-113.583315
10
165.074093
20
-113.416685
10
165.106601
20
-113.253258
10
165.170367
20
-113.099313
10
165.262941
20
-112.960766
10
165.380766
20
-112.842941
10
165.519313
20
-112.750367
10
165.673258
20
-112.686601
10
165.836685
20
-112.654093
10
166.003315
20
-112.654093
10
166.166742
20
-112.686601
0
LWPOLYLINE
8
F.Cu
90
73
70
0
10
155.538875
20
-111.308467
10
155.675433
20
-111.365031
10
155.798333
20
-111.447150
10
155.902850
20
-111.551667
10
155.984969
20
-111.674567
10
156.041533
20
-111.811125
10
156.070369
20
-111.956095
10
156.070369
20
-112.103905
10
156.041533
20
-112.248875
10
155.997861
20
-112.354307
10
158.893554
20
-115.250000
10
161.276446
20
-115.250000
10
162.629017
20
-113.897428
10
162.566601
20
-113.746742
10
162.534093
20
-113.583315
10
162.534093
20
-113.416685
10
162.566601
20
-113.253258
10
162.630367
20
-113.099313
10
162.722941
20
-112.960766
10
162.840766
20
-112.842941
10
162.979313
20
-112.750367
10
163.133258
20
-112.686601
10
163.296685
20
-112.654093
10
163.463315
20
-112.654093
10
163.626742
20
-112.686601
10
163.780687
20
-112.750367
10
163.919234
20
-112.842941
10
164.037059
20
-112.960766
10
164.129633
20
-113.099313
10
164.193399
20
-113.253258
10
164.225907
20
-113.416685
10
164.225907
20
-113.583315
10
164.193399
20
-113.746742
10
164.129633
20
-113.900687
10
164.037059
20
-114.039234
10
163.919234
20
-114.157059
10
163.780687
20
-114.249633
10
163.626742
20
-114.313399
10
163.463315
20
-114.345907
10
163.296685
20
-114.345907
10
163.133258
20
-114.313399
10
162.982571
20
-114.250982
10
161.556777
20
-115.676777
10
161.518897
20
-115.707862
10
161.518893
20
-115.707867
10
161.428773
20
-115.745196
10
161.380000
20
-115.750000
10
158.790000
20
-115.750000
10
158.741227
20
-115.745196
10
158.651107
20
-115.707867
10
158.651102
20
-115.707862
10
158.613223
20
-115.676777
10
155.644307
20
-112.707861
10
155.538875
20
-112.751533
10
155.393905
20
-112.780369
10
155.246095
20
-112.780369
10
155.101125
20
-112.751533
10
154.964567
20
-112.694969
10
154.841667
20
-112.612850
10
154.737150
20
-112.508333
10
154.655031
20
-112.385433
10
154.598467
20
-112.248875
10
154.569631
20
-112.103905
10
154.569631
20
-111.956095
10
154.598467
20
-111.811125
10
154.655031
20
-111.674567
10
154.737150
20
-111.551667
10
154.841667
20
-111.447150
10
154.964567
20
-111.365031
10
155.101125
20
-111.308467
10
155.246095
20
-111.279631
10
155.393905
20
-111.279631
10
155.538875
20
-111.308467
0
LWPOLYLINE
8
F.Cu
90
43
70
0
10
155.538875
20
-108.768467
10
155.675433
20
-108.825031
10
155.798333
20
-108.907150
10
155.902850
20
-109.011667
10
155.984969
20
-109.134567
10
156.041533
20
-109.271125
10
156.070369
20
-109.416095
10
156.070369
20
-109.563905
10
156.041533
20
-109.708875
10
155.997861
20
-109.814307
10
159.433553
20
-113.250000
10
159.990000
20
-113.250000
10
159.990000
20
-112.650000
10
161.690000
20
-112.650000
10
161.690000
20
-114.350000
10
159.990000
20
-114.350000
10
159.990000
20
-113.750000
10
159.330000
20
-113.750000
10
159.281227
20
-113.745196
10
159.191107
20
-113.707867
10
159.191102
20
-113.707862
10
159.153223
20
-113.676776
10
155.644307
20
-110.167861
10
155.538875
20
-110.211533
10
155.393905
20
-110.240369
10
155.246095
20
-110.240369
10
155.101125
20
-110.211533
10
154.964567
20
-110.154969
10
154.841667
20
-110.072850
10
154.737150
20
-109.968333
10
154.655031
20
-109.845433
10
154.598467
20
-109.708875
10
154.569631
20
-109.563905
10
154.569631
20
-109.416095
10
154.598467
20
-109.271125
10
154.655031
20
-109.134567
10
154.737150
20
-109.011667
10
154.841667
20
-108.907150
10
154.964567
20
-108.825031
10
155.101125
20
-108.768467
10
155.246095
20
-108.739631
10
155.393905
20
-108.739631
10
155.538875
20
-108.768467
0
LWPOLYLINE
8
F.Cu
90
63
70
0
10
140.298875
20
-108.768467
10
140.435433
20
-108.825031
10
140.558333
20
-108.907150
10
140.662850
20
-109.011667
10
140.744969
20
-109.134567
10
140.801533
20
-109.271125
10
140.830369
20
-109.416095
10
140.830369
20
-109.563905
10
140.801533
20
-109.708875
10
140.744969
20
-109.845433
10
140.662850
20
-109.968333
10
140.558333
20
-110.072850
10
140.435433
20
-110.154969
10
140.298875
20
-110.211533
10
140.153905
20
-110.240369
10
140.006095
20
-110.240369
10
139.861125
20
-110.211533
10
139.724567
20
-110.154969
10
139.601667
20
-110.072850
10
139.518817
20
-109.990000
10
137.007106
20
-109.990000
10
131.436701
20
-115.560404
10
131.445907
20
-115.606685
10
131.445907
20
-115.773315
10
131.413399
20
-115.936742
10
131.349633
20
-116.090687
10
131.257059
20
-116.229234
10
131.139234
20
-116.347059
10
131.000687
20
-116.439633
10
130.846742
20
-116.503399
10
130.683315
20
-116.535907
10
130.516685
20
-116.535907
10
130.353258
20
-116.503399
10
130.199313
20
-116.439633
10
130.060766
20
-116.347059
10
129.942941
20
-116.229234
10
129.850367
20
-116.090687
10
129.786601
20
-115.936742
10
129.754093
20
-115.773315
10
129.754093
20
-115.606685
10
129.786601
20
-115.443258
10
129.850367
20
-115.289313
10
129.942941
20
-115.150766
10
130.060766
20
-115.032941
10
130.199313
20
-114.940367
10
130.353258
20
-114.876601
10
130.516685
20
-114.844093
10
130.683315
20
-114.844093
10
130.729595
20
-114.853298
10
136.446447
20
-109.136447
10
136.495610
20
-109.093331
10
136.495619
20
-109.093323
10
136.608658
20
-109.028060
10
136.734737
20
-108.994277
10
136.734752
20
-108.994277
10
136.800000
20
-108.990000
10
139.518817
20
-108.990000
10
139.601667
20
-108.907150
10
139.724567
20
-108.825031
10
139.861125
20
-108.768467
10
140.006095
20
-108.739631
10
140.153905
20
-108.739631
10
140.298875
20
-108.768467
0
LWPOLYLINE
8
F.Cu
90
99
70
0
10
140.298875
20
-111.308467
10
140.435433
20
-111.365031
10
140.558333
20
-111.447150
10
140.662850
20
-111.551667
10
140.744969
20
-111.674567
10
140.801533
20
-111.811125
10
140.830369
20
-111.956095
10
140.830369
20
-112.103905
10
140.801533
20
-112.248875
10
140.744969
20
-112.385433
10
140.662850
20
-112.508333
10
140.558333
20
-112.612850
10
140.435433
20
-112.694969
10
140.298875
20
-112.751533
10
140.153905
20
-112.780369
10
140.006095
20
-112.780369
10
139.861125
20
-112.751533
10
139.724567
20
-112.694969
10
139.601667
20
-112.612850
10
139.518817
20
-112.530000
10
137.007106
20
-112.530000
10
131.436701
20
-118.100404
10
131.445907
20
-118.146685
10
131.445907
20
-118.313315
10
131.413399
20
-118.476742
10
131.349633
20
-118.630687
10
131.257059
20
-118.769234
10
131.139234
20
-118.887059
10
131.000687
20
-118.979633
10
130.846742
20
-119.043399
10
130.683315
20
-119.075907
10
130.516685
20
-119.075907
10
130.470405
20
-119.066701
10
117.000000
20
-132.537106
10
117.000000
20
-138.191725
10
117.039234
20
-138.217941
10
117.157059
20
-138.335766
10
117.249633
20
-138.474313
10
117.313399
20
-138.628258
10
117.345907
20
-138.791685
10
117.350000
20
-138.875000
10
117.350000
20
-139.125000
10
117.345907
20
-139.208315
10
117.313399
20
-139.371742
10
117.249633
20
-139.525687
10
117.157059
20
-139.664234
10
117.039234
20
-139.782059
10
116.900687
20
-139.874633
10
116.746742
20
-139.938399
10
116.583315
20
-139.970907
10
116.416685
20
-139.970907
10
116.253258
20
-139.938399
10
116.099313
20
-139.874633
10
115.960766
20
-139.782059
10
115.842941
20
-139.664234
10
115.750367
20
-139.525687
10
115.686601
20
-139.371742
10
115.654093
20
-139.208315
10
115.650000
20
-139.125000
10
115.650000
20
-138.875000
10
115.654093
20
-138.791685
10
115.686601
20
-138.628258
10
115.750367
20
-138.474313
10
115.842941
20
-138.335766
10
115.960766
20
-138.217941
10
116.000000
20
-138.191725
10
116.000000
20
-132.330000
10
116.004277
20
-132.264752
10
116.004277
20
-132.264737
10
116.038060
20
-132.138658
10
116.103323
20
-132.025619
10
116.103338
20
-132.025603
10
116.146447
20
-131.976447
10
129.763298
20
-118.359594
10
129.754093
20
-118.313315
10
129.754093
20
-118.146685
10
129.786601
20
-117.983258
10
129.850367
20
-117.829313
10
129.942941
20
-117.690766
10
130.060766
20
-117.572941
10
130.199313
20
-117.480367
10
130.353258
20
-117.416601
10
130.516685
20
-117.384093
10
130.683315
20
-117.384093
10
130.729595
20
-117.393298
10
136.446447
20
-111.676447
10
136.495610
20
-111.633331
10
136.495619
20
-111.633323
10
136.608658
20
-111.568060
10
136.734737
20
-111.534277
10
136.734752
20
-111.534277
10
136.800000
20
-111.530000
10
139.518817
20
-111.530000
10
139.601667
20
-111.447150
10
139.724567
20
-111.365031
10
139.861125
20
-111.308467
10
140.006095
20
-111.279631
10
140.153905
20
-111.279631
10
140.298875
20
-111.308467
0
LWPOLYLINE
8
F.Cu
90
99
70
0
10
140.298875
20
-113.848467
10
140.435433
20
-113.905031
10
140.558333
20
-113.987150
10
140.662850
20
-114.091667
10
140.744969
20
-114.214567
10
140.801533
20
-114.351125
10
140.830369
20
-114.496095
10
140.830369
20
-114.643905
10
140.801533
20
-114.788875
10
140.744969
20
-114.925433
10
140.662850
20
-115.048333
10
140.558333
20
-115.152850
10
140.435433
20
-115.234969
10
140.298875
20
-115.291533
10
140.153905
20
-115.320369
10
140.006095
20
-115.320369
10
139.861125
20
-115.291533
10
139.724567
20
-115.234969
10
139.601667
20
-115.152850
10
139.518817
20
-115.070000
10
137.007106
20
-115.070000
10
131.436701
20
-120.640404
10
131.445907
20
-120.686685
10
131.445907
20
-120.853315
10
131.413399
20
-121.016742
10
131.349633
20
-121.170687
10
131.257059
20
-121.309234
10
131.139234
20
-121.427059
10
131.000687
20
-121.519633
10
130.846742
20
-121.583399
10
130.683315
20
-121.615907
10
130.516685
20
-121.615907
10
130.470405
20
-121.606701
10
119.500000
20
-132.577106
10
119.500000
20
-138.191725
10
119.539234
20
-138.217941
10
119.657059
20
-138.335766
10
119.749633
20
-138.474313
10
119.813399
20
-138.628258
10
119.845907
20
-138.791685
10
119.850000
20
-138.875000
10
119.850000
20
-139.125000
10
119.845907
20
-139.208315
10
119.813399
20
-139.371742
10
119.749633
20
-139.525687
10
119.657059
20
-139.664234
10
119.539234
20
-139.782059
10
119.400687
20
-139.874633
10
119.246742
20
-139.938399
10
119.083315
20
-139.970907
10
118.916685
20
-139.970907
10
118.753258
20
-139.938399
10
118.599313
20
-139.874633
10
118.460766
20
-139.782059
10
118.342941
20
-139.664234
10
118.250367
20
-139.525687
10
118.186601
20
-139.371742
10
118.154093
20
-139.208315
10
118.150000
20
-139.125000
10
118.150000
20
-138.875000
10
118.154093
20
-138.791685
10
118.186601
20
-138.628258
10
118.250367
20
-138.474313
10
118.342941
20
-138.335766
10
118.460766
20
-138.217941
10
118.500000
20
-138.191725
10
118.500000
20
-132.370000
10
118.504277
20
-132.304752
10
118.504277
20
-132.304737
10
118.538060
20
-132.178658
10
118.603323
20
-132.065619
10
118.603338
20
-132.065603
10
118.646447
20
-132.016447
10
129.763298
20
-120.899594
10
129.754093
20
-120.853315
10
129.754093
20
-120.686685
10
129.786601
20
-120.523258
10
129.850367
20
-120.369313
10
129.942941
20
-120.230766
10
130.060766
20
-120.112941
10
130.199313
20
-120.020367
10
130.353258
20
-119.956601
10
130.516685
20
-119.924093
10
130.683315
20
-119.924093
10
130.729595
20
-119.933298
10
136.446447
20
-114.216447
10
136.495610
20
-114.173331
10
136.495619
20
-114.173323
10
136.608658
20
-114.108060
10
136.734737
20
-114.074277
10
136.734752
20
-114.074277
10
136.800000
20
-114.070000
10
139.518817
20
-114.070000
10
139.601667
20
-113.987150
10
139.724567
20
-113.905031
10
139.861125
20
-113.848467
10
140.006095
20
-113.819631
10
140.153905
20
-113.819631
10
140.298875
20
-113.848467
0
LWPOLYLINE
8
F.Cu
90
63
70
0
10
140.298875
20
-116.388467
10
140.435433
20
-116.445031
10
140.558333
20
-116.527150
10
140.662850
20
-116.631667
10
140.744969
20
-116.754567
10
140.801533
20
-116.891125
10
140.830369
20
-117.036095
10
140.830369
20
-117.183905
10
140.801533
20
-117.328875
10
140.744969
20
-117.465433
10
140.662850
20
-117.588333
10
140.558333
20
-117.692850
10
140.435433
20
-117.774969
10
140.298875
20
-117.831533
10
140.153905
20
-117.860369
10
140.006095
20
-117.860369
10
139.861125
20
-117.831533
10
139.724567
20
-117.774969
10
139.601667
20
-117.692850
10
139.518817
20
-117.610000
10
137.007106
20
-117.610000
10
131.436701
20
-123.180404
10
131.445907
20
-123.226685
10
131.445907
20
-123.393315
10
131.413399
20
-123.556742
10
131.349633
20
-123.710687
10
131.257059
20
-123.849234
10
131.139234
20
-123.967059
10
131.000687
20
-124.059633
10
130.846742
20
-124.123399
10
130.683315
20
-124.155907
10
130.516685
20
-124.155907
10
130.353258
20
-124.123399
10
130.199313
20
-124.059633
10
130.060766
20
-123.967059
10
129.942941
20
-123.849234
10
129.850367
20
-123.710687
10
129.786601
20
-123.556742
10
129.754093
20
-123.393315
10
129.754093
20
-123.226685
10
129.786601
20
-123.063258
10
129.850367
20
-122.909313
10
129.942941
20
-122.770766
10
130.060766
20
-122.652941
10
130.199313
20
-122.560367
10
130.353258
20
-122.496601
10
130.516685
20
-122.464093
10
130.683315
20
-122.464093
10
130.729595
20
-122.473298
10
136.446447
20
-116.756447
10
136.495610
20
-116.713331
10
136.495619
20
-116.713323
10
136.608658
20
-116.648060
10
136.734737
20
-116.614277
10
136.734752
20
-116.614277
10
136.800000
20
-116.610000
10
139.518817
20
-116.610000
10
139.601667
20
-116.527150
10
139.724567
20
-116.445031
10
139.861125
20
-116.388467
10
140.006095
20
-116.359631
10
140.153905
20
-116.359631
10
140.298875
20
-116.388467
0
LWPOLYLINE
8
F.Cu
90
62
70
0
10
140.298875
20
-118.928467
10
140.435433
20
-118.985031
10
140.558333
20
-119.067150
10
140.662850
20
-119.171667
10
140.744969
20
-119.294567
10
140.801533
20
-119.431125
10
140.830369
20
-119.576095
10
140.830369
20
-119.723905
10
140.801533
20
-119.868875
10
140.744969
20
-120.005433
10
140.662850
20
-120.128333
10
140.558333
20
-120.232850
10
140.435433
20
-120.314969
10
140.298875
20
-120.371533
10
140.153905
20
-120.400369
10
140.036737
20
-120.400369
10
122.129199
20
-138.307906
10
122.157059
20
-138.335766
10
122.249633
20
-138.474313
10
122.313399
20
-138.628258
10
122.345907
20
-138.791685
10
122.350000
20
-138.875000
10
122.350000
20
-139.125000
10
122.345907
20
-139.208315
10
122.313399
20
-139.371742
10
122.249633
20
-139.525687
10
122.157059
20
-139.664234
10
122.039234
20
-139.782059
10
121.900687
20
-139.874633
10
121.746742
20
-139.938399
10
121.583315
20
-139.970907
10
121.416685
20
-139.970907
10
121.253258
20
-139.938399
10
121.099313
20
-139.874633
10
120.960766
20
-139.782059
10
120.842941
20
-139.664234
10
120.750367
20
-139.525687
10
120.686601
20
-139.371742
10
120.654093
20
-139.208315
10
120.650000
20
-139.125000
10
120.650000
20
-138.875000
10
120.654093
20
-138.791685
10
120.686601
20
-138.628258
10
120.750367
20
-138.474313
10
120.842941
20
-138.335766
10
120.960766
20
-138.217941
10
121.004277
20
-138.188867
10
121.004277
20
-138.164737
10
121.038060
20
-138.038658
10
121.103324
20
-137.925620
10
121.146447
20
-137.876447
10
139.329631
20
-119.693263
10
139.329631
20
-119.576095
10
139.358467
20
-119.431125
10
139.415031
20
-119.294567
10
139.497150
20
-119.171667
10
139.601667
20
-119.067150
10
139.724567
20
-118.985031
10
139.861125
20
-118.928467
10
140.006095
20
-118.899631
10
140.153905
20
-118.899631
10
140.298875
20
-118.928467
0
LWPOLYLINE
8
F.Cu
90
62
70
0
10
140.298875
20
-121.428467
10
140.435433
20
-121.485031
10
140.558333
20
-121.567150
10
140.662850
20
-121.671667
10
140.744969
20
-121.794567
10
140.801533
20
-121.931125
10
140.830369
20
-122.076095
10
140.830369
20
-122.223905
10
140.801533
20
-122.368875
10
140.744969
20
-122.505433
10
140.662850
20
-122.628333
10
140.558333
20
-122.732850
10
140.435433
20
-122.814969
10
140.298875
20
-122.871533
10
140.153905
20
-122.900369
10
140.036737
20
-122.900369
10
124.629199
20
-138.307906
10
124.657059
20
-138.335766
10
124.749633
20
-138.474313
10
124.813399
20
-138.628258
10
124.845907
20
-138.791685
10
124.850000
20
-138.875000
10
124.850000
20
-139.125000
10
124.845907
20
-139.208315
10
124.813399
20
-139.371742
10
124.749633
20
-139.525687
10
124.657059
20
-139.664234
10
124.539234
20
-139.782059
10
124.400687
20
-139.874633
10
124.246742
20
-139.938399
10
124.083315
20
-139.970907
10
123.916685
20
-139.970907
10
123.753258
20
-139.938399
10
123.599313
20
-139.874633
10
123.460766
20
-139.782059
10
123.342941
20
-139.664234
10
123.250367
20
-139.525687
10
123.186601
20
-139.371742
10
123.154093
20
-139.208315
10
123.150000
20
-139.125000
10
123.150000
20
-138.875000
10
123.154093
20
-138.791685
10
123.186601
20
-138.628258
10
123.250367
20
-138.474313
10
123.342941
20
-138.335766
10
123.460766
20
-138.217941
10
123.504277
20
-138.188867
10
123.504277
20
-138.164737
10
123.538060
20
-138.038658
10
123.603324
20
-137.925620
10
123.646447
20
-137.876447
10
139.329631
20
-122.193263
10
139.329631
20
-122.076095
10
139.358467
20
-121.931125
10
139.415031
20
-121.794567
10
139.497150
20
-121.671667
10
139.601667
20
-121.567150
10
139.724567
20
-121.485031
10
139.861125
20
-121.428467
10
140.006095
20
-121.399631
10
140.153905
20
-121.399631
10
140.298875
20
-121.428467
0
LWPOLYLINE
8
F.Cu
90
35
70
0
10
139.025000
20
-103.460000
10
138.663554
20
-103.460000
10
142.276777
20
-107.073224
10
142.307868
20
-107.111108
10
142.345197
20
-107.201228
10
142.345197
20
-107.201237
10
142.350000
20
-107.250000
10
142.350000
20
-110.457444
10
142.465257
20
-110.523988
10
142.576012
20
-110.634743
10
142.654328
20
-110.770390
10
142.694867
20
-110.921684
10
142.694867
20
-111.078316
10
142.654328
20
-111.229610
10
142.576012
20
-111.365257
10
142.465257
20
-111.476012
10
142.329610
20
-111.554328
10
142.178316
20
-111.594867
10
142.021684
20
-111.594867
10
141.870390
20
-111.554328
10
141.734743
20
-111.476012
10
141.623988
20
-111.365257
10
141.545672
20
-111.229610
10
141.505133
20
-111.078316
10
141.505133
20
-110.921684
10
141.545672
20
-110.770390
10
141.623988
20
-110.634743
10
141.734743
20
-110.523988
10
141.850000
20
-110.457444
10
141.850000
20
-107.353553
10
137.956446
20
-103.460000
10
136.675000
20
-103.460000
10
136.675000
20
-102.560000
10
139.025000
20
-102.560000
10
139.025000
20
-103.460000
0
LWPOLYLINE
8
F.Cu
90
41
70
0
10
139.025000
20
-99.530000
10
138.883554
20
-99.530000
10
143.476777
20
-104.123223
10
143.507868
20
-104.161108
10
143.529734
20
-104.213899
10
143.545196
20
-104.251227
10
143.550000
20
-104.300000
10
143.550000
20
-111.850000
10
143.545196
20
-111.898773
10
143.507867
20
-111.988893
10
143.507862
20
-111.988897
10
143.476777
20
-112.026777
10
142.660421
20
-112.843132
10
142.694867
20
-112.971684
10
142.694867
20
-113.128316
10
142.654328
20
-113.279610
10
142.576012
20
-113.415257
10
142.465257
20
-113.526012
10
142.329610
20
-113.604328
10
142.178316
20
-113.644867
10
142.021684
20
-113.644867
10
141.870390
20
-113.604328
10
141.734743
20
-113.526012
10
141.623988
20
-113.415257
10
141.545672
20
-113.279610
10
141.505133
20
-113.128316
10
141.505133
20
-112.971684
10
141.545672
20
-112.820390
10
141.623988
20
-112.684743
10
141.734743
20
-112.573988
10
141.870390
20
-112.495672
10
142.021684
20
-112.455133
10
142.178316
20
-112.455133
10
142.306867
20
-112.489578
10
143.050000
20
-111.746446
10
143.050000
20
-104.403554
10
138.176446
20
-99.530000
10
136.675000
20
-99.530000
10
136.675000
20
-98.630000
10
139.025000
20
-98.630000
10
139.025000
20
-99.530000
0
LWPOLYLINE
8
F.Cu
90
41
70
0
10
139.025000
20
-95.600000
10
138.653554
20
-95.600000
10
144.176776
20
-101.123223
10
144.207862
20
-101.161102
10
144.207867
20
-101.161107
10
144.245196
20
-101.251227
10
144.250000
20
-101.300000
10
144.250000
20
-113.100000
10
144.245197
20
-113.148762
10
144.245197
20
-113.148772
10
144.207868
20
-113.238892
10
144.176777
20
-113.276777
10
142.660421
20
-114.793132
10
142.694867
20
-114.921684
10
142.694867
20
-115.078316
10
142.654328
20
-115.229610
10
142.576012
20
-115.365257
10
142.465257
20
-115.476012
10
142.329610
20
-115.554328
10
142.178316
20
-115.594867
10
142.021684
20
-115.594867
10
141.870390
20
-115.554328
10
141.734743
20
-115.476012
10
141.623988
20
-115.365257
10
141.545672
20
-115.229610
10
141.505133
20
-115.078316
10
141.505133
20
-114.921684
10
141.545672
20
-114.770390
10
141.623988
20
-114.634743
10
141.734743
20
-114.523988
10
141.870390
20
-114.445672
10
142.021684
20
-114.405133
10
142.178316
20
-114.405133
10
142.306867
20
-114.439578
10
143.750000
20
-112.996446
10
143.750000
20
-101.403553
10
137.946446
20
-95.600000
10
136.675000
20
-95.600000
10
136.675000
20
-94.700000
10
139.025000
20
-94.700000
10
139.025000
20
-95.600000
0
LWPOLYLINE
8
F.Cu
90
41
70
0
10
139.025000
20
-91.670000
10
138.653554
20
-91.670000
10
145.176777
20
-98.193223
10
145.207862
20
-98.231102
10
145.207867
20
-98.231107
10
145.245196
20
-98.321227
10
145.250000
20
-98.370000
10
145.250000
20
-114.100000
10
145.245196
20
-114.148773
10
145.207867
20
-114.238893
10
145.207862
20
-114.238897
10
145.176776
20
-114.276777
10
142.660421
20
-116.793132
10
142.694867
20
-116.921684
10
142.694867
20
-117.078316
10
142.654328
20
-117.229610
10
142.576012
20
-117.365257
10
142.465257
20
-117.476012
10
142.329610
20
-117.554328
10
142.178316
20
-117.594867
10
142.021684
20
-117.594867
10
141.870390
20
-117.554328
10
141.734743
20
-117.476012
10
141.623988
20
-117.365257
10
141.545672
20
-117.229610
10
141.505133
20
-117.078316
10
141.505133
20
-116.921684
10
141.545672
20
-116.770390
10
141.623988
20
-116.634743
10
141.734743
20
-116.523988
10
141.870390
20
-116.445672
10
142.021684
20
-116.405133
10
142.178316
20
-116.405133
10
142.306867
20
-116.439578
10
144.750000
20
-113.996446
10
144.750000
20
-98.473554
10
137.946446
20
-91.670000
10
136.675000
20
-91.670000
10
136.675000
20
-90.770000
10
139.025000
20
-90.770000
10
139.025000
20
-91.670000
0
LWPOLYLINE
8
F.Cu
90
25
70
0
10
142.329610
20
-118.445672
10
142.465257
20
-118.523988
10
142.576012
20
-118.634743
10
142.654328
20
-118.770390
10
142.694867
20
-118.921684
10
142.694867
20
-119.078316
10
142.654328
20
-119.229610
10
142.576012
20
-119.365257
10
142.465257
20
-119.476012
10
142.329610
20
-119.554328
10
142.178316
20
-119.594867
10
142.021684
20
-119.594867
10
141.870390
20
-119.554328
10
141.734743
20
-119.476012
10
141.623988
20
-119.365257
10
141.545672
20
-119.229610
10
141.505133
20
-119.078316
10
141.505133
20
-118.921684
10
141.545672
20
-118.770390
10
141.623988
20
-118.634743
10
141.734743
20
-118.523988
10
141.870390
20
-118.445672
10
142.021684
20
-118.405133
10
142.178316
20
-118.405133
10
142.329610
20
-118.445672
0
LWPOLYLINE
8
F.Cu
90
25
70
0
10
142.329610
20
-120.695672
10
142.465257
20
-120.773988
10
142.576012
20
-120.884743
10
142.654328
20
-121.020390
10
142.694867
20
-121.171684
10
142.694867
20
-121.328316
10
142.654328
20
-121.479610
10
142.576012
20
-121.615257
10
142.465257
20
-121.726012
10
142.329610
20
-121.804328
10
142.178316
20
-121.844867
10
142.021684
20
-121.844867
10
141.870390
20
-121.804328
10
141.734743
20
-121.726012
10
141.623988
20
-121.615257
10
141.545672
20
-121.479610
10
141.505133
20
-121.328316
10
141.505133
20
-121.171684
10
141.545672
20
-121.020390
10
141.623988
20
-120.884743
10
141.734743
20
-120.773988
10
141.870390
20
-120.695672
10
142.021684
20
-120.655133
10
142.178316
20
-120.655133
10
142.329610
20
-120.695672
0
LWPOLYLINE
8
F.Cu
90
58
70
0
10
142.329610
20
-122.745672
10
142.465257
20
-122.823988
10
142.576012
20
-122.934743
10
142.654328
20
-123.070390
10
142.694867
20
-123.221684
10
142.694867
20
-123.378316
10
142.654328
20
-123.529610
10
142.576012
20
-123.665257
10
142.465257
20
-123.776012
10
142.329610
20
-123.854328
10
142.178316
20
-123.894867
10
142.021684
20
-123.894867
10
141.870390
20
-123.854328
10
141.734743
20
-123.776012
10
141.623988
20
-123.665257
10
141.545672
20
-123.529610
10
141.510943
20
-123.400000
10
140.060839
20
-123.400000
10
126.600000
20
-136.860839
10
126.600000
20
-138.025000
10
127.100000
20
-138.025000
10
127.195671
20
-138.044030
10
127.276777
20
-138.098223
10
127.330970
20
-138.179329
10
127.350000
20
-138.275000
10
127.350000
20
-139.725000
10
127.330970
20
-139.820671
10
127.276777
20
-139.901777
10
127.195671
20
-139.955970
10
127.100000
20
-139.975000
10
125.900000
20
-139.975000
10
125.804329
20
-139.955970
10
125.723223
20
-139.901777
10
125.669030
20
-139.820671
10
125.650000
20
-139.725000
10
125.650000
20
-138.275000
10
125.669030
20
-138.179329
10
125.723223
20
-138.098223
10
125.804329
20
-138.044030
10
125.900000
20
-138.025000
10
126.400000
20
-138.025000
10
126.400000
20
-136.819418
10
126.401921
20
-136.799909
10
126.416853
20
-136.763861
10
126.429289
20
-136.748707
10
139.948707
20
-123.229290
10
139.963860
20
-123.216853
10
139.974418
20
-123.212479
10
139.999909
20
-123.201921
10
140.019418
20
-123.200000
10
141.510943
20
-123.200000
10
141.545672
20
-123.070390
10
141.623988
20
-122.934743
10
141.734743
20
-122.823988
10
141.870390
20
-122.745672
10
142.021684
20
-122.705133
10
142.178316
20
-122.705133
10
142.329610
20
-122.745672
0
LWPOLYLINE
8
F.Cu
90
59
70
0
10
142.329610
20
-124.745672
10
142.465257
20
-124.823988
10
142.576012
20
-124.934743
10
142.654328
20
-125.070390
10
142.694867
20
-125.221684
10
142.694867
20
-125.378316
10
142.660421
20
-125.506867
10
144.676777
20
-127.523224
10
144.707868
20
-127.561108
10
144.745197
20
-127.651228
10
144.745197
20
-127.651237
10
144.750000
20
-127.700000
10
144.750000
20
-136.687950
10
144.900687
20
-136.750367
10
145.039234
20
-136.842941
10
145.157059
20
-136.960766
10
145.249633
20
-137.099313
10
145.313399
20
-137.253258
10
145.345907
20
-137.416685
10
145.345907
20
-137.583315
10
145.313399
20
-137.746742
10
145.249633
20
-137.900687
10
145.157059
20
-138.039234
10
145.039234
20
-138.157059
10
144.900687
20
-138.249633
10
144.746742
20
-138.313399
10
144.583315
20
-138.345907
10
144.416685
20
-138.345907
10
144.253258
20
-138.313399
10
144.099313
20
-138.249633
10
143.960766
20
-138.157059
10
143.842941
20
-138.039234
10
143.750367
20
-137.900687
10
143.686601
20
-137.746742
10
143.654093
20
-137.583315
10
143.654093
20
-137.416685
10
143.686601
20
-137.253258
10
143.750367
20
-137.099313
10
143.842941
20
-136.960766
10
143.960766
20
-136.842941
10
144.099313
20
-136.750367
10
144.250000
20
-136.687950
10
144.250000
20
-127.803553
10
142.306867
20
-125.860421
10
142.178316
20
-125.894867
10
142.021684
20
-125.894867
10
141.870390
20
-125.854328
10
141.734743
20
-125.776012
10
141.623988
20
-125.665257
10
141.545672
20
-125.529610
10
141.505133
20
-125.378316
10
141.505133
20
-125.221684
10
141.545672
20
-125.070390
10
141.623988
20
-124.934743
10
141.734743
20
-124.823988
10
141.870390
20
-124.745672
10
142.021684
20
-124.705133
10
142.178316
20
-124.705133
10
142.329610
20
-124.745672
0
LWPOLYLINE
8
F.Cu
90
41
70
0
10
139.025000
20
-87.740000
10
138.663554
20
-87.740000
10
146.176777
20
-95.253224
10
146.207868
20
-95.291108
10
146.245197
20
-95.381228
10
146.245197
20
-95.381237
10
146.250000
20
-95.430000
10
146.250000
20
-117.600000
10
146.245196
20
-117.648773
10
146.207867
20
-117.738893
10
146.207862
20
-117.738897
10
146.176777
20
-117.776777
10
145.160421
20
-118.793132
10
145.194867
20
-118.921684
10
145.194867
20
-119.078316
10
145.154328
20
-119.229610
10
145.076012
20
-119.365257
10
144.965257
20
-119.476012
10
144.829610
20
-119.554328
10
144.678316
20
-119.594867
10
144.521684
20
-119.594867
10
144.370390
20
-119.554328
10
144.234743
20
-119.476012
10
144.123988
20
-119.365257
10
144.045672
20
-119.229610
10
144.005133
20
-119.078316
10
144.005133
20
-118.921684
10
144.045672
20
-118.770390
10
144.123988
20
-118.634743
10
144.234743
20
-118.523988
10
144.370390
20
-118.445672
10
144.521684
20
-118.405133
10
144.678316
20
-118.405133
10
144.806867
20
-118.439578
10
145.750000
20
-117.496446
10
145.750000
20
-95.533553
10
137.956446
20
-87.740000
10
136.675000
20
-87.740000
10
136.675000
20
-86.840000
10
139.025000
20
-86.840000
10
139.025000
20
-87.740000
0
LWPOLYLINE
8
F.Cu
90
41
70
0
10
139.025000
20
-83.810000
10
138.663554
20
-83.810000
10
147.176777
20
-92.323223
10
147.207862
20
-92.361102
10
147.207867
20
-92.361107
10
147.245196
20
-92.451227
10
147.250000
20
-92.500000
10
147.250000
20
-118.850000
10
147.245197
20
-118.898762
10
147.245197
20
-118.898772
10
147.207868
20
-118.988892
10
147.176777
20
-119.026776
10
145.160421
20
-121.043132
10
145.194867
20
-121.171684
10
145.194867
20
-121.328316
10
145.154328
20
-121.479610
10
145.076012
20
-121.615257
10
144.965257
20
-121.726012
10
144.829610
20
-121.804328
10
144.678316
20
-121.844867
10
144.521684
20
-121.844867
10
144.370390
20
-121.804328
10
144.234743
20
-121.726012
10
144.123988
20
-121.615257
10
144.045672
20
-121.479610
10
144.005133
20
-121.328316
10
144.005133
20
-121.171684
10
144.045672
20
-121.020390
10
144.123988
20
-120.884743
10
144.234743
20
-120.773988
10
144.370390
20
-120.695672
10
144.521684
20
-120.655133
10
144.678316
20
-120.655133
10
144.806867
20
-120.689578
10
146.750000
20
-118.746446
10
146.750000
20
-92.603554
10
137.956446
20
-83.810000
10
136.675000
20
-83.810000
10
136.675000
20
-82.910000
10
139.025000
20
-82.910000
10
139.025000
20
-83.810000
0
LWPOLYLINE
8
F.Cu
90
65
70
0
10
144.829610
20
-122.795672
10
144.965257
20
-122.873988
10
145.076012
20
-122.984743
10
145.154328
20
-123.120390
10
145.194867
20
-123.271684
10
145.194867
20
-123.428316
10
145.160421
20
-123.556867
10
148.176777
20
-126.573223
10
148.207862
20
-126.611102
10
148.207867
20
-126.611107
10
148.245196
20
-126.701227
10
148.250000
20
-126.750000
10
148.250000
20
-133.276446
10
151.722571
20
-136.749017
10
151.873258
20
-136.686601
10
152.036685
20
-136.654093
10
152.203315
20
-136.654093
10
152.366742
20
-136.686601
10
152.520687
20
-136.750367
10
152.659234
20
-136.842941
10
152.777059
20
-136.960766
10
152.869633
20
-137.099313
10
152.933399
20
-137.253258
10
152.965907
20
-137.416685
10
152.965907
20
-137.583315
10
152.933399
20
-137.746742
10
152.869633
20
-137.900687
10
152.777059
20
-138.039234
10
152.659234
20
-138.157059
10
152.520687
20
-138.249633
10
152.366742
20
-138.313399
10
152.203315
20
-138.345907
10
152.036685
20
-138.345907
10
151.873258
20
-138.313399
10
151.719313
20
-138.249633
10
151.580766
20
-138.157059
10
151.462941
20
-138.039234
10
151.370367
20
-137.900687
10
151.306601
20
-137.746742
10
151.274093
20
-137.583315
10
151.274093
20
-137.416685
10
151.306601
20
-137.253258
10
151.369017
20
-137.102571
10
147.823223
20
-133.556777
10
147.792137
20
-133.518897
10
147.792133
20
-133.518893
10
147.754804
20
-133.428773
10
147.750000
20
-133.380000
10
147.750000
20
-126.853554
10
144.806867
20
-123.910421
10
144.678316
20
-123.944867
10
144.521684
20
-123.944867
10
144.370390
20
-123.904328
10
144.234743
20
-123.826012
10
144.123988
20
-123.715257
10
144.045672
20
-123.579610
10
144.005133
20
-123.428316
10
144.005133
20
-123.271684
10
144.045672
20
-123.120390
10
144.123988
20
-122.984743
10
144.234743
20
-122.873988
10
144.370390
20
-122.795672
10
144.521684
20
-122.755133
10
144.678316
20
-122.755133
10
144.829610
20
-122.795672
0
LWPOLYLINE
8
F.Cu
90
64
70
0
10
144.829610
20
-124.745672
10
144.965257
20
-124.823988
10
145.076012
20
-124.934743
10
145.154328
20
-125.070390
10
145.194867
20
-125.221684
10
145.194867
20
-125.378316
10
145.160421
20
-125.506867
10
147.176777
20
-127.523224
10
147.207868
20
-127.561108
10
147.245197
20
-127.651228
10
147.245197
20
-127.651237
10
147.250000
20
-127.700000
10
147.250000
20
-137.540000
10
147.245196
20
-137.588772
10
147.207868
20
-137.678892
10
147.176777
20
-137.716777
10
145.250982
20
-139.642571
10
145.313399
20
-139.793258
10
145.345907
20
-139.956685
10
145.345907
20
-140.123315
10
145.313399
20
-140.286742
10
145.249633
20
-140.440687
10
145.157059
20
-140.579234
10
145.039234
20
-140.697059
10
144.900687
20
-140.789633
10
144.746742
20
-140.853399
10
144.583315
20
-140.885907
10
144.416685
20
-140.885907
10
144.253258
20
-140.853399
10
144.099313
20
-140.789633
10
143.960766
20
-140.697059
10
143.842941
20
-140.579234
10
143.750367
20
-140.440687
10
143.686601
20
-140.286742
10
143.654093
20
-140.123315
10
143.654093
20
-139.956685
10
143.686601
20
-139.793258
10
143.750367
20
-139.639313
10
143.842941
20
-139.500766
10
143.960766
20
-139.382941
10
144.099313
20
-139.290367
10
144.253258
20
-139.226601
10
144.416685
20
-139.194093
10
144.583315
20
-139.194093
10
144.746742
20
-139.226601
10
144.897428
20
-139.289017
10
146.750000
20
-137.436446
10
146.750000
20
-127.803553
10
144.806867
20
-125.860421
10
144.678316
20
-125.894867
10
144.521684
20
-125.894867
10
144.370390
20
-125.854328
10
144.234743
20
-125.776012
10
144.123988
20
-125.665257
10
144.045672
20
-125.529610
10
144.005133
20
-125.378316
10
144.005133
20
-125.221684
10
144.045672
20
-125.070390
10
144.123988
20
-124.934743
10
144.234743
20
-124.823988
10
144.370390
20
-124.745672
10
144.521684
20
-124.705133
10
144.678316
20
-124.705133
10
144.829610
20
-124.745672
0
LWPOLYLINE
8
F.Cu
90
44
70
0
10
158.675000
20
-87.740000
10
157.403554
20
-87.740000
10
152.750000
20
-92.393554
10
152.750000
20
-109.896446
10
153.293131
20
-110.439578
10
153.421684
20
-110.405133
10
153.578316
20
-110.405133
10
153.729610
20
-110.445672
10
153.865257
20
-110.523988
10
153.976012
20
-110.634743
10
154.054328
20
-110.770390
10
154.094867
20
-110.921684
10
154.094867
20
-111.078316
10
154.054328
20
-111.229610
10
153.976012
20
-111.365257
10
153.865257
20
-111.476012
10
153.729610
20
-111.554328
10
153.578316
20
-111.594867
10
153.421684
20
-111.594867
10
153.270390
20
-111.554328
10
153.134743
20
-111.476012
10
153.023988
20
-111.365257
10
152.945672
20
-111.229610
10
152.905133
20
-111.078316
10
152.905133
20
-110.921684
10
152.939578
20
-110.793131
10
152.323223
20
-110.176777
10
152.292137
20
-110.138897
10
152.292133
20
-110.138893
10
152.254804
20
-110.048773
10
152.250000
20
-110.000000
10
152.250000
20
-92.486759
10
152.242133
20
-92.478892
10
152.204804
20
-92.388772
10
152.204804
20
-92.291228
10
152.242133
20
-92.201108
10
152.273223
20
-92.163223
10
152.323218
20
-92.113228
10
152.323223
20
-92.113223
10
156.696446
20
-87.740000
10
156.325000
20
-87.740000
10
156.325000
20
-86.840000
10
158.675000
20
-86.840000
10
158.675000
20
-87.740000
0
LWPOLYLINE
8
F.Cu
90
41
70
0
10
139.025000
20
-79.880000
10
138.733554
20
-79.880000
10
148.176777
20
-89.323224
10
148.207868
20
-89.361108
10
148.245197
20
-89.451228
10
148.245197
20
-89.451237
10
148.250000
20
-89.500000
10
148.250000
20
-107.396446
10
153.293131
20
-112.439578
10
153.421684
20
-112.405133
10
153.578316
20
-112.405133
10
153.729610
20
-112.445672
10
153.865257
20
-112.523988
10
153.976012
20
-112.634743
10
154.054328
20
-112.770390
10
154.094867
20
-112.921684
10
154.094867
20
-113.078316
10
154.054328
20
-113.229610
10
153.976012
20
-113.365257
10
153.865257
20
-113.476012
10
153.729610
20
-113.554328
10
153.578316
20
-113.594867
10
153.421684
20
-113.594867
10
153.270390
20
-113.554328
10
153.134743
20
-113.476012
10
153.023988
20
-113.365257
10
152.945672
20
-113.229610
10
152.905133
20
-113.078316
10
152.905133
20
-112.921684
10
152.939578
20
-112.793131
10
147.823223
20
-107.676777
10
147.792137
20
-107.638897
10
147.792133
20
-107.638893
10
147.754804
20
-107.548773
10
147.750000
20
-107.500000
10
147.750000
20
-89.603553
10
138.026446
20
-79.880000
10
136.675000
20
-79.880000
10
136.675000
20
-78.980000
10
139.025000
20
-78.980000
10
139.025000
20
-79.880000
0
LWPOLYLINE
8
F.Cu
90
114
70
0
10
153.729610
20
-114.495672
10
153.865257
20
-114.573988
10
153.976012
20
-114.684743
10
154.054328
20
-114.820390
10
154.094867
20
-114.971684
10
154.094867
20
-115.128316
10
154.054328
20
-115.279610
10
153.976012
20
-115.415257
10
153.865257
20
-115.526012
10
153.729610
20
-115.604328
10
153.624655
20
-115.632450
10
149.500000
20
-119.757106
10
149.500000
20
-130.792894
10
156.353553
20
-137.646447
10
156.396661
20
-137.695603
10
156.396677
20
-137.695619
10
156.461940
20
-137.808658
10
156.495723
20
-137.934737
10
156.495723
20
-137.934752
10
156.500000
20
-138.000000
10
156.500000
20
-144.000000
10
156.495723
20
-144.065247
10
156.495723
20
-144.065263
10
156.461940
20
-144.191342
10
156.396677
20
-144.304381
10
156.396668
20
-144.304389
10
156.353553
20
-144.353553
10
154.353553
20
-146.353553
10
154.304396
20
-146.396661
10
154.304381
20
-146.396677
10
154.191342
20
-146.461940
10
154.065263
20
-146.495723
10
154.065248
20
-146.495723
10
154.000000
20
-146.500000
10
132.500000
20
-146.500000
10
132.434752
20
-146.495723
10
132.434737
20
-146.495723
10
132.308658
20
-146.461940
10
132.195619
20
-146.396677
10
132.195610
20
-146.396668
10
132.146447
20
-146.353553
10
130.146447
20
-144.353553
10
130.103338
20
-144.304396
10
130.103323
20
-144.304381
10
130.038060
20
-144.191342
10
130.004277
20
-144.065263
10
130.004277
20
-144.065247
10
130.000000
20
-144.000000
10
130.000000
20
-140.500000
10
130.004277
20
-140.434752
10
130.004277
20
-140.434737
10
130.038060
20
-140.308658
10
130.103323
20
-140.195619
10
130.103338
20
-140.195603
10
130.146447
20
-140.146447
10
132.059037
20
-138.233856
10
132.029093
20
-138.083315
10
132.029093
20
-137.916685
10
132.061601
20
-137.753258
10
132.125367
20
-137.599313
10
132.217941
20
-137.460766
10
132.335766
20
-137.342941
10
132.474313
20
-137.250367
10
132.628258
20
-137.186601
10
132.791685
20
-137.154093
10
132.875000
20
-137.150000
10
133.125000
20
-137.150000
10
133.208315
20
-137.154093
10
133.371742
20
-137.186601
10
133.525687
20
-137.250367
10
133.664234
20
-137.342941
10
133.782059
20
-137.460766
10
133.874633
20
-137.599313
10
133.938399
20
-137.753258
10
133.970907
20
-137.916685
10
133.970907
20
-138.083315
10
133.938399
20
-138.246742
10
133.874633
20
-138.400687
10
133.782059
20
-138.539234
10
133.664234
20
-138.657059
10
133.525687
20
-138.749633
10
133.371742
20
-138.813399
10
133.208315
20
-138.845907
10
133.125000
20
-138.850000
10
132.875000
20
-138.850000
10
132.857943
20
-138.849162
10
131.000000
20
-140.707106
10
131.000000
20
-143.792894
10
132.707106
20
-145.500000
10
153.792894
20
-145.500000
10
155.500000
20
-143.792894
10
155.500000
20
-138.207106
10
148.646447
20
-131.353553
10
148.603338
20
-131.304396
10
148.603323
20
-131.304381
10
148.538060
20
-131.191342
10
148.504277
20
-131.065263
10
148.504277
20
-131.065247
10
148.500000
20
-131.000000
10
148.500000
20
-119.550000
10
148.504277
20
-119.484752
10
148.504277
20
-119.484737
10
148.538060
20
-119.358658
10
148.603323
20
-119.245619
10
148.603338
20
-119.245603
10
148.646447
20
-119.196447
10
152.917549
20
-114.925344
10
152.945672
20
-114.820390
10
153.023988
20
-114.684743
10
153.134743
20
-114.573988
10
153.270390
20
-114.495672
10
153.421684
20
-114.455133
10
153.578316
20
-114.455133
10
153.729610
20
-114.495672
0
LWPOLYLINE
8
F.Cu
90
25
70
0
10
153.679610
20
-118.445672
10
153.815257
20
-118.523988
10
153.926012
20
-118.634743
10
154.004328
20
-118.770390
10
154.044867
20
-118.921684
10
154.044867
20
-119.078316
10
154.004328
20
-119.229610
10
153.926012
20
-119.365257
10
153.815257
20
-119.476012
10
153.679610
20
-119.554328
10
153.528316
20
-119.594867
10
153.371684
20
-119.594867
10
153.220390
20
-119.554328
10
153.084743
20
-119.476012
10
152.973988
20
-119.365257
10
152.895672
20
-119.229610
10
152.855133
20
-119.078316
10
152.855133
20
-118.921684
10
152.895672
20
-118.770390
10
152.973988
20
-118.634743
10
153.084743
20
-118.523988
10
153.220390
20
-118.445672
10
153.371684
20
-118.405133
10
153.528316
20
-118.405133
10
153.679610
20
-118.445672
0
LWPOLYLINE
8
F.Cu
90
25
70
0
10
153.579610
20
-120.695672
10
153.715257
20
-120.773988
10
153.826012
20
-120.884743
10
153.904328
20
-121.020390
10
153.944867
20
-121.171684
10
153.944867
20
-121.328316
10
153.904328
20
-121.479610
10
153.826012
20
-121.615257
10
153.715257
20
-121.726012
10
153.579610
20
-121.804328
10
153.428316
20
-121.844867
10
153.271684
20
-121.844867
10
153.120390
20
-121.804328
10
152.984743
20
-121.726012
10
152.873988
20
-121.615257
10
152.795672
20
-121.479610
10
152.755133
20
-121.328316
10
152.755133
20
-121.171684
10
152.795672
20
-121.020390
10
152.873988
20
-120.884743
10
152.984743
20
-120.773988
10
153.120390
20
-120.695672
10
153.271684
20
-120.655133
10
153.428316
20
-120.655133
10
153.579610
20
-120.695672
0
LWPOLYLINE
8
F.Cu
90
25
70
0
10
153.519610
20
-124.695672
10
153.655257
20
-124.773988
10
153.766012
20
-124.884743
10
153.844328
20
-125.020390
10
153.884867
20
-125.171684
10
153.884867
20
-125.328316
10
153.844328
20
-125.479610
10
153.766012
20
-125.615257
10
153.655257
20
-125.726012
10
153.519610
20
-125.804328
10
153.368316
20
-125.844867
10
153.211684
20
-125.844867
10
153.060390
20
-125.804328
10
152.924743
20
-125.726012
10
152.813988
20
-125.615257
10
152.735672
20
-125.479610
10
152.695133
20
-125.328316
10
152.695133
20
-125.171684
10
152.735672
20
-125.020390
10
152.813988
20
-124.884743
10
152.924743
20
-124.773988
10
153.060390
20
-124.695672
10
153.211684
20
-124.655133
10
153.368316
20
-124.655133
10
153.519610
20
-124.695672
0
LWPOLYLINE
8
F.Cu
90
33
70
0
10
155.538875
20
-126.548467
10
155.675433
20
-126.605031
10
155.798333
20
-126.687150
10
155.902850
20
-126.791667
10
155.984969
20
-126.914567
10
156.041533
20
-127.051125
10
156.070369
20
-127.196095
10
156.070369
20
-127.343905
10
156.041533
20
-127.488875
10
155.984969
20
-127.625433
10
155.902850
20
-127.748333
10
155.798333
20
-127.852850
10
155.675433
20
-127.934969
10
155.538875
20
-127.991533
10
155.393905
20
-128.020369
10
155.246095
20
-128.020369
10
155.101125
20
-127.991533
10
154.964567
20
-127.934969
10
154.841667
20
-127.852850
10
154.737150
20
-127.748333
10
154.655031
20
-127.625433
10
154.598467
20
-127.488875
10
154.569631
20
-127.343905
10
154.569631
20
-127.196095
10
154.598467
20
-127.051125
10
154.655031
20
-126.914567
10
154.737150
20
-126.791667
10
154.841667
20
-126.687150
10
154.964567
20
-126.605031
10
155.101125
20
-126.548467
10
155.246095
20
-126.519631
10
155.393905
20
-126.519631
10
155.538875
20
-126.548467
0
LWPOLYLINE
8
F.Cu
90
33
70
0
10
155.538875
20
-129.088467
10
155.675433
20
-129.145031
10
155.798333
20
-129.227150
10
155.902850
20
-129.331667
10
155.984969
20
-129.454567
10
156.041533
20
-129.591125
10
156.070369
20
-129.736095
10
156.070369
20
-129.883905
10
156.041533
20
-130.028875
10
155.984969
20
-130.165433
10
155.902850
20
-130.288333
10
155.798333
20
-130.392850
10
155.675433
20
-130.474969
10
155.538875
20
-130.531533
10
155.393905
20
-130.560369
10
155.246095
20
-130.560369
10
155.101125
20
-130.531533
10
154.964567
20
-130.474969
10
154.841667
20
-130.392850
10
154.737150
20
-130.288333
10
154.655031
20
-130.165433
10
154.598467
20
-130.028875
10
154.569631
20
-129.883905
10
154.569631
20
-129.736095
10
154.598467
20
-129.591125
10
154.655031
20
-129.454567
10
154.737150
20
-129.331667
10
154.841667
20
-129.227150
10
154.964567
20
-129.145031
10
155.101125
20
-129.088467
10
155.246095
20
-129.059631
10
155.393905
20
-129.059631
10
155.538875
20
-129.088467
0
LWPOLYLINE
8
F.Cu
90
33
70
0
10
168.706742
20
-112.686601
10
168.860687
20
-112.750367
10
168.999234
20
-112.842941
10
169.117059
20
-112.960766
10
169.209633
20
-113.099313
10
169.273399
20
-113.253258
10
169.305907
20
-113.416685
10
169.305907
20
-113.583315
10
169.273399
20
-113.746742
10
169.209633
20
-113.900687
10
169.117059
20
-114.039234
10
168.999234
20
-114.157059
10
168.860687
20
-114.249633
10
168.706742
20
-114.313399
10
168.543315
20
-114.345907
10
168.376685
20
-114.345907
10
168.213258
20
-114.313399
10
168.059313
20
-114.249633
10
167.920766
20
-114.157059
10
167.802941
20
-114.039234
10
167.710367
20
-113.900687
10
167.646601
20
-113.746742
10
167.614093
20
-113.583315
10
167.614093
20
-113.416685
10
167.646601
20
-113.253258
10
167.710367
20
-113.099313
10
167.802941
20
-112.960766
10
167.920766
20
-112.842941
10
168.059313
20
-112.750367
10
168.213258
20
-112.686601
10
168.376685
20
-112.654093
10
168.543315
20
-112.654093
10
168.706742
20
-112.686601
0
LWPOLYLINE
8
F.Cu
90
33
70
0
10
171.246742
20
-112.686601
10
171.400687
20
-112.750367
10
171.539234
20
-112.842941
10
171.657059
20
-112.960766
10
171.749633
20
-113.099313
10
171.813399
20
-113.253258
10
171.845907
20
-113.416685
10
171.845907
20
-113.583315
10
171.813399
20
-113.746742
10
171.749633
20
-113.900687
10
171.657059
20
-114.039234
10
171.539234
20
-114.157059
10
171.400687
20
-114.249633
10
171.246742
20
-114.313399
10
171.083315
20
-114.345907
10
170.916685
20
-114.345907
10
170.753258
20
-114.313399
10
170.599313
20
-114.249633
10
170.460766
20
-114.157059
10
170.342941
20
-114.039234
10
170.250367
20
-113.900687
10
170.186601
20
-113.746742
10
170.154093
20
-113.583315
10
170.154093
20
-113.416685
10
170.186601
20
-113.253258
10
170.250367
20
-113.099313
10
170.342941
20
-112.960766
10
170.460766
20
-112.842941
10
170.599313
20
-112.750367
10
170.753258
20
-112.686601
10
170.916685
20
-112.654093
10
171.083315
20
-112.654093
10
171.246742
20
-112.686601
0
LWPOLYLINE
8
F.Cu
90
5
70
0
10
139.025000
20
-72.020000
10
136.675000
20
-72.020000
10
136.675000
20
-71.120000
10
139.025000
20
-71.120000
10
139.025000
20
-72.020000
0
LWPOLYLINE
8
F.Cu
90
5
70
0
10
158.675000
20
-72.020000
10
156.325000
20
-72.020000
10
156.325000
20
-71.120000
10
158.675000
20
-71.120000
10
158.675000
20
-72.020000
0
LWPOLYLINE
8
F.Cu
90
33
70
0
10
162.746742
20
-125.226601
10
162.900687
20
-125.290367
10
163.039234
20
-125.382941
10
163.157059
20
-125.500766
10
163.249633
20
-125.639313
10
163.313399
20
-125.793258
10
163.345907
20
-125.956685
10
163.345907
20
-126.123315
10
163.313399
20
-126.286742
10
163.249633
20
-126.440687
10
163.157059
20
-126.579234
10
163.039234
20
-126.697059
10
162.900687
20
-126.789633
10
162.746742
20
-126.853399
10
162.583315
20
-126.885907
10
162.416685
20
-126.885907
10
162.253258
20
-126.853399
10
162.099313
20
-126.789633
10
161.960766
20
-126.697059
10
161.842941
20
-126.579234
10
161.750367
20
-126.440687
10
161.686601
20
-126.286742
10
161.654093
20
-126.123315
10
161.654093
20
-125.956685
10
161.686601
20
-125.793258
10
161.750367
20
-125.639313
10
161.842941
20
-125.500766
10
161.960766
20
-125.382941
10
162.099313
20
-125.290367
10
162.253258
20
-125.226601
10
162.416685
20
-125.194093
10
162.583315
20
-125.194093
10
162.746742
20
-125.226601
0
ENDSEC
0
EOF
