  0
SECTION
  2
HEADER
  9
$ACADVER
  1
AC1018
  9
$HANDSEED
  5
FFFFFFFF
  9
$ANGBASE
  50
0.0
  9
$ANGDIR
  70
1
  9
$MEASUREMENT
  70
1
  9
$INSUNITS
  70
4
  0
ENDSEC
  0
SECTION
  2
TABLES
  0
TABLE
  2
APPID
  5
1
330
0
100
AcDbSymbolTable
 70
1
  0
APPID
  5
2
330
1
100
AcDbSymbolTableRecord
100
AcDbRegAppTableRecord
  2
ACAD
 70
0
  0
ENDTAB
  0
TABLE
  2
LTYPE
  5
3
330
0
100
AcDbSymbolTable
 70
6
  0
LTYPE
  5
4
330
3
100
AcDbSymbolTableRecord
100
AcDbLinetypeTableRecord
  2
ByBlock
 70
0
  3

 72
65
 73
0
 40
0
  0
LTYPE
  5
5
330
3
100
AcDbSymbolTableRecord
100
AcDbLinetypeTableRecord
  2
ByLayer
 70
0
  3

 72
65
 73
0
 40
0
  0
LTYPE
  5
6
330
3
100
AcDbSymbolTableRecord
100
AcDbLinetypeTableRecord
  2
CONTINUOUS
 70
0
  3
Solid line
 72
65
 73
0
 40
0
  0
LTYPE
  5
7
330
3
100
AcDbSymbolTableRecord
100
AcDbLinetypeTableRecord
  2
DASHDOT
 70
0
  3
Dash Dot ____ _ ____ _
 72
65
 73
4
 40
2
 49
1.25
 74
0
 49
-0.25
 74
0
 49
0.25
 74
0
 49
-0.25
 74
0
  0
LTYPE
  5
8
330
3
100
AcDbSymbolTableRecord
100
AcDbLinetypeTableRecord
  2
DASHED
 70
0
  3
Dashed __ __ __ __ __
 72
65
 73
2
 40
0.75
 49
0.5
 74
0
 49
-0.25
 74
0
  0
LTYPE
  5
9
330
3
100
AcDbSymbolTableRecord
100
AcDbLinetypeTableRecord
  2
DOTTED
 70
0
  3
Dotted .  .  .  .
 72
65
 73
2
 40
0.2
 49
0.0
 74
0
 49
-0.2
 74
0
  0
ENDTAB
  0
TABLE
  2
STYLE
  5
A
330
0
100
AcDbSymbolTable
 70
4
  0
STYLE
  5
B
330
A
100
AcDbSymbolTableRecord
100
AcDbTextStyleTableRecord
  2
KICAD
 70
0
 40
0
 41
1
 42
1
 50
0
 71
0
  3
isocp.shx
  0
STYLE
  5
C
330
A
100
AcDbSymbolTableRecord
100
AcDbTextStyleTableRecord
  2
KICADB
 70
0
 40
0
 41
1
 42
1
 50
0
 71
0
  3
isocp.shx
  0
STYLE
  5
D
330
A
100
AcDbSymbolTableRecord
100
AcDbTextStyleTableRecord
  2
KICADI
 70
0
 40
0
 41
1
 42
1
 50
15
 71
0
  3
isocp.shx
  0
STYLE
  5
E
330
A
100
AcDbSymbolTableRecord
100
AcDbTextStyleTableRecord
  2
KICADBI
 70
0
 40
0
 41
1
 42
1
 50
15
 71
0
  3
isocp.shx
  0
ENDTAB
  0
TABLE
  2
LAYER
  5
F
330
0
100
AcDbSymbolTable
 70
2
  0
LAYER
  5
12
330
F
100
AcDbSymbolTableRecord
100
AcDbLayerTableRecord
  2
0
 70
0
 62
7
  6
CONTINUOUS
390
10
  0
LAYER
  5
13
330
F
100
AcDbSymbolTableRecord
100
AcDbLayerTableRecord
  2
Edge.Cuts
 70
0
 62
254
420
13685453
  6
CONTINUOUS
390
10
  0
ENDTAB
  0
TABLE
  2
VPORT
  5
14
330
0
100
AcDbSymbolTable
 70
0
  0
ENDTAB
  0
TABLE
  2
VIEW
  5
15
330
0
100
AcDbSymbolTable
 70
0
  0
ENDTAB
  0
TABLE
  2
UCS
  5
16
330
0
100
AcDbSymbolTable
 70
0
  0
ENDTAB
  0
TABLE
  2
DIMSTYLE
  5
17
330
0
100
AcDbSymbolTable
 70
1
100
AcDbDimStyleTable
 71
0
  0
DIMSTYLE
105
18
330
17
100
AcDbSymbolTableRecord
100
AcDbDimStyleTableRecord
  2
Standard
 70
0
  0
ENDTAB
  0
TABLE
  2
BLOCK_RECORD
  5
19
330
0
100
AcDbSymbolTable
 70
3
  0
BLOCK_RECORD
  5
1A
330
19
100
AcDbSymbolTableRecord
100
AcDbBlockTableRecord
  2
*Model_Space
340
1D
 70
0
280
1
281
0
  0
BLOCK_RECORD
  5
1B
330
19
100
AcDbSymbolTableRecord
100
AcDbBlockTableRecord
  2
*Paper_Space
340
1E
 70
0
280
1
281
0
  0
BLOCK_RECORD
  5
1C
330
19
100
AcDbSymbolTableRecord
100
AcDbBlockTableRecord
  2
*Paper_Space0
340
1F
 70
0
280
1
281
0
  0
ENDTAB
  0
ENDSEC
  0
SECTION
  2
BLOCKS
  0
BLOCK
  5
23
330
1A
100
AcDbEntity
  8
0
100
AcDbBlockBegin
  2
*Model_Space
 70
0
 10
0.0
 20
0.0
 30
0.0
  3
*Model_Space
  1

  0
ENDBLK
  5
22
330
1A
100
AcDbEntity
  8
0
100
AcDbBlockEnd
  0
BLOCK
  5
25
330
1B
100
AcDbEntity
 67
1
  8
0
100
AcDbBlockBegin
  2
*Paper_Space
 70
0
 10
0.0
 20
0.0
 30
0.0
  3
*Paper_Space
  1

  0
ENDBLK
  5
24
330
1B
100
AcDbEntity
 67
1
  8
0
100
AcDbBlockEnd
  0
BLOCK
  5
27
330
1C
100
AcDbEntity
 67
1
  8
0
100
AcDbBlockBegin
  2
*Paper_Space0
 70
0
 10
0.0
 20
0.0
 30
0.0
  3
*Paper_Space0
  1

  0
ENDBLK
  5
26
330
1C
100
AcDbEntity
 67
1
  8
0
100
AcDbBlockEnd
  0
ENDSEC
  0
SECTION
  2
ENTITIES
  0
LINE
  5
28
330
1A
100
AcDbEntity
  8
Edge.Cuts
  6
CONTINUOUS
100
AcDbLine
 10
179.0095670000000041
 20
-64.976902999999993
 30
0
 11
179.0230969999999786
 21
-64.9904329999999959
 31
0
  0
LINE
  5
29
330
1A
100
AcDbEntity
  8
Edge.Cuts
  6
CONTINUOUS
100
AcDbLine
 10
179.0230969999999786
 20
-64.9904329999999959
 30
0
 11
179.0250000000000057
 21
-65.
 31
0
  0
LINE
  5
2A
330
1A
100
AcDbEntity
  8
Edge.Cuts
  6
CONTINUOUS
100
AcDbLine
 10
179.0250000000000057
 20
-65.
 30
0
 11
179.0250000000000057
 21
-147.5
 31
0
  0
LINE
  5
2B
330
1A
100
AcDbEntity
  8
Edge.Cuts
  6
CONTINUOUS
100
AcDbLine
 10
179.0250000000000057
 20
-147.5
 30
0
 11
179.0230969999999786
 21
-147.5095670000000041
 31
0
  0
LINE
  5
2C
330
1A
100
AcDbEntity
  8
Edge.Cuts
  6
CONTINUOUS
100
AcDbLine
 10
179.0230969999999786
 20
-147.5095670000000041
 30
0
 11
179.0095670000000041
 21
-147.523097000000007
 31
0
  0
LINE
  5
2D
330
1A
100
AcDbEntity
  8
Edge.Cuts
  6
CONTINUOUS
100
AcDbLine
 10
179.0095670000000041
 20
-147.523097000000007
 30
0
 11
179.
 21
-147.5250000000000057
 31
0
  0
LINE
  5
2E
330
1A
100
AcDbEntity
  8
Edge.Cuts
  6
CONTINUOUS
100
AcDbLine
 10
179.
 20
-147.5250000000000057
 30
0
 11
112.
 21
-147.5250000000000057
 31
0
  0
LINE
  5
2F
330
1A
100
AcDbEntity
  8
Edge.Cuts
  6
CONTINUOUS
100
AcDbLine
 10
112.
 20
-147.5250000000000057
 30
0
 11
111.9904329999999959
 21
-147.523097000000007
 31
0
  0
LINE
  5
30
330
1A
100
AcDbEntity
  8
Edge.Cuts
  6
CONTINUOUS
100
AcDbLine
 10
111.9904329999999959
 20
-147.523097000000007
 30
0
 11
111.976902999999993
 21
-147.5095670000000041
 31
0
  0
LINE
  5
31
330
1A
100
AcDbEntity
  8
Edge.Cuts
  6
CONTINUOUS
100
AcDbLine
 10
111.976902999999993
 20
-147.5095670000000041
 30
0
 11
111.9749999999999943
 21
-147.5
 31
0
  0
LINE
  5
32
330
1A
100
AcDbEntity
  8
Edge.Cuts
  6
CONTINUOUS
100
AcDbLine
 10
111.9749999999999943
 20
-147.5
 30
0
 11
111.9749999999999943
 21
-65.
 31
0
  0
LINE
  5
33
330
1A
100
AcDbEntity
  8
Edge.Cuts
  6
CONTINUOUS
100
AcDbLine
 10
111.9749999999999943
 20
-65.
 30
0
 11
111.976902999999993
 21
-64.9904329999999959
 31
0
  0
LINE
  5
34
330
1A
100
AcDbEntity
  8
Edge.Cuts
  6
CONTINUOUS
100
AcDbLine
 10
111.976902999999993
 20
-64.9904329999999959
 30
0
 11
111.9904329999999959
 21
-64.976902999999993
 31
0
  0
LINE
  5
35
330
1A
100
AcDbEntity
  8
Edge.Cuts
  6
CONTINUOUS
100
AcDbLine
 10
111.9904329999999959
 20
-64.976902999999993
 30
0
 11
112.
 21
-64.9749999999999943
 31
0
  0
LINE
  5
36
330
1A
100
AcDbEntity
  8
Edge.Cuts
  6
CONTINUOUS
100
AcDbLine
 10
112.
 20
-64.9749999999999943
 30
0
 11
179.
 21
-64.9749999999999943
 31
0
  0
LINE
  5
37
330
1A
100
AcDbEntity
  8
Edge.Cuts
  6
CONTINUOUS
100
AcDbLine
 10
179.
 20
-64.9749999999999943
 30
0
 11
179.0095670000000041
 21
-64.976902999999993
 31
0
  0
LINE
  5
38
330
1A
100
AcDbEntity
  8
Edge.Cuts
  6
CONTINUOUS
100
AcDbLine
 10
112.0249999999999915
 20
-65.0249999999999915
 30
0
 11
112.0249999999999915
 21
-147.4749999999999943
 31
0
  0
LINE
  5
39
330
1A
100
AcDbEntity
  8
Edge.Cuts
  6
CONTINUOUS
100
AcDbLine
 10
112.0249999999999915
 20
-147.4749999999999943
 30
0
 11
178.9749999999999943
 21
-147.4749999999999943
 31
0
  0
LINE
  5
3A
330
1A
100
AcDbEntity
  8
Edge.Cuts
  6
CONTINUOUS
100
AcDbLine
 10
178.9749999999999943
 20
-147.4749999999999943
 30
0
 11
178.9749999999999943
 21
-65.0249999999999915
 31
0
  0
LINE
  5
3B
330
1A
100
AcDbEntity
  8
Edge.Cuts
  6
CONTINUOUS
100
AcDbLine
 10
178.9749999999999943
 20
-65.0249999999999915
 30
0
 11
112.0249999999999915
 21
-65.0249999999999915
 31
0
  0
CIRCLE
  5
3C
330
1A
100
AcDbEntity
  8
Edge.Cuts
100
AcDbCircle
 10
168.125
 20
-137.4749999999999943
 30
0
 40
0.475
  0
CIRCLE
  5
3D
330
1A
100
AcDbEntity
  8
Edge.Cuts
100
AcDbCircle
 10
168.125
 20
-139.9749999999999943
 30
0
 40
0.475
  0
CIRCLE
  5
3E
330
1A
100
AcDbEntity
  8
Edge.Cuts
100
AcDbCircle
 10
168.125
 20
-142.4749999999999943
 30
0
 40
0.475
  0
POINT
  5
3F
330
1A
100
AcDbEntity
  8
Edge.Cuts
100
AcDbPoint
 10
155.3199999999999932
 20
-124.7299999999999898
 30
0
  0
POINT
  5
40
330
1A
100
AcDbEntity
  8
Edge.Cuts
100
AcDbPoint
 10
155.3199999999999932
 20
-122.1899999999999977
 30
0
  0
POINT
  5
41
330
1A
100
AcDbEntity
  8
Edge.Cuts
100
AcDbPoint
 10
155.3199999999999932
 20
-119.6499999999999915
 30
0
  0
CIRCLE
  5
42
330
1A
100
AcDbEntity
  8
Edge.Cuts
100
AcDbCircle
 10
140.0799999999999841
 20
-124.7299999999999898
 30
0
 40
0.5
  0
POINT
  5
43
330
1A
100
AcDbEntity
  8
Edge.Cuts
100
AcDbPoint
 10
155.3199999999999932
 20
-117.1099999999999994
 30
0
  0
POINT
  5
44
330
1A
100
AcDbEntity
  8
Edge.Cuts
100
AcDbPoint
 10
155.3199999999999932
 20
-114.5699999999999932
 30
0
  0
CIRCLE
  5
45
330
1A
100
AcDbEntity
  8
Edge.Cuts
100
AcDbCircle
 10
140.0799999999999841
 20
-129.8100000000000023
 30
0
 40
0.5
  0
POINT
  5
46
330
1A
100
AcDbEntity
  8
Edge.Cuts
100
AcDbPoint
 10
155.3199999999999932
 20
-112.0300000000000011
 30
0
  0
POINT
  5
47
330
1A
100
AcDbEntity
  8
Edge.Cuts
100
AcDbPoint
 10
155.3199999999999932
 20
-109.4899999999999949
 30
0
  0
POINT
  5
48
330
1A
100
AcDbEntity
  8
Edge.Cuts
100
AcDbPoint
 10
140.0799999999999841
 20
-109.4899999999999949
 30
0
  0
POINT
  5
49
330
1A
100
AcDbEntity
  8
Edge.Cuts
100
AcDbPoint
 10
140.0799999999999841
 20
-112.0300000000000011
 30
0
  0
POINT
  5
4A
330
1A
100
AcDbEntity
  8
Edge.Cuts
100
AcDbPoint
 10
140.0799999999999841
 20
-114.5699999999999932
 30
0
  0
POINT
  5
4B
330
1A
100
AcDbEntity
  8
Edge.Cuts
100
AcDbPoint
 10
140.0799999999999841
 20
-117.1099999999999994
 30
0
  0
POINT
  5
4C
330
1A
100
AcDbEntity
  8
Edge.Cuts
100
AcDbPoint
 10
140.0799999999999841
 20
-119.6499999999999915
 30
0
  0
POINT
  5
4D
330
1A
100
AcDbEntity
  8
Edge.Cuts
100
AcDbPoint
 10
140.0799999999999841
 20
-122.1499999999999915
 30
0
  0
CIRCLE
  5
4E
330
1A
100
AcDbEntity
  8
Edge.Cuts
100
AcDbCircle
 10
140.0799999999999841
 20
-127.269999999999996
 30
0
 40
0.5
  0
POINT
  5
4F
330
1A
100
AcDbEntity
  8
Edge.Cuts
100
AcDbPoint
 10
155.3199999999999932
 20
-127.269999999999996
 30
0
  0
POINT
  5
50
330
1A
100
AcDbEntity
  8
Edge.Cuts
100
AcDbPoint
 10
155.3199999999999932
 20
-129.8100000000000023
 30
0
  0
CIRCLE
  5
51
330
1A
100
AcDbEntity
  8
Edge.Cuts
100
AcDbCircle
 10
160.8400000000000034
 20
-113.5
 30
0
 40
0.5
  0
CIRCLE
  5
52
330
1A
100
AcDbEntity
  8
Edge.Cuts
100
AcDbCircle
 10
163.3799999999999955
 20
-113.5
 30
0
 40
0.5
  0
CIRCLE
  5
53
330
1A
100
AcDbEntity
  8
Edge.Cuts
100
AcDbCircle
 10
165.9199999999999875
 20
-113.5
 30
0
 40
0.5
  0
CIRCLE
  5
54
330
1A
100
AcDbEntity
  8
Edge.Cuts
100
AcDbCircle
 10
168.4599999999999795
 20
-113.5
 30
0
 40
0.5
  0
CIRCLE
  5
55
330
1A
100
AcDbEntity
  8
Edge.Cuts
100
AcDbCircle
 10
171.
 20
-113.5
 30
0
 40
0.5
  0
CIRCLE
  5
56
330
1A
100
AcDbEntity
  8
Edge.Cuts
100
AcDbCircle
 10
173.539999999999992
 20
-113.5
 30
0
 40
0.5
  0
CIRCLE
  5
57
330
1A
100
AcDbEntity
  8
Edge.Cuts
100
AcDbCircle
 10
176.0799999999999841
 20
-113.5
 30
0
 40
0.5
  0
CIRCLE
  5
58
330
1A
100
AcDbEntity
  8
Edge.Cuts
100
AcDbCircle
 10
126.5
 20
-139.
 30
0
 40
0.475
  0
CIRCLE
  5
59
330
1A
100
AcDbEntity
  8
Edge.Cuts
100
AcDbCircle
 10
124.
 20
-139.
 30
0
 40
0.475
  0
CIRCLE
  5
5A
330
1A
100
AcDbEntity
  8
Edge.Cuts
100
AcDbCircle
 10
121.5
 20
-139.
 30
0
 40
0.475
  0
CIRCLE
  5
5B
330
1A
100
AcDbEntity
  8
Edge.Cuts
100
AcDbCircle
 10
119.
 20
-139.
 30
0
 40
0.475
  0
CIRCLE
  5
5C
330
1A
100
AcDbEntity
  8
Edge.Cuts
100
AcDbCircle
 10
116.5
 20
-139.
 30
0
 40
0.475
  0
CIRCLE
  5
5D
330
1A
100
AcDbEntity
  8
Edge.Cuts
100
AcDbCircle
 10
133.
 20
-143.
 30
0
 40
0.475
  0
CIRCLE
  5
5E
330
1A
100
AcDbEntity
  8
Edge.Cuts
100
AcDbCircle
 10
133.
 20
-140.5
 30
0
 40
0.475
  0
CIRCLE
  5
5F
330
1A
100
AcDbEntity
  8
Edge.Cuts
100
AcDbCircle
 10
133.
 20
-138.
 30
0
 40
0.475
  0
CIRCLE
  5
60
330
1A
100
AcDbEntity
  8
Edge.Cuts
100
AcDbCircle
 10
130.5999999999999943
 20
-125.8499999999999943
 30
0
 40
0.5
  0
POINT
  5
61
330
1A
100
AcDbEntity
  8
Edge.Cuts
100
AcDbPoint
 10
130.5999999999999943
 20
-123.3099999999999881
 30
0
  0
POINT
  5
62
330
1A
100
AcDbEntity
  8
Edge.Cuts
100
AcDbPoint
 10
130.5999999999999943
 20
-120.769999999999996
 30
0
  0
POINT
  5
63
330
1A
100
AcDbEntity
  8
Edge.Cuts
100
AcDbPoint
 10
130.5999999999999943
 20
-118.2299999999999898
 30
0
  0
POINT
  5
64
330
1A
100
AcDbEntity
  8
Edge.Cuts
100
AcDbPoint
 10
130.5999999999999943
 20
-115.6899999999999977
 30
0
  0
CIRCLE
  5
65
330
1A
100
AcDbEntity
  8
Edge.Cuts
100
AcDbCircle
 10
130.5999999999999943
 20
-113.1499999999999915
 30
0
 40
0.5
  0
CIRCLE
  5
66
330
1A
100
AcDbEntity
  8
Edge.Cuts
100
AcDbCircle
 10
162.5
 20
-118.4200000000000017
 30
0
 40
0.5
  0
CIRCLE
  5
67
330
1A
100
AcDbEntity
  8
Edge.Cuts
100
AcDbCircle
 10
162.5
 20
-120.9599999999999937
 30
0
 40
0.5
  0
CIRCLE
  5
68
330
1A
100
AcDbEntity
  8
Edge.Cuts
100
AcDbCircle
 10
162.5
 20
-123.5
 30
0
 40
0.5
  0
CIRCLE
  5
69
330
1A
100
AcDbEntity
  8
Edge.Cuts
100
AcDbCircle
 10
162.5
 20
-126.039999999999992
 30
0
 40
0.5
  0
CIRCLE
  5
6A
330
1A
100
AcDbEntity
  8
Edge.Cuts
100
AcDbCircle
 10
162.5
 20
-128.5799999999999841
 30
0
 40
0.5
  0
CIRCLE
  5
6B
330
1A
100
AcDbEntity
  8
Edge.Cuts
100
AcDbCircle
 10
152.1200000000000045
 20
-142.5799999999999841
 30
0
 40
0.5
  0
CIRCLE
  5
6C
330
1A
100
AcDbEntity
  8
Edge.Cuts
100
AcDbCircle
 10
152.1200000000000045
 20
-140.039999999999992
 30
0
 40
0.5
  0
CIRCLE
  5
6D
330
1A
100
AcDbEntity
  8
Edge.Cuts
100
AcDbCircle
 10
152.1200000000000045
 20
-137.5
 30
0
 40
0.5
  0
CIRCLE
  5
6E
330
1A
100
AcDbEntity
  8
Edge.Cuts
100
AcDbCircle
 10
144.5
 20
-142.5799999999999841
 30
0
 40
0.5
  0
CIRCLE
  5
6F
330
1A
100
AcDbEntity
  8
Edge.Cuts
100
AcDbCircle
 10
144.5
 20
-140.039999999999992
 30
0
 40
0.5
  0
CIRCLE
  5
70
330
1A
100
AcDbEntity
  8
Edge.Cuts
100
AcDbCircle
 10
144.5
 20
-137.5
 30
0
 40
0.5
  0
CIRCLE
  5
71
330
1A
100
AcDbEntity
  8
Edge.Cuts
100
AcDbCircle
 10
168.125
 20
-137.4749999999999943
 30
0
 40
0.475
  0
CIRCLE
  5
72
330
1A
100
AcDbEntity
  8
Edge.Cuts
100
AcDbCircle
 10
168.125
 20
-139.9749999999999943
 30
0
 40
0.475
  0
CIRCLE
  5
73
330
1A
100
AcDbEntity
  8
Edge.Cuts
100
AcDbCircle
 10
168.125
 20
-142.4749999999999943
 30
0
 40
0.475
  0
POINT
  5
74
330
1A
100
AcDbEntity
  8
Edge.Cuts
100
AcDbPoint
 10
155.3199999999999932
 20
-124.7299999999999898
 30
0
  0
POINT
  5
75
330
1A
100
AcDbEntity
  8
Edge.Cuts
100
AcDbPoint
 10
155.3199999999999932
 20
-122.1899999999999977
 30
0
  0
POINT
  5
76
330
1A
100
AcDbEntity
  8
Edge.Cuts
100
AcDbPoint
 10
155.3199999999999932
 20
-119.6499999999999915
 30
0
  0
CIRCLE
  5
77
330
1A
100
AcDbEntity
  8
Edge.Cuts
100
AcDbCircle
 10
140.0799999999999841
 20
-124.7299999999999898
 30
0
 40
0.5
  0
POINT
  5
78
330
1A
100
AcDbEntity
  8
Edge.Cuts
100
AcDbPoint
 10
155.3199999999999932
 20
-117.1099999999999994
 30
0
  0
POINT
  5
79
330
1A
100
AcDbEntity
  8
Edge.Cuts
100
AcDbPoint
 10
155.3199999999999932
 20
-114.5699999999999932
 30
0
  0
CIRCLE
  5
7A
330
1A
100
AcDbEntity
  8
Edge.Cuts
100
AcDbCircle
 10
140.0799999999999841
 20
-129.8100000000000023
 30
0
 40
0.5
  0
POINT
  5
7B
330
1A
100
AcDbEntity
  8
Edge.Cuts
100
AcDbPoint
 10
155.3199999999999932
 20
-112.0300000000000011
 30
0
  0
POINT
  5
7C
330
1A
100
AcDbEntity
  8
Edge.Cuts
100
AcDbPoint
 10
155.3199999999999932
 20
-109.4899999999999949
 30
0
  0
POINT
  5
7D
330
1A
100
AcDbEntity
  8
Edge.Cuts
100
AcDbPoint
 10
140.0799999999999841
 20
-109.4899999999999949
 30
0
  0
POINT
  5
7E
330
1A
100
AcDbEntity
  8
Edge.Cuts
100
AcDbPoint
 10
140.0799999999999841
 20
-112.0300000000000011
 30
0
  0
POINT
  5
7F
330
1A
100
AcDbEntity
  8
Edge.Cuts
100
AcDbPoint
 10
140.0799999999999841
 20
-114.5699999999999932
 30
0
  0
POINT
  5
80
330
1A
100
AcDbEntity
  8
Edge.Cuts
100
AcDbPoint
 10
140.0799999999999841
 20
-117.1099999999999994
 30
0
  0
POINT
  5
81
330
1A
100
AcDbEntity
  8
Edge.Cuts
100
AcDbPoint
 10
140.0799999999999841
 20
-119.6499999999999915
 30
0
  0
POINT
  5
82
330
1A
100
AcDbEntity
  8
Edge.Cuts
100
AcDbPoint
 10
140.0799999999999841
 20
-122.1499999999999915
 30
0
  0
CIRCLE
  5
83
330
1A
100
AcDbEntity
  8
Edge.Cuts
100
AcDbCircle
 10
140.0799999999999841
 20
-127.269999999999996
 30
0
 40
0.5
  0
POINT
  5
84
330
1A
100
AcDbEntity
  8
Edge.Cuts
100
AcDbPoint
 10
155.3199999999999932
 20
-127.269999999999996
 30
0
  0
POINT
  5
85
330
1A
100
AcDbEntity
  8
Edge.Cuts
100
AcDbPoint
 10
155.3199999999999932
 20
-129.8100000000000023
 30
0
  0
CIRCLE
  5
86
330
1A
100
AcDbEntity
  8
Edge.Cuts
100
AcDbCircle
 10
160.8400000000000034
 20
-113.5
 30
0
 40
0.5
  0
CIRCLE
  5
87
330
1A
100
AcDbEntity
  8
Edge.Cuts
100
AcDbCircle
 10
163.3799999999999955
 20
-113.5
 30
0
 40
0.5
  0
CIRCLE
  5
88
330
1A
100
AcDbEntity
  8
Edge.Cuts
100
AcDbCircle
 10
165.9199999999999875
 20
-113.5
 30
0
 40
0.5
  0
CIRCLE
  5
89
330
1A
100
AcDbEntity
  8
Edge.Cuts
100
AcDbCircle
 10
168.4599999999999795
 20
-113.5
 30
0
 40
0.5
  0
CIRCLE
  5
8A
330
1A
100
AcDbEntity
  8
Edge.Cuts
100
AcDbCircle
 10
171.
 20
-113.5
 30
0
 40
0.5
  0
CIRCLE
  5
8B
330
1A
100
AcDbEntity
  8
Edge.Cuts
100
AcDbCircle
 10
173.539999999999992
 20
-113.5
 30
0
 40
0.5
  0
CIRCLE
  5
8C
330
1A
100
AcDbEntity
  8
Edge.Cuts
100
AcDbCircle
 10
176.0799999999999841
 20
-113.5
 30
0
 40
0.5
  0
CIRCLE
  5
8D
330
1A
100
AcDbEntity
  8
Edge.Cuts
100
AcDbCircle
 10
126.5
 20
-139.
 30
0
 40
0.475
  0
CIRCLE
  5
8E
330
1A
100
AcDbEntity
  8
Edge.Cuts
100
AcDbCircle
 10
124.
 20
-139.
 30
0
 40
0.475
  0
CIRCLE
  5
8F
330
1A
100
AcDbEntity
  8
Edge.Cuts
100
AcDbCircle
 10
121.5
 20
-139.
 30
0
 40
0.475
  0
CIRCLE
  5
90
330
1A
100
AcDbEntity
  8
Edge.Cuts
100
AcDbCircle
 10
119.
 20
-139.
 30
0
 40
0.475
  0
CIRCLE
  5
91
330
1A
100
AcDbEntity
  8
Edge.Cuts
100
AcDbCircle
 10
116.5
 20
-139.
 30
0
 40
0.475
  0
CIRCLE
  5
92
330
1A
100
AcDbEntity
  8
Edge.Cuts
100
AcDbCircle
 10
133.
 20
-143.
 30
0
 40
0.475
  0
CIRCLE
  5
93
330
1A
100
AcDbEntity
  8
Edge.Cuts
100
AcDbCircle
 10
133.
 20
-140.5
 30
0
 40
0.475
  0
CIRCLE
  5
94
330
1A
100
AcDbEntity
  8
Edge.Cuts
100
AcDbCircle
 10
133.
 20
-138.
 30
0
 40
0.475
  0
CIRCLE
  5
95
330
1A
100
AcDbEntity
  8
Edge.Cuts
100
AcDbCircle
 10
130.5999999999999943
 20
-125.8499999999999943
 30
0
 40
0.5
  0
POINT
  5
96
330
1A
100
AcDbEntity
  8
Edge.Cuts
100
AcDbPoint
 10
130.5999999999999943
 20
-123.3099999999999881
 30
0
  0
POINT
  5
97
330
1A
100
AcDbEntity
  8
Edge.Cuts
100
AcDbPoint
 10
130.5999999999999943
 20
-120.769999999999996
 30
0
  0
POINT
  5
98
330
1A
100
AcDbEntity
  8
Edge.Cuts
100
AcDbPoint
 10
130.5999999999999943
 20
-118.2299999999999898
 30
0
  0
POINT
  5
99
330
1A
100
AcDbEntity
  8
Edge.Cuts
100
AcDbPoint
 10
130.5999999999999943
 20
-115.6899999999999977
 30
0
  0
CIRCLE
  5
9A
330
1A
100
AcDbEntity
  8
Edge.Cuts
100
AcDbCircle
 10
130.5999999999999943
 20
-113.1499999999999915
 30
0
 40
0.5
  0
CIRCLE
  5
9B
330
1A
100
AcDbEntity
  8
Edge.Cuts
100
AcDbCircle
 10
162.5
 20
-118.4200000000000017
 30
0
 40
0.5
  0
CIRCLE
  5
9C
330
1A
100
AcDbEntity
  8
Edge.Cuts
100
AcDbCircle
 10
162.5
 20
-120.9599999999999937
 30
0
 40
0.5
  0
CIRCLE
  5
9D
330
1A
100
AcDbEntity
  8
Edge.Cuts
100
AcDbCircle
 10
162.5
 20
-123.5
 30
0
 40
0.5
  0
CIRCLE
  5
9E
330
1A
100
AcDbEntity
  8
Edge.Cuts
100
AcDbCircle
 10
162.5
 20
-126.039999999999992
 30
0
 40
0.5
  0
CIRCLE
  5
9F
330
1A
100
AcDbEntity
  8
Edge.Cuts
100
AcDbCircle
 10
162.5
 20
-128.5799999999999841
 30
0
 40
0.5
  0
CIRCLE
  5
A0
330
1A
100
AcDbEntity
  8
Edge.Cuts
100
AcDbCircle
 10
152.1200000000000045
 20
-142.5799999999999841
 30
0
 40
0.5
  0
CIRCLE
  5
A1
330
1A
100
AcDbEntity
  8
Edge.Cuts
100
AcDbCircle
 10
152.1200000000000045
 20
-140.039999999999992
 30
0
 40
0.5
  0
CIRCLE
  5
A2
330
1A
100
AcDbEntity
  8
Edge.Cuts
100
AcDbCircle
 10
152.1200000000000045
 20
-137.5
 30
0
 40
0.5
  0
CIRCLE
  5
A3
330
1A
100
AcDbEntity
  8
Edge.Cuts
100
AcDbCircle
 10
144.5
 20
-142.5799999999999841
 30
0
 40
0.5
  0
CIRCLE
  5
A4
330
1A
100
AcDbEntity
  8
Edge.Cuts
100
AcDbCircle
 10
144.5
 20
-140.039999999999992
 30
0
 40
0.5
  0
CIRCLE
  5
A5
330
1A
100
AcDbEntity
  8
Edge.Cuts
100
AcDbCircle
 10
144.5
 20
-137.5
 30
0
 40
0.5
  0
ENDSEC
  0
SECTION
  2
OBJECTS
  0
DICTIONARY
  5
20
330
0
100
AcDbDictionary
281
1
  3
ACAD_GROUP
350
A6
  3
ACAD_LAYOUT
350
21
  3
ACAD_PLOTSTYLENAME
350
11
  0
DICTIONARY
  5
A6
330
20
100
AcDbDictionary
281
1
  0
ACDBDICTIONARYWDFLT
  5
11
330
20
100
AcDbDictionary
281
1
  3
Normal
350
10
100
AcDbDictionaryWithDefault
340
10
  0
ACDBPLACEHOLDER
  5
10
330
11
  0
DICTIONARY
  5
21
330
20
100
AcDbDictionary
281
1
  3
Model
350
1D
  3
Layout1
350
1E
  3
Layout2
350
1F
  0
LAYOUT
  5
1D
330
21
100
AcDbPlotSettings
  1

  2
none_device
  4
A3
  6

 40
0.0
 41
0.0
 42
0.0
 43
0.0
 44
420.0
 45
297.0
 46
0.0
 47
0.0
 48
0.0
 49
0.0
140
0.0
141
0.0
142
1.0
143
1.0
 70
1024
 72
1
 73
0
 74
5
  7

 75
16
 76
0
 77
2
 78
300
147
1.0
148
0.0
149
0.0
100
AcDbLayout
  1
Model
 70
1
 71
0
 10
0.0
 20
0.0
 11
420.0
 21
297.0
 12
0.0
 22
0.0
 32
0.0
 14
1e+20
 24
1e+20
 34
1e+20
 15
-1e+20
 25
-1e+20
 35
-1e+20
146
0.0
 13
0.0
 23
0.0
 33
0.0
 16
1.0
 26
0.0
 36
0.0
 17
0.0
 27
1.0
 37
0.0
 76
0
330
1A
  0
LAYOUT
  5
1E
330
21
100
AcDbPlotSettings
  1

  2
none_device
  4
A3
  6

 40
0.0
 41
0.0
 42
0.0
 43
0.0
 44
420.0
 45
297.0
 46
0.0
 47
0.0
 48
0.0
 49
0.0
140
0.0
141
0.0
142
1.0
143
1.0
 70
0
 72
1
 73
0
 74
5
  7

 75
16
 76
0
 77
2
 78
300
147
1.0
148
0.0
149
0.0
100
AcDbLayout
  1
Layout1
 70
1
 71
1
 10
0.0
 20
0.0
 11
420.0
 21
297.0
 12
0.0
 22
0.0
 32
0.0
 14
1e+20
 24
1e+20
 34
1e+20
 15
-1e+20
 25
-1e+20
 35
-1e+20
146
0.0
 13
0.0
 23
0.0
 33
0.0
 16
1.0
 26
0.0
 36
0.0
 17
0.0
 27
1.0
 37
0.0
 76
0
330
1B
  0
LAYOUT
  5
1F
330
21
100
AcDbPlotSettings
  1

  2
none_device
  4
A3
  6

 40
0.0
 41
0.0
 42
0.0
 43
0.0
 44
420.0
 45
297.0
 46
0.0
 47
0.0
 48
0.0
 49
0.0
140
0.0
141
0.0
142
1.0
143
1.0
 70
0
 72
1
 73
0
 74
5
  7

 75
16
 76
0
 77
2
 78
300
147
1.0
148
0.0
149
0.0
100
AcDbLayout
  1
Layout2
 70
1
 71
2
 10
0.0
 20
0.0
 11
420.0
 21
297.0
 12
0.0
 22
0.0
 32
0.0
 14
1e+20
 24
1e+20
 34
1e+20
 15
-1e+20
 25
-1e+20
 35
-1e+20
146
0.0
 13
0.0
 23
0.0
 33
0.0
 16
1.0
 26
0.0
 36
0.0
 17
0.0
 27
1.0
 37
0.0
 76
0
330
1C
  0
ENDSEC
  0
EOF
